<?xml version="1.0" encoding="UTF-8"?> <svg xmlns="http://www.w3.org/2000/svg" width="39" height="30" viewBox="0 0 39 30" fill="none"><path d="M39 12.3215V13.393C39 14.2806 38.2725 15.0001 37.375 15.0001H36.8333L35.0653 27.2403C34.8366 28.8238 33.4653 30 31.848 30H7.15203C5.53468 30 4.16345 28.8238 3.93467 27.2403L2.16667 15.0001H1.625C0.727526 15.0001 0 14.2806 0 13.393V12.3215C0 11.4339 0.727526 10.7144 1.625 10.7144H6.18455L13.4144 0.882706C14.1183 -0.074341 15.4733 -0.286014 16.4411 0.410075C17.4088 1.10616 17.6228 2.44631 16.919 3.40343L11.5427 10.7144H27.4573L22.081 3.40336C21.3772 2.44631 21.5912 1.1061 22.559 0.410009C23.5266 -0.286081 24.8818 -0.0744749 25.5856 0.88264L32.8155 10.7144H37.375C38.2725 10.7144 39 11.4339 39 12.3215ZM21.125 24.1072V16.6072C21.125 15.7196 20.3975 15.0001 19.5 15.0001C18.6025 15.0001 17.875 15.7196 17.875 16.6072V24.1072C17.875 24.9948 18.6025 25.7143 19.5 25.7143C20.3975 25.7143 21.125 24.9948 21.125 24.1072ZM28.7083 24.1072V16.6072C28.7083 15.7196 27.9808 15.0001 27.0833 15.0001C26.1859 15.0001 25.4583 15.7196 25.4583 16.6072V24.1072C25.4583 24.9948 26.1859 25.7143 27.0833 25.7143C27.9808 25.7143 28.7083 24.9948 28.7083 24.1072ZM13.5417 24.1072V16.6072C13.5417 15.7196 12.8141 15.0001 11.9167 15.0001C11.0192 15.0001 10.2917 15.7196 10.2917 16.6072V24.1072C10.2917 24.9948 11.0192 25.7143 11.9167 25.7143C12.8141 25.7143 13.5417 24.9948 13.5417 24.1072Z" fill="#B0A333"></path></svg> 