<svg id="Layer_1" data-name="Layer 1" xmlns="http://www.w3.org/2000/svg" xmlns:xlink="http://www.w3.org/1999/xlink" width="17" height="16" viewBox="0 0 17 16"><defs><clipPath id="clip-path"><circle cx="-139.04" cy="37.02" r="11" style="fill:none"/></clipPath><clipPath id="clip-path-2"><path d="M-142.93,33.83l7.07,7.07a.5.5,0,0,0,.71,0,.5.5,0,0,0,0-.71l-7.07-7.07a.5.5,0,0,0-.71,0A.5.5,0,0,0-142.93,33.83Z" style="fill:none"/></clipPath><clipPath id="clip-path-3"><path d="M-135.15,33.83l-7.07,7.07a.5.5,0,0,1-.71,0,.5.5,0,0,1,0-.71l7.07-7.07a.5.5,0,0,1,.71,0A.5.5,0,0,1-135.15,33.83Z" style="fill:none"/></clipPath><clipPath id="clip-path-4"><path d="M-459.81,111l-.12.52a5.27,5.27,0,0,0-.63.07,5.17,5.17,0,0,0-.58.12.83.83,0,0,0-.47.31,1.46,1.46,0,0,0-.2.46l-1.87,8.1a.76.76,0,0,0,0,.13,1.15,1.15,0,0,0,0,.13.56.56,0,0,0,.08.3.63.63,0,0,0,.28.22,2.68,2.68,0,0,0,.52.13l.59.09-.12.52h-5l.12-.52.63,0a2.42,2.42,0,0,0,.58-.09,1,1,0,0,0,.46-.3,1,1,0,0,0,.21-.46l1.87-8.11a1.32,1.32,0,0,0,0-.14,1.27,1.27,0,0,0,0-.14.55.55,0,0,0-.07-.27.57.57,0,0,0-.28-.21,3.19,3.19,0,0,0-.57-.18,4.62,4.62,0,0,0-.54-.1l.12-.52Z" style="fill:#fff;clip-rule:evenodd"/></clipPath></defs><title>icons-set</title><path d="M12.08,12.31a3.05,3.05,0,0,0,3-3V3.14a3.05,3.05,0,0,0-3-3H4.92a3,3,0,0,0-3,3.12V9.28a3.05,3.05,0,0,0,3,3H7.49v1.56H3.37a1,1,0,1,0,0,2H14a1,1,0,1,0,0-2H9.51V12.31ZM3.92,9.37V3.23a1,1,0,0,1,1-1h7.15a1,1,0,0,1,1,1V9.37a1,1,0,0,1-1,1H4.92A1,1,0,0,1,3.92,9.37Z" style="fill:#fff"/><path d="M-459.81,111l-.12.52a5.27,5.27,0,0,0-.63.07,5.17,5.17,0,0,0-.58.12.83.83,0,0,0-.47.31,1.46,1.46,0,0,0-.2.46l-1.87,8.1a.76.76,0,0,0,0,.13,1.15,1.15,0,0,0,0,.13.56.56,0,0,0,.08.3.63.63,0,0,0,.28.22,2.68,2.68,0,0,0,.52.13l.59.09-.12.52h-5l.12-.52.63,0a2.42,2.42,0,0,0,.58-.09,1,1,0,0,0,.46-.3,1,1,0,0,0,.21-.46l1.87-8.11a1.32,1.32,0,0,0,0-.14,1.27,1.27,0,0,0,0-.14.55.55,0,0,0-.07-.27.57.57,0,0,0-.28-.21,3.19,3.19,0,0,0-.57-.18,4.62,4.62,0,0,0-.54-.1l.12-.52Z" style="fill:#fff;fill-rule:evenodd"/><g style="clip-path:url(#clip-path-4)"><rect x="-517.01" y="-1068.96" width="519" height="1315" style="fill:#fff"/></g></svg>