<svg id="Layer_1" data-name="Layer 1" xmlns="http://www.w3.org/2000/svg" xmlns:xlink="http://www.w3.org/1999/xlink" width="17" height="16" viewBox="0 0 17 16"><defs><clipPath id="clip-path"><circle cx="-190.81" cy="37.02" r="11" style="fill:none"/></clipPath><clipPath id="clip-path-2"><path d="M-194.7,33.83l7.07,7.07a.5.5,0,0,0,.71,0,.5.5,0,0,0,0-.71L-194,33.13a.5.5,0,0,0-.71,0A.5.5,0,0,0-194.7,33.83Z" style="fill:none"/></clipPath><clipPath id="clip-path-3"><path d="M-186.92,33.83-194,40.91a.5.5,0,0,1-.71,0,.5.5,0,0,1,0-.71l7.07-7.07a.5.5,0,0,1,.71,0A.5.5,0,0,1-186.92,33.83Z" style="fill:none"/></clipPath></defs><title>icons-set</title><path d="M12.4.2H4.6A1.74,1.74,0,0,0,2.86,1.93V14.07A1.74,1.74,0,0,0,4.6,15.8h7.8a1.74,1.74,0,0,0,1.73-1.73V1.93A1.74,1.74,0,0,0,12.4.2Zm0,1.73V2.8H4.6V1.93Zm0,2.6v6.94H4.6V4.53ZM4.6,14.07V13.2h7.8v.87Z" style="fill:#fff"/></svg>