<svg id="Layer_1" data-name="Layer 1" xmlns="http://www.w3.org/2000/svg" xmlns:xlink="http://www.w3.org/1999/xlink" width="17" height="16" viewBox="0 0 17 16"><defs><clipPath id="clip-path"><circle cx="-216.24" cy="37.02" r="11" style="fill:none"/></clipPath><clipPath id="clip-path-2"><path d="M-220.13,33.83l7.07,7.07a.5.5,0,0,0,.71,0,.5.5,0,0,0,0-.71l-7.07-7.07a.5.5,0,0,0-.71,0A.5.5,0,0,0-220.13,33.83Z" style="fill:none"/></clipPath><clipPath id="clip-path-3"><path d="M-212.35,33.83l-7.07,7.07a.5.5,0,0,1-.71,0,.5.5,0,0,1,0-.71l7.07-7.07a.5.5,0,0,1,.71,0A.5.5,0,0,1-212.35,33.83Z" style="fill:none"/></clipPath></defs><title>icons-set</title><path d="M11.21.33H5.79A2.66,2.66,0,0,0,3.08,3V13a2.66,2.66,0,0,0,2.71,2.71h5.42A2.66,2.66,0,0,0,13.92,13V3A2.66,2.66,0,0,0,11.21.33ZM5.79,2.13h5.42a.85.85,0,0,1,.9.9H4.89A.85.85,0,0,1,5.79,2.13ZM12.11,13a.85.85,0,0,1-.9.9H5.79a.85.85,0,0,1-.9-.9V11.16h7.22Zm0-3.61H4.89V4.84h7.22Z" style="fill:#fff"/><path d="M8.5,13.56a.9.9,0,0,0,0-1.81.9.9,0,0,0,0,1.81Z" style="fill:#fff"/></svg>