<svg id="Layer_1" data-name="Layer 1" xmlns="http://www.w3.org/2000/svg" xmlns:xlink="http://www.w3.org/1999/xlink" width="17" height="16" viewBox="0 0 17 16"><defs><clipPath id="clip-path"><circle cx="-165.2" cy="37.02" r="11" style="fill:none"/></clipPath><clipPath id="clip-path-2"><path d="M-169.09,33.83l7.07,7.07a.5.5,0,0,0,.71,0,.5.5,0,0,0,0-.71l-7.07-7.07a.5.5,0,0,0-.71,0A.5.5,0,0,0-169.09,33.83Z" style="fill:none"/></clipPath><clipPath id="clip-path-3"><path d="M-161.31,33.83l-7.07,7.07a.5.5,0,0,1-.71,0,.5.5,0,0,1,0-.71l7.07-7.07a.5.5,0,0,1,.71,0A.5.5,0,0,1-161.31,33.83Z" style="fill:none"/></clipPath></defs><title>icons-set</title><path d="M13.31.12H3.69A1.76,1.76,0,0,0,1.94,1.87V14.13a1.76,1.76,0,0,0,1.75,1.75h9.63a1.76,1.76,0,0,0,1.75-1.75V1.87A1.76,1.76,0,0,0,13.31.12Zm0,1.75v.88H3.69V1.87Zm0,2.63v7H3.69v-7ZM3.69,14.13v-.88h9.63v.88Z" style="fill:#fff"/></svg>