<svg id="Layer_1" data-name="Layer 1" xmlns="http://www.w3.org/2000/svg" xmlns:xlink="http://www.w3.org/1999/xlink" width="70" height="38.62" viewBox="0 0 70 38.62"><defs><clipPath id="clip-path"><path d="M14.77-93.43h9.87A2.47,2.47,0,0,1,27.1-91a2.47,2.47,0,0,1-2.47,2.47H14.77A2.47,2.47,0,0,1,12.3-91,2.47,2.47,0,0,1,14.77-93.43Z" style="fill:#4e555b;clip-rule:evenodd"/></clipPath><clipPath id="clip-path-2"><path d="M31.55-93.43H50.3A2.47,2.47,0,0,1,52.77-91,2.47,2.47,0,0,1,50.3-88.5H31.55A2.47,2.47,0,0,1,29.08-91,2.47,2.47,0,0,1,31.55-93.43Z" style="fill:#4e555b;clip-rule:evenodd"/></clipPath><clipPath id="clip-path-3"><rect x="12.3" y="-110.21" width="19.54" height="12.83" rx="3.95" ry="3.95" style="fill:#4e555b"/></clipPath><clipPath id="clip-path-4"><path d="M37.47-109.23h6.91a2.47,2.47,0,0,1,2.47,2.47,2.47,2.47,0,0,1-2.47,2.47H37.47A2.47,2.47,0,0,1,35-106.76,2.47,2.47,0,0,1,37.47-109.23Z" style="fill:#4e555b;clip-rule:evenodd"/></clipPath><clipPath id="clip-path-5"><path d="M49.31-101.33h5.92a2.47,2.47,0,0,1,2.47,2.47,2.47,2.47,0,0,1-2.47,2.47H49.31a2.47,2.47,0,0,1-2.47-2.47A2.47,2.47,0,0,1,49.31-101.33Z" style="fill:#4e555b;clip-rule:evenodd"/></clipPath><clipPath id="clip-path-6"><path d="M37.47-101.33H42.4a2.47,2.47,0,0,1,2.47,2.47A2.47,2.47,0,0,1,42.4-96.4H37.47A2.47,2.47,0,0,1,35-98.86,2.47,2.47,0,0,1,37.47-101.33Z" style="fill:#4e555b;clip-rule:evenodd"/></clipPath><clipPath id="clip-path-7"><path d="M102.43-93.43h9.87A2.47,2.47,0,0,1,114.77-91a2.47,2.47,0,0,1-2.47,2.47h-9.87A2.47,2.47,0,0,1,100-91,2.47,2.47,0,0,1,102.43-93.43Z" style="fill:#577e9c;clip-rule:evenodd"/></clipPath><clipPath id="clip-path-8"><path d="M119.21-93.43H138A2.47,2.47,0,0,1,140.43-91,2.47,2.47,0,0,1,138-88.5H119.21A2.47,2.47,0,0,1,116.74-91,2.47,2.47,0,0,1,119.21-93.43Z" style="fill:#577e9c;clip-rule:evenodd"/></clipPath><clipPath id="clip-path-9"><rect x="99.96" y="-110.21" width="19.54" height="12.83" rx="3.95" ry="3.95" style="fill:#577e9c"/></clipPath><clipPath id="clip-path-10"><path d="M125.13-109.23H132a2.47,2.47,0,0,1,2.47,2.47,2.47,2.47,0,0,1-2.47,2.47h-6.91a2.47,2.47,0,0,1-2.47-2.47A2.47,2.47,0,0,1,125.13-109.23Z" style="fill:#577e9c;clip-rule:evenodd"/></clipPath><clipPath id="clip-path-11"><path d="M137-101.33h5.92a2.47,2.47,0,0,1,2.47,2.47,2.47,2.47,0,0,1-2.47,2.47H137a2.47,2.47,0,0,1-2.47-2.47A2.47,2.47,0,0,1,137-101.33Z" style="fill:#577e9c;clip-rule:evenodd"/></clipPath><clipPath id="clip-path-12"><path d="M125.13-101.33h4.94a2.47,2.47,0,0,1,2.47,2.47,2.47,2.47,0,0,1-2.47,2.47h-4.94a2.47,2.47,0,0,1-2.47-2.47A2.47,2.47,0,0,1,125.13-101.33Z" style="fill:#577e9c;clip-rule:evenodd"/></clipPath><clipPath id="clip-path-13"><path d="M21-44a4.13,4.13,0,0,1,4.12-4.13H44.69A4.12,4.12,0,0,1,48.81-44v11.33a4.13,4.13,0,0,1-4.12,4.13H25.09A4.12,4.12,0,0,1,21-32.69Z" style="fill:#4e555b;clip-rule:evenodd"/></clipPath><clipPath id="clip-path-14"><path d="M108.63-44a4.13,4.13,0,0,1,4.12-4.13h19.59A4.12,4.12,0,0,1,136.48-44v11.33a4.13,4.13,0,0,1-4.12,4.13H112.76a4.12,4.12,0,0,1-4.12-4.13Z" style="fill:#577f9c;clip-rule:evenodd"/></clipPath><clipPath id="clip-path-15"><circle cx="52.76" cy="75.31" r="7.1" style="fill:#464d54"/></clipPath><clipPath id="clip-path-16"><path d="M39.44,73.38a3.39,3.39,0,0,1-.94.25,1.6,1.6,0,0,0,.72-.87,3.36,3.36,0,0,1-1,.38A1.67,1.67,0,0,0,37,72.65a1.61,1.61,0,0,0-1.64,1.57,1.56,1.56,0,0,0,0,.36A4.73,4.73,0,0,1,32,72.93a1.51,1.51,0,0,0-.22.79,1.55,1.55,0,0,0,.73,1.3,1.67,1.67,0,0,1-.74-.2v0a1.59,1.59,0,0,0,1.31,1.54,1.76,1.76,0,0,1-.43.05l-.31,0a1.64,1.64,0,0,0,1.53,1.09,3.39,3.39,0,0,1-2,.67l-.39,0a4.79,4.79,0,0,0,2.51.7,4.53,4.53,0,0,0,4.66-4.46v-.2A3.23,3.23,0,0,0,39.44,73.38Z" style="fill:#60666b;clip-rule:evenodd"/></clipPath><clipPath id="clip-path-17"><circle cx="55.86" cy="75.75" r="1.33" style="fill:#60666b"/></clipPath><clipPath id="clip-path-18"><circle cx="50.54" cy="78.42" r="1.33" style="fill:#60666b"/></clipPath><clipPath id="clip-path-19"><path d="M50.8,73.94a.44.44,0,0,1,.37-.81l5,2.27a.44.44,0,0,1,0,.79L51,79a.44.44,0,0,1-.43-.78L55,75.84Z" style="fill:#60666b"/></clipPath><clipPath id="clip-path-20"><circle cx="140.42" cy="75.31" r="7.1" style="fill:#577f9c"/></clipPath><clipPath id="clip-path-21"><path d="M127.11,73.38a3.39,3.39,0,0,1-.94.25,1.6,1.6,0,0,0,.72-.87,3.36,3.36,0,0,1-1,.38,1.67,1.67,0,0,0-1.19-.49A1.61,1.61,0,0,0,123,74.22a1.56,1.56,0,0,0,0,.36,4.73,4.73,0,0,1-3.38-1.64,1.51,1.51,0,0,0-.22.79,1.55,1.55,0,0,0,.73,1.3,1.67,1.67,0,0,1-.74-.2v0a1.59,1.59,0,0,0,1.31,1.54,1.76,1.76,0,0,1-.43.05l-.31,0a1.64,1.64,0,0,0,1.53,1.09,3.39,3.39,0,0,1-2,.67l-.39,0a4.79,4.79,0,0,0,2.51.7,4.53,4.53,0,0,0,4.66-4.46v-.2A3.23,3.23,0,0,0,127.11,73.38Z" style="fill:#6a9ab7;clip-rule:evenodd"/></clipPath><clipPath id="clip-path-22"><circle cx="143.53" cy="75.75" r="1.33" style="fill:#6a9ab7"/></clipPath><clipPath id="clip-path-23"><circle cx="138.2" cy="78.42" r="1.33" style="fill:#6a9ab7"/></clipPath><clipPath id="clip-path-24"><path d="M138.46,73.94a.44.44,0,0,1,.37-.81l5,2.27a.44.44,0,0,1,0,.79L138.62,79a.44.44,0,0,1-.43-.78l4.44-2.42Z" style="fill:#6a9ab7"/></clipPath><clipPath id="clip-path-25"><rect x="10.14" y="176.58" width="49.72" height="12.43" rx="4.14" ry="4.14" style="fill:#464d54"/></clipPath><clipPath id="clip-path-26"><rect x="12.68" y="178.65" width="16.57" height="8.29" rx="3.11" ry="3.11" style="fill:#3a4249"/></clipPath><clipPath id="clip-path-27"><path d="M34,178.65H44.84a1.55,1.55,0,0,1,0,3.11H34a1.55,1.55,0,0,1,0-3.11Z" style="fill:#585f65;clip-rule:evenodd"/></clipPath><clipPath id="clip-path-28"><path d="M44.74,183.83h6.32a1.55,1.55,0,1,1,0,3.11H44.74a1.55,1.55,0,1,1,0-3.11Z" style="fill:#585f65;clip-rule:evenodd"/></clipPath><clipPath id="clip-path-29"><path d="M34,183.83h6.32a1.55,1.55,0,1,1,0,3.11H34a1.55,1.55,0,1,1,0-3.11Z" style="fill:#585f65;clip-rule:evenodd"/></clipPath><clipPath id="clip-path-30"><rect x="10.14" y="190.28" width="49.72" height="12.43" rx="4.14" ry="4.14" style="fill:#464d54"/></clipPath><clipPath id="clip-path-31"><rect x="12.68" y="192.35" width="16.57" height="8.29" rx="3.11" ry="3.11" style="fill:#3a4249"/></clipPath><clipPath id="clip-path-32"><path d="M34,192.35H44.84a1.55,1.55,0,1,1,0,3.11H34a1.55,1.55,0,1,1,0-3.11Z" style="fill:#585f65;clip-rule:evenodd"/></clipPath><clipPath id="clip-path-33"><path d="M44.74,197.53h6.32a1.55,1.55,0,0,1,0,3.11H44.74a1.55,1.55,0,1,1,0-3.11Z" style="fill:#585f65;clip-rule:evenodd"/></clipPath><clipPath id="clip-path-34"><path d="M34,197.53h6.32a1.55,1.55,0,0,1,0,3.11H34a1.55,1.55,0,0,1,0-3.11Z" style="fill:#585f65;clip-rule:evenodd"/></clipPath><clipPath id="clip-path-35"><rect x="97.81" y="176.58" width="49.72" height="12.43" rx="4.14" ry="4.14" style="fill:#577f9c"/></clipPath><clipPath id="clip-path-36"><rect x="100.35" y="178.65" width="16.57" height="8.29" rx="3.11" ry="3.11" style="fill:#6a9ab7"/></clipPath><clipPath id="clip-path-37"><path d="M121.63,178.65h10.88a1.55,1.55,0,0,1,0,3.11H121.63a1.55,1.55,0,0,1,0-3.11Z" style="fill:#6a9ab7;clip-rule:evenodd"/></clipPath><clipPath id="clip-path-38"><path d="M132.4,183.83h6.32a1.55,1.55,0,0,1,0,3.11H132.4a1.55,1.55,0,1,1,0-3.11Z" style="fill:#6a9ab7;clip-rule:evenodd"/></clipPath><clipPath id="clip-path-39"><path d="M121.63,183.83h6.32a1.55,1.55,0,0,1,0,3.11h-6.32a1.55,1.55,0,0,1,0-3.11Z" style="fill:#6a9ab7;clip-rule:evenodd"/></clipPath><clipPath id="clip-path-40"><rect x="97.81" y="190.28" width="49.72" height="12.43" rx="4.14" ry="4.14" style="fill:#577f9c"/></clipPath><clipPath id="clip-path-41"><rect x="100.35" y="192.35" width="16.57" height="8.29" rx="3.11" ry="3.11" style="fill:#6a9ab7"/></clipPath><clipPath id="clip-path-42"><path d="M121.63,192.35h10.88a1.55,1.55,0,1,1,0,3.11H121.63a1.55,1.55,0,0,1,0-3.11Z" style="fill:#6a9ab7;clip-rule:evenodd"/></clipPath><clipPath id="clip-path-43"><path d="M132.4,197.53h6.32a1.55,1.55,0,1,1,0,3.11H132.4a1.55,1.55,0,1,1,0-3.11Z" style="fill:#6a9ab7;clip-rule:evenodd"/></clipPath><clipPath id="clip-path-44"><path d="M121.63,197.53h6.32a1.55,1.55,0,0,1,0,3.11h-6.32a1.55,1.55,0,1,1,0-3.11Z" style="fill:#6a9ab7;clip-rule:evenodd"/></clipPath><clipPath id="clip-path-45"><path d="M211-106.85h1.49c1.44,0,2.18-.5,2.18-1.58s-.72-1.44-2.18-1.44H211Zm0-5h1.24c1.3,0,1.85-.54,1.85-1.39s-.59-1.26-1.84-1.26H211Zm-2.65,7v-11.74h4c2.43,0,4.32.67,4.32,2.92a2.72,2.72,0,0,1-1.53,2.54v.07a2.66,2.66,0,0,1,2.11,2.75c0,2.39-2,3.46-4.55,3.46Z" style="fill:#fff;clip-rule:evenodd"/></clipPath><clipPath id="clip-path-46"><path d="M233.8-109.13l1.38-1.38a2.76,2.76,0,0,1,3.91,0l.16.16a2.76,2.76,0,0,1,0,3.91l-1.38,1.38a2.76,2.76,0,0,1-3.91,0l-.16-.16A2.76,2.76,0,0,1,233.8-109.13Zm1,1a1.38,1.38,0,0,0,0,2l.16.16a1.38,1.38,0,0,0,2,0l1.38-1.38a1.38,1.38,0,0,0,0-2l-.16-.16a1.38,1.38,0,0,0-2,0Z" style="fill:#fff"/></clipPath><clipPath id="clip-path-47"><path d="M239.57-114.9l1.38-1.38a2.76,2.76,0,0,1,3.91,0l.16.16a2.76,2.76,0,0,1,0,3.91l-1.38,1.38a2.76,2.76,0,0,1-3.91,0l-.16-.16A2.76,2.76,0,0,1,239.57-114.9Zm1,1a1.38,1.38,0,0,0,0,2l.16.16a1.38,1.38,0,0,0,2,0l1.38-1.38a1.38,1.38,0,0,0,0-2l-.16-.16a1.38,1.38,0,0,0-2,0Z" style="fill:#fff"/></clipPath><clipPath id="clip-path-48"><path d="M237.5-107.77a.69.69,0,0,1-1,0,.69.69,0,0,1,0-1l5.05-5.05a.69.69,0,0,1,1,0,.69.69,0,0,1,0,1Z" style="fill:#fff"/></clipPath><clipPath id="clip-path-49"><path d="M260-108.32a.74.74,0,0,1-1,0,.74.74,0,0,1,0-1c3.15-3.35,5.88-4.93,8.24-4.62s3.79,1.33,4.08,3.06a.74.74,0,0,1-.6.85.74.74,0,0,1-.85-.6c-.17-1-1-1.62-2.82-1.85S262.9-111.36,260-108.32Z" style="fill:#fff"/></clipPath><clipPath id="clip-path-50"><path d="M260.24-109.34l2.37.54a.74.74,0,0,1,.56.88.74.74,0,0,1-.88.56l-2.95-.67a.74.74,0,0,1-.57-.72v-4.49a.74.74,0,0,1,.74-.74.74.74,0,0,1,.74.74Z" style="fill:#fff"/></clipPath><clipPath id="clip-path-51"><path d="M292.43-108.32a.74.74,0,0,0,1,0,.74.74,0,0,0,0-1c-3.15-3.35-5.88-4.93-8.24-4.62s-3.79,1.33-4.08,3.06a.74.74,0,0,0,.6.85.74.74,0,0,0,.85-.6c.17-1,1-1.62,2.82-1.85S289.58-111.36,292.43-108.32Z" style="fill:#fff"/></clipPath><clipPath id="clip-path-52"><path d="M292.23-109.34l-2.37.54a.74.74,0,0,0-.56.88.74.74,0,0,0,.88.56l2.95-.67a.74.74,0,0,0,.57-.72v-4.49A.74.74,0,0,0,293-114a.74.74,0,0,0-.74.74Z" style="fill:#fff"/></clipPath><clipPath id="clip-path-53"><path d="M228.59-75.21a5.16,5.16,0,0,0-2-2,10.35,10.35,0,0,0-2.95-1.09,17.74,17.74,0,0,0-3.69-.35,7.43,7.43,0,0,0-2.81.53,6.76,6.76,0,0,0-2.13,1.3,7.12,7.12,0,0,0-1.3,1.59,2.73,2.73,0,0,0-.44,1.31,2.89,2.89,0,0,0,.59,1.91,2,2,0,0,0,1.67.68,4.38,4.38,0,0,1,2.21.43,1.81,1.81,0,0,1,.83,1.67,2.44,2.44,0,0,0,.77,1.85,2.68,2.68,0,0,0,1.94.74,9.26,9.26,0,0,0,6-1.68,4.9,4.9,0,0,0,2-3.9A6,6,0,0,0,228.59-75.21Zm.7-.4a6.79,6.79,0,0,1,.82,3.42,5.69,5.69,0,0,1-2.32,4.52,10,10,0,0,1-6.49,1.86,3.48,3.48,0,0,1-2.5-1,3.24,3.24,0,0,1-1-2.42,1,1,0,0,0-.44-1,3.72,3.72,0,0,0-1.79-.32,2.83,2.83,0,0,1-2.29-1,3.67,3.67,0,0,1-.78-2.42,3.48,3.48,0,0,1,.55-1.71,7.9,7.9,0,0,1,1.44-1.77,7.54,7.54,0,0,1,2.38-1.46,8.23,8.23,0,0,1,3.11-.59,18.53,18.53,0,0,1,3.86.37A11.15,11.15,0,0,1,227-77.88,6,6,0,0,1,229.28-75.61Z" style="fill:#fff"/></clipPath><clipPath id="clip-path-54"><path d="M215.69-72.21a1.56,1.56,0,0,1-1.13-.47,1.56,1.56,0,0,1-.47-1.13,1.56,1.56,0,0,1,.47-1.13,1.56,1.56,0,0,1,1.13-.47,1.56,1.56,0,0,1,1.13.47,1.56,1.56,0,0,1,.47,1.13,1.56,1.56,0,0,1-.47,1.13A1.56,1.56,0,0,1,215.69-72.21Zm.57-1a.76.76,0,0,0,.23-.57.76.76,0,0,0-.23-.57.76.76,0,0,0-.57-.23.76.76,0,0,0-.57.23.76.76,0,0,0-.23.57.76.76,0,0,0,.23.57.76.76,0,0,0,.57.23A.76.76,0,0,0,216.25-73.25Z" style="fill:#fff"/></clipPath><clipPath id="clip-path-55"><path d="M218.87-74.62a1.52,1.52,0,0,1-1.13-.47,1.58,1.58,0,0,1-.45-1.13,1.58,1.58,0,0,1,.45-1.13,1.52,1.52,0,0,1,1.13-.47,1.59,1.59,0,0,1,1.14.47,1.55,1.55,0,0,1,.48,1.14,1.55,1.55,0,0,1-.48,1.14A1.59,1.59,0,0,1,218.87-74.62Zm0-.8a.79.79,0,0,0,.58-.24.75.75,0,0,0,.24-.56.75.75,0,0,0-.24-.56.79.79,0,0,0-.58-.24.72.72,0,0,0-.56.23.78.78,0,0,0-.23.57.78.78,0,0,0,.23.57A.72.72,0,0,0,218.87-75.42Z" style="fill:#fff"/></clipPath><clipPath id="clip-path-56"><path d="M222.42-67.88a1.56,1.56,0,0,1-1.13.47,1.56,1.56,0,0,1-1.13-.47,1.56,1.56,0,0,1-.47-1.13,1.56,1.56,0,0,1,.47-1.13,1.56,1.56,0,0,1,1.13-.47,1.56,1.56,0,0,1,1.13.47A1.56,1.56,0,0,1,222.9-69,1.56,1.56,0,0,1,222.42-67.88ZM222.09-69a.76.76,0,0,0-.24-.56.76.76,0,0,0-.56-.24.76.76,0,0,0-.56.24.76.76,0,0,0-.24.56.76.76,0,0,0,.24.56.76.76,0,0,0,.56.24.76.76,0,0,0,.56-.24A.76.76,0,0,0,222.09-69Z" style="fill:#fff"/></clipPath><clipPath id="clip-path-57"><path d="M222.9-74.62a1.56,1.56,0,0,1-1.13-.47,1.56,1.56,0,0,1-.47-1.13,1.56,1.56,0,0,1,.47-1.13,1.56,1.56,0,0,1,1.13-.47,1.56,1.56,0,0,1,1.13.47,1.56,1.56,0,0,1,.47,1.13,1.56,1.56,0,0,1-.47,1.13A1.56,1.56,0,0,1,222.9-74.62Zm.57-1a.76.76,0,0,0,.23-.57.76.76,0,0,0-.23-.57.76.76,0,0,0-.57-.23.76.76,0,0,0-.57.23.76.76,0,0,0-.23.57.76.76,0,0,0,.23.57.76.76,0,0,0,.57.23A.76.76,0,0,0,223.46-75.65Z" style="fill:#fff"/></clipPath><clipPath id="clip-path-58"><path d="M227.23-73.48a1.56,1.56,0,0,1-1.13.47,1.56,1.56,0,0,1-1.13-.47,1.56,1.56,0,0,1-.47-1.13,1.56,1.56,0,0,1,.47-1.13,1.56,1.56,0,0,1,1.13-.47,1.56,1.56,0,0,1,1.13.47,1.56,1.56,0,0,1,.47,1.13A1.56,1.56,0,0,1,227.23-73.48Zm-.33-1.13a.76.76,0,0,0-.23-.57.76.76,0,0,0-.57-.23.76.76,0,0,0-.57.23.76.76,0,0,0-.23.57.76.76,0,0,0,.23.57.76.76,0,0,0,.57.23.76.76,0,0,0,.57-.23A.76.76,0,0,0,226.9-74.62Z" style="fill:#fff"/></clipPath><clipPath id="clip-path-59"><path d="M216-67.59l-.13-1-2.77.4v.47Zm-3.7.58v-1.92l4.27-.61.35,2.8Z" style="fill:#fff"/></clipPath><clipPath id="clip-path-60"><path d="M209.45-67.88l.62.31a5.86,5.86,0,0,0,.8.3c.68.2,1.06.12,1.19-.23.41-1.07-.59-2-2.3-1.66a3.34,3.34,0,0,0-2,1A3.43,3.43,0,0,1,209.45-67.88Zm.15-2.06c2.28-.48,3.86,1,3.21,2.73-.32.85-1.13,1-2.16.71a6.63,6.63,0,0,1-.91-.34l-.66-.32a3.44,3.44,0,0,0-1.91-.17.4.4,0,0,1-.43-.5C207-68.92,208-69.61,209.59-69.94Z" style="fill:#fff"/></clipPath><clipPath id="clip-path-61"><path d="M258.56-70.54a2,2,0,0,1-2,2,2,2,0,0,1-2-2,2,2,0,0,1,2-2A2,2,0,0,1,258.56-70.54Zm-.64,0a1.4,1.4,0,0,0-1.4-1.4,1.4,1.4,0,0,0-1.4,1.4,1.4,1.4,0,0,0,1.4,1.4A1.4,1.4,0,0,0,257.92-70.54Zm2.81-.64h-.46a.7.7,0,0,1-.62-.46,3.21,3.21,0,0,0-.14-.33.69.69,0,0,1,.11-.76l.33-.33a.27.27,0,0,0,0-.38l-.53-.53a.26.26,0,0,0-.19-.08A.26.26,0,0,0,259-74l-.33.33a.65.65,0,0,1-.46.18.69.69,0,0,1-.3-.07l-.33-.14a.69.69,0,0,1-.46-.62v-.46a.27.27,0,0,0-.27-.27h-.75a.27.27,0,0,0-.27.27v.46a.69.69,0,0,1-.46.62l-.33.14a.7.7,0,0,1-.3.07.65.65,0,0,1-.46-.18L254-74a.26.26,0,0,0-.19-.08.26.26,0,0,0-.19.08l-.53.53a.26.26,0,0,0-.08.19.26.26,0,0,0,.08.19l.33.33a.69.69,0,0,1,.11.76,3.29,3.29,0,0,0-.14.33.7.7,0,0,1-.62.46h-.46a.27.27,0,0,0-.27.27v.75a.27.27,0,0,0,.27.27h.46a.69.69,0,0,1,.62.46,3.31,3.31,0,0,0,.14.33.69.69,0,0,1-.11.76l-.33.33a.27.27,0,0,0,0,.38l.53.53a.26.26,0,0,0,.19.08.26.26,0,0,0,.19-.08l.33-.33a.65.65,0,0,1,.46-.18.69.69,0,0,1,.3.07l.33.14a.7.7,0,0,1,.46.62v.46a.27.27,0,0,0,.27.27h.75a.27.27,0,0,0,.27-.27v-.46a.69.69,0,0,1,.46-.62l.33-.14a.69.69,0,0,1,.3-.07.65.65,0,0,1,.46.18l.33.33a.26.26,0,0,0,.19.08.26.26,0,0,0,.19-.08l.53-.53a.27.27,0,0,0,0-.38l-.33-.33a.69.69,0,0,1-.11-.76,3.19,3.19,0,0,0,.14-.33.7.7,0,0,1,.62-.46h.46a.27.27,0,0,0,.27-.27v-.75A.27.27,0,0,0,260.73-71.18Zm-.64-1.07a3.84,3.84,0,0,1,.17.4s0,0,0,0h.46a.91.91,0,0,1,.91.91v.75a.91.91,0,0,1-.91.91h-.46s0,0,0,0a3.82,3.82,0,0,1-.17.4s0,0,0,0l.33.33a.91.91,0,0,1,0,1.28l-.53.53a.9.9,0,0,1-.64.27.9.9,0,0,1-.64-.27l-.33-.33h0l-.4.17s0,0,0,0v.46a.91.91,0,0,1-.91.91h-.75a.91.91,0,0,1-.91-.91v-.46s0,0,0,0l-.4-.17s0,0,0,0l-.33.33a.9.9,0,0,1-.64.27.9.9,0,0,1-.64-.27l-.53-.53a.91.91,0,0,1,0-1.28l.33-.33s0,0,0,0a4,4,0,0,1-.17-.4s0,0,0,0h-.46a.91.91,0,0,1-.91-.91v-.75a.91.91,0,0,1,.91-.91h.46s0,0,0,0a3.92,3.92,0,0,1,.17-.4s0,0,0,0l-.33-.33a.9.9,0,0,1-.27-.64.9.9,0,0,1,.27-.64l.53-.53a.9.9,0,0,1,.64-.27.9.9,0,0,1,.64.27l.33.33h0l.4-.17s0,0,0,0v-.46a.91.91,0,0,1,.91-.91h.75a.91.91,0,0,1,.91.91v.46s0,0,0,0l.4.17s0,0,0,0l.33-.33a.9.9,0,0,1,.64-.26.9.9,0,0,1,.64.27l.53.53a.91.91,0,0,1,0,1.28l-.33.33S260.08-72.26,260.09-72.25Z" style="fill:#fff"/></clipPath><clipPath id="clip-path-62"><path d="M251.72-76.93a1,1,0,0,1-1,1,1,1,0,0,1-1-1,1,1,0,0,1,1-1A1,1,0,0,1,251.72-76.93Zm1.13.73a.11.11,0,0,1,.08-.07h.27a.45.45,0,0,0,.45-.45v-.43a.45.45,0,0,0-.45-.45h-.27a.11.11,0,0,1-.08-.07,2.24,2.24,0,0,0-.09-.22.11.11,0,0,1,0-.1l.19-.19a.45.45,0,0,0,0-.64l-.31-.31a.45.45,0,0,0-.32-.13.45.45,0,0,0-.32.13l-.19.19-.06,0h0L251.5-79a.11.11,0,0,1-.07-.08v-.27a.45.45,0,0,0-.45-.45h-.43a.45.45,0,0,0-.45.45v.27A.11.11,0,0,1,250-79l-.22.09h0l-.06,0-.19-.19a.45.45,0,0,0-.32-.13.45.45,0,0,0-.32.13l-.31.31a.45.45,0,0,0,0,.64l.19.19a.11.11,0,0,1,0,.1,2.15,2.15,0,0,0-.09.22.11.11,0,0,1-.08.07h-.27a.45.45,0,0,0-.45.45v.43a.45.45,0,0,0,.45.45h.26a.11.11,0,0,1,.08.07,2.16,2.16,0,0,0,.09.22.11.11,0,0,1,0,.1l-.19.19a.45.45,0,0,0-.13.32.45.45,0,0,0,.13.32l.31.31a.45.45,0,0,0,.32.13.45.45,0,0,0,.32-.13l.19-.19.06,0h0l.22.09a.11.11,0,0,1,.07.08v.27a.45.45,0,0,0,.45.45H251a.45.45,0,0,0,.45-.45v-.27a.11.11,0,0,1,.07-.08l.22-.09h0l.06,0,.19.19a.45.45,0,0,0,.32.13.45.45,0,0,0,.32-.13L253-75a.45.45,0,0,0,0-.64l-.19-.19a.11.11,0,0,1,0-.1A2.29,2.29,0,0,0,252.85-76.2Z" style="fill:#626b71;clip-rule:evenodd"/></clipPath><clipPath id="clip-path-63"><path d="M291.07-78.25h-.23l-.23,0v1.51H291a1.07,1.07,0,0,0,.67-.18.73.73,0,0,0,.23-.61.68.68,0,0,0-.22-.58A1,1,0,0,0,291.07-78.25Zm-.11-.81a2.27,2.27,0,0,1,1.38.37,1.39,1.39,0,0,1,.49,1.2,1.42,1.42,0,0,1-.49,1.21,2.28,2.28,0,0,1-1.4.37h-.33v1.58h-.93v-4.61L290-79l.34,0,.34,0Zm-2.43.05v4.67h-.93v-2.06h-1.24v2.06h-.93V-79h.93v1.84h1.24V-79Zm-5.81.75h-.23l-.23,0v1.51h.38a1.07,1.07,0,0,0,.67-.18.73.73,0,0,0,.23-.61.68.68,0,0,0-.22-.58A1,1,0,0,0,282.72-78.25Zm-.11-.81a2.27,2.27,0,0,1,1.38.37,1.39,1.39,0,0,1,.49,1.2,1.42,1.42,0,0,1-.49,1.21,2.28,2.28,0,0,1-1.4.37h-.33v1.58h-.93v-4.61l.31-.05.34,0,.34,0Z" style="fill:none;clip-rule:evenodd"/></clipPath><clipPath id="clip-path-64"><path d="M295.9-76.64a.38.38,0,0,1-.33-.15.58.58,0,0,1-.11-.34.56.56,0,0,1,.11-.34.38.38,0,0,1,.33-.15.38.38,0,0,1,.32.15.54.54,0,0,1,.12.34.57.57,0,0,1-.11.34A.38.38,0,0,1,295.9-76.64Zm2.76,0a.38.38,0,0,1-.33-.15.58.58,0,0,1-.11-.34.56.56,0,0,1,.11-.34.38.38,0,0,1,.33-.15.38.38,0,0,1,.32.15.54.54,0,0,1,.12.34.57.57,0,0,1-.11.34A.38.38,0,0,1,298.66-76.64Zm2.75,0a.38.38,0,0,1-.32-.15.57.57,0,0,1-.11-.34.55.55,0,0,1,.11-.34.38.38,0,0,1,.32-.15.38.38,0,0,1,.32.15.56.56,0,0,1,.11.34.58.58,0,0,1-.11.34A.38.38,0,0,1,301.42-76.64Z" style="fill:none;clip-rule:evenodd"/></clipPath><clipPath id="clip-path-65"><rect x="286.21" y="-74.47" width="17.35" height="8.3" rx="2.26" ry="2.26" style="fill:none"/></clipPath><clipPath id="clip-path-66"><path d="M301.3-69l-.08,0-.17.06-.25.06-.33,0a.89.89,0,0,1-.75-.3,1.44,1.44,0,0,1-.24-.89v-2.41h-.78v-.62h1.53V-70a.52.52,0,0,0,.11.39.42.42,0,0,0,.29.1,1,1,0,0,0,.37-.06l.2-.08Zm-4.09-2.75a.89.89,0,0,1,.39.07.55.55,0,0,1,.24.22,1,1,0,0,1,.12.37,3.85,3.85,0,0,1,0,.52v1.7h-.6v-1.73a1.4,1.4,0,0,0,0-.27.5.5,0,0,0-.05-.16.17.17,0,0,0-.08-.07l-.09,0H297l-.11,0q0,.11,0,.25t0,.31V-70h-.6v-.65a1,1,0,0,0-.06-.4.19.19,0,0,0-.18-.11H296l-.1,0v2.23h-.6v-2.73l.46-.1a2.63,2.63,0,0,1,.4,0,.93.93,0,0,1,.28,0,.52.52,0,0,1,.21.13,1.23,1.23,0,0,1,.24-.12A.83.83,0,0,1,297.21-71.78Zm-4.55.65H292v-.62h.65v-.71l.74-.12v.83h1.19v.62h-1.19V-70a.87.87,0,0,0,0,.25.36.36,0,0,0,.08.15.27.27,0,0,0,.13.07l.17,0H294l.17,0,.17,0,.19-.08.1.64a1.92,1.92,0,0,1-.44.12,3.07,3.07,0,0,1-.46,0,2.23,2.23,0,0,1-.46,0,.74.74,0,0,1-.34-.16.75.75,0,0,1-.21-.34,1.89,1.89,0,0,1-.07-.58Zm-3.82,2.22V-73l.74-.13v1.38l.22-.06.22,0a1.3,1.3,0,0,1,.52.09.82.82,0,0,1,.34.27,1.09,1.09,0,0,1,.18.41,2.38,2.38,0,0,1,.05.53v1.6h-.74v-1.5a1.33,1.33,0,0,0-.09-.57.35.35,0,0,0-.34-.17l-.2,0-.16,0v2.18Z" style="fill:none;clip-rule:evenodd"/></clipPath><clipPath id="clip-path-67"><path d="M340-73.12,337.39-72l-.24-.74,1.92-.75-1.92-.75.24-.74,2.63,1.1Zm-5.94,1.38V-76h2.57v.7h-1.73v1h1.5v.7h-1.5v1.19h1.88v.7Zm-.42-2.12a3,3,0,0,1-.15,1,1.78,1.78,0,0,1-.41.67,1.56,1.56,0,0,1-.62.38,2.49,2.49,0,0,1-.79.12l-.44,0-.46-.08v-4.14a4.22,4.22,0,0,1,.54-.08l.47,0a2.26,2.26,0,0,1,.76.12,1.42,1.42,0,0,1,.59.39,1.83,1.83,0,0,1,.37.67A3.18,3.18,0,0,1,333.65-73.86Zm-2,1.44h.15a1,1,0,0,0,.48-.11.87.87,0,0,0,.32-.3,1.33,1.33,0,0,0,.17-.46,3,3,0,0,0,.05-.58,3.42,3.42,0,0,0,0-.53,1.5,1.5,0,0,0-.14-.46.84.84,0,0,0-.28-.32.81.81,0,0,0-.46-.12h-.12l-.12,0Zm-4.26-1.44a2.81,2.81,0,0,1,.4-1.65,1.31,1.31,0,0,1,1.12-.56,1.3,1.3,0,0,1,1.14.56,2.89,2.89,0,0,1,.39,1.65,2.85,2.85,0,0,1-.4,1.65,1.3,1.3,0,0,1-1.12.56,1.31,1.31,0,0,1-1.14-.56A2.87,2.87,0,0,1,327.36-73.86Zm.86,0q0,.31,0,.58a1.87,1.87,0,0,0,.1.47.76.76,0,0,0,.2.32.5.5,0,0,0,.35.12.51.51,0,0,0,.35-.12.74.74,0,0,0,.21-.32,1.91,1.91,0,0,0,.1-.47q0-.27,0-.58t0-.58a1.87,1.87,0,0,0-.1-.47.76.76,0,0,0-.2-.32.5.5,0,0,0-.35-.12.5.5,0,0,0-.35.12.76.76,0,0,0-.2.32,1.91,1.91,0,0,0-.1.47Q328.22-74.17,328.22-73.86ZM326-71.65a1.67,1.67,0,0,1-1.37-.58,2.52,2.52,0,0,1-.47-1.64,2.83,2.83,0,0,1,.14-.94,2,2,0,0,1,.4-.7,1.69,1.69,0,0,1,.61-.43,2,2,0,0,1,.77-.15,2,2,0,0,1,.41,0l.32.09.23.1.14.08-.22.67a1.59,1.59,0,0,0-.38-.17,1.66,1.66,0,0,0-.51-.07,1.08,1.08,0,0,0-.39.07.85.85,0,0,0-.34.24,1.28,1.28,0,0,0-.24.45,2.26,2.26,0,0,0-.09.7,2.06,2.06,0,0,0,.25,1.11.9.9,0,0,0,.82.39,1.67,1.67,0,0,0,.54-.08,2.06,2.06,0,0,0,.35-.15l.21.66a2.1,2.1,0,0,1-.48.2A2.42,2.42,0,0,1,326-71.65Zm-4.06,1H321L323-76.53h.86Zm-4.12-3.27,2.63-1.1.23.74-1.92.75,1.92.75-.23.74-2.63-1.11Z" style="fill:none;clip-rule:evenodd"/></clipPath><clipPath id="clip-path-68"><path d="M326.15-68.7a.37.37,0,0,1-.33-.15.58.58,0,0,1-.11-.34.56.56,0,0,1,.11-.34.38.38,0,0,1,.33-.15.38.38,0,0,1,.32.15.54.54,0,0,1,.12.34.57.57,0,0,1-.11.34A.38.38,0,0,1,326.15-68.7Zm2.76,0a.37.37,0,0,1-.33-.15.58.58,0,0,1-.11-.34.56.56,0,0,1,.11-.34.38.38,0,0,1,.33-.15.38.38,0,0,1,.32.15.54.54,0,0,1,.12.34.57.57,0,0,1-.11.34A.38.38,0,0,1,328.91-68.7Zm2.75,0a.38.38,0,0,1-.32-.15.57.57,0,0,1-.11-.34.55.55,0,0,1,.11-.34.38.38,0,0,1,.32-.15.38.38,0,0,1,.32.15.56.56,0,0,1,.11.34.58.58,0,0,1-.11.34A.37.37,0,0,1,331.66-68.7Z" style="fill:none;clip-rule:evenodd"/></clipPath><clipPath id="clip-path-69"><rect x="353.19" y="-82.03" width="12.55" height="9.86" rx="1.79" ry="1.79" style="fill:none"/></clipPath><clipPath id="clip-path-70"><path d="M365.72-65.17a3.09,3.09,0,0,1-2.55,1.07h0c-2,0-3.9-1.4-5.16-2.55a18.61,18.61,0,0,1-2.1-2.31,1.21,1.21,0,0,1,.77-.28,2.08,2.08,0,0,1,1.21.49l0,0,1.19.93a.4.4,0,0,0,.42,0,.41.41,0,0,0,.23-.36l0-5.88v-2.06a.6.6,0,0,1,.6-.59.61.61,0,0,1,.6.61.27.27,0,0,0,0,0l.45,3.82a.41.41,0,0,0,.29.35l.67.15A12,12,0,0,1,366.53-70C366.63-69.29,366.92-66.66,365.72-65.17Zm1.66-5.16a.41.41,0,0,0-.19-.28,12.94,12.94,0,0,0-4.58-1.89l-.36-.08-.42-3.56a1.43,1.43,0,0,0-1.41-1.42A1.42,1.42,0,0,0,359-76.17s0,0,0,0V-74l0,5.11-.54-.43a2.89,2.89,0,0,0-1.74-.7,2.1,2.1,0,0,0-1.61.78.42.42,0,0,0,0,.52A18.89,18.89,0,0,0,357.47-66a13,13,0,0,0,2.58,1.91,6.74,6.74,0,0,0,3.15.9h0a3.85,3.85,0,0,0,3.18-1.38C368.06-66.63,367.41-70.17,367.38-70.32Z" style="fill:none;clip-rule:evenodd"/></clipPath><clipPath id="clip-path-71"><path d="M387.62-81.61h16a2,2,0,0,1,2,2v4a2,2,0,0,1-2,2h-16a2,2,0,0,1-2-2v-4A2,2,0,0,1,387.62-81.61Zm0,1a1,1,0,0,0-1,1v4a1,1,0,0,0,1,1h16a1,1,0,0,0,1-1v-4a1,1,0,0,0-1-1Z" style="fill:none"/></clipPath><clipPath id="clip-path-72"><polygon points="400.62 -76.61 398.62 -78.61 402.62 -78.61 400.62 -76.61" style="fill:none;clip-rule:evenodd"/></clipPath><clipPath id="clip-path-73"><rect x="385.62" y="-71.61" width="20" height="8" rx="2" ry="2" style="fill:none"/></clipPath><clipPath id="clip-path-74"><circle cx="432.35" cy="-69.11" r="1" style="fill:none"/></clipPath><clipPath id="clip-path-75"><path d="M424.35-76.11h4a2,2,0,0,1,2,2v8a2,2,0,0,1-2,2h-4a2,2,0,0,1-2-2v-8A2,2,0,0,1,424.35-76.11Zm0,1a1,1,0,0,0-1,1v8a1,1,0,0,0,1,1h4a1,1,0,0,0,1-1v-8a1,1,0,0,0-1-1Z" style="fill:none"/></clipPath><clipPath id="clip-path-76"><circle cx="426.35" cy="-67.11" r="1" style="fill:none"/></clipPath></defs><title>icons</title><path d="M14.77-93.43h9.87A2.47,2.47,0,0,1,27.1-91a2.47,2.47,0,0,1-2.47,2.47H14.77A2.47,2.47,0,0,1,12.3-91,2.47,2.47,0,0,1,14.77-93.43Z" style="fill:#4e555b;fill-rule:evenodd"/><g style="clip-path:url(#clip-path)"><rect x="-60.74" y="-155.62" width="499.44" height="683.03" style="fill:#4e555b"/></g><path d="M31.55-93.43H50.3A2.47,2.47,0,0,1,52.77-91,2.47,2.47,0,0,1,50.3-88.5H31.55A2.47,2.47,0,0,1,29.08-91,2.47,2.47,0,0,1,31.55-93.43Z" style="fill:#4e555b;fill-rule:evenodd"/><g style="clip-path:url(#clip-path-2)"><rect x="-60.74" y="-155.62" width="499.44" height="683.03" style="fill:#4e555b"/></g><rect x="12.3" y="-110.21" width="19.54" height="12.83" rx="3.95" ry="3.95" style="fill:#4e555b"/><g style="clip-path:url(#clip-path-3)"><rect x="-60.74" y="-155.62" width="499.44" height="683.03" style="fill:#4e555b"/></g><path d="M37.47-109.23h6.91a2.47,2.47,0,0,1,2.47,2.47,2.47,2.47,0,0,1-2.47,2.47H37.47A2.47,2.47,0,0,1,35-106.76,2.47,2.47,0,0,1,37.47-109.23Z" style="fill:#4e555b;fill-rule:evenodd"/><g style="clip-path:url(#clip-path-4)"><rect x="-60.74" y="-155.62" width="499.44" height="683.03" style="fill:#4e555b"/></g><path d="M49.31-101.33h5.92a2.47,2.47,0,0,1,2.47,2.47,2.47,2.47,0,0,1-2.47,2.47H49.31a2.47,2.47,0,0,1-2.47-2.47A2.47,2.47,0,0,1,49.31-101.33Z" style="fill:#4e555b;fill-rule:evenodd"/><g style="clip-path:url(#clip-path-5)"><rect x="-60.74" y="-155.62" width="499.44" height="683.03" style="fill:#4e555b"/></g><path d="M37.47-101.33H42.4a2.47,2.47,0,0,1,2.47,2.47A2.47,2.47,0,0,1,42.4-96.4H37.47A2.47,2.47,0,0,1,35-98.86,2.47,2.47,0,0,1,37.47-101.33Z" style="fill:#4e555b;fill-rule:evenodd"/><g style="clip-path:url(#clip-path-6)"><rect x="-60.74" y="-155.62" width="499.44" height="683.03" style="fill:#4e555b"/></g><path d="M102.43-93.43h9.87A2.47,2.47,0,0,1,114.77-91a2.47,2.47,0,0,1-2.47,2.47h-9.87A2.47,2.47,0,0,1,100-91,2.47,2.47,0,0,1,102.43-93.43Z" style="fill:#577e9c;fill-rule:evenodd"/><g style="clip-path:url(#clip-path-7)"><rect x="26.92" y="-155.62" width="499.44" height="683.03" style="fill:#577e9c"/></g><path d="M119.21-93.43H138A2.47,2.47,0,0,1,140.43-91,2.47,2.47,0,0,1,138-88.5H119.21A2.47,2.47,0,0,1,116.74-91,2.47,2.47,0,0,1,119.21-93.43Z" style="fill:#577e9c;fill-rule:evenodd"/><g style="clip-path:url(#clip-path-8)"><rect x="26.92" y="-155.62" width="499.44" height="683.03" style="fill:#577e9c"/></g><rect x="99.96" y="-110.21" width="19.54" height="12.83" rx="3.95" ry="3.95" style="fill:#577e9c"/><g style="clip-path:url(#clip-path-9)"><rect x="26.92" y="-155.62" width="499.44" height="683.03" style="fill:#577e9c"/></g><path d="M125.13-109.23H132a2.47,2.47,0,0,1,2.47,2.47,2.47,2.47,0,0,1-2.47,2.47h-6.91a2.47,2.47,0,0,1-2.47-2.47A2.47,2.47,0,0,1,125.13-109.23Z" style="fill:#577e9c;fill-rule:evenodd"/><g style="clip-path:url(#clip-path-10)"><rect x="26.92" y="-155.62" width="499.44" height="683.03" style="fill:#577e9c"/></g><path d="M137-101.33h5.92a2.47,2.47,0,0,1,2.47,2.47,2.47,2.47,0,0,1-2.47,2.47H137a2.47,2.47,0,0,1-2.47-2.47A2.47,2.47,0,0,1,137-101.33Z" style="fill:#577e9c;fill-rule:evenodd"/><g style="clip-path:url(#clip-path-11)"><rect x="26.92" y="-155.62" width="499.44" height="683.03" style="fill:#577e9c"/></g><path d="M125.13-101.33h4.94a2.47,2.47,0,0,1,2.47,2.47,2.47,2.47,0,0,1-2.47,2.47h-4.94a2.47,2.47,0,0,1-2.47-2.47A2.47,2.47,0,0,1,125.13-101.33Z" style="fill:#577e9c;fill-rule:evenodd"/><g style="clip-path:url(#clip-path-12)"><rect x="26.92" y="-155.62" width="499.44" height="683.03" style="fill:#577e9c"/></g><path d="M21-44a4.13,4.13,0,0,1,4.12-4.13H44.69A4.12,4.12,0,0,1,48.81-44v11.33a4.13,4.13,0,0,1-4.12,4.13H25.09A4.12,4.12,0,0,1,21-32.69Z" style="fill:#4e555b;fill-rule:evenodd"/><g style="clip-path:url(#clip-path-13)"><rect x="-65.65" y="-170.86" width="521.76" height="713.55" style="fill:#4e555b"/></g><path d="M108.63-44a4.13,4.13,0,0,1,4.12-4.13h19.59A4.12,4.12,0,0,1,136.48-44v11.33a4.13,4.13,0,0,1-4.12,4.13H112.76a4.12,4.12,0,0,1-4.12-4.13Z" style="fill:#577f9c;fill-rule:evenodd"/><g style="clip-path:url(#clip-path-14)"><rect x="22.02" y="-170.86" width="521.76" height="713.55" style="fill:#577f9c"/></g><path d="M22.12,32.67A2.31,2.31,0,0,1,21,28.17l26.85-6.48A2.31,2.31,0,1,1,49,26.19Z" style="fill:#60666b"/><path d="M34.54,31.32c.22,0,1.61-3.75,3.88-7.61,2-3.38,4.92-4.32,4.92-9a8.8,8.8,0,0,0-17.59,0c0,3.93,2.83,5.74,4.74,9C32.8,27.72,34.31,31.32,34.54,31.32Z" style="fill:#4e555b;fill-rule:evenodd"/><circle cx="34.54" cy="14.68" r="4.17" style="fill:#60666b"/><circle cx="52.76" cy="75.31" r="7.1" style="fill:#464d54"/><path d="M39.44,73.38a3.39,3.39,0,0,1-.94.25,1.6,1.6,0,0,0,.72-.87,3.36,3.36,0,0,1-1,.38A1.67,1.67,0,0,0,37,72.65a1.61,1.61,0,0,0-1.64,1.57,1.56,1.56,0,0,0,0,.36A4.73,4.73,0,0,1,32,72.93a1.51,1.51,0,0,0-.22.79,1.55,1.55,0,0,0,.73,1.3,1.67,1.67,0,0,1-.74-.2v0a1.59,1.59,0,0,0,1.31,1.54,1.76,1.76,0,0,1-.43.05l-.31,0a1.64,1.64,0,0,0,1.53,1.09,3.39,3.39,0,0,1-2,.67l-.39,0a4.79,4.79,0,0,0,2.51.7,4.53,4.53,0,0,0,4.66-4.46v-.2A3.23,3.23,0,0,0,39.44,73.38Z" style="fill:#60666b;fill-rule:evenodd"/><circle cx="55.86" cy="75.75" r="1.33" style="fill:#60666b"/><circle cx="50.54" cy="78.42" r="1.33" style="fill:#60666b"/><path d="M50.8,73.94a.44.44,0,0,1,.37-.81l5,2.27a.44.44,0,0,1,0,.79L51,79a.44.44,0,0,1-.43-.78L55,75.84Z" style="fill:#60666b"/><circle cx="140.42" cy="75.31" r="7.1" style="fill:#577f9c"/><path d="M127.11,73.38a3.39,3.39,0,0,1-.94.25,1.6,1.6,0,0,0,.72-.87,3.36,3.36,0,0,1-1,.38,1.67,1.67,0,0,0-1.19-.49A1.61,1.61,0,0,0,123,74.22a1.56,1.56,0,0,0,0,.36,4.73,4.73,0,0,1-3.38-1.64,1.51,1.51,0,0,0-.22.79,1.55,1.55,0,0,0,.73,1.3,1.67,1.67,0,0,1-.74-.2v0a1.59,1.59,0,0,0,1.31,1.54,1.76,1.76,0,0,1-.43.05l-.31,0a1.64,1.64,0,0,0,1.53,1.09,3.39,3.39,0,0,1-2,.67l-.39,0a4.79,4.79,0,0,0,2.51.7,4.53,4.53,0,0,0,4.66-4.46v-.2A3.23,3.23,0,0,0,127.11,73.38Z" style="fill:#6a9ab7;fill-rule:evenodd"/><circle cx="143.53" cy="75.75" r="1.33" style="fill:#6a9ab7"/><circle cx="138.2" cy="78.42" r="1.33" style="fill:#6a9ab7"/><path d="M138.46,73.94a.44.44,0,0,1,.37-.81l5,2.27a.44.44,0,0,1,0,.79L138.62,79a.44.44,0,0,1-.43-.78l4.44-2.42Z" style="fill:#6a9ab7"/><rect x="10.14" y="176.58" width="49.72" height="12.43" rx="4.14" ry="4.14" style="fill:#464d54"/><g style="clip-path:url(#clip-path-25)"><rect x="-64.44" y="-247.06" width="524.11" height="716.77" style="fill:#464d54"/></g><rect x="12.68" y="178.65" width="16.57" height="8.29" rx="3.11" ry="3.11" style="fill:#3a4249"/><g style="clip-path:url(#clip-path-26)"><rect x="-64.44" y="-247.06" width="524.11" height="716.77" style="fill:#3a4249"/></g><path d="M34,178.65H44.84a1.55,1.55,0,0,1,0,3.11H34a1.55,1.55,0,0,1,0-3.11Z" style="fill:#585f65;fill-rule:evenodd"/><g style="clip-path:url(#clip-path-27)"><rect x="-64.44" y="-247.06" width="524.11" height="716.77" style="fill:#585f65"/></g><path d="M44.74,183.83h6.32a1.55,1.55,0,1,1,0,3.11H44.74a1.55,1.55,0,1,1,0-3.11Z" style="fill:#585f65;fill-rule:evenodd"/><g style="clip-path:url(#clip-path-28)"><rect x="-64.44" y="-247.06" width="524.11" height="716.77" style="fill:#585f65"/></g><path d="M34,183.83h6.32a1.55,1.55,0,1,1,0,3.11H34a1.55,1.55,0,1,1,0-3.11Z" style="fill:#585f65;fill-rule:evenodd"/><g style="clip-path:url(#clip-path-29)"><rect x="-64.44" y="-247.06" width="524.11" height="716.77" style="fill:#585f65"/></g><rect x="10.14" y="190.28" width="49.72" height="12.43" rx="4.14" ry="4.14" style="fill:#464d54"/><g style="clip-path:url(#clip-path-30)"><rect x="-64.44" y="-233.36" width="524.11" height="716.77" style="fill:#464d54"/></g><rect x="12.68" y="192.35" width="16.57" height="8.29" rx="3.11" ry="3.11" style="fill:#3a4249"/><g style="clip-path:url(#clip-path-31)"><rect x="-64.44" y="-233.36" width="524.11" height="716.77" style="fill:#3a4249"/></g><path d="M34,192.35H44.84a1.55,1.55,0,1,1,0,3.11H34a1.55,1.55,0,1,1,0-3.11Z" style="fill:#585f65;fill-rule:evenodd"/><g style="clip-path:url(#clip-path-32)"><rect x="-64.44" y="-233.36" width="524.11" height="716.77" style="fill:#585f65"/></g><path d="M44.74,197.53h6.32a1.55,1.55,0,0,1,0,3.11H44.74a1.55,1.55,0,1,1,0-3.11Z" style="fill:#585f65;fill-rule:evenodd"/><g style="clip-path:url(#clip-path-33)"><rect x="-64.44" y="-233.36" width="524.11" height="716.77" style="fill:#585f65"/></g><path d="M34,197.53h6.32a1.55,1.55,0,0,1,0,3.11H34a1.55,1.55,0,0,1,0-3.11Z" style="fill:#585f65;fill-rule:evenodd"/><g style="clip-path:url(#clip-path-34)"><rect x="-64.44" y="-233.36" width="524.11" height="716.77" style="fill:#585f65"/></g><rect x="97.81" y="176.58" width="49.72" height="12.43" rx="4.14" ry="4.14" style="fill:#577f9c"/><g style="clip-path:url(#clip-path-35)"><rect x="23.23" y="-247.06" width="524.11" height="716.77" style="fill:#577f9c"/></g><rect x="100.35" y="178.65" width="16.57" height="8.29" rx="3.11" ry="3.11" style="fill:#6a9ab7"/><g style="clip-path:url(#clip-path-36)"><rect x="23.23" y="-247.06" width="524.11" height="716.77" style="fill:#6a9ab7"/></g><path d="M121.63,178.65h10.88a1.55,1.55,0,0,1,0,3.11H121.63a1.55,1.55,0,0,1,0-3.11Z" style="fill:#6a9ab7;fill-rule:evenodd"/><g style="clip-path:url(#clip-path-37)"><rect x="23.23" y="-247.06" width="524.11" height="716.77" style="fill:#6a9ab7"/></g><path d="M132.4,183.83h6.32a1.55,1.55,0,0,1,0,3.11H132.4a1.55,1.55,0,1,1,0-3.11Z" style="fill:#6a9ab7;fill-rule:evenodd"/><g style="clip-path:url(#clip-path-38)"><rect x="23.23" y="-247.06" width="524.11" height="716.77" style="fill:#6a9ab7"/></g><path d="M121.63,183.83h6.32a1.55,1.55,0,0,1,0,3.11h-6.32a1.55,1.55,0,0,1,0-3.11Z" style="fill:#6a9ab7;fill-rule:evenodd"/><g style="clip-path:url(#clip-path-39)"><rect x="23.23" y="-247.06" width="524.11" height="716.77" style="fill:#6a9ab7"/></g><rect x="97.81" y="190.28" width="49.72" height="12.43" rx="4.14" ry="4.14" style="fill:#577f9c"/><g style="clip-path:url(#clip-path-40)"><rect x="23.23" y="-233.36" width="524.11" height="716.77" style="fill:#577f9c"/></g><rect x="100.35" y="192.35" width="16.57" height="8.29" rx="3.11" ry="3.11" style="fill:#6a9ab7"/><g style="clip-path:url(#clip-path-41)"><rect x="23.23" y="-233.36" width="524.11" height="716.77" style="fill:#6a9ab7"/></g><path d="M121.63,192.35h10.88a1.55,1.55,0,1,1,0,3.11H121.63a1.55,1.55,0,0,1,0-3.11Z" style="fill:#6a9ab7;fill-rule:evenodd"/><g style="clip-path:url(#clip-path-42)"><rect x="23.23" y="-233.36" width="524.11" height="716.77" style="fill:#6a9ab7"/></g><path d="M132.4,197.53h6.32a1.55,1.55,0,1,1,0,3.11H132.4a1.55,1.55,0,1,1,0-3.11Z" style="fill:#6a9ab7;fill-rule:evenodd"/><g style="clip-path:url(#clip-path-43)"><rect x="23.23" y="-233.36" width="524.11" height="716.77" style="fill:#6a9ab7"/></g><path d="M121.63,197.53h6.32a1.55,1.55,0,0,1,0,3.11h-6.32a1.55,1.55,0,1,1,0-3.11Z" style="fill:#6a9ab7;fill-rule:evenodd"/><g style="clip-path:url(#clip-path-44)"><rect x="23.23" y="-233.36" width="524.11" height="716.77" style="fill:#6a9ab7"/></g><path d="M211-106.85h1.49c1.44,0,2.18-.5,2.18-1.58s-.72-1.44-2.18-1.44H211Zm0-5h1.24c1.3,0,1.85-.54,1.85-1.39s-.59-1.26-1.84-1.26H211Zm-2.65,7v-11.74h4c2.43,0,4.32.67,4.32,2.92a2.72,2.72,0,0,1-1.53,2.54v.07a2.66,2.66,0,0,1,2.11,2.75c0,2.39-2,3.46-4.55,3.46Z" style="fill:#fff;fill-rule:evenodd"/><g style="clip-path:url(#clip-path-45)"><rect x="-155.99" y="-880.8" width="1149" height="2330" style="fill:#fff"/></g><path d="M233.8-109.13l1.38-1.38a2.76,2.76,0,0,1,3.91,0l.16.16a2.76,2.76,0,0,1,0,3.91l-1.38,1.38a2.76,2.76,0,0,1-3.91,0l-.16-.16A2.76,2.76,0,0,1,233.8-109.13Zm1,1a1.38,1.38,0,0,0,0,2l.16.16a1.38,1.38,0,0,0,2,0l1.38-1.38a1.38,1.38,0,0,0,0-2l-.16-.16a1.38,1.38,0,0,0-2,0Z" style="fill:#fff"/><g style="clip-path:url(#clip-path-46)"><rect x="-95.1" y="-744.71" width="945.51" height="1917.36" style="fill:#fff"/></g><path d="M239.57-114.9l1.38-1.38a2.76,2.76,0,0,1,3.91,0l.16.16a2.76,2.76,0,0,1,0,3.91l-1.38,1.38a2.76,2.76,0,0,1-3.91,0l-.16-.16A2.76,2.76,0,0,1,239.57-114.9Zm1,1a1.38,1.38,0,0,0,0,2l.16.16a1.38,1.38,0,0,0,2,0l1.38-1.38a1.38,1.38,0,0,0,0-2l-.16-.16a1.38,1.38,0,0,0-2,0Z" style="fill:#fff"/><g style="clip-path:url(#clip-path-47)"><rect x="-95.1" y="-744.71" width="945.51" height="1917.36" style="fill:#fff"/></g><path d="M237.5-107.77a.69.69,0,0,1-1,0,.69.69,0,0,1,0-1l5.05-5.05a.69.69,0,0,1,1,0,.69.69,0,0,1,0,1Z" style="fill:#fff"/><g style="clip-path:url(#clip-path-48)"><rect x="-95.1" y="-744.71" width="945.51" height="1917.36" style="fill:#fff"/></g><path d="M260-108.32a.74.74,0,0,1-1,0,.74.74,0,0,1,0-1c3.15-3.35,5.88-4.93,8.24-4.62s3.79,1.33,4.08,3.06a.74.74,0,0,1-.6.85.74.74,0,0,1-.85-.6c-.17-1-1-1.62-2.82-1.85S262.9-111.36,260-108.32Z" style="fill:#fff"/><g style="clip-path:url(#clip-path-49)"><rect x="-6.64" y="-706.73" width="847.1" height="1717.8" style="fill:#fff"/></g><path d="M260.24-109.34l2.37.54a.74.74,0,0,1,.56.88.74.74,0,0,1-.88.56l-2.95-.67a.74.74,0,0,1-.57-.72v-4.49a.74.74,0,0,1,.74-.74.74.74,0,0,1,.74.74Z" style="fill:#fff"/><g style="clip-path:url(#clip-path-50)"><rect x="-6.64" y="-706.73" width="847.1" height="1717.8" style="fill:#fff"/></g><path d="M292.43-108.32a.74.74,0,0,0,1,0,.74.74,0,0,0,0-1c-3.15-3.35-5.88-4.93-8.24-4.62s-3.79,1.33-4.08,3.06a.74.74,0,0,0,.6.85.74.74,0,0,0,.85-.6c.17-1,1-1.62,2.82-1.85S289.58-111.36,292.43-108.32Z" style="fill:#fff"/><g style="clip-path:url(#clip-path-51)"><rect x="-287.98" y="-706.73" width="847.1" height="1717.8" style="fill:#fff"/></g><path d="M292.23-109.34l-2.37.54a.74.74,0,0,0-.56.88.74.74,0,0,0,.88.56l2.95-.67a.74.74,0,0,0,.57-.72v-4.49A.74.74,0,0,0,293-114a.74.74,0,0,0-.74.74Z" style="fill:#fff"/><g style="clip-path:url(#clip-path-52)"><rect x="-287.98" y="-706.73" width="847.1" height="1717.8" style="fill:#fff"/></g><path d="M228.59-75.21a5.16,5.16,0,0,0-2-2,10.35,10.35,0,0,0-2.95-1.09,17.74,17.74,0,0,0-3.69-.35,7.43,7.43,0,0,0-2.81.53,6.76,6.76,0,0,0-2.13,1.3,7.12,7.12,0,0,0-1.3,1.59,2.73,2.73,0,0,0-.44,1.31,2.89,2.89,0,0,0,.59,1.91,2,2,0,0,0,1.67.68,4.38,4.38,0,0,1,2.21.43,1.81,1.81,0,0,1,.83,1.67,2.44,2.44,0,0,0,.77,1.85,2.68,2.68,0,0,0,1.94.74,9.26,9.26,0,0,0,6-1.68,4.9,4.9,0,0,0,2-3.9A6,6,0,0,0,228.59-75.21Zm.7-.4a6.79,6.79,0,0,1,.82,3.42,5.69,5.69,0,0,1-2.32,4.52,10,10,0,0,1-6.49,1.86,3.48,3.48,0,0,1-2.5-1,3.24,3.24,0,0,1-1-2.42,1,1,0,0,0-.44-1,3.72,3.72,0,0,0-1.79-.32,2.83,2.83,0,0,1-2.29-1,3.67,3.67,0,0,1-.78-2.42,3.48,3.48,0,0,1,.55-1.71,7.9,7.9,0,0,1,1.44-1.77,7.54,7.54,0,0,1,2.38-1.46,8.23,8.23,0,0,1,3.11-.59,18.53,18.53,0,0,1,3.86.37A11.15,11.15,0,0,1,227-77.88,6,6,0,0,1,229.28-75.61Z" style="fill:#fff"/><g style="clip-path:url(#clip-path-53)"><rect x="-195.54" y="-314.47" width="920.16" height="1865.94" style="fill:#fff"/></g><path d="M215.69-72.21a1.56,1.56,0,0,1-1.13-.47,1.56,1.56,0,0,1-.47-1.13,1.56,1.56,0,0,1,.47-1.13,1.56,1.56,0,0,1,1.13-.47,1.56,1.56,0,0,1,1.13.47,1.56,1.56,0,0,1,.47,1.13,1.56,1.56,0,0,1-.47,1.13A1.56,1.56,0,0,1,215.69-72.21Zm.57-1a.76.76,0,0,0,.23-.57.76.76,0,0,0-.23-.57.76.76,0,0,0-.57-.23.76.76,0,0,0-.57.23.76.76,0,0,0-.23.57.76.76,0,0,0,.23.57.76.76,0,0,0,.57.23A.76.76,0,0,0,216.25-73.25Z" style="fill:#fff"/><g style="clip-path:url(#clip-path-54)"><rect x="-195.54" y="-314.47" width="920.16" height="1865.94" style="fill:#fff"/></g><path d="M218.87-74.62a1.52,1.52,0,0,1-1.13-.47,1.58,1.58,0,0,1-.45-1.13,1.58,1.58,0,0,1,.45-1.13,1.52,1.52,0,0,1,1.13-.47,1.59,1.59,0,0,1,1.14.47,1.55,1.55,0,0,1,.48,1.14,1.55,1.55,0,0,1-.48,1.14A1.59,1.59,0,0,1,218.87-74.62Zm0-.8a.79.79,0,0,0,.58-.24.75.75,0,0,0,.24-.56.75.75,0,0,0-.24-.56.79.79,0,0,0-.58-.24.72.72,0,0,0-.56.23.78.78,0,0,0-.23.57.78.78,0,0,0,.23.57A.72.72,0,0,0,218.87-75.42Z" style="fill:#fff"/><g style="clip-path:url(#clip-path-55)"><rect x="-195.54" y="-314.47" width="920.16" height="1865.94" style="fill:#fff"/></g><path d="M222.42-67.88a1.56,1.56,0,0,1-1.13.47,1.56,1.56,0,0,1-1.13-.47,1.56,1.56,0,0,1-.47-1.13,1.56,1.56,0,0,1,.47-1.13,1.56,1.56,0,0,1,1.13-.47,1.56,1.56,0,0,1,1.13.47A1.56,1.56,0,0,1,222.9-69,1.56,1.56,0,0,1,222.42-67.88ZM222.09-69a.76.76,0,0,0-.24-.56.76.76,0,0,0-.56-.24.76.76,0,0,0-.56.24.76.76,0,0,0-.24.56.76.76,0,0,0,.24.56.76.76,0,0,0,.56.24.76.76,0,0,0,.56-.24A.76.76,0,0,0,222.09-69Z" style="fill:#fff"/><g style="clip-path:url(#clip-path-56)"><rect x="-195.54" y="-314.47" width="920.16" height="1865.94" style="fill:#fff"/></g><path d="M222.9-74.62a1.56,1.56,0,0,1-1.13-.47,1.56,1.56,0,0,1-.47-1.13,1.56,1.56,0,0,1,.47-1.13,1.56,1.56,0,0,1,1.13-.47,1.56,1.56,0,0,1,1.13.47,1.56,1.56,0,0,1,.47,1.13,1.56,1.56,0,0,1-.47,1.13A1.56,1.56,0,0,1,222.9-74.62Zm.57-1a.76.76,0,0,0,.23-.57.76.76,0,0,0-.23-.57.76.76,0,0,0-.57-.23.76.76,0,0,0-.57.23.76.76,0,0,0-.23.57.76.76,0,0,0,.23.57.76.76,0,0,0,.57.23A.76.76,0,0,0,223.46-75.65Z" style="fill:#fff"/><g style="clip-path:url(#clip-path-57)"><rect x="-195.54" y="-314.47" width="920.16" height="1865.94" style="fill:#fff"/></g><path d="M227.23-73.48a1.56,1.56,0,0,1-1.13.47,1.56,1.56,0,0,1-1.13-.47,1.56,1.56,0,0,1-.47-1.13,1.56,1.56,0,0,1,.47-1.13,1.56,1.56,0,0,1,1.13-.47,1.56,1.56,0,0,1,1.13.47,1.56,1.56,0,0,1,.47,1.13A1.56,1.56,0,0,1,227.23-73.48Zm-.33-1.13a.76.76,0,0,0-.23-.57.76.76,0,0,0-.57-.23.76.76,0,0,0-.57.23.76.76,0,0,0-.23.57.76.76,0,0,0,.23.57.76.76,0,0,0,.57.23.76.76,0,0,0,.57-.23A.76.76,0,0,0,226.9-74.62Z" style="fill:#fff"/><g style="clip-path:url(#clip-path-58)"><rect x="-189.32" y="-318.22" width="920.16" height="1865.94" style="fill:#fff"/></g><path d="M216-67.59l-.13-1-2.77.4v.47Zm-3.7.58v-1.92l4.27-.61.35,2.8Z" style="fill:#fff"/><g style="clip-path:url(#clip-path-59)"><rect x="-195.54" y="-314.47" width="920.16" height="1865.94" style="fill:#fff"/></g><path d="M209.45-67.88l.62.31a5.86,5.86,0,0,0,.8.3c.68.2,1.06.12,1.19-.23.41-1.07-.59-2-2.3-1.66a3.34,3.34,0,0,0-2,1A3.43,3.43,0,0,1,209.45-67.88Zm.15-2.06c2.28-.48,3.86,1,3.21,2.73-.32.85-1.13,1-2.16.71a6.63,6.63,0,0,1-.91-.34l-.66-.32a3.44,3.44,0,0,0-1.91-.17.4.4,0,0,1-.43-.5C207-68.92,208-69.61,209.59-69.94Z" style="fill:#fff"/><g style="clip-path:url(#clip-path-60)"><rect x="-195.54" y="-314.47" width="920.16" height="1865.94" style="fill:#fff"/></g><path d="M258.56-70.54a2,2,0,0,1-2,2,2,2,0,0,1-2-2,2,2,0,0,1,2-2A2,2,0,0,1,258.56-70.54Zm-.64,0a1.4,1.4,0,0,0-1.4-1.4,1.4,1.4,0,0,0-1.4,1.4,1.4,1.4,0,0,0,1.4,1.4A1.4,1.4,0,0,0,257.92-70.54Zm2.81-.64h-.46a.7.7,0,0,1-.62-.46,3.21,3.21,0,0,0-.14-.33.69.69,0,0,1,.11-.76l.33-.33a.27.27,0,0,0,0-.38l-.53-.53a.26.26,0,0,0-.19-.08A.26.26,0,0,0,259-74l-.33.33a.65.65,0,0,1-.46.18.69.69,0,0,1-.3-.07l-.33-.14a.69.69,0,0,1-.46-.62v-.46a.27.27,0,0,0-.27-.27h-.75a.27.27,0,0,0-.27.27v.46a.69.69,0,0,1-.46.62l-.33.14a.7.7,0,0,1-.3.07.65.65,0,0,1-.46-.18L254-74a.26.26,0,0,0-.19-.08.26.26,0,0,0-.19.08l-.53.53a.26.26,0,0,0-.08.19.26.26,0,0,0,.08.19l.33.33a.69.69,0,0,1,.11.76,3.29,3.29,0,0,0-.14.33.7.7,0,0,1-.62.46h-.46a.27.27,0,0,0-.27.27v.75a.27.27,0,0,0,.27.27h.46a.69.69,0,0,1,.62.46,3.31,3.31,0,0,0,.14.33.69.69,0,0,1-.11.76l-.33.33a.27.27,0,0,0,0,.38l.53.53a.26.26,0,0,0,.19.08.26.26,0,0,0,.19-.08l.33-.33a.65.65,0,0,1,.46-.18.69.69,0,0,1,.3.07l.33.14a.7.7,0,0,1,.46.62v.46a.27.27,0,0,0,.27.27h.75a.27.27,0,0,0,.27-.27v-.46a.69.69,0,0,1,.46-.62l.33-.14a.69.69,0,0,1,.3-.07.65.65,0,0,1,.46.18l.33.33a.26.26,0,0,0,.19.08.26.26,0,0,0,.19-.08l.53-.53a.27.27,0,0,0,0-.38l-.33-.33a.69.69,0,0,1-.11-.76,3.19,3.19,0,0,0,.14-.33.7.7,0,0,1,.62-.46h.46a.27.27,0,0,0,.27-.27v-.75A.27.27,0,0,0,260.73-71.18Zm-.64-1.07a3.84,3.84,0,0,1,.17.4s0,0,0,0h.46a.91.91,0,0,1,.91.91v.75a.91.91,0,0,1-.91.91h-.46s0,0,0,0a3.82,3.82,0,0,1-.17.4s0,0,0,0l.33.33a.91.91,0,0,1,0,1.28l-.53.53a.9.9,0,0,1-.64.27.9.9,0,0,1-.64-.27l-.33-.33h0l-.4.17s0,0,0,0v.46a.91.91,0,0,1-.91.91h-.75a.91.91,0,0,1-.91-.91v-.46s0,0,0,0l-.4-.17s0,0,0,0l-.33.33a.9.9,0,0,1-.64.27.9.9,0,0,1-.64-.27l-.53-.53a.91.91,0,0,1,0-1.28l.33-.33s0,0,0,0a4,4,0,0,1-.17-.4s0,0,0,0h-.46a.91.91,0,0,1-.91-.91v-.75a.91.91,0,0,1,.91-.91h.46s0,0,0,0a3.92,3.92,0,0,1,.17-.4s0,0,0,0l-.33-.33a.9.9,0,0,1-.27-.64.9.9,0,0,1,.27-.64l.53-.53a.9.9,0,0,1,.64-.27.9.9,0,0,1,.64.27l.33.33h0l.4-.17s0,0,0,0v-.46a.91.91,0,0,1,.91-.91h.75a.91.91,0,0,1,.91.91v.46s0,0,0,0l.4.17s0,0,0,0l.33-.33a.9.9,0,0,1,.64-.26.9.9,0,0,1,.64.27l.53.53a.91.91,0,0,1,0,1.28l-.33.33S260.08-72.26,260.09-72.25Z" style="fill:#fff"/><path d="M251.72-76.93a1,1,0,0,1-1,1,1,1,0,0,1-1-1,1,1,0,0,1,1-1A1,1,0,0,1,251.72-76.93Zm1.13.73a.11.11,0,0,1,.08-.07h.27a.45.45,0,0,0,.45-.45v-.43a.45.45,0,0,0-.45-.45h-.27a.11.11,0,0,1-.08-.07,2.24,2.24,0,0,0-.09-.22.11.11,0,0,1,0-.1l.19-.19a.45.45,0,0,0,0-.64l-.31-.31a.45.45,0,0,0-.32-.13.45.45,0,0,0-.32.13l-.19.19-.06,0h0L251.5-79a.11.11,0,0,1-.07-.08v-.27a.45.45,0,0,0-.45-.45h-.43a.45.45,0,0,0-.45.45v.27A.11.11,0,0,1,250-79l-.22.09h0l-.06,0-.19-.19a.45.45,0,0,0-.32-.13.45.45,0,0,0-.32.13l-.31.31a.45.45,0,0,0,0,.64l.19.19a.11.11,0,0,1,0,.1,2.15,2.15,0,0,0-.09.22.11.11,0,0,1-.08.07h-.27a.45.45,0,0,0-.45.45v.43a.45.45,0,0,0,.45.45h.26a.11.11,0,0,1,.08.07,2.16,2.16,0,0,0,.09.22.11.11,0,0,1,0,.1l-.19.19a.45.45,0,0,0-.13.32.45.45,0,0,0,.13.32l.31.31a.45.45,0,0,0,.32.13.45.45,0,0,0,.32-.13l.19-.19.06,0h0l.22.09a.11.11,0,0,1,.07.08v.27a.45.45,0,0,0,.45.45H251a.45.45,0,0,0,.45-.45v-.27a.11.11,0,0,1,.07-.08l.22-.09h0l.06,0,.19.19a.45.45,0,0,0,.32.13.45.45,0,0,0,.32-.13L253-75a.45.45,0,0,0,0-.64l-.19-.19a.11.11,0,0,1,0-.1A2.29,2.29,0,0,0,252.85-76.2Z" style="fill:#626b71;fill-rule:evenodd"/><g style="clip-path:url(#clip-path-62)"><rect x="-76.91" y="-299.75" width="734.63" height="1489.72" style="fill:#626b71"/></g></svg>