<?xml version="1.0" encoding="UTF-8"?>
<svg width="59px" height="33px" viewBox="0 0 59 33" version="1.1" xmlns="http://www.w3.org/2000/svg" xmlns:xlink="http://www.w3.org/1999/xlink">
    <!-- Generator: Sketch 49 (51002) - http://www.bohemiancoding.com/sketch -->
    <title>icon-block</title>
    <desc>Created with Sketch.</desc>
    <defs></defs>
    <g id="Page-1" stroke="none" stroke-width="1" fill="none" fill-rule="evenodd">
        <g id="Icons" transform="translate(-289.000000, -247.000000)">
            <rect id="Rectangle" fill="#60666A" x="295" y="263" width="48" height="2" rx="1"></rect>
            <rect id="Rectangle" fill="#60666A" x="295" y="268" width="48" height="2" rx="1"></rect>
            <rect id="Rectangle" fill="#60666A" x="295" y="273" width="24" height="2" rx="1"></rect>
            <path d="M298.767329,258.622322 L296.95781,259.573643 C296.713388,259.702143 296.411074,259.60817 296.282574,259.363748 C296.231404,259.266418 296.213747,259.154933 296.232335,259.046555 L296.577923,257.031625 C296.605742,256.869428 296.551967,256.703928 296.434124,256.589059 L294.970192,255.162078 C294.77245,254.969328 294.768404,254.652771 294.961155,254.455029 C295.037909,254.376287 295.13848,254.325044 295.247299,254.309231 L297.270403,254.015257 C297.433258,253.991593 297.574041,253.889308 297.646872,253.741736 L298.551632,251.908493 C298.673843,251.660866 298.973656,251.559197 299.221283,251.681408 C299.319889,251.730073 299.399703,251.809887 299.448368,251.908493 L300.353128,253.741736 C300.425959,253.889308 300.566742,253.991593 300.729597,254.015257 L302.752701,254.309231 C303.025974,254.34894 303.215314,254.602662 303.175606,254.875934 C303.159793,254.984753 303.10855,255.085324 303.029808,255.162078 L301.565876,256.589059 C301.448033,256.703928 301.394258,256.869428 301.422077,257.031625 L301.767665,259.046555 C301.814345,259.318723 301.631552,259.577201 301.359383,259.623881 C301.251004,259.64247 301.13952,259.624812 301.04219,259.573643 L299.232671,258.622322 C299.087009,258.545743 298.912991,258.545743 298.767329,258.622322 Z" id="Star-2" fill="#4E555A"></path>
        </g>
    </g>
</svg>