<?xml version="1.0" encoding="UTF-8"?>
<svg width="59px" height="33px" viewBox="0 0 59 33" version="1.1" xmlns="http://www.w3.org/2000/svg" xmlns:xlink="http://www.w3.org/1999/xlink">
    <!-- Generator: Sketch 49 (51002) - http://www.bohemiancoding.com/sketch -->
    <title>login-form</title>
    <desc>Created with Sketch.</desc>
    <defs></defs>
    <g id="Page-1" stroke="none" stroke-width="1" fill="none" fill-rule="evenodd">
        <g id="Icons" transform="translate(-352.000000, -210.000000)">
            <rect id="Rectangle-3" fill="#4E555A" x="358" y="220" width="47" height="13" rx="2"></rect>
            <path d="M363.257136,224.904 L363.433136,223.752 C363.545136,223.128 363.801136,223 364.233136,223 L364.297136,223 C364.729136,223 365.017136,223.128 365.113136,223.752 L365.273136,224.904 L366.457136,224.696 C367.097136,224.584 367.321136,224.792 367.433136,225.24 L367.449136,225.304 C367.577136,225.768 367.561136,225.976 366.985136,226.28 L365.945136,226.824 L366.537136,227.928 C366.841136,228.504 366.633136,228.808 366.313136,229.032 L366.265136,229.064 C365.945136,229.272 365.641136,229.368 365.177136,228.936 L364.249136,228.008 C364.249136,227.992 363.337136,228.936 363.337136,228.936 C362.873136,229.368 362.617136,229.256 362.249136,229.064 L362.185136,229.032 C361.817136,228.824 361.673136,228.504 361.961136,227.928 L362.553136,226.808 L361.529136,226.28 C360.953136,225.976 360.937136,225.784 361.065136,225.304 L361.081136,225.24 C361.193136,224.76 361.417136,224.584 362.041136,224.696 L363.257136,224.904 Z" id="*" fill="#60666A"></path>
            <path d="M372.257136,224.904 L372.433136,223.752 C372.545136,223.128 372.801136,223 373.233136,223 L373.297136,223 C373.729136,223 374.017136,223.128 374.113136,223.752 L374.273136,224.904 L375.457136,224.696 C376.097136,224.584 376.321136,224.792 376.433136,225.24 L376.449136,225.304 C376.577136,225.768 376.561136,225.976 375.985136,226.28 L374.945136,226.824 L375.537136,227.928 C375.841136,228.504 375.633136,228.808 375.313136,229.032 L375.265136,229.064 C374.945136,229.272 374.641136,229.368 374.177136,228.936 L373.249136,228.008 C373.249136,227.992 372.337136,228.936 372.337136,228.936 C371.873136,229.368 371.617136,229.256 371.249136,229.064 L371.185136,229.032 C370.817136,228.824 370.673136,228.504 370.961136,227.928 L371.553136,226.808 L370.529136,226.28 C369.953136,225.976 369.937136,225.784 370.065136,225.304 L370.081136,225.24 C370.193136,224.76 370.417136,224.584 371.041136,224.696 L372.257136,224.904 Z" id="*" fill="#60666A"></path>
            <path d="M381.257136,224.904 L381.433136,223.752 C381.545136,223.128 381.801136,223 382.233136,223 L382.297136,223 C382.729136,223 383.017136,223.128 383.113136,223.752 L383.273136,224.904 L384.457136,224.696 C385.097136,224.584 385.321136,224.792 385.433136,225.24 L385.449136,225.304 C385.577136,225.768 385.561136,225.976 384.985136,226.28 L383.945136,226.824 L384.537136,227.928 C384.841136,228.504 384.633136,228.808 384.313136,229.032 L384.265136,229.064 C383.945136,229.272 383.641136,229.368 383.177136,228.936 L382.249136,228.008 C382.249136,227.992 381.337136,228.936 381.337136,228.936 C380.873136,229.368 380.617136,229.256 380.249136,229.064 L380.185136,229.032 C379.817136,228.824 379.673136,228.504 379.961136,227.928 L380.553136,226.808 L379.529136,226.28 C378.953136,225.976 378.937136,225.784 379.065136,225.304 L379.081136,225.24 C379.193136,224.76 379.417136,224.584 380.041136,224.696 L381.257136,224.904 Z" id="*" fill="#60666A"></path>
        </g>
    </g>
</svg>