<?xml version="1.0" encoding="UTF-8"?>
<svg width="59px" height="33px" viewBox="0 0 59 33" version="1.1" xmlns="http://www.w3.org/2000/svg" xmlns:xlink="http://www.w3.org/1999/xlink">
    <!-- Generator: Sketch 49 (51002) - http://www.bohemiancoding.com/sketch -->
    <title>pricing-box</title>
    <desc>Created with Sketch.</desc>
    <defs></defs>
    <g id="Page-1" stroke="none" stroke-width="1" fill="none" fill-rule="evenodd">
        <g id="Icons" transform="translate(-289.000000, -321.000000)">
            <rect id="Rectangle-3" fill="#4E555A" x="308" y="339" width="26" height="8" rx="2"></rect>
            <path d="M301.52,326.76 C303.232,326.968 304.112,327.656 304.112,328.632 C304.112,329.512 303.152,330.2 303.088,330.136 C302.384,329.496 301.36,329.064 300.448,329.064 C299.568,329.064 299.168,329.336 299.168,329.816 C299.168,330.36 299.92,330.488 300.928,330.712 C302.288,330.984 304.336,331.576 304.336,333.688 C304.336,335.368 303.344,336.456 301.504,336.808 L301.504,337.208 C301.504,338.184 301.136,338.696 300.256,338.696 L300.176,338.696 C299.264,338.696 298.928,338.216 298.928,337.208 L298.928,336.888 C297.024,336.68 296,335.928 296,334.904 C296,334.072 296.896,333.4 296.96,333.48 C297.616,334.056 298.848,334.584 299.904,334.584 C300.816,334.584 301.232,334.328 301.232,333.832 C301.232,333.272 300.48,333.128 299.536,332.92 C298.224,332.648 296.224,332.104 296.224,329.896 C296.224,328.296 297.216,327.208 298.944,326.84 L298.944,326.488 C298.944,325.512 299.312,325 300.192,325 L300.272,325 C301.184,325 301.52,325.48 301.52,326.488 L301.52,326.76 Z" id="$" fill="#60666A"></path>
            <rect id="Rectangle" fill="#60666A" x="308" y="328" width="34" height="2" rx="1"></rect>
            <rect id="Rectangle" fill="#60666A" x="308" y="333" width="26" height="2" rx="1"></rect>
            <rect id="Rectangle" fill="#60666A" x="312" y="342" width="18" height="2" rx="1"></rect>
        </g>
    </g>
</svg>