<?xml version="1.0" encoding="UTF-8"?>
<svg width="59px" height="33px" viewBox="0 0 59 33" version="1.1" xmlns="http://www.w3.org/2000/svg" xmlns:xlink="http://www.w3.org/1999/xlink">
    <!-- Generator: Sketch 49 (51002) - http://www.bohemiancoding.com/sketch -->
    <title>progress-bar</title>
    <desc>Created with Sketch.</desc>
    <defs></defs>
    <g id="Page-1" stroke="none" stroke-width="1" fill="none" fill-rule="evenodd">
        <g id="Icons" transform="translate(-289.000000, -284.000000)">
            <rect id="Rectangle-3" fill="#4E555A" x="295" y="303" width="47" height="8" rx="2"></rect>
            <path d="M324.585786,305 L320.585786,309 L317.414214,309 L321.414214,305 L324.585786,305 Z M326.88335,305.530863 C326.957808,305.67077 327,305.830457 327,306 L327,308 C327,308.552285 326.552285,309 326,309 L323.414214,309 L326.88335,305.530863 Z M318.585786,305 L314.585786,309 L311.414214,309 L315.414214,305 L318.585786,305 Z M312.585786,305 L308.585786,309 L305.414214,309 L309.414214,305 L312.585786,305 Z M306.585786,305 L302.585786,309 L299.414214,309 L303.414214,305 L306.585786,305 Z M300.585786,305 L297.11665,308.469137 C297.042192,308.32923 297,308.169543 297,308 L297,306 C297,305.447715 297.447715,305 298,305 L300.585786,305 Z" id="Combined-Shape" fill="#60666A"></path>
            <path d="M310.364,293.588 C310.784,293.228 311.456,292.94 312.332,292.94 C313.868,292.94 314.9,293.72 314.9,295.244 L314.9,295.304 C314.9,296.972 313.556,298.1 311.588,298.1 C309.356,298.1 308,296.648 308,294.368 L308,293.792 C308,291.452 309.416,290 311.756,290 C313.58,290 314.6,290.672 314.6,291.668 C314.6,292.604 313.484,292.7 313.46,292.664 C313.232,292.28 312.776,291.872 311.96,291.872 C310.88,291.872 310.412,292.424 310.364,293.588 Z M310.412,294.968 C310.46,295.844 310.88,296.336 311.564,296.336 C312.152,296.336 312.608,296 312.608,295.448 L312.608,295.412 C312.608,294.848 312.212,294.536 311.552,294.536 C311.12,294.536 310.736,294.704 310.412,294.968 Z M316.16,297.212 L319.1,292.112 L316.328,292.112 C315.644,292.112 315.272,291.872 315.272,291.188 L315.272,291.056 C315.272,290.396 315.644,290.168 316.328,290.168 L320.048,290.168 C321.476,290.168 321.668,290.78 321.668,291.404 L321.668,291.536 C321.668,292.184 321.176,292.904 320.9,293.372 L318.74,297.2 C318.38,297.824 317.936,298.04 317.516,298.04 C316.736,298.04 316.076,297.356 316.16,297.212 Z M324.044,293.912 C322.772,293.912 321.944,293.192 321.944,292.028 L321.944,291.944 C321.944,290.78 322.784,290.048 324.044,290.048 C325.304,290.048 326.12,290.768 326.12,291.932 L326.12,292.016 C326.12,293.18 325.304,293.912 324.044,293.912 Z M323.66,298.088 C323.588,298.184 322.652,297.848 322.652,297.332 C322.652,297.152 322.736,296.984 322.94,296.744 L329,290.036 C329.084,289.94 330.008,290.264 330.008,290.792 C330.008,290.96 329.924,291.152 329.72,291.38 L323.66,298.088 Z M328.652,298.076 C327.38,298.076 326.552,297.356 326.552,296.192 L326.552,296.108 C326.552,294.944 327.38,294.212 328.652,294.212 C329.912,294.212 330.728,294.932 330.728,296.108 L330.728,296.192 C330.728,297.356 329.912,298.076 328.652,298.076 Z M324.044,292.772 C324.38,292.772 324.644,292.556 324.644,292.076 L324.644,291.884 C324.644,291.404 324.38,291.176 324.044,291.176 C323.684,291.176 323.444,291.392 323.444,291.884 L323.444,292.076 C323.444,292.544 323.696,292.772 324.044,292.772 Z M328.652,296.936 C328.988,296.936 329.24,296.72 329.24,296.24 L329.24,296.06 C329.24,295.58 328.988,295.34 328.652,295.34 C328.292,295.34 328.052,295.568 328.052,296.06 L328.052,296.24 C328.052,296.72 328.304,296.936 328.652,296.936 Z" id="67%" fill="#60666A"></path>
        </g>
    </g>
</svg>