<svg id="Layer_1" data-name="Layer 1" xmlns="http://www.w3.org/2000/svg" xmlns:xlink="http://www.w3.org/1999/xlink" width="70" height="38.62" viewBox="0 0 70 38.62"><defs><clipPath id="clip-path"><path d="M14.77,25.23h9.87a2.47,2.47,0,0,1,0,4.94H14.77a2.47,2.47,0,0,1,0-4.94Z" style="fill:#4e555b;clip-rule:evenodd"/></clipPath><clipPath id="clip-path-2"><path d="M31.55,25.23H50.3a2.47,2.47,0,0,1,0,4.94H31.55a2.47,2.47,0,0,1,0-4.94Z" style="fill:#4e555b;clip-rule:evenodd"/></clipPath><clipPath id="clip-path-3"><rect x="12.3" y="8.45" width="19.54" height="12.83" rx="3.95" ry="3.95" style="fill:#4e555b"/></clipPath><clipPath id="clip-path-4"><path d="M37.47,9.44h6.91a2.47,2.47,0,1,1,0,4.94H37.47a2.47,2.47,0,1,1,0-4.94Z" style="fill:#4e555b;clip-rule:evenodd"/></clipPath><clipPath id="clip-path-5"><path d="M49.31,17.34h5.92a2.47,2.47,0,0,1,0,4.94H49.31a2.47,2.47,0,1,1,0-4.94Z" style="fill:#4e555b;clip-rule:evenodd"/></clipPath><clipPath id="clip-path-6"><path d="M37.47,17.34H42.4a2.47,2.47,0,0,1,0,4.94H37.47a2.47,2.47,0,0,1,0-4.94Z" style="fill:#4e555b;clip-rule:evenodd"/></clipPath><clipPath id="clip-path-7"><path d="M102.43,25.23h9.87a2.47,2.47,0,1,1,0,4.94h-9.87a2.47,2.47,0,1,1,0-4.94Z" style="fill:#577e9c;clip-rule:evenodd"/></clipPath><clipPath id="clip-path-8"><path d="M119.21,25.23H138a2.47,2.47,0,1,1,0,4.94H119.21a2.47,2.47,0,1,1,0-4.94Z" style="fill:#577e9c;clip-rule:evenodd"/></clipPath><clipPath id="clip-path-9"><rect x="99.96" y="8.45" width="19.54" height="12.83" rx="3.95" ry="3.95" style="fill:#577e9c"/></clipPath><clipPath id="clip-path-10"><path d="M125.13,9.44H132a2.47,2.47,0,1,1,0,4.94h-6.91a2.47,2.47,0,1,1,0-4.94Z" style="fill:#577e9c;clip-rule:evenodd"/></clipPath><clipPath id="clip-path-11"><path d="M137,17.34h5.92a2.47,2.47,0,1,1,0,4.94H137a2.47,2.47,0,1,1,0-4.94Z" style="fill:#577e9c;clip-rule:evenodd"/></clipPath><clipPath id="clip-path-12"><path d="M125.13,17.34h4.94a2.47,2.47,0,0,1,0,4.94h-4.94a2.47,2.47,0,1,1,0-4.94Z" style="fill:#577e9c;clip-rule:evenodd"/></clipPath><clipPath id="clip-path-13"><path d="M21,74.65a4.13,4.13,0,0,1,4.12-4.13H44.69a4.12,4.12,0,0,1,4.12,4.13V86a4.13,4.13,0,0,1-4.12,4.13H25.09A4.12,4.12,0,0,1,21,86Z" style="fill:#4e555b;clip-rule:evenodd"/></clipPath><clipPath id="clip-path-14"><path d="M108.63,74.65a4.13,4.13,0,0,1,4.12-4.13h19.59a4.12,4.12,0,0,1,4.12,4.13V86a4.13,4.13,0,0,1-4.12,4.13H112.76A4.12,4.12,0,0,1,108.63,86Z" style="fill:#577f9c;clip-rule:evenodd"/></clipPath><clipPath id="clip-path-15"><circle cx="52.76" cy="193.98" r="7.1" style="fill:#464d54"/></clipPath><clipPath id="clip-path-16"><path d="M39.44,192a3.39,3.39,0,0,1-.94.25,1.6,1.6,0,0,0,.72-.87,3.36,3.36,0,0,1-1,.38,1.67,1.67,0,0,0-1.19-.49,1.61,1.61,0,0,0-1.64,1.57,1.56,1.56,0,0,0,0,.36A4.73,4.73,0,0,1,32,191.6a1.51,1.51,0,0,0-.22.79,1.55,1.55,0,0,0,.73,1.3,1.67,1.67,0,0,1-.74-.2v0a1.59,1.59,0,0,0,1.31,1.54,1.76,1.76,0,0,1-.43.05l-.31,0a1.64,1.64,0,0,0,1.53,1.09,3.39,3.39,0,0,1-2,.67l-.39,0a4.79,4.79,0,0,0,2.51.7,4.53,4.53,0,0,0,4.66-4.46v-.2A3.23,3.23,0,0,0,39.44,192Z" style="fill:#60666b;clip-rule:evenodd"/></clipPath><clipPath id="clip-path-17"><circle cx="55.86" cy="194.42" r="1.33" style="fill:#60666b"/></clipPath><clipPath id="clip-path-18"><circle cx="50.54" cy="197.08" r="1.33" style="fill:#60666b"/></clipPath><clipPath id="clip-path-19"><path d="M50.8,192.61a.44.44,0,0,1,.37-.81l5,2.27a.44.44,0,0,1,0,.79L51,197.71a.44.44,0,0,1-.43-.78L55,194.51Z" style="fill:#60666b"/></clipPath><clipPath id="clip-path-20"><circle cx="140.42" cy="193.98" r="7.1" style="fill:#577f9c"/></clipPath><clipPath id="clip-path-21"><path d="M127.11,192a3.39,3.39,0,0,1-.94.25,1.6,1.6,0,0,0,.72-.87,3.36,3.36,0,0,1-1,.38,1.67,1.67,0,0,0-1.19-.49,1.61,1.61,0,0,0-1.64,1.57,1.56,1.56,0,0,0,0,.36,4.73,4.73,0,0,1-3.38-1.64,1.51,1.51,0,0,0-.22.79,1.55,1.55,0,0,0,.73,1.3,1.67,1.67,0,0,1-.74-.2v0a1.59,1.59,0,0,0,1.31,1.54,1.76,1.76,0,0,1-.43.05l-.31,0a1.64,1.64,0,0,0,1.53,1.09,3.39,3.39,0,0,1-2,.67l-.39,0a4.79,4.79,0,0,0,2.51.7,4.53,4.53,0,0,0,4.66-4.46v-.2A3.23,3.23,0,0,0,127.11,192Z" style="fill:#6a9ab7;clip-rule:evenodd"/></clipPath><clipPath id="clip-path-22"><circle cx="143.53" cy="194.42" r="1.33" style="fill:#6a9ab7"/></clipPath><clipPath id="clip-path-23"><circle cx="138.2" cy="197.08" r="1.33" style="fill:#6a9ab7"/></clipPath><clipPath id="clip-path-24"><path d="M138.46,192.61a.44.44,0,0,1,.37-.81l5,2.27a.44.44,0,0,1,0,.79l-5.22,2.85a.44.44,0,0,1-.43-.78l4.44-2.42Z" style="fill:#6a9ab7"/></clipPath><clipPath id="clip-path-25"><rect x="10.14" y="295.25" width="49.72" height="12.43" rx="4.14" ry="4.14" style="fill:#464d54"/></clipPath><clipPath id="clip-path-26"><rect x="12.68" y="297.32" width="16.57" height="8.29" rx="3.11" ry="3.11" style="fill:#3a4249"/></clipPath><clipPath id="clip-path-27"><path d="M34,297.32H44.84a1.55,1.55,0,0,1,0,3.11H34a1.55,1.55,0,0,1,0-3.11Z" style="fill:#585f65;clip-rule:evenodd"/></clipPath><clipPath id="clip-path-28"><path d="M44.74,302.5h6.32a1.55,1.55,0,0,1,0,3.11H44.74a1.55,1.55,0,1,1,0-3.11Z" style="fill:#585f65;clip-rule:evenodd"/></clipPath><clipPath id="clip-path-29"><path d="M34,302.5h6.32a1.55,1.55,0,0,1,0,3.11H34a1.55,1.55,0,0,1,0-3.11Z" style="fill:#585f65;clip-rule:evenodd"/></clipPath><clipPath id="clip-path-30"><rect x="10.14" y="308.95" width="49.72" height="12.43" rx="4.14" ry="4.14" style="fill:#464d54"/></clipPath><clipPath id="clip-path-31"><rect x="12.68" y="311.02" width="16.57" height="8.29" rx="3.11" ry="3.11" style="fill:#3a4249"/></clipPath><clipPath id="clip-path-32"><path d="M34,311H44.84a1.55,1.55,0,0,1,0,3.11H34A1.55,1.55,0,0,1,34,311Z" style="fill:#585f65;clip-rule:evenodd"/></clipPath><clipPath id="clip-path-33"><path d="M44.74,316.2h6.32a1.55,1.55,0,0,1,0,3.11H44.74a1.55,1.55,0,1,1,0-3.11Z" style="fill:#585f65;clip-rule:evenodd"/></clipPath><clipPath id="clip-path-34"><path d="M34,316.2h6.32a1.55,1.55,0,0,1,0,3.11H34a1.55,1.55,0,0,1,0-3.11Z" style="fill:#585f65;clip-rule:evenodd"/></clipPath><clipPath id="clip-path-35"><rect x="97.81" y="295.25" width="49.72" height="12.43" rx="4.14" ry="4.14" style="fill:#577f9c"/></clipPath><clipPath id="clip-path-36"><rect x="100.35" y="297.32" width="16.57" height="8.29" rx="3.11" ry="3.11" style="fill:#6a9ab7"/></clipPath><clipPath id="clip-path-37"><path d="M121.63,297.32h10.88a1.55,1.55,0,1,1,0,3.11H121.63a1.55,1.55,0,1,1,0-3.11Z" style="fill:#6a9ab7;clip-rule:evenodd"/></clipPath><clipPath id="clip-path-38"><path d="M132.4,302.5h6.32a1.55,1.55,0,1,1,0,3.11H132.4a1.55,1.55,0,1,1,0-3.11Z" style="fill:#6a9ab7;clip-rule:evenodd"/></clipPath><clipPath id="clip-path-39"><path d="M121.63,302.5h6.32a1.55,1.55,0,1,1,0,3.11h-6.32a1.55,1.55,0,1,1,0-3.11Z" style="fill:#6a9ab7;clip-rule:evenodd"/></clipPath><clipPath id="clip-path-40"><rect x="97.81" y="308.95" width="49.72" height="12.43" rx="4.14" ry="4.14" style="fill:#577f9c"/></clipPath><clipPath id="clip-path-41"><rect x="100.35" y="311.02" width="16.57" height="8.29" rx="3.11" ry="3.11" style="fill:#6a9ab7"/></clipPath><clipPath id="clip-path-42"><path d="M121.63,311h10.88a1.55,1.55,0,0,1,0,3.11H121.63a1.55,1.55,0,0,1,0-3.11Z" style="fill:#6a9ab7;clip-rule:evenodd"/></clipPath><clipPath id="clip-path-43"><path d="M132.4,316.2h6.32a1.55,1.55,0,0,1,0,3.11H132.4a1.55,1.55,0,1,1,0-3.11Z" style="fill:#6a9ab7;clip-rule:evenodd"/></clipPath><clipPath id="clip-path-44"><path d="M121.63,316.2h6.32a1.55,1.55,0,0,1,0,3.11h-6.32a1.55,1.55,0,1,1,0-3.11Z" style="fill:#6a9ab7;clip-rule:evenodd"/></clipPath><clipPath id="clip-path-45"><path d="M211,11.82h1.49c1.44,0,2.18-.5,2.18-1.58s-.72-1.44-2.18-1.44H211Zm0-5h1.24c1.3,0,1.85-.54,1.85-1.39s-.59-1.26-1.84-1.26H211Zm-2.65,7V2.13h4c2.43,0,4.32.67,4.32,2.92a2.72,2.72,0,0,1-1.53,2.54v.07a2.66,2.66,0,0,1,2.11,2.75c0,2.39-2,3.46-4.55,3.46Z" style="fill:#fff;clip-rule:evenodd"/></clipPath><clipPath id="clip-path-46"><path d="M233.8,9.54l1.38-1.38a2.76,2.76,0,0,1,3.91,0l.16.16a2.76,2.76,0,0,1,0,3.91l-1.38,1.38a2.76,2.76,0,0,1-3.91,0l-.16-.16A2.76,2.76,0,0,1,233.8,9.54Zm1,1a1.38,1.38,0,0,0,0,2l.16.16a1.38,1.38,0,0,0,2,0l1.38-1.38a1.38,1.38,0,0,0,0-2l-.16-.16a1.38,1.38,0,0,0-2,0Z" style="fill:#fff"/></clipPath><clipPath id="clip-path-47"><path d="M239.57,3.77l1.38-1.38a2.76,2.76,0,0,1,3.91,0l.16.16a2.76,2.76,0,0,1,0,3.91l-1.38,1.38a2.76,2.76,0,0,1-3.91,0l-.16-.16A2.76,2.76,0,0,1,239.57,3.77Zm1,1a1.38,1.38,0,0,0,0,2l.16.16a1.38,1.38,0,0,0,2,0L244,5.49a1.38,1.38,0,0,0,0-2l-.16-.16a1.38,1.38,0,0,0-2,0Z" style="fill:#fff"/></clipPath><clipPath id="clip-path-48"><path d="M237.5,10.89a.69.69,0,1,1-1-1l5.05-5.05a.69.69,0,1,1,1,1Z" style="fill:#fff"/></clipPath><clipPath id="clip-path-49"><path d="M260,10.35a.74.74,0,0,1-1.07-1c3.15-3.35,5.88-4.93,8.24-4.62S271,6,271.29,7.78a.74.74,0,1,1-1.45.25c-.17-1-1-1.62-2.82-1.85S262.9,7.31,260,10.35Z" style="fill:#fff"/></clipPath><clipPath id="clip-path-50"><path d="M260.24,9.32l2.37.54a.74.74,0,1,1-.33,1.44l-2.95-.67a.74.74,0,0,1-.57-.72V5.42a.74.74,0,1,1,1.47,0Z" style="fill:#fff"/></clipPath><clipPath id="clip-path-51"><path d="M292.43,10.35a.74.74,0,0,0,1.07-1c-3.15-3.35-5.88-4.93-8.24-4.62S281.48,6,281.19,7.78a.74.74,0,1,0,1.45.25c.17-1,1-1.62,2.82-1.85S289.58,7.31,292.43,10.35Z" style="fill:#fff"/></clipPath><clipPath id="clip-path-52"><path d="M292.23,9.32l-2.37.54a.74.74,0,1,0,.33,1.44l2.95-.67a.74.74,0,0,0,.57-.72V5.42a.74.74,0,1,0-1.47,0Z" style="fill:#fff"/></clipPath><clipPath id="clip-path-53"><path d="M228.59,43.46a5.16,5.16,0,0,0-2-2,10.35,10.35,0,0,0-2.95-1.09A17.74,17.74,0,0,0,220,40a7.43,7.43,0,0,0-2.81.53,6.76,6.76,0,0,0-2.13,1.3,7.12,7.12,0,0,0-1.3,1.59,2.73,2.73,0,0,0-.44,1.31,2.89,2.89,0,0,0,.59,1.91,2,2,0,0,0,1.67.68,4.38,4.38,0,0,1,2.21.43,1.81,1.81,0,0,1,.83,1.67,2.44,2.44,0,0,0,.77,1.85,2.68,2.68,0,0,0,1.94.74,9.26,9.26,0,0,0,6-1.68,4.9,4.9,0,0,0,2-3.9A6,6,0,0,0,228.59,43.46Zm.7-.4a6.79,6.79,0,0,1,.82,3.42A5.69,5.69,0,0,1,227.79,51a10,10,0,0,1-6.49,1.86,3.48,3.48,0,0,1-2.5-1,3.24,3.24,0,0,1-1-2.42,1,1,0,0,0-.44-1,3.72,3.72,0,0,0-1.79-.32,2.83,2.83,0,0,1-2.29-1,3.67,3.67,0,0,1-.78-2.42,3.48,3.48,0,0,1,.55-1.71,7.9,7.9,0,0,1,1.44-1.77,7.54,7.54,0,0,1,2.38-1.46,8.23,8.23,0,0,1,3.11-.59,18.53,18.53,0,0,1,3.86.37A11.15,11.15,0,0,1,227,40.79,6,6,0,0,1,229.28,43.06Z" style="fill:#fff"/></clipPath><clipPath id="clip-path-54"><path d="M215.69,46.45a1.6,1.6,0,1,1,1.13-.47A1.56,1.56,0,0,1,215.69,46.45Zm.57-1a.8.8,0,1,0-.57.23A.76.76,0,0,0,216.25,45.42Z" style="fill:#fff"/></clipPath><clipPath id="clip-path-55"><path d="M218.87,44a1.52,1.52,0,0,1-1.13-.47,1.64,1.64,0,0,1,0-2.26,1.52,1.52,0,0,1,1.13-.47,1.59,1.59,0,0,1,1.14.47,1.59,1.59,0,0,1,0,2.27A1.59,1.59,0,0,1,218.87,44Zm0-.8a.79.79,0,0,0,.58-.24.79.79,0,0,0,0-1.13.79.79,0,0,0-.58-.24.72.72,0,0,0-.56.23.84.84,0,0,0,0,1.15A.72.72,0,0,0,218.87,43.25Z" style="fill:#fff"/></clipPath><clipPath id="clip-path-56"><path d="M222.42,50.79a1.59,1.59,0,1,1,.47-1.13A1.56,1.56,0,0,1,222.42,50.79Zm-.33-1.13a.81.81,0,1,0-.24.56A.76.76,0,0,0,222.09,49.66Z" style="fill:#fff"/></clipPath><clipPath id="clip-path-57"><path d="M222.9,44a1.6,1.6,0,1,1,1.13-.47A1.56,1.56,0,0,1,222.9,44Zm.57-1a.8.8,0,1,0-.57.23A.76.76,0,0,0,223.46,43Z" style="fill:#fff"/></clipPath><clipPath id="clip-path-58"><path d="M227.23,45.18A1.61,1.61,0,1,1,227.7,44,1.56,1.56,0,0,1,227.23,45.18ZM226.9,44a.8.8,0,1,0-.23.57A.76.76,0,0,0,226.9,44Z" style="fill:#fff"/></clipPath><clipPath id="clip-path-59"><path d="M216,51.08l-.13-1-2.77.4v.47Zm-3.7.58V49.74l4.27-.61.35,2.8Z" style="fill:#fff"/></clipPath><clipPath id="clip-path-60"><path d="M209.45,50.79l.62.31a5.86,5.86,0,0,0,.8.3c.68.2,1.06.12,1.19-.23.41-1.07-.59-2-2.3-1.66a3.34,3.34,0,0,0-2,1A3.43,3.43,0,0,1,209.45,50.79Zm.15-2.06c2.28-.48,3.86,1,3.21,2.73-.32.85-1.13,1-2.16.71a6.63,6.63,0,0,1-.91-.34l-.66-.32a3.44,3.44,0,0,0-1.91-.17.4.4,0,0,1-.43-.5C207,49.75,208,49.06,209.59,48.72Z" style="fill:#fff"/></clipPath><clipPath id="clip-path-61"><path d="M258.56,48.13a2,2,0,1,1-2-2A2,2,0,0,1,258.56,48.13Zm-.64,0a1.4,1.4,0,1,0-1.4,1.4A1.4,1.4,0,0,0,257.92,48.13Zm2.81-.64h-.46a.7.7,0,0,1-.62-.46,3.21,3.21,0,0,0-.14-.33.69.69,0,0,1,.11-.76l.33-.33a.27.27,0,0,0,0-.38l-.53-.53a.27.27,0,0,0-.38,0l-.33.33a.65.65,0,0,1-.46.18.69.69,0,0,1-.3-.07l-.33-.14a.69.69,0,0,1-.46-.62v-.46a.27.27,0,0,0-.27-.27h-.75a.27.27,0,0,0-.27.27v.46a.69.69,0,0,1-.46.62l-.33.14a.7.7,0,0,1-.3.07.65.65,0,0,1-.46-.18L254,44.7a.27.27,0,0,0-.38,0l-.53.53a.27.27,0,0,0,0,.38l.33.33a.69.69,0,0,1,.11.76,3.29,3.29,0,0,0-.14.33.7.7,0,0,1-.62.46h-.46a.27.27,0,0,0-.27.27v.75a.27.27,0,0,0,.27.27h.46a.69.69,0,0,1,.62.46,3.31,3.31,0,0,0,.14.33.69.69,0,0,1-.11.76l-.33.33a.27.27,0,0,0,0,.38l.53.53a.27.27,0,0,0,.38,0l.33-.33a.65.65,0,0,1,.46-.18.69.69,0,0,1,.3.07l.33.14a.7.7,0,0,1,.46.62v.46a.27.27,0,0,0,.27.27h.75a.27.27,0,0,0,.27-.27v-.46a.69.69,0,0,1,.46-.62l.33-.14a.69.69,0,0,1,.3-.07.65.65,0,0,1,.46.18l.33.33a.27.27,0,0,0,.38,0l.53-.53a.27.27,0,0,0,0-.38l-.33-.33a.69.69,0,0,1-.11-.76,3.19,3.19,0,0,0,.14-.33.7.7,0,0,1,.62-.46h.46a.27.27,0,0,0,.27-.27v-.75A.27.27,0,0,0,260.73,47.49Zm-.64-1.07a3.84,3.84,0,0,1,.17.4s0,0,0,0h.46a.91.91,0,0,1,.91.91v.75a.91.91,0,0,1-.91.91h-.46s0,0,0,0a3.82,3.82,0,0,1-.17.4s0,0,0,0l.33.33a.91.91,0,0,1,0,1.28l-.53.53a.91.91,0,0,1-1.28,0l-.33-.33h0l-.4.17s0,0,0,0v.46a.91.91,0,0,1-.91.91h-.75a.91.91,0,0,1-.91-.91v-.46s0,0,0,0l-.4-.17s0,0,0,0l-.33.33a.91.91,0,0,1-1.28,0l-.53-.53a.91.91,0,0,1,0-1.28l.33-.33s0,0,0,0a4,4,0,0,1-.17-.4s0,0,0,0h-.46a.91.91,0,0,1-.91-.91v-.75a.91.91,0,0,1,.91-.91h.46s0,0,0,0a3.92,3.92,0,0,1,.17-.4s0,0,0,0l-.33-.33a.91.91,0,0,1,0-1.28l.53-.53a.91.91,0,0,1,1.28,0l.33.33h0l.4-.17s0,0,0,0v-.46a.91.91,0,0,1,.91-.91h.75a.91.91,0,0,1,.91.91v.46s0,0,0,0l.4.17s0,0,0,0l.33-.33a.91.91,0,0,1,1.28,0l.53.53a.91.91,0,0,1,0,1.28l-.33.33S260.08,46.41,260.09,46.42Z" style="fill:#fff"/></clipPath><clipPath id="clip-path-62"><path d="M251.72,41.74a1,1,0,1,1-1-1A1,1,0,0,1,251.72,41.74Zm1.13.73a.11.11,0,0,1,.08-.07h.27a.45.45,0,0,0,.45-.45v-.43a.45.45,0,0,0-.45-.45h-.27a.11.11,0,0,1-.08-.07,2.24,2.24,0,0,0-.09-.22.11.11,0,0,1,0-.1l.19-.19a.45.45,0,0,0,0-.64l-.31-.31a.45.45,0,0,0-.64,0l-.19.19-.06,0h0l-.22-.09a.11.11,0,0,1-.07-.08v-.27a.45.45,0,0,0-.45-.45h-.43a.45.45,0,0,0-.45.45v.27a.11.11,0,0,1-.07.08l-.22.09h0l-.06,0-.19-.19a.45.45,0,0,0-.64,0l-.31.31a.45.45,0,0,0,0,.64l.19.19a.11.11,0,0,1,0,.1,2.15,2.15,0,0,0-.09.22.11.11,0,0,1-.08.07h-.27a.45.45,0,0,0-.45.45V42a.45.45,0,0,0,.45.45h.26a.11.11,0,0,1,.08.07,2.16,2.16,0,0,0,.09.22.11.11,0,0,1,0,.1l-.19.19a.45.45,0,0,0,0,.64l.31.31a.45.45,0,0,0,.64,0l.19-.19.06,0h0l.22.09a.11.11,0,0,1,.07.08v.27a.45.45,0,0,0,.45.45H251a.45.45,0,0,0,.45-.45V43.9a.11.11,0,0,1,.07-.08l.22-.09h0l.06,0,.19.19a.45.45,0,0,0,.64,0l.31-.31a.45.45,0,0,0,0-.64l-.19-.19a.11.11,0,0,1,0-.1A2.29,2.29,0,0,0,252.85,42.47Z" style="fill:#626b71;clip-rule:evenodd"/></clipPath><clipPath id="clip-path-63"><path d="M291.07,40.42h-.23l-.23,0V42H291a1.07,1.07,0,0,0,.67-.18.73.73,0,0,0,.23-.61.68.68,0,0,0-.22-.58A1,1,0,0,0,291.07,40.42Zm-.11-.81a2.27,2.27,0,0,1,1.38.37,1.39,1.39,0,0,1,.49,1.2,1.42,1.42,0,0,1-.49,1.21,2.28,2.28,0,0,1-1.4.37h-.33v1.58h-.93V39.73l.31-.05.34,0,.34,0Zm-2.43.05v4.67h-.93V42.27h-1.24v2.06h-.93V39.67h.93v1.84h1.24V39.67Zm-5.81.75h-.23l-.23,0V42h.38a1.07,1.07,0,0,0,.67-.18.73.73,0,0,0,.23-.61.68.68,0,0,0-.22-.58A1,1,0,0,0,282.72,40.42Zm-.11-.81A2.27,2.27,0,0,1,284,40a1.39,1.39,0,0,1,.49,1.2,1.42,1.42,0,0,1-.49,1.21,2.28,2.28,0,0,1-1.4.37h-.33v1.58h-.93V39.73l.31-.05.34,0,.34,0Z" style="fill:none;clip-rule:evenodd"/></clipPath><clipPath id="clip-path-64"><path d="M295.9,42a.38.38,0,0,1-.33-.15.58.58,0,0,1-.11-.34.56.56,0,0,1,.11-.34.42.42,0,0,1,.65,0,.54.54,0,0,1,.12.34.57.57,0,0,1-.11.34A.38.38,0,0,1,295.9,42Zm2.76,0a.38.38,0,0,1-.33-.15.58.58,0,0,1-.11-.34.56.56,0,0,1,.11-.34.42.42,0,0,1,.65,0,.54.54,0,0,1,.12.34.57.57,0,0,1-.11.34A.38.38,0,0,1,298.66,42Zm2.75,0a.38.38,0,0,1-.32-.15.57.57,0,0,1-.11-.34.55.55,0,0,1,.11-.34.42.42,0,0,1,.65,0,.56.56,0,0,1,.11.34.58.58,0,0,1-.11.34A.38.38,0,0,1,301.42,42Z" style="fill:none;clip-rule:evenodd"/></clipPath><clipPath id="clip-path-65"><rect x="286.21" y="44.2" width="17.35" height="8.3" rx="2.26" ry="2.26" style="fill:none"/></clipPath><clipPath id="clip-path-66"><path d="M301.3,49.63l-.08,0-.17.06-.25.06-.33,0a.89.89,0,0,1-.75-.3,1.44,1.44,0,0,1-.24-.89V46.21h-.78V45.6h1.53v3.08a.52.52,0,0,0,.11.39.42.42,0,0,0,.29.1,1,1,0,0,0,.37-.06l.2-.08Zm-4.09-2.75a.89.89,0,0,1,.39.07.55.55,0,0,1,.24.22,1,1,0,0,1,.12.37,3.85,3.85,0,0,1,0,.52v1.7h-.6V48a1.4,1.4,0,0,0,0-.27.5.5,0,0,0-.05-.16.17.17,0,0,0-.08-.07l-.09,0H297l-.11,0q0,.11,0,.25t0,.31v.57h-.6V48a1,1,0,0,0-.06-.4.19.19,0,0,0-.18-.11H296l-.1,0v2.23h-.6V47l.46-.1a2.63,2.63,0,0,1,.4,0,.93.93,0,0,1,.28,0,.52.52,0,0,1,.21.13,1.23,1.23,0,0,1,.24-.12A.83.83,0,0,1,297.21,46.88Zm-4.55.65H292v-.62h.65V46.2l.74-.12v.83h1.19v.62h-1.19v1.15a.87.87,0,0,0,0,.25.36.36,0,0,0,.08.15.27.27,0,0,0,.13.07l.17,0H294l.17,0,.17,0,.19-.08.1.64a1.92,1.92,0,0,1-.44.12,3.07,3.07,0,0,1-.46,0,2.23,2.23,0,0,1-.46,0,.74.74,0,0,1-.34-.16.75.75,0,0,1-.21-.34,1.89,1.89,0,0,1-.07-.58Zm-3.82,2.22V45.69l.74-.13v1.38l.22-.06.22,0a1.3,1.3,0,0,1,.52.09.82.82,0,0,1,.34.27,1.09,1.09,0,0,1,.18.41,2.38,2.38,0,0,1,.05.53v1.6h-.74v-1.5a1.33,1.33,0,0,0-.09-.57.35.35,0,0,0-.34-.17l-.2,0-.16,0v2.18Z" style="fill:none;clip-rule:evenodd"/></clipPath><clipPath id="clip-path-67"><path d="M340,45.55l-2.63,1.11-.24-.74,1.92-.75-1.92-.75.24-.74,2.63,1.1Zm-5.94,1.38V42.69h2.57v.7h-1.73v1h1.5V45h-1.5v1.19h1.88v.7Zm-.42-2.12a3,3,0,0,1-.15,1,1.78,1.78,0,0,1-.41.67,1.56,1.56,0,0,1-.62.38,2.49,2.49,0,0,1-.79.12l-.44,0-.46-.08V42.74a4.22,4.22,0,0,1,.54-.08l.47,0a2.26,2.26,0,0,1,.76.12,1.42,1.42,0,0,1,.59.39,1.83,1.83,0,0,1,.37.67A3.18,3.18,0,0,1,333.65,44.8Zm-2,1.44h.15a1,1,0,0,0,.48-.11.87.87,0,0,0,.32-.3,1.33,1.33,0,0,0,.17-.46,3,3,0,0,0,.05-.58,3.42,3.42,0,0,0,0-.53,1.5,1.5,0,0,0-.14-.46.84.84,0,0,0-.28-.32.81.81,0,0,0-.46-.12h-.12l-.12,0Zm-4.26-1.44a2.81,2.81,0,0,1,.4-1.65,1.42,1.42,0,0,1,2.26,0,2.89,2.89,0,0,1,.39,1.65,2.85,2.85,0,0,1-.4,1.65,1.43,1.43,0,0,1-2.26,0A2.87,2.87,0,0,1,327.36,44.8Zm.86,0q0,.31,0,.58a1.87,1.87,0,0,0,.1.47.76.76,0,0,0,.2.32.58.58,0,0,0,.7,0,.74.74,0,0,0,.21-.32,1.91,1.91,0,0,0,.1-.47q0-.27,0-.58t0-.58a1.87,1.87,0,0,0-.1-.47.76.76,0,0,0-.2-.32.58.58,0,0,0-.7,0,.76.76,0,0,0-.2.32,1.91,1.91,0,0,0-.1.47Q328.22,44.49,328.22,44.8ZM326,47a1.67,1.67,0,0,1-1.37-.58,2.52,2.52,0,0,1-.47-1.64,2.83,2.83,0,0,1,.14-.94,2,2,0,0,1,.4-.7,1.69,1.69,0,0,1,.61-.43,2,2,0,0,1,.77-.15,2,2,0,0,1,.41,0l.32.09.23.1.14.08-.22.67a1.59,1.59,0,0,0-.38-.17,1.66,1.66,0,0,0-.51-.07,1.08,1.08,0,0,0-.39.07.85.85,0,0,0-.34.24,1.28,1.28,0,0,0-.24.45,2.26,2.26,0,0,0-.09.7,2.06,2.06,0,0,0,.25,1.11.9.9,0,0,0,.82.39,1.67,1.67,0,0,0,.54-.08,2.06,2.06,0,0,0,.35-.15l.21.66a2.1,2.1,0,0,1-.48.2A2.42,2.42,0,0,1,326,47Zm-4.06,1H321L323,42.14h.86Zm-4.12-3.27,2.63-1.1.23.74-1.92.75,1.92.75-.23.74-2.63-1.11Z" style="fill:none;clip-rule:evenodd"/></clipPath><clipPath id="clip-path-68"><path d="M326.15,50a.37.37,0,0,1-.33-.15.58.58,0,0,1-.11-.34.56.56,0,0,1,.11-.34.42.42,0,0,1,.65,0,.54.54,0,0,1,.12.34.57.57,0,0,1-.11.34A.38.38,0,0,1,326.15,50Zm2.76,0a.37.37,0,0,1-.33-.15.58.58,0,0,1-.11-.34.56.56,0,0,1,.11-.34.42.42,0,0,1,.65,0,.54.54,0,0,1,.12.34.57.57,0,0,1-.11.34A.38.38,0,0,1,328.91,50Zm2.75,0a.38.38,0,0,1-.32-.15.57.57,0,0,1-.11-.34.55.55,0,0,1,.11-.34.42.42,0,0,1,.65,0,.56.56,0,0,1,.11.34.58.58,0,0,1-.11.34A.37.37,0,0,1,331.66,50Z" style="fill:none;clip-rule:evenodd"/></clipPath><clipPath id="clip-path-69"><rect x="353.19" y="36.64" width="12.55" height="9.86" rx="1.79" ry="1.79" style="fill:none"/></clipPath><clipPath id="clip-path-70"><path d="M365.72,53.5a3.09,3.09,0,0,1-2.55,1.07h0c-2,0-3.9-1.4-5.16-2.55a18.61,18.61,0,0,1-2.1-2.31,1.21,1.21,0,0,1,.77-.28,2.08,2.08,0,0,1,1.21.49l0,0,1.19.93a.4.4,0,0,0,.42,0,.41.41,0,0,0,.23-.36l0-5.88V42.61a.6.6,0,1,1,1.2,0,.27.27,0,0,0,0,0l.45,3.82a.41.41,0,0,0,.29.35l.67.15a12,12,0,0,1,4.16,1.67C366.63,49.38,366.92,52,365.72,53.5Zm1.66-5.16a.41.41,0,0,0-.19-.28,12.94,12.94,0,0,0-4.58-1.89l-.36-.08-.42-3.56a1.41,1.41,0,0,0-2.82,0s0,0,0,0v2.09l0,5.11-.54-.43a2.89,2.89,0,0,0-1.74-.7,2.1,2.1,0,0,0-1.61.78.42.42,0,0,0,0,.52,18.89,18.89,0,0,0,2.42,2.74,13,13,0,0,0,2.58,1.91,6.74,6.74,0,0,0,3.15.9h0a3.85,3.85,0,0,0,3.18-1.38C368.06,52,367.41,48.49,367.38,48.34Z" style="fill:none;clip-rule:evenodd"/></clipPath><clipPath id="clip-path-71"><path d="M387.62,37.05h16a2,2,0,0,1,2,2v4a2,2,0,0,1-2,2h-16a2,2,0,0,1-2-2v-4A2,2,0,0,1,387.62,37.05Zm0,1a1,1,0,0,0-1,1v4a1,1,0,0,0,1,1h16a1,1,0,0,0,1-1v-4a1,1,0,0,0-1-1Z" style="fill:none"/></clipPath><clipPath id="clip-path-72"><polygon points="400.62 42.05 398.62 40.05 402.62 40.05 400.62 42.05" style="fill:none;clip-rule:evenodd"/></clipPath><clipPath id="clip-path-73"><rect x="385.62" y="47.05" width="20" height="8" rx="2" ry="2" style="fill:none"/></clipPath><clipPath id="clip-path-74"><circle cx="432.35" cy="49.55" r="1" style="fill:none"/></clipPath><clipPath id="clip-path-75"><path d="M424.35,42.55h4a2,2,0,0,1,2,2v8a2,2,0,0,1-2,2h-4a2,2,0,0,1-2-2v-8A2,2,0,0,1,424.35,42.55Zm0,1a1,1,0,0,0-1,1v8a1,1,0,0,0,1,1h4a1,1,0,0,0,1-1v-8a1,1,0,0,0-1-1Z" style="fill:none"/></clipPath><clipPath id="clip-path-76"><circle cx="426.35" cy="51.55" r="1" style="fill:none"/></clipPath></defs><title>icons</title><path d="M14.77,25.23h9.87a2.47,2.47,0,0,1,0,4.94H14.77a2.47,2.47,0,0,1,0-4.94Z" style="fill:#4e555b;fill-rule:evenodd"/><g style="clip-path:url(#clip-path)"><rect x="-60.74" y="-36.95" width="499.44" height="683.03" style="fill:#4e555b"/></g><path d="M31.55,25.23H50.3a2.47,2.47,0,0,1,0,4.94H31.55a2.47,2.47,0,0,1,0-4.94Z" style="fill:#4e555b;fill-rule:evenodd"/><g style="clip-path:url(#clip-path-2)"><rect x="-60.74" y="-36.95" width="499.44" height="683.03" style="fill:#4e555b"/></g><rect x="12.3" y="8.45" width="19.54" height="12.83" rx="3.95" ry="3.95" style="fill:#4e555b"/><g style="clip-path:url(#clip-path-3)"><rect x="-60.74" y="-36.95" width="499.44" height="683.03" style="fill:#4e555b"/></g><path d="M37.47,9.44h6.91a2.47,2.47,0,1,1,0,4.94H37.47a2.47,2.47,0,1,1,0-4.94Z" style="fill:#4e555b;fill-rule:evenodd"/><g style="clip-path:url(#clip-path-4)"><rect x="-60.74" y="-36.95" width="499.44" height="683.03" style="fill:#4e555b"/></g><path d="M49.31,17.34h5.92a2.47,2.47,0,0,1,0,4.94H49.31a2.47,2.47,0,1,1,0-4.94Z" style="fill:#4e555b;fill-rule:evenodd"/><g style="clip-path:url(#clip-path-5)"><rect x="-60.74" y="-36.95" width="499.44" height="683.03" style="fill:#4e555b"/></g><path d="M37.47,17.34H42.4a2.47,2.47,0,0,1,0,4.94H37.47a2.47,2.47,0,0,1,0-4.94Z" style="fill:#4e555b;fill-rule:evenodd"/><g style="clip-path:url(#clip-path-6)"><rect x="-60.74" y="-36.95" width="499.44" height="683.03" style="fill:#4e555b"/></g><path d="M102.43,25.23h9.87a2.47,2.47,0,1,1,0,4.94h-9.87a2.47,2.47,0,1,1,0-4.94Z" style="fill:#577e9c;fill-rule:evenodd"/><g style="clip-path:url(#clip-path-7)"><rect x="26.92" y="-36.95" width="499.44" height="683.03" style="fill:#577e9c"/></g><path d="M119.21,25.23H138a2.47,2.47,0,1,1,0,4.94H119.21a2.47,2.47,0,1,1,0-4.94Z" style="fill:#577e9c;fill-rule:evenodd"/><g style="clip-path:url(#clip-path-8)"><rect x="26.92" y="-36.95" width="499.44" height="683.03" style="fill:#577e9c"/></g><rect x="99.96" y="8.45" width="19.54" height="12.83" rx="3.95" ry="3.95" style="fill:#577e9c"/><g style="clip-path:url(#clip-path-9)"><rect x="26.92" y="-36.95" width="499.44" height="683.03" style="fill:#577e9c"/></g><path d="M125.13,9.44H132a2.47,2.47,0,1,1,0,4.94h-6.91a2.47,2.47,0,1,1,0-4.94Z" style="fill:#577e9c;fill-rule:evenodd"/><g style="clip-path:url(#clip-path-10)"><rect x="26.92" y="-36.95" width="499.44" height="683.03" style="fill:#577e9c"/></g><path d="M137,17.34h5.92a2.47,2.47,0,1,1,0,4.94H137a2.47,2.47,0,1,1,0-4.94Z" style="fill:#577e9c;fill-rule:evenodd"/><g style="clip-path:url(#clip-path-11)"><rect x="26.92" y="-36.95" width="499.44" height="683.03" style="fill:#577e9c"/></g><path d="M125.13,17.34h4.94a2.47,2.47,0,0,1,0,4.94h-4.94a2.47,2.47,0,1,1,0-4.94Z" style="fill:#577e9c;fill-rule:evenodd"/><g style="clip-path:url(#clip-path-12)"><rect x="26.92" y="-36.95" width="499.44" height="683.03" style="fill:#577e9c"/></g><path d="M21,74.65a4.13,4.13,0,0,1,4.12-4.13H44.69a4.12,4.12,0,0,1,4.12,4.13V86a4.13,4.13,0,0,1-4.12,4.13H25.09A4.12,4.12,0,0,1,21,86Z" style="fill:#4e555b;fill-rule:evenodd"/><g style="clip-path:url(#clip-path-13)"><rect x="-65.65" y="-52.19" width="521.76" height="713.55" style="fill:#4e555b"/></g><path d="M108.63,74.65a4.13,4.13,0,0,1,4.12-4.13h19.59a4.12,4.12,0,0,1,4.12,4.13V86a4.13,4.13,0,0,1-4.12,4.13H112.76A4.12,4.12,0,0,1,108.63,86Z" style="fill:#577f9c;fill-rule:evenodd"/><g style="clip-path:url(#clip-path-14)"><rect x="22.02" y="-52.19" width="521.76" height="713.55" style="fill:#577f9c"/></g><circle cx="52.76" cy="193.98" r="7.1" style="fill:#464d54"/><path d="M39.44,192a3.39,3.39,0,0,1-.94.25,1.6,1.6,0,0,0,.72-.87,3.36,3.36,0,0,1-1,.38,1.67,1.67,0,0,0-1.19-.49,1.61,1.61,0,0,0-1.64,1.57,1.56,1.56,0,0,0,0,.36A4.73,4.73,0,0,1,32,191.6a1.51,1.51,0,0,0-.22.79,1.55,1.55,0,0,0,.73,1.3,1.67,1.67,0,0,1-.74-.2v0a1.59,1.59,0,0,0,1.31,1.54,1.76,1.76,0,0,1-.43.05l-.31,0a1.64,1.64,0,0,0,1.53,1.09,3.39,3.39,0,0,1-2,.67l-.39,0a4.79,4.79,0,0,0,2.51.7,4.53,4.53,0,0,0,4.66-4.46v-.2A3.23,3.23,0,0,0,39.44,192Z" style="fill:#60666b;fill-rule:evenodd"/><circle cx="55.86" cy="194.42" r="1.33" style="fill:#60666b"/><circle cx="50.54" cy="197.08" r="1.33" style="fill:#60666b"/><path d="M50.8,192.61a.44.44,0,0,1,.37-.81l5,2.27a.44.44,0,0,1,0,.79L51,197.71a.44.44,0,0,1-.43-.78L55,194.51Z" style="fill:#60666b"/><circle cx="140.42" cy="193.98" r="7.1" style="fill:#577f9c"/><path d="M127.11,192a3.39,3.39,0,0,1-.94.25,1.6,1.6,0,0,0,.72-.87,3.36,3.36,0,0,1-1,.38,1.67,1.67,0,0,0-1.19-.49,1.61,1.61,0,0,0-1.64,1.57,1.56,1.56,0,0,0,0,.36,4.73,4.73,0,0,1-3.38-1.64,1.51,1.51,0,0,0-.22.79,1.55,1.55,0,0,0,.73,1.3,1.67,1.67,0,0,1-.74-.2v0a1.59,1.59,0,0,0,1.31,1.54,1.76,1.76,0,0,1-.43.05l-.31,0a1.64,1.64,0,0,0,1.53,1.09,3.39,3.39,0,0,1-2,.67l-.39,0a4.79,4.79,0,0,0,2.51.7,4.53,4.53,0,0,0,4.66-4.46v-.2A3.23,3.23,0,0,0,127.11,192Z" style="fill:#6a9ab7;fill-rule:evenodd"/><circle cx="143.53" cy="194.42" r="1.33" style="fill:#6a9ab7"/><circle cx="138.2" cy="197.08" r="1.33" style="fill:#6a9ab7"/><path d="M138.46,192.61a.44.44,0,0,1,.37-.81l5,2.27a.44.44,0,0,1,0,.79l-5.22,2.85a.44.44,0,0,1-.43-.78l4.44-2.42Z" style="fill:#6a9ab7"/><rect x="10.14" y="295.25" width="49.72" height="12.43" rx="4.14" ry="4.14" style="fill:#464d54"/><g style="clip-path:url(#clip-path-25)"><rect x="-64.44" y="-128.39" width="524.11" height="716.77" style="fill:#464d54"/></g><rect x="12.68" y="297.32" width="16.57" height="8.29" rx="3.11" ry="3.11" style="fill:#3a4249"/><g style="clip-path:url(#clip-path-26)"><rect x="-64.44" y="-128.39" width="524.11" height="716.77" style="fill:#3a4249"/></g><path d="M34,297.32H44.84a1.55,1.55,0,0,1,0,3.11H34a1.55,1.55,0,0,1,0-3.11Z" style="fill:#585f65;fill-rule:evenodd"/><g style="clip-path:url(#clip-path-27)"><rect x="-64.44" y="-128.39" width="524.11" height="716.77" style="fill:#585f65"/></g><path d="M44.74,302.5h6.32a1.55,1.55,0,0,1,0,3.11H44.74a1.55,1.55,0,1,1,0-3.11Z" style="fill:#585f65;fill-rule:evenodd"/><g style="clip-path:url(#clip-path-28)"><rect x="-64.44" y="-128.39" width="524.11" height="716.77" style="fill:#585f65"/></g><path d="M34,302.5h6.32a1.55,1.55,0,0,1,0,3.11H34a1.55,1.55,0,0,1,0-3.11Z" style="fill:#585f65;fill-rule:evenodd"/><g style="clip-path:url(#clip-path-29)"><rect x="-64.44" y="-128.39" width="524.11" height="716.77" style="fill:#585f65"/></g><rect x="10.14" y="308.95" width="49.72" height="12.43" rx="4.14" ry="4.14" style="fill:#464d54"/><g style="clip-path:url(#clip-path-30)"><rect x="-64.44" y="-114.69" width="524.11" height="716.77" style="fill:#464d54"/></g><rect x="12.68" y="311.02" width="16.57" height="8.29" rx="3.11" ry="3.11" style="fill:#3a4249"/><g style="clip-path:url(#clip-path-31)"><rect x="-64.44" y="-114.69" width="524.11" height="716.77" style="fill:#3a4249"/></g><path d="M34,311H44.84a1.55,1.55,0,0,1,0,3.11H34A1.55,1.55,0,0,1,34,311Z" style="fill:#585f65;fill-rule:evenodd"/><g style="clip-path:url(#clip-path-32)"><rect x="-64.44" y="-114.69" width="524.11" height="716.77" style="fill:#585f65"/></g><path d="M44.74,316.2h6.32a1.55,1.55,0,0,1,0,3.11H44.74a1.55,1.55,0,1,1,0-3.11Z" style="fill:#585f65;fill-rule:evenodd"/><g style="clip-path:url(#clip-path-33)"><rect x="-64.44" y="-114.69" width="524.11" height="716.77" style="fill:#585f65"/></g><path d="M34,316.2h6.32a1.55,1.55,0,0,1,0,3.11H34a1.55,1.55,0,0,1,0-3.11Z" style="fill:#585f65;fill-rule:evenodd"/><g style="clip-path:url(#clip-path-34)"><rect x="-64.44" y="-114.69" width="524.11" height="716.77" style="fill:#585f65"/></g><rect x="97.81" y="295.25" width="49.72" height="12.43" rx="4.14" ry="4.14" style="fill:#577f9c"/><g style="clip-path:url(#clip-path-35)"><rect x="23.23" y="-128.39" width="524.11" height="716.77" style="fill:#577f9c"/></g><rect x="100.35" y="297.32" width="16.57" height="8.29" rx="3.11" ry="3.11" style="fill:#6a9ab7"/><g style="clip-path:url(#clip-path-36)"><rect x="23.23" y="-128.39" width="524.11" height="716.77" style="fill:#6a9ab7"/></g><path d="M121.63,297.32h10.88a1.55,1.55,0,1,1,0,3.11H121.63a1.55,1.55,0,1,1,0-3.11Z" style="fill:#6a9ab7;fill-rule:evenodd"/><g style="clip-path:url(#clip-path-37)"><rect x="23.23" y="-128.39" width="524.11" height="716.77" style="fill:#6a9ab7"/></g><path d="M132.4,302.5h6.32a1.55,1.55,0,1,1,0,3.11H132.4a1.55,1.55,0,1,1,0-3.11Z" style="fill:#6a9ab7;fill-rule:evenodd"/><g style="clip-path:url(#clip-path-38)"><rect x="23.23" y="-128.39" width="524.11" height="716.77" style="fill:#6a9ab7"/></g><path d="M121.63,302.5h6.32a1.55,1.55,0,1,1,0,3.11h-6.32a1.55,1.55,0,1,1,0-3.11Z" style="fill:#6a9ab7;fill-rule:evenodd"/><g style="clip-path:url(#clip-path-39)"><rect x="23.23" y="-128.39" width="524.11" height="716.77" style="fill:#6a9ab7"/></g><rect x="97.81" y="308.95" width="49.72" height="12.43" rx="4.14" ry="4.14" style="fill:#577f9c"/><g style="clip-path:url(#clip-path-40)"><rect x="23.23" y="-114.69" width="524.11" height="716.77" style="fill:#577f9c"/></g><rect x="100.35" y="311.02" width="16.57" height="8.29" rx="3.11" ry="3.11" style="fill:#6a9ab7"/><g style="clip-path:url(#clip-path-41)"><rect x="23.23" y="-114.69" width="524.11" height="716.77" style="fill:#6a9ab7"/></g><path d="M121.63,311h10.88a1.55,1.55,0,0,1,0,3.11H121.63a1.55,1.55,0,0,1,0-3.11Z" style="fill:#6a9ab7;fill-rule:evenodd"/><g style="clip-path:url(#clip-path-42)"><rect x="23.23" y="-114.69" width="524.11" height="716.77" style="fill:#6a9ab7"/></g><path d="M132.4,316.2h6.32a1.55,1.55,0,0,1,0,3.11H132.4a1.55,1.55,0,1,1,0-3.11Z" style="fill:#6a9ab7;fill-rule:evenodd"/><g style="clip-path:url(#clip-path-43)"><rect x="23.23" y="-114.69" width="524.11" height="716.77" style="fill:#6a9ab7"/></g><path d="M121.63,316.2h6.32a1.55,1.55,0,0,1,0,3.11h-6.32a1.55,1.55,0,1,1,0-3.11Z" style="fill:#6a9ab7;fill-rule:evenodd"/><g style="clip-path:url(#clip-path-44)"><rect x="23.23" y="-114.69" width="524.11" height="716.77" style="fill:#6a9ab7"/></g><path d="M211,11.82h1.49c1.44,0,2.18-.5,2.18-1.58s-.72-1.44-2.18-1.44H211Zm0-5h1.24c1.3,0,1.85-.54,1.85-1.39s-.59-1.26-1.84-1.26H211Zm-2.65,7V2.13h4c2.43,0,4.32.67,4.32,2.92a2.72,2.72,0,0,1-1.53,2.54v.07a2.66,2.66,0,0,1,2.11,2.75c0,2.39-2,3.46-4.55,3.46Z" style="fill:#fff;fill-rule:evenodd"/><g style="clip-path:url(#clip-path-45)"><rect x="-155.99" y="-762.13" width="1149" height="2330" style="fill:#fff"/></g><path d="M233.8,9.54l1.38-1.38a2.76,2.76,0,0,1,3.91,0l.16.16a2.76,2.76,0,0,1,0,3.91l-1.38,1.38a2.76,2.76,0,0,1-3.91,0l-.16-.16A2.76,2.76,0,0,1,233.8,9.54Zm1,1a1.38,1.38,0,0,0,0,2l.16.16a1.38,1.38,0,0,0,2,0l1.38-1.38a1.38,1.38,0,0,0,0-2l-.16-.16a1.38,1.38,0,0,0-2,0Z" style="fill:#fff"/><g style="clip-path:url(#clip-path-46)"><rect x="-95.1" y="-626.05" width="945.51" height="1917.36" style="fill:#fff"/></g><path d="M239.57,3.77l1.38-1.38a2.76,2.76,0,0,1,3.91,0l.16.16a2.76,2.76,0,0,1,0,3.91l-1.38,1.38a2.76,2.76,0,0,1-3.91,0l-.16-.16A2.76,2.76,0,0,1,239.57,3.77Zm1,1a1.38,1.38,0,0,0,0,2l.16.16a1.38,1.38,0,0,0,2,0L244,5.49a1.38,1.38,0,0,0,0-2l-.16-.16a1.38,1.38,0,0,0-2,0Z" style="fill:#fff"/><g style="clip-path:url(#clip-path-47)"><rect x="-95.1" y="-626.05" width="945.51" height="1917.36" style="fill:#fff"/></g><path d="M237.5,10.89a.69.69,0,1,1-1-1l5.05-5.05a.69.69,0,1,1,1,1Z" style="fill:#fff"/><g style="clip-path:url(#clip-path-48)"><rect x="-95.1" y="-626.05" width="945.51" height="1917.36" style="fill:#fff"/></g><path d="M260,10.35a.74.74,0,0,1-1.07-1c3.15-3.35,5.88-4.93,8.24-4.62S271,6,271.29,7.78a.74.74,0,1,1-1.45.25c-.17-1-1-1.62-2.82-1.85S262.9,7.31,260,10.35Z" style="fill:#fff"/><g style="clip-path:url(#clip-path-49)"><rect x="-6.64" y="-588.07" width="847.1" height="1717.8" style="fill:#fff"/></g><path d="M260.24,9.32l2.37.54a.74.74,0,1,1-.33,1.44l-2.95-.67a.74.74,0,0,1-.57-.72V5.42a.74.74,0,1,1,1.47,0Z" style="fill:#fff"/><g style="clip-path:url(#clip-path-50)"><rect x="-6.64" y="-588.07" width="847.1" height="1717.8" style="fill:#fff"/></g><path d="M292.43,10.35a.74.74,0,0,0,1.07-1c-3.15-3.35-5.88-4.93-8.24-4.62S281.48,6,281.19,7.78a.74.74,0,1,0,1.45.25c.17-1,1-1.62,2.82-1.85S289.58,7.31,292.43,10.35Z" style="fill:#fff"/><g style="clip-path:url(#clip-path-51)"><rect x="-287.98" y="-588.07" width="847.1" height="1717.8" style="fill:#fff"/></g><path d="M292.23,9.32l-2.37.54a.74.74,0,1,0,.33,1.44l2.95-.67a.74.74,0,0,0,.57-.72V5.42a.74.74,0,1,0-1.47,0Z" style="fill:#fff"/><g style="clip-path:url(#clip-path-52)"><rect x="-287.98" y="-588.07" width="847.1" height="1717.8" style="fill:#fff"/></g><path d="M228.59,43.46a5.16,5.16,0,0,0-2-2,10.35,10.35,0,0,0-2.95-1.09A17.74,17.74,0,0,0,220,40a7.43,7.43,0,0,0-2.81.53,6.76,6.76,0,0,0-2.13,1.3,7.12,7.12,0,0,0-1.3,1.59,2.73,2.73,0,0,0-.44,1.31,2.89,2.89,0,0,0,.59,1.91,2,2,0,0,0,1.67.68,4.38,4.38,0,0,1,2.21.43,1.81,1.81,0,0,1,.83,1.67,2.44,2.44,0,0,0,.77,1.85,2.68,2.68,0,0,0,1.94.74,9.26,9.26,0,0,0,6-1.68,4.9,4.9,0,0,0,2-3.9A6,6,0,0,0,228.59,43.46Zm.7-.4a6.79,6.79,0,0,1,.82,3.42A5.69,5.69,0,0,1,227.79,51a10,10,0,0,1-6.49,1.86,3.48,3.48,0,0,1-2.5-1,3.24,3.24,0,0,1-1-2.42,1,1,0,0,0-.44-1,3.72,3.72,0,0,0-1.79-.32,2.83,2.83,0,0,1-2.29-1,3.67,3.67,0,0,1-.78-2.42,3.48,3.48,0,0,1,.55-1.71,7.9,7.9,0,0,1,1.44-1.77,7.54,7.54,0,0,1,2.38-1.46,8.23,8.23,0,0,1,3.11-.59,18.53,18.53,0,0,1,3.86.37A11.15,11.15,0,0,1,227,40.79,6,6,0,0,1,229.28,43.06Z" style="fill:#fff"/><g style="clip-path:url(#clip-path-53)"><rect x="-195.54" y="-195.8" width="920.16" height="1865.94" style="fill:#fff"/></g><path d="M215.69,46.45a1.6,1.6,0,1,1,1.13-.47A1.56,1.56,0,0,1,215.69,46.45Zm.57-1a.8.8,0,1,0-.57.23A.76.76,0,0,0,216.25,45.42Z" style="fill:#fff"/><g style="clip-path:url(#clip-path-54)"><rect x="-195.54" y="-195.8" width="920.16" height="1865.94" style="fill:#fff"/></g><path d="M218.87,44a1.52,1.52,0,0,1-1.13-.47,1.64,1.64,0,0,1,0-2.26,1.52,1.52,0,0,1,1.13-.47,1.59,1.59,0,0,1,1.14.47,1.59,1.59,0,0,1,0,2.27A1.59,1.59,0,0,1,218.87,44Zm0-.8a.79.79,0,0,0,.58-.24.79.79,0,0,0,0-1.13.79.79,0,0,0-.58-.24.72.72,0,0,0-.56.23.84.84,0,0,0,0,1.15A.72.72,0,0,0,218.87,43.25Z" style="fill:#fff"/><g style="clip-path:url(#clip-path-55)"><rect x="-195.54" y="-195.8" width="920.16" height="1865.94" style="fill:#fff"/></g><path d="M222.42,50.79a1.59,1.59,0,1,1,.47-1.13A1.56,1.56,0,0,1,222.42,50.79Zm-.33-1.13a.81.81,0,1,0-.24.56A.76.76,0,0,0,222.09,49.66Z" style="fill:#fff"/><g style="clip-path:url(#clip-path-56)"><rect x="-195.54" y="-195.8" width="920.16" height="1865.94" style="fill:#fff"/></g><path d="M222.9,44a1.6,1.6,0,1,1,1.13-.47A1.56,1.56,0,0,1,222.9,44Zm.57-1a.8.8,0,1,0-.57.23A.76.76,0,0,0,223.46,43Z" style="fill:#fff"/><g style="clip-path:url(#clip-path-57)"><rect x="-195.54" y="-195.8" width="920.16" height="1865.94" style="fill:#fff"/></g><path d="M227.23,45.18A1.61,1.61,0,1,1,227.7,44,1.56,1.56,0,0,1,227.23,45.18ZM226.9,44a.8.8,0,1,0-.23.57A.76.76,0,0,0,226.9,44Z" style="fill:#fff"/><g style="clip-path:url(#clip-path-58)"><rect x="-189.32" y="-199.55" width="920.16" height="1865.94" style="fill:#fff"/></g><path d="M216,51.08l-.13-1-2.77.4v.47Zm-3.7.58V49.74l4.27-.61.35,2.8Z" style="fill:#fff"/><g style="clip-path:url(#clip-path-59)"><rect x="-195.54" y="-195.8" width="920.16" height="1865.94" style="fill:#fff"/></g><path d="M209.45,50.79l.62.31a5.86,5.86,0,0,0,.8.3c.68.2,1.06.12,1.19-.23.41-1.07-.59-2-2.3-1.66a3.34,3.34,0,0,0-2,1A3.43,3.43,0,0,1,209.45,50.79Zm.15-2.06c2.28-.48,3.86,1,3.21,2.73-.32.85-1.13,1-2.16.71a6.63,6.63,0,0,1-.91-.34l-.66-.32a3.44,3.44,0,0,0-1.91-.17.4.4,0,0,1-.43-.5C207,49.75,208,49.06,209.59,48.72Z" style="fill:#fff"/><g style="clip-path:url(#clip-path-60)"><rect x="-195.54" y="-195.8" width="920.16" height="1865.94" style="fill:#fff"/></g><path d="M258.56,48.13a2,2,0,1,1-2-2A2,2,0,0,1,258.56,48.13Zm-.64,0a1.4,1.4,0,1,0-1.4,1.4A1.4,1.4,0,0,0,257.92,48.13Zm2.81-.64h-.46a.7.7,0,0,1-.62-.46,3.21,3.21,0,0,0-.14-.33.69.69,0,0,1,.11-.76l.33-.33a.27.27,0,0,0,0-.38l-.53-.53a.27.27,0,0,0-.38,0l-.33.33a.65.65,0,0,1-.46.18.69.69,0,0,1-.3-.07l-.33-.14a.69.69,0,0,1-.46-.62v-.46a.27.27,0,0,0-.27-.27h-.75a.27.27,0,0,0-.27.27v.46a.69.69,0,0,1-.46.62l-.33.14a.7.7,0,0,1-.3.07.65.65,0,0,1-.46-.18L254,44.7a.27.27,0,0,0-.38,0l-.53.53a.27.27,0,0,0,0,.38l.33.33a.69.69,0,0,1,.11.76,3.29,3.29,0,0,0-.14.33.7.7,0,0,1-.62.46h-.46a.27.27,0,0,0-.27.27v.75a.27.27,0,0,0,.27.27h.46a.69.69,0,0,1,.62.46,3.31,3.31,0,0,0,.14.33.69.69,0,0,1-.11.76l-.33.33a.27.27,0,0,0,0,.38l.53.53a.27.27,0,0,0,.38,0l.33-.33a.65.65,0,0,1,.46-.18.69.69,0,0,1,.3.07l.33.14a.7.7,0,0,1,.46.62v.46a.27.27,0,0,0,.27.27h.75a.27.27,0,0,0,.27-.27v-.46a.69.69,0,0,1,.46-.62l.33-.14a.69.69,0,0,1,.3-.07.65.65,0,0,1,.46.18l.33.33a.27.27,0,0,0,.38,0l.53-.53a.27.27,0,0,0,0-.38l-.33-.33a.69.69,0,0,1-.11-.76,3.19,3.19,0,0,0,.14-.33.7.7,0,0,1,.62-.46h.46a.27.27,0,0,0,.27-.27v-.75A.27.27,0,0,0,260.73,47.49Zm-.64-1.07a3.84,3.84,0,0,1,.17.4s0,0,0,0h.46a.91.91,0,0,1,.91.91v.75a.91.91,0,0,1-.91.91h-.46s0,0,0,0a3.82,3.82,0,0,1-.17.4s0,0,0,0l.33.33a.91.91,0,0,1,0,1.28l-.53.53a.91.91,0,0,1-1.28,0l-.33-.33h0l-.4.17s0,0,0,0v.46a.91.91,0,0,1-.91.91h-.75a.91.91,0,0,1-.91-.91v-.46s0,0,0,0l-.4-.17s0,0,0,0l-.33.33a.91.91,0,0,1-1.28,0l-.53-.53a.91.91,0,0,1,0-1.28l.33-.33s0,0,0,0a4,4,0,0,1-.17-.4s0,0,0,0h-.46a.91.91,0,0,1-.91-.91v-.75a.91.91,0,0,1,.91-.91h.46s0,0,0,0a3.92,3.92,0,0,1,.17-.4s0,0,0,0l-.33-.33a.91.91,0,0,1,0-1.28l.53-.53a.91.91,0,0,1,1.28,0l.33.33h0l.4-.17s0,0,0,0v-.46a.91.91,0,0,1,.91-.91h.75a.91.91,0,0,1,.91.91v.46s0,0,0,0l.4.17s0,0,0,0l.33-.33a.91.91,0,0,1,1.28,0l.53.53a.91.91,0,0,1,0,1.28l-.33.33S260.08,46.41,260.09,46.42Z" style="fill:#fff"/><path d="M251.72,41.74a1,1,0,1,1-1-1A1,1,0,0,1,251.72,41.74Zm1.13.73a.11.11,0,0,1,.08-.07h.27a.45.45,0,0,0,.45-.45v-.43a.45.45,0,0,0-.45-.45h-.27a.11.11,0,0,1-.08-.07,2.24,2.24,0,0,0-.09-.22.11.11,0,0,1,0-.1l.19-.19a.45.45,0,0,0,0-.64l-.31-.31a.45.45,0,0,0-.64,0l-.19.19-.06,0h0l-.22-.09a.11.11,0,0,1-.07-.08v-.27a.45.45,0,0,0-.45-.45h-.43a.45.45,0,0,0-.45.45v.27a.11.11,0,0,1-.07.08l-.22.09h0l-.06,0-.19-.19a.45.45,0,0,0-.64,0l-.31.31a.45.45,0,0,0,0,.64l.19.19a.11.11,0,0,1,0,.1,2.15,2.15,0,0,0-.09.22.11.11,0,0,1-.08.07h-.27a.45.45,0,0,0-.45.45V42a.45.45,0,0,0,.45.45h.26a.11.11,0,0,1,.08.07,2.16,2.16,0,0,0,.09.22.11.11,0,0,1,0,.1l-.19.19a.45.45,0,0,0,0,.64l.31.31a.45.45,0,0,0,.64,0l.19-.19.06,0h0l.22.09a.11.11,0,0,1,.07.08v.27a.45.45,0,0,0,.45.45H251a.45.45,0,0,0,.45-.45V43.9a.11.11,0,0,1,.07-.08l.22-.09h0l.06,0,.19.19a.45.45,0,0,0,.64,0l.31-.31a.45.45,0,0,0,0-.64l-.19-.19a.11.11,0,0,1,0-.1A2.29,2.29,0,0,0,252.85,42.47Z" style="fill:#626b71;fill-rule:evenodd"/><g style="clip-path:url(#clip-path-62)"><rect x="-76.91" y="-181.08" width="734.63" height="1489.72" style="fill:#626b71"/></g></svg>