<?xml version="1.0" encoding="UTF-8"?>
<svg width="59px" height="33px" viewBox="0 0 59 33" version="1.1" xmlns="http://www.w3.org/2000/svg" xmlns:xlink="http://www.w3.org/1999/xlink">
    <!-- Generator: Sketch 49 (51002) - http://www.bohemiancoding.com/sketch -->
    <title>search-form</title>
    <desc>Created with Sketch.</desc>
    <defs></defs>
    <g id="Page-1" stroke="none" stroke-width="1" fill="none" fill-rule="evenodd">
        <g id="Icons" transform="translate(-352.000000, -173.000000)">
            <rect id="Rectangle-3" fill="#4E555A" x="358" y="183" width="47" height="13" rx="2"></rect>
            <path d="M368.587141,192.606419 L366.823,190.842 C367.133,190.353667 367.312,189.775333 367.312,189.155667 C367.312333,187.416 365.896333,186 364.156,186 C362.415667,186 361,187.416 361,189.156 C361,190.896333 362.415667,192.312333 364.156,192.312333 C364.745333,192.312333 365.296333,192.15 365.769,191.868 L367.54739,193.646503 C367.742652,193.841765 368.059235,193.841765 368.254497,193.646503 C368.254516,193.646484 368.254535,193.646465 368.254553,193.646447 L368.587085,193.313526 C368.782283,193.118265 368.78227,192.801748 368.587057,192.606503 Z M362.176,189.156 C362.176,188.065 363.064333,187.176667 364.155667,187.176667 C365.247333,187.176667 366.135667,188.064667 366.135667,189.156 C366.135667,190.247667 365.247333,191.135667 364.155667,191.135667 C363.064333,191.135667 362.176,190.247667 362.176,189.156 Z" id="Shape" fill="#60666A" fill-rule="nonzero"></path>
        </g>
    </g>
</svg>