<svg id="Layer_1" data-name="Layer 1" xmlns="http://www.w3.org/2000/svg" width="36.7" height="20.25" viewBox="0 0 36.7 20.25"><path d="M25.49,11.1,27.1,12a.85.85,0,0,1,0,1.46l-6.42,3.71a4.65,4.65,0,0,1-4.65,0L9.6,13.5A.85.85,0,0,1,9.6,12l1.61-.93,4,2.29a6.34,6.34,0,0,0,6.35,0l4-2.29m0-1.69a1.69,1.69,0,0,0-.85.23l-4,2.29a4.65,4.65,0,0,1-4.65,0l-4-2.29a1.69,1.69,0,0,0-1.69,0l-1.61.93a2.54,2.54,0,0,0,0,4.39l6.42,3.71a6.34,6.34,0,0,0,6.35,0L27.95,15a2.54,2.54,0,0,0,0-4.39l-1.61-.93a1.69,1.69,0,0,0-.85-.23Z" style="fill:#484f56"/><path d="M18.35,2.42A4.65,4.65,0,0,1,20.68,3L27.1,6.75a.85.85,0,0,1,0,1.46l-6.42,3.71a4.65,4.65,0,0,1-4.65,0L9.6,8.22a.85.85,0,0,1,0-1.46L16,3a4.65,4.65,0,0,1,2.33-.62m0-1.69a6.35,6.35,0,0,0-3.17.85L8.76,5.29a2.54,2.54,0,0,0,0,4.39l6.42,3.71a6.34,6.34,0,0,0,6.35,0l6.42-3.71a2.54,2.54,0,0,0,0-4.39L21.52,1.58A6.35,6.35,0,0,0,18.35.73Z" style="fill:#70797f"/></svg>