<svg id="Layer_1" data-name="Layer 1" xmlns="http://www.w3.org/2000/svg" width="36.7" height="20.25" viewBox="0 0 36.7 20.25"><path d="M26,2.24a.64.64,0,0,1,.63.63V13.35A.64.64,0,0,1,26,14H15.55a.64.64,0,0,1-.63-.63V2.88a.64.64,0,0,1,.63-.63H26m0-1.9H15.55A2.55,2.55,0,0,0,13,2.88V13.35a2.55,2.55,0,0,0,2.54,2.54H26a2.55,2.55,0,0,0,2.54-2.54V2.88A2.55,2.55,0,0,0,26,.34Z" style="fill:#424c53"/><path d="M21.16,6.26a.64.64,0,0,1,.63.63V17.37a.64.64,0,0,1-.63.63H10.68a.64.64,0,0,1-.63-.63V6.9a.64.64,0,0,1,.63-.63H21.16m0-1.9H10.68A2.55,2.55,0,0,0,8.14,6.9V17.37a2.55,2.55,0,0,0,2.54,2.54H21.16a2.55,2.55,0,0,0,2.54-2.54V6.9a2.55,2.55,0,0,0-2.54-2.54Z" style="fill:#707980"/></svg>