<svg id="Layer_1" data-name="Layer 1" xmlns="http://www.w3.org/2000/svg" width="36.7" height="20.25" viewBox="0 0 36.7 20.25"><path d="M29.26.84H7.44a4,4,0,0,0-4,4V15.4a4,4,0,0,0,4,4H29.26a4,4,0,0,0,4-4V4.85A4,4,0,0,0,29.26.84ZM30.44,15.4a1.18,1.18,0,0,1-1.18,1.18H7.44A1.18,1.18,0,0,1,6.27,15.4V4.85A1.18,1.18,0,0,1,7.44,3.67H29.26a1.18,1.18,0,0,1,1.18,1.18Z" style="fill:#535c64"/><path d="M21.89,8.65l-2-.29L19,6.54a.71.71,0,0,0-1.27,0l-.9,1.82-2,.29a.71.71,0,0,0-.39,1.21l1.45,1.42-.34,2a.71.71,0,0,0,1,.75l1.8-.94,1.8.94a.71.71,0,0,0,1-.75l-.34-2,1.45-1.42a.71.71,0,0,0-.39-1.21Z" style="fill:#707980"/></svg>