<svg id="Layer_1" data-name="Layer 1" xmlns="http://www.w3.org/2000/svg" width="36.7" height="20.25" viewBox="0 0 36.7 20.25"><path d="M32.93,8.85,29.68,5.59A1.16,1.16,0,0,0,28,7.24l1.29,1.29H25.07a1.16,1.16,0,0,0-1,.5L21.2,13.19,15.62,4.33a1.16,1.16,0,0,0-1.9-.1L9.54,9.56h-5a1.16,1.16,0,1,0,0,2.33h5.52a1.16,1.16,0,0,0,.92-.45L14.53,7l5.63,8.95a1.16,1.16,0,0,0,1,.54h0a1.16,1.16,0,0,0,1-.5l3.58-5.11h3.6L28.14,12a1.16,1.16,0,0,0,1.65,1.65l3.15-3.15a1.16,1.16,0,0,0,0-1.65Z" style="fill:#535c64"/></svg>