<svg id="Layer_1" data-name="Layer 1" xmlns="http://www.w3.org/2000/svg" width="36.7" height="20.25" viewBox="0 0 36.7 20.25"><path d="M19.51,2.66a2.32,2.32,0,0,1,2.27,2.83h2.54a1.25,1.25,0,0,1,1.25,1.25V8.52a3.09,3.09,0,0,0,0,6.18v1.65a1.25,1.25,0,0,1-1.25,1.25H22.63a3.09,3.09,0,0,0-6.17,0H14.71a1.25,1.25,0,0,1-1.25-1.25V13.86a2.32,2.32,0,0,1,0-4.65V6.73a1.25,1.25,0,0,1,1.25-1.25h2.54a2.32,2.32,0,0,1,2.27-2.83m0-2.41a4.74,4.74,0,0,0-4.34,2.83h-.47A3.67,3.67,0,0,0,11,6.73v.73a4.74,4.74,0,0,0,0,8.15v.73A3.67,3.67,0,0,0,14.71,20h1.75a2.41,2.41,0,0,0,2.41-2.39.67.67,0,0,1,1.35,0A2.41,2.41,0,0,0,22.63,20h1.68A3.67,3.67,0,0,0,28,16.34V14.7a2.41,2.41,0,0,0-2.41-2.41.67.67,0,0,1,0-1.35A2.41,2.41,0,0,0,28,8.52V6.73a3.67,3.67,0,0,0-3.66-3.66h-.47A4.74,4.74,0,0,0,19.51.24Z" style="fill:#535c64"/></svg>