<?xml version="1.0" encoding="UTF-8"?>
<svg width="59px" height="33px" viewBox="0 0 59 33" version="1.1" xmlns="http://www.w3.org/2000/svg" xmlns:xlink="http://www.w3.org/1999/xlink">
    <!-- Generator: Sketch 49 (51002) - http://www.bohemiancoding.com/sketch -->
    <title>superbox</title>
    <desc>Created with Sketch.</desc>
    <defs></defs>
    <g id="Page-1" stroke="none" stroke-width="1" fill="none" fill-rule="evenodd">
        <g id="Icons" transform="translate(-289.000000, -395.000000)">
            <path d="M297,402 L340,402 C341.104569,402 342,402.895431 342,404 L342,419 C342,420.104569 341.104569,421 340,421 L297,421 C295.895431,421 295,420.104569 295,419 L295,404 C295,402.895431 295.895431,402 297,402 Z M298,404 C297.447715,404 297,404.447715 297,405 L297,418 C297,418.552285 297.447715,419 298,419 L311,419 C311.552285,419 312,418.552285 312,418 L312,405 C312,404.447715 311.552285,404 311,404 L298,404 Z" id="Combined-Shape" fill="#4E555A"></path>
            <rect id="Rectangle" fill="#60666A" x="315" y="405" width="24" height="2" rx="1"></rect>
            <rect id="Rectangle" fill="#60666A" x="315" y="410" width="24" height="2" rx="1"></rect>
            <rect id="Rectangle" fill="#60666A" x="315" y="415" width="12" height="2" rx="1"></rect>
            <g id="iconmonstr-cursor-1" transform="translate(330.000000, 414.000000)" fill="#60666A" fill-rule="nonzero">
                <path d="M0.804408304,0.617333098 L7.0884526,5.43994434 C7.30751938,5.6080644 7.34881986,5.92194136 7.18069979,6.14100814 C7.10370034,6.24134133 6.99153904,6.30876675 6.86680984,6.32970212 L5.27157288,6.59745724 C4.99924001,6.64316739 4.81552599,6.9009922 4.86123614,7.17332507 C4.86924424,7.2210359 4.88413426,7.26733196 4.90544063,7.31076572 L6.51746941,10.5969409 C6.63908594,10.8448603 6.53669723,11.1444284 6.28877782,11.2660449 C6.28855756,11.266153 6.28833722,11.2662609 6.28811681,11.2663686 L5.23620612,11.7804235 C4.98812021,11.9016689 4.68871761,11.798856 4.56745482,11.5507785 L2.93175861,8.20457741 C2.81048983,7.95648772 2.51106563,7.85367906 2.26297594,7.97494784 C2.22417652,7.99391339 2.18799772,8.01782579 2.15534291,8.04608797 L0.827209578,9.19556441 C0.618409498,9.37627727 0.302646871,9.35350808 0.121934011,9.144708 C0.0432863248,9.05383653 -1.15101645e-15,8.9376778 -1.16573418e-15,8.81749842 L2.22044605e-16,1.0139886 C1.88226917e-16,0.737846221 0.223857625,0.513988596 0.5,0.513988596 C0.61007902,0.513988596 0.717081407,0.550315162 0.804408304,0.617333098 Z" id="Shape"></path>
            </g>
            <path d="M305.459887,414.226007 L306.714835,413.004946 C306.912751,412.812374 307.229304,412.816706 307.421876,413.014622 C307.43774,413.030927 307.452473,413.048295 307.465972,413.066605 L309.895048,416.361503 C310.058911,416.583772 310.011562,416.896794 309.789293,417.060656 C309.703346,417.124018 309.599372,417.158202 309.492594,417.158202 L299.505684,417.158202 C299.229542,417.158202 299.005684,416.934344 299.005684,416.658202 C299.005684,416.564673 299.031917,416.473019 299.081403,416.393654 L302.336267,411.173504 C302.482373,410.939179 302.790772,410.867664 303.025096,411.01377 C303.102607,411.0621 303.165398,411.13074 303.206652,411.212238 L304.665101,414.093462 C304.789815,414.339838 305.090642,414.438466 305.337018,414.313752 C305.38218,414.290892 305.423608,414.261306 305.459887,414.226007 Z" id="Path" fill="#60666A"></path>
            <circle id="Oval-4" fill="#60666A" cx="307.5" cy="408.5" r="1.5"></circle>
        </g>
    </g>
</svg>