<?xml version="1.0" encoding="UTF-8"?> <svg xmlns="http://www.w3.org/2000/svg" width="131" height="78" viewBox="0 0 131 78" fill="none"><path d="M29.3851 0C21.5917 1.63457e-07 14.1175 3.08126 8.60674 8.56596C3.09599 14.0506 0.00012207 21.4895 0.00012207 29.246C0.00012207 37.0025 3.09599 44.4414 8.60674 49.9261C14.1175 55.4108 21.5917 58.492 29.3851 58.492V77.9894C29.3851 77.9894 58.7701 60.6438 58.7701 29.2354C58.7672 21.4807 55.6701 14.0446 50.1596 8.5622C44.6492 3.0798 37.1766 -5.12706e-07 29.3851 0Z" fill="#E4E4E4"></path><path d="M92.0531 0C88.1942 -8.09354e-08 84.3731 0.75647 80.808 2.22622C77.2428 3.69597 74.0034 5.85021 71.2748 8.56596C68.5461 11.2817 66.3817 14.5058 64.9049 18.054C63.4282 21.6023 62.6681 25.4054 62.6681 29.246C62.6681 33.0867 63.4282 36.8897 64.9049 40.438C66.3817 43.9863 68.5461 47.2103 71.2748 49.9261C74.0034 52.6418 77.2428 54.7961 80.808 56.2658C84.3731 57.7355 88.1942 58.492 92.0531 58.492V77.9894C92.0531 77.9894 121.438 60.6438 121.438 29.2354C121.435 21.4807 118.338 14.0446 112.828 8.5622C107.317 3.0798 99.8446 -5.12706e-07 92.0531 0Z" fill="#E4E4E4"></path></svg> 