<?xml version="1.0" encoding="UTF-8"?> <svg xmlns="http://www.w3.org/2000/svg" width="21" height="21" viewBox="0 0 21 21" fill="none"><path d="M10.5 21C4.70099 21 0 16.299 0 10.5C0 4.70099 4.70099 0 10.5 0C16.299 0 21 4.70099 21 10.5C20.9933 16.2962 16.2962 20.9933 10.5 21ZM10.5 0.67742C5.07514 0.67742 0.677419 5.07514 0.677419 10.5C0.677419 15.9249 5.07514 20.3226 10.5 20.3226C15.9249 20.3226 20.3226 15.9249 20.3226 10.5C20.3166 5.0776 15.9224 0.68339 10.5 0.67742Z" fill="black"></path><path d="M15.29 15.29C15.1578 15.4223 14.9434 15.4223 14.8111 15.29L10.5 10.979L6.18891 15.29C6.05897 15.4246 5.84452 15.4283 5.70997 15.2984C5.57542 15.1684 5.5717 14.954 5.70163 14.8194C5.70434 14.8166 5.70714 14.8138 5.70997 14.8111L10.0211 10.5L5.70997 6.18896C5.57542 6.05898 5.57169 5.84458 5.70167 5.71002C5.83165 5.57547 6.04606 5.57175 6.18061 5.70173C6.18345 5.70444 6.1862 5.70723 6.18891 5.71002L10.5 10.0211L14.8111 5.71002C14.9456 5.58005 15.16 5.58377 15.29 5.71832C15.4168 5.84957 15.4168 6.05771 15.29 6.18896L10.9789 10.5L15.29 14.8111C15.4222 14.9434 15.4222 15.1578 15.29 15.29Z" fill="black"></path></svg> 