<?xml version="1.0" encoding="UTF-8"?> <svg xmlns="http://www.w3.org/2000/svg" width="35" height="35" viewBox="0 0 35 35" fill="none"><path d="M20.4166 1.75H14.5833C14.2613 1.75 14 2.01134 14 2.33331C14 2.65528 14.2613 2.91662 14.5833 2.91662H20.4166C20.7386 2.91662 20.9999 2.65528 20.9999 2.33331C20.9999 2.01134 20.7386 1.75 20.4166 1.75Z" fill="#6BC4C7"></path><path d="M24.4996 1.75H23.9163C23.5943 1.75 23.333 2.01134 23.333 2.33331C23.333 2.65528 23.5943 2.91662 23.9163 2.91662H24.4996C24.8216 2.91662 25.0829 2.65528 25.0829 2.33331C25.0829 2.01134 24.8216 1.75 24.4996 1.75Z" fill="#6BC4C7"></path><path d="M18.2238 29.7498H16.7754C15.8882 29.7498 15.166 30.4719 15.166 31.3591V31.6409C15.166 32.5282 15.8882 33.2498 16.7749 33.2498H18.2233C19.1105 33.2498 19.8326 32.5282 19.8326 31.6409V31.3591C19.8326 30.4719 19.1105 29.7498 18.2238 29.7498ZM18.666 31.6409C18.666 31.8848 18.4677 32.0831 18.2239 32.0831H16.7754C16.531 32.0831 16.3326 31.8848 16.3326 31.6409V31.3591C16.3326 31.1148 16.5309 30.9164 16.7754 30.9164H18.2233C18.4677 30.9164 18.666 31.1147 18.666 31.3591V31.6409Z" fill="#6BC4C7"></path><path d="M25.3082 0H9.69176C8.52917 0 7.58301 0.946162 7.58301 2.10875V32.8913C7.58301 34.0538 8.52917 35 9.69176 35H25.3076C26.4702 35 27.4163 34.0538 27.4163 32.8919V2.10875C27.4164 0.946162 26.4702 0 25.3082 0ZM26.2497 32.8913C26.2497 33.4104 25.8274 33.8333 25.3082 33.8333H9.69176C9.17202 33.8333 8.7497 33.4104 8.7497 32.8918V2.10875C8.7497 1.58956 9.17202 1.16669 9.69176 1.16669H25.3076C25.8273 1.16669 26.2496 1.58963 26.2496 2.10875V32.8913H26.2497Z" fill="#6BC4C7"></path><path d="M26.8329 3.5H8.16632C7.84435 3.5 7.58301 3.76134 7.58301 4.08331V28.5833C7.58301 28.9053 7.84435 29.1666 8.16632 29.1666H26.833C27.155 29.1666 27.4163 28.9053 27.4163 28.5833V4.08331C27.4163 3.76134 27.155 3.5 26.8329 3.5ZM26.2496 28H8.74963V4.66669H26.2496V28Z" fill="#6BC4C7"></path></svg> 