<?xml version="1.0" encoding="UTF-8"?> <svg xmlns="http://www.w3.org/2000/svg" width="35" height="25" viewBox="0 0 35 25" fill="none"><path d="M23.2012 12.6792L35.0005 20.1387V4.90479L23.2012 12.6792Z" fill="#6BC4C7"></path><path d="M0 4.90479V20.1387L11.7994 12.6792L0 4.90479Z" fill="#6BC4C7"></path><path d="M32.8123 0.46875H2.1873C1.09574 0.46875 0.229492 1.2825 0.0654297 2.33031L17.4998 13.8169L34.9342 2.33031C34.7701 1.2825 33.9039 0.46875 32.8123 0.46875Z" fill="#6BC4C7"></path><path d="M21.1972 14.0007L18.1019 16.0395C17.9181 16.1598 17.7103 16.2188 17.5003 16.2188C17.2903 16.2188 17.0825 16.1598 16.8988 16.0395L13.8034 13.9985L0.0703125 22.6851C0.23875 23.7242 1.10062 24.5313 2.18781 24.5313H32.8128C33.9 24.5313 34.7619 23.7242 34.9303 22.6851L21.1972 14.0007Z" fill="#6BC4C7"></path></svg> 