<?xml version="1.0" encoding="UTF-8"?> <svg xmlns="http://www.w3.org/2000/svg" width="37" height="35" viewBox="0 0 37 35" fill="none"><path d="M18.3415 8.52644C13.1379 8.52644 8.94063 12.5329 8.94063 17.5C8.94063 22.4671 13.1379 26.4736 18.3415 26.4736C23.5451 26.4736 27.7424 22.4671 27.7424 17.5C27.7424 12.5329 23.5451 8.52644 18.3415 8.52644ZM18.3415 23.334C14.9788 23.334 12.2297 20.7177 12.2297 17.5C12.2297 14.2823 14.9706 11.666 18.3415 11.666C21.7124 11.666 24.4533 14.2823 24.4533 17.5C24.4533 20.7177 21.7042 23.334 18.3415 23.334ZM30.3196 8.15938C30.3196 9.32305 29.3378 10.2524 28.1269 10.2524C26.9078 10.2524 25.9342 9.31524 25.9342 8.15938C25.9342 7.00351 26.916 6.06633 28.1269 6.06633C29.3378 6.06633 30.3196 7.00351 30.3196 8.15938ZM36.5459 10.2837C36.4068 7.47992 35.7359 4.99637 33.5841 2.95018C31.4405 0.903994 28.8387 0.263584 25.9015 0.123006C22.8742 -0.0410019 13.8006 -0.0410019 10.7734 0.123006C7.84428 0.255774 5.24247 0.896184 3.09067 2.94237C0.938859 4.98856 0.276135 7.47211 0.128863 10.2759C-0.0429543 13.1655 -0.0429543 21.8267 0.128863 24.7163C0.267953 27.5201 0.938859 30.0036 3.09067 32.0498C5.24247 34.096 7.83609 34.7364 10.7734 34.877C13.8006 35.041 22.8742 35.041 25.9015 34.877C28.8387 34.7442 31.4405 34.1038 33.5841 32.0498C35.7278 30.0036 36.3987 27.5201 36.5459 24.7163C36.7178 21.8267 36.7178 13.1733 36.5459 10.2837ZM32.6351 27.8169C31.9969 29.3476 30.7614 30.5269 29.1496 31.1439C26.736 32.0576 21.0088 31.8468 18.3415 31.8468C15.6742 31.8468 9.93881 32.0498 7.53337 31.1439C5.92974 30.5347 4.69429 29.3554 4.04793 27.8169C3.09067 25.5129 3.31157 20.046 3.31157 17.5C3.31157 14.954 3.09885 9.47925 4.04793 7.18314C4.68611 5.6524 5.92156 4.47311 7.53337 3.85613C9.94699 2.94237 15.6742 3.15324 18.3415 3.15324C21.0088 3.15324 26.7442 2.95018 29.1496 3.85613C30.7532 4.4653 31.9887 5.64459 32.6351 7.18314C33.5923 9.48706 33.3714 14.954 33.3714 17.5C33.3714 20.046 33.5923 25.5208 32.6351 27.8169Z" fill="#6BC4C7"></path></svg> 