<?xml version="1.0" encoding="UTF-8"?> <svg xmlns="http://www.w3.org/2000/svg" width="31" height="32" viewBox="0 0 31 32" fill="none"><g clip-path="url(#clip0)"><path d="M19.3748 17.424C18.6605 17.424 18.0832 18.0028 18.0832 18.7156V23.8824C18.0832 24.594 17.5045 25.1739 16.7914 25.1739H12.9165V5.79913C12.9165 4.69606 12.2138 3.71053 11.1573 3.3437L10.7749 3.21575H16.7914C17.5045 3.21575 18.0832 3.79567 18.0832 4.50756V8.38252C18.0832 9.09536 18.6605 9.6741 19.3748 9.6741C20.0891 9.6741 20.6664 9.09536 20.6664 8.38252V4.50756C20.6664 2.37118 18.9278 0.632599 16.7914 0.632599H2.90622C2.85703 0.632599 2.81587 0.654594 2.7681 0.66098C2.7059 0.655777 2.64653 0.632599 2.58339 0.632599C1.15866 0.632599 0 1.79102 0 3.21575V26.4655C0 27.5686 0.702668 28.5541 1.75915 28.9209L9.53249 31.5121C9.79596 31.5935 10.058 31.6323 10.3333 31.6323C11.758 31.6323 12.9165 30.4736 12.9165 29.0489V27.7573H16.7914C18.9278 27.7573 20.6664 26.0187 20.6664 23.8824V18.7156C20.6664 18.0028 20.0891 17.424 19.3748 17.424Z" fill="#2D2A2A"></path><path d="M30.6212 12.635L25.4545 7.4685C25.0853 7.09907 24.5297 6.98791 24.0468 7.188C23.565 7.38832 23.2497 7.85968 23.2497 8.38166V12.2566H18.0832C17.3701 12.2566 16.7914 12.8351 16.7914 13.5482C16.7914 14.2613 17.3701 14.8398 18.0832 14.8398H23.2497V18.7147C23.2497 19.2367 23.565 19.7081 24.0468 19.9084C24.5297 20.1085 25.0853 19.9973 25.4545 19.6281L30.6212 14.4614C31.1262 13.9564 31.1262 13.14 30.6212 12.635Z" fill="#2D2A2A"></path></g><defs><clipPath id="clip0"><rect width="31" height="31" fill="white" transform="translate(0 0.631348)"></rect></clipPath></defs></svg> 