<?xml version="1.0" encoding="UTF-8"?> <svg xmlns="http://www.w3.org/2000/svg" width="31" height="32" viewBox="0 0 31 32" fill="none"><path d="M0.751531 9.59382L14.8552 15.9917C15.2669 16.1788 15.7325 16.1788 16.1442 15.9917L30.2479 9.59382C31.2499 9.13912 31.2499 7.62486 30.2479 7.17016L16.1448 0.771661C15.9425 0.679202 15.7227 0.631348 15.5003 0.631348C15.2779 0.631348 15.0581 0.679202 14.8558 0.771661L0.751531 7.16956C-0.25051 7.62426 -0.25051 9.13912 0.751531 9.59382ZM30.2485 14.9388L26.7313 13.3446L16.9446 17.7808C16.4869 17.9885 16.0007 18.0939 15.5 18.0939C14.9993 18.0939 14.5137 17.9885 14.0554 17.7808L4.26927 13.3446L0.751531 14.9388C-0.25051 15.3929 -0.25051 16.9066 0.751531 17.3607L14.8552 23.7537C15.2669 23.9402 15.7325 23.9402 16.1442 23.7537L30.2485 17.3607C31.2505 16.9066 31.2505 15.3929 30.2485 14.9388ZM30.2485 22.6766L26.7447 21.0885L16.9446 25.5307C16.4869 25.7384 16.0007 25.8438 15.5 25.8438C14.9993 25.8438 14.5137 25.7384 14.0554 25.5307L4.25595 21.0885L0.751531 22.6766C-0.25051 23.1307 -0.25051 24.6443 0.751531 25.0984L14.8552 31.4915C15.2669 31.678 15.7325 31.678 16.1442 31.4915L30.2485 25.0984C31.2505 24.6443 31.2505 23.1307 30.2485 22.6766Z" fill="#2D2A2A"></path></svg> 