<?xml version="1.0" encoding="UTF-8"?> <svg xmlns="http://www.w3.org/2000/svg" width="30" height="29" viewBox="0 0 30 29" fill="none"><path d="M14.6023 7.42765L5.0004 17.1333V27.6084C5.0004 27.8796 5.08819 28.1397 5.24445 28.3315C5.40072 28.5233 5.61267 28.6311 5.83366 28.6311L11.6697 28.6125C11.8899 28.6112 12.1008 28.5028 12.2562 28.3112C12.4116 28.1196 12.4988 27.8602 12.4988 27.5899V21.4725C12.4988 21.2013 12.5866 20.9412 12.7428 20.7494C12.8991 20.5576 13.111 20.4498 13.332 20.4498H16.6651C16.8861 20.4498 17.0981 20.5576 17.2543 20.7494C17.4106 20.9412 17.4984 21.2013 17.4984 21.4725V27.5854C17.498 27.72 17.5193 27.8533 17.5611 27.9777C17.6028 28.1022 17.6641 28.2153 17.7415 28.3106C17.8189 28.4059 17.9109 28.4815 18.0122 28.5331C18.1134 28.5847 18.222 28.6112 18.3317 28.6112L24.1656 28.6311C24.3866 28.6311 24.5985 28.5233 24.7548 28.3315C24.9111 28.1397 24.9989 27.8796 24.9989 27.6084V17.1262L15.3991 7.42765C15.2862 7.316 15.1456 7.25512 15.0007 7.25512C14.8557 7.25512 14.7151 7.316 14.6023 7.42765ZM29.7693 14.0244L25.4155 9.61996V0.766989C25.4155 0.563571 25.3496 0.368484 25.2324 0.224646C25.1152 0.0808077 24.9563 0 24.7905 0H21.8741C21.7083 0 21.5494 0.0808077 21.4322 0.224646C21.315 0.368484 21.2491 0.563571 21.2491 0.766989V5.40791L16.5865 0.699878C16.139 0.24798 15.5775 0.00090335 14.9981 0.00090335C14.4186 0.00090335 13.8571 0.24798 13.4096 0.699878L0.226805 14.0244C0.163522 14.0886 0.111165 14.1675 0.0727266 14.2565C0.0342879 14.3455 0.0105204 14.443 0.00278216 14.5433C-0.0049561 14.6436 0.00348653 14.7448 0.0276277 14.8411C0.0517688 14.9374 0.0911353 15.0269 0.143478 15.1046L1.4715 17.086C1.5237 17.1639 1.58791 17.2284 1.66044 17.2758C1.73298 17.3232 1.81242 17.3526 1.89422 17.3622C1.97603 17.3719 2.05858 17.3617 2.13716 17.3322C2.21574 17.3026 2.2888 17.2544 2.35216 17.1901L14.6023 4.8071C14.7151 4.69546 14.8557 4.63458 15.0007 4.63458C15.1456 4.63458 15.2862 4.69546 15.3991 4.8071L27.6497 17.1901C27.7129 17.2544 27.7859 17.3027 27.8644 17.3323C27.9428 17.3619 28.0253 17.3723 28.107 17.3628C28.1888 17.3533 28.2682 17.3241 28.3407 17.277C28.4133 17.2298 28.4775 17.1655 28.5298 17.0879L29.8579 15.1065C29.9101 15.0284 29.9493 14.9384 29.9732 14.8417C29.9971 14.745 30.0051 14.6434 29.9969 14.5429C29.9886 14.4423 29.9643 14.3447 29.9253 14.2558C29.8862 14.1668 29.8332 14.0882 29.7693 14.0244Z" fill="#2D2A2A"></path></svg> 