<?xml version="1.0" encoding="UTF-8"?> <svg xmlns="http://www.w3.org/2000/svg" width="29" height="33" viewBox="0 0 29 33" fill="none"><g clip-path="url(#clip0)"><path d="M0 27.2527C0 21.3598 5.35082 16.5827 11.9513 16.5827C18.5518 16.5827 23.9025 21.3597 23.9025 27.2527H0Z" fill="#2D2A2A"></path><path d="M18.5845 11.4244C18.5845 15.0286 15.6148 17.9506 11.9513 17.9506C8.28787 17.9506 5.31812 15.0286 5.31812 11.4244C5.31812 7.82016 8.28787 4.89795 11.9513 4.89795C15.6148 4.89795 18.5845 7.81987 18.5845 11.4244Z" fill="#2D2A2A" stroke="#ECECEC" stroke-miterlimit="10"></path><path d="M19.6825 7.57478C19.6478 7.58223 19.6137 7.589 19.5785 7.59644C19.3175 4.96979 17.6871 2.73861 15.3988 1.60251V3.15564C15.397 3.2901 15.3414 3.41842 15.244 3.51285C15.1467 3.60728 15.0156 3.66022 14.8789 3.66022C14.7422 3.66022 14.611 3.60728 14.5137 3.51285C14.4164 3.41842 14.3608 3.2901 14.359 3.15564V1.17794C12.7952 0.671156 11.1074 0.671156 9.54366 1.17794V3.15564C9.54366 3.29133 9.48887 3.42146 9.39136 3.5174C9.29384 3.61335 9.16158 3.66725 9.02366 3.66725C8.88575 3.66725 8.75349 3.61335 8.65597 3.5174C8.55846 3.42146 8.50367 3.29133 8.50367 3.15564V1.60251C6.2158 2.73851 4.58514 4.96979 4.32436 7.59644C4.28966 7.589 4.25555 7.58223 4.22036 7.57478C3.86649 7.49876 3.57996 7.85525 3.57996 8.37934C3.57996 8.90343 3.86639 9.39484 4.22036 9.47105C9.34716 10.573 14.5554 10.573 19.6825 9.47105C20.0364 9.39493 20.3229 8.90295 20.3229 8.37934C20.3229 7.85573 20.0364 7.49886 19.6825 7.57478Z" fill="#2D2A2A" stroke="#ECECEC" stroke-miterlimit="10"></path><path d="M28.9366 25.9857L28.8733 25.5663L28.4477 25.6329C28.2385 25.6655 28.0242 25.6278 27.8394 25.526C27.6546 25.4242 27.51 25.2641 27.429 25.0716C27.3479 24.879 27.3351 24.6652 27.3926 24.4647C27.45 24.2641 27.5745 24.0884 27.7458 23.9659L28.0947 23.7168L27.8379 23.3762C27.4941 22.9201 27.0837 22.5165 26.6199 22.1784L26.2739 21.926L26.0208 22.269C25.8963 22.4376 25.7177 22.5599 25.5138 22.6165C25.31 22.673 25.0928 22.6603 24.8971 22.5806C24.7015 22.5009 24.5388 22.3586 24.4353 22.1769C24.3318 21.9951 24.2935 21.7843 24.3265 21.5785L24.3941 21.1597L23.9679 21.0974C23.397 21.0141 22.8167 21.0141 22.2459 21.0974L21.8195 21.1597L21.8872 21.5785C21.9203 21.7843 21.882 21.9951 21.7785 22.177C21.675 22.3588 21.5123 22.501 21.3166 22.5808C21.1209 22.6605 20.9036 22.6732 20.6997 22.6166C20.4959 22.5601 20.3173 22.4377 20.1927 22.2691L19.9396 21.9258L19.5934 22.1784C19.1299 22.5167 18.7196 22.9205 18.376 23.3768L18.1194 23.7172L18.4681 23.9663C18.6394 24.0888 18.7639 24.2645 18.8213 24.465C18.8788 24.6656 18.866 24.8794 18.785 25.0719C18.7039 25.2644 18.5594 25.4245 18.3746 25.5263C18.1898 25.6282 17.9756 25.6659 17.7664 25.6333L17.3408 25.5669L17.2775 25.9861C17.1925 26.5478 17.1923 27.1188 17.277 27.6806L17.3404 28.1L17.7661 28.0334C17.9752 28.0008 18.1895 28.0385 18.3742 28.1404C18.559 28.2422 18.7035 28.4023 18.7846 28.5948C18.8656 28.7873 18.8785 29.001 18.821 29.2016C18.7636 29.4021 18.6392 29.5778 18.4679 29.7003L18.119 29.9495L18.3757 30.2901C18.7196 30.7461 19.1302 31.1495 19.594 31.4874L19.9401 31.7397L20.1932 31.3968C20.3178 31.2284 20.4964 31.1061 20.7002 31.0496C20.9039 30.9932 21.1211 31.0058 21.3167 31.0855C21.5123 31.1652 21.675 31.3074 21.7785 31.4891C21.882 31.6708 21.9204 31.8815 21.8875 32.0872L21.8199 32.5059L22.246 32.5683C22.8169 32.6517 23.3972 32.6517 23.968 32.5683L24.3945 32.5061L24.3267 32.0872C24.2936 31.8814 24.3319 31.6706 24.4354 31.4887C24.5388 31.3069 24.7015 31.1646 24.8972 31.0848C25.0929 31.0051 25.3102 30.9924 25.5141 31.049C25.718 31.1056 25.8966 31.228 26.0211 31.3966L26.2742 31.7399L26.6204 31.4873C27.0839 31.1493 27.4941 30.7456 27.8376 30.2895L28.0942 29.9491L27.7456 29.6996C27.5743 29.5771 27.4498 29.4014 27.3923 29.2008C27.3348 29.0003 27.3476 28.7865 27.4287 28.594C27.5097 28.4015 27.6543 28.2414 27.839 28.1395C28.0238 28.0377 28.2381 28 28.4473 28.0326L28.8728 28.0991L28.9362 27.6798C29.0212 27.1182 29.0213 26.5474 28.9366 25.9857Z" fill="#ECECEC"></path><path d="M27.0352 25.232C26.9175 24.9523 26.8989 24.6418 26.9824 24.3505C27.0658 24.0592 27.2465 23.8039 27.4953 23.6259C27.1765 23.2031 26.796 22.8289 26.366 22.5155C26.1851 22.7602 25.9257 22.938 25.6297 23.0201C25.3336 23.1022 25.0181 23.0838 24.7339 22.968C24.4497 22.8522 24.2135 22.6456 24.0632 22.3815C23.9128 22.1175 23.8572 21.8114 23.9053 21.5124C23.376 21.4351 22.8379 21.4351 22.3085 21.5124C22.3566 21.8114 22.301 22.1176 22.1506 22.3816C22.0003 22.6457 21.764 22.8523 21.4798 22.9681C21.1956 23.0839 20.88 23.1023 20.5839 23.0201C20.2878 22.938 20.0284 22.7602 19.8476 22.5154C19.418 22.8289 19.0377 23.2031 18.7192 23.6259C18.968 23.8039 19.1487 24.059 19.2322 24.3503C19.3156 24.6416 19.297 24.9521 19.1793 25.2317C19.0616 25.5113 18.8517 25.7438 18.5833 25.8917C18.3149 26.0396 18.0038 26.0943 17.7 26.0471C17.6213 26.5679 17.6213 27.0973 17.7 27.6181C18.0038 27.5707 18.315 27.6254 18.5835 27.7733C18.8519 27.9212 19.0619 28.1537 19.1796 28.4334C19.2973 28.713 19.316 29.0235 19.2325 29.3149C19.149 29.6062 18.9682 29.8614 18.7193 30.0393C19.0378 30.4623 19.4181 30.8367 19.8479 31.1503C20.0288 30.9055 20.2881 30.7279 20.5841 30.6458C20.8802 30.5637 21.1956 30.5821 21.4798 30.6979C21.7639 30.8137 22.0002 31.0202 22.1506 31.2841C22.3009 31.5481 22.3566 31.8542 22.3086 32.1531C22.838 32.2306 23.376 32.2308 23.9054 32.1536C23.8569 31.8544 23.9123 31.548 24.0626 31.2836C24.2129 31.0192 24.4493 30.8124 24.7338 30.6965C25.0182 30.5805 25.334 30.5622 25.6303 30.6446C25.9266 30.7269 26.186 30.9051 26.3668 31.1503C26.7966 30.8366 27.177 30.4622 27.4955 30.0391C27.2468 29.8612 27.0661 29.606 26.9827 29.3147C26.8993 29.0235 26.9179 28.713 27.0356 28.4335C27.1533 28.1539 27.3632 27.9214 27.6315 27.7735C27.8998 27.6256 28.211 27.5709 28.5148 27.6181C28.5935 27.0972 28.5935 26.5678 28.5148 26.047C28.2109 26.0943 27.8998 26.0396 27.6314 25.8918C27.363 25.7439 27.153 25.5115 27.0352 25.232ZM23.8575 28.6164C22.8567 29.0242 21.7092 28.5566 21.2947 27.5718C20.8802 26.5871 21.3554 25.4582 22.3563 25.0502C23.3573 24.6423 24.5045 25.1101 24.9191 26.0947C25.3338 27.0794 24.8584 28.2079 23.8575 28.6164Z" fill="#2D2A2A"></path></g><defs><clipPath id="clip0"><rect width="29" height="32" fill="white" transform="translate(0 0.631042)"></rect></clipPath></defs></svg> 