<?xml version="1.0" encoding="UTF-8"?> <svg xmlns="http://www.w3.org/2000/svg" width="97" height="87" viewBox="0 0 97 87" fill="none"><path d="M66.4196 7.33643L66.7997 9.34496" stroke="#3F4447" stroke-width="0.9" stroke-linecap="round" stroke-linejoin="round"></path><path d="M43.5898 36.9782C42.903 36.102 42.2818 35.1763 41.7313 34.2085C36.9373 25.5824 37.8665 12.2837 27.307 7.80151C26.4571 10.4879 26.1926 13.3256 26.5314 16.123C26.8702 18.9204 27.8045 21.6126 29.271 24.0178" stroke="#3F4447" stroke-width="0.9" stroke-linecap="round" stroke-linejoin="round"></path><path d="M60.6963 45.858C58.9293 49.005 56.4479 51.692 53.4524 53.7019C50.0124 55.5834 46.1069 56.4416 42.196 56.1756C40.3164 56.1756 38.4368 56.1756 36.5572 56.1756C22.2384 56.1756 18.268 57.3384 16.3884 54.463C14.7623 51.9894 16.1772 46.006 17.2332 43.2998C14.224 39.1219 12.6191 34.0946 12.6503 28.944C12.8055 25.8107 13.5884 22.7406 14.9523 19.9162C17.6123 14.6164 21.9591 10.3541 27.307 7.80151" stroke="#3F4447" stroke-width="0.9" stroke-linecap="round" stroke-linejoin="round"></path><path d="M23.2522 10.1484C17.4655 18.6054 20.8024 32.2212 27.7717 39.0925" stroke="#3F4447" stroke-width="0.9" stroke-linecap="round" stroke-linejoin="round"></path><path d="M38.1411 24.335C40.4899 25.5339 42.5562 27.2206 44.2023 29.2823C47.5391 33.3417 48.1516 38.2256 49.5877 43.1095" stroke="#3F4447" stroke-width="0.9" stroke-linecap="round" stroke-linejoin="round"></path><path d="M30.9183 6.27931C33.6793 5.34761 36.5795 4.89709 39.4927 4.94734C45.5116 5.0742 47.9403 7.06159 51.3827 5.4759C53.4946 4.50335 57.3383 1.56454 58.4365 1.03598C58.6014 0.958479 58.7854 0.931178 58.9656 0.95749C59.1458 0.983803 59.3144 1.06257 59.4502 1.18398C60.5783 2.48332 61.3946 4.0237 61.8367 5.68733H64.0964C64.3701 5.6865 64.6402 5.74905 64.8856 5.87008C65.1311 5.99112 65.3453 6.16737 65.5114 6.38503L66.5251 7.65358C66.8849 7.29723 67.3706 7.09735 67.8768 7.09735C68.3829 7.09735 68.8686 7.29723 69.2284 7.65358L70.6856 9.61983L73.4522 9.83126C77.8872 10.677 76.9157 16.4277 75.9231 19.9585C75.4374 21.6499 74.9728 23.3625 74.5715 25.0962C74.4483 25.6527 74.5356 26.2353 74.8164 26.7312C75.0973 27.2271 75.5518 27.6012 76.0921 27.7812C77.4628 28.2279 78.7972 28.7792 80.0836 29.4304C81.3296 30.0646 84.0962 31.2275 86.0814 32.052C87.5725 32.6725 89.1439 33.0783 90.7487 33.2572L96.0496 33.8491" stroke="#3F4447" stroke-width="0.9" stroke-linecap="round" stroke-linejoin="round"></path><path d="M22.5763 74.1681H51.9952C52.4508 74.1736 52.8859 74.3587 53.2061 74.6833C53.5263 75.0078 53.7058 75.4456 53.7058 75.9017V79.1154C53.7058 79.5696 53.5256 80.0052 53.2048 80.3264C52.884 80.6475 52.4488 80.8279 51.9952 80.8279H15.4802C15.1855 80.8308 14.8931 80.7747 14.6202 80.6631C14.3474 80.5515 14.0995 80.3865 13.891 80.1778C13.6826 79.9692 13.5178 79.721 13.4063 79.4478C13.2948 79.1746 13.2388 78.8819 13.2416 78.5868V72.7092C13.2416 71.5877 13.6866 70.5122 14.4787 69.7192C15.2709 68.9262 16.3452 68.4807 17.4654 68.4807H54.635C55.7553 68.4807 56.8296 68.9262 57.6217 69.7192C58.4139 70.5122 58.8589 71.5877 58.8589 72.7092V81.3142C58.8589 82.4357 58.4139 83.5112 57.6217 84.3042C56.8296 85.0972 55.7553 85.5427 54.635 85.5427H1.83731C1.64893 85.5374 1.46715 85.4721 1.31833 85.3564C1.1695 85.2406 1.06136 85.0805 1.00959 84.899C0.95782 84.7176 0.965106 84.5244 1.03039 84.3475C1.09568 84.1705 1.21559 84.0189 1.37271 83.9148L7.98297 79.496" stroke="#3F4447" stroke-width="0.9" stroke-linecap="round" stroke-linejoin="round"></path><path d="M27.7716 60.8481L15.0156 69.2629" stroke="#3F4447" stroke-width="0.9" stroke-linecap="round" stroke-linejoin="round"></path><path d="M58.162 83.5762L66.8842 72.8147" stroke="#3F4447" stroke-width="0.9" stroke-linecap="round" stroke-linejoin="round"></path><path d="M55.0364 68.5229L66.3562 58.7339" stroke="#3F4447" stroke-width="0.9" stroke-linecap="round" stroke-linejoin="round"></path><path d="M17.2332 43.3845L19.3451 43.8285C23.1665 44.6725 27.0683 45.0979 30.9817 45.0971H36.9373" stroke="#3F4447" stroke-width="0.9" stroke-linecap="round" stroke-linejoin="round"></path><path d="M56.4092 43.3845L64.4555 47.613C69.6931 50.3193 73.6846 55.1609 73.1144 58.6283C72.9728 59.523 72.9162 60.4291 72.9454 61.3345C73.1054 65.1117 74.3555 68.7614 76.5444 71.8421C78.7333 74.9227 81.7673 77.3022 85.279 78.6925C86.5461 79.2422 87.8133 79.7496 89.0382 80.2993" stroke="#3F4447" stroke-width="0.9" stroke-linecap="round" stroke-linejoin="round"></path><path d="M73.1143 58.5436C74.1725 55.9296 75.9344 53.6607 78.204 51.9895C79.2346 51.2482 80.3652 50.6573 81.5619 50.2346" stroke="#3F4447" stroke-width="0.9" stroke-linecap="round" stroke-linejoin="round"></path><path d="M74.5715 24.9695C74.5715 24.9695 72.882 31.4602 69.1439 33.215" stroke="#3F4447" stroke-width="0.9" stroke-linecap="round" stroke-linejoin="round"></path></svg> 