<?xml version="1.0" encoding="UTF-8"?> <svg xmlns="http://www.w3.org/2000/svg" width="59" height="82" viewBox="0 0 59 82" fill="none"><path d="M55.264 34.1992V38.9586C55.1112 42.8735 55.1565 45.9662 55.2131 48.0131C55.3659 53.2535 55.7791 56.4022 54.0017 57.5207C53.3174 57.9112 52.5133 58.0443 51.7375 57.8954C49.7167 69.7743 42.1938 78.5884 32.6048 80.7528C29.7149 81.3773 26.7091 81.2345 23.8932 80.3389C7.47758 75.2551 6.30584 57.8954 6.30584 57.8954C5.89038 58.0488 5.44817 58.119 5.00499 58.1017C4.56181 58.0844 4.12656 57.98 3.72463 57.7947C2.02646 56.816 2.18494 53.796 2.33212 47.2861C2.43967 42.7281 2.49063 40.4462 2.45667 39.2046" stroke="#3F4447" stroke-linecap="round" stroke-linejoin="round"></path><path d="M57.5622 27.2419C60.3472 11.7893 52.3036 0.838867 52.3036 0.838867C52.1281 3.82536 50.945 4.44618 49.1393 4.78734C46.7608 5.21087 44.3195 5.1461 41.9674 4.59714C38.571 3.85331 26.6839 1.02344 18.2553 2.8075C17.6892 2.93054 6.99078 5.35215 2.76801 14.0376C0.622656 18.4502 0.792485 23.1705 0.905697 26.3415" stroke="#3F4447" stroke-linecap="round" stroke-linejoin="round"></path><path d="M2.46234 39.2271C4.02454 39.0802 5.50866 38.4832 6.73039 37.5102C10.3815 34.4677 8.4965 29.4455 11.6325 25.7655C14.2533 22.7175 18.7478 22.5329 20.0044 22.4826C27.2952 22.1974 28.7386 28.2486 39.4541 33.3212C44.8373 35.8714 53.3621 34.5124 55.264 34.1713" stroke="#3F4447" stroke-linecap="round" stroke-linejoin="round"></path><path d="M29.9443 62.297C32.0138 64.1967 34.6779 65.3412 37.4955 65.5408C41.4239 65.7533 45.7939 64.3551 46.6373 60.0264C46.96 58.3877 46.1392 56.5534 44.3731 56.1619C45.2901 57.2021 45.5731 59.098 44.2033 59.9145C42.6919 60.8038 40.6258 60.0544 39.2559 59.3553C38.0955 58.7401 37.1389 57.8229 36.0351 57.1182C34.8816 56.3755 33.4799 56.1077 32.1293 56.3721C30.7787 56.6364 29.5863 57.412 28.8065 58.5332C28.0278 57.4124 26.8364 56.6369 25.4867 56.3725C24.1371 56.1082 22.7363 56.3758 21.5837 57.1182C20.4516 57.8229 19.5176 58.7401 18.3628 59.3553C16.993 60.0823 14.9269 60.8317 13.4155 59.9145C12.04 59.098 12.323 57.2021 13.2457 56.1619C11.4852 56.5534 10.6645 58.3989 10.9815 60.0264C11.8249 64.3551 16.2005 65.7533 20.1289 65.5408C22.9462 65.3399 25.6099 64.1956 27.6801 62.297" stroke="#3F4447" stroke-linecap="round" stroke-linejoin="round"></path><path d="M2.46234 32.1915C2.46234 32.1915 4.55108 33.0472 5.10581 28.3605C5.66055 23.6738 10.3192 15.8664 21.9403 17.1136C21.9403 17.1136 28.6594 17.6729 34.1954 24.1045" stroke="#3F4447" stroke-linecap="round" stroke-linejoin="round"></path><path d="M51.9469 11.7391C53.9847 16.5377 55.1451 25.5643 47.9449 26.6381C45.7805 26.8884 43.5988 26.3385 41.8202 25.0945C39.1088 23.2992 37.2917 20.2456 35.1634 17.824C31.6991 13.9091 27.2839 11.5602 21.9403 11.672" stroke="#3F4447" stroke-linecap="round" stroke-linejoin="round"></path><path d="M47.3166 12.522C48.0015 13.9873 48.6355 15.6651 48.4487 17.3094C48.2563 19.2444 46.5807 20.7489 44.5939 19.8876C42.9353 19.1717 41.6504 17.7064 40.7164 16.2187C39.5503 14.3452 38.1182 12.3822 36.3068 11.0791" stroke="#3F4447" stroke-linecap="round" stroke-linejoin="round"></path></svg> 