<?xml version="1.0" encoding="UTF-8"?> <svg xmlns="http://www.w3.org/2000/svg" width="23" height="21" viewBox="0 0 23 21" fill="none"><path d="M10.7091 5.44735L3.66724 12.5653V20.2477C3.66724 20.4466 3.73162 20.6374 3.84623 20.778C3.96083 20.9187 4.11627 20.9977 4.27835 20.9977L8.55842 20.9841C8.71997 20.9831 8.87462 20.9036 8.98857 20.7631C9.10251 20.6225 9.16648 20.4323 9.16648 20.2341V15.7477C9.16648 15.5488 9.23086 15.358 9.34547 15.2173C9.46007 15.0767 9.61551 14.9977 9.77759 14.9977H12.222C12.3841 14.9977 12.5395 15.0767 12.6542 15.2173C12.7688 15.358 12.8331 15.5488 12.8331 15.7477V20.2308C12.8329 20.3295 12.8485 20.4273 12.8791 20.5185C12.9097 20.6098 12.9547 20.6928 13.0115 20.7626C13.0682 20.8325 13.1357 20.888 13.2099 20.9258C13.2842 20.9637 13.3638 20.9831 13.4443 20.9831L17.7228 20.9977C17.8849 20.9977 18.0403 20.9187 18.1549 20.778C18.2695 20.6374 18.3339 20.4466 18.3339 20.2477V12.5602L11.2935 5.44735C11.2108 5.36547 11.1076 5.32082 11.0013 5.32082C10.895 5.32082 10.7919 5.36547 10.7091 5.44735ZM21.8325 10.2853L18.6395 7.05516V0.5625C18.6395 0.413316 18.5912 0.270242 18.5052 0.164753C18.4193 0.0592634 18.3027 0 18.1811 0H16.0422C15.9207 0 15.8041 0.0592634 15.7181 0.164753C15.6322 0.270242 15.5839 0.413316 15.5839 0.5625V3.9661L12.1644 0.513282C11.8362 0.181865 11.4244 0.000662506 10.9994 0.000662506C10.5744 0.000662506 10.1627 0.181865 9.8345 0.513282L0.166336 10.2853C0.119925 10.3324 0.0815275 10.3902 0.053337 10.4555C0.0251464 10.5208 0.00771557 10.5923 0.00204041 10.6659C-0.00363476 10.7394 0.00255699 10.8137 0.0202619 10.8843C0.0379667 10.9549 0.0668377 11.0206 0.105225 11.0775L1.07918 12.5306C1.11747 12.5878 1.16455 12.6351 1.21775 12.6698C1.27095 12.7046 1.32921 12.7261 1.3892 12.7332C1.4492 12.7403 1.50974 12.7329 1.56737 12.7112C1.625 12.6895 1.67858 12.6541 1.72505 12.607L10.7091 3.52547C10.7919 3.44359 10.895 3.39894 11.0013 3.39894C11.1076 3.39894 11.2108 3.44359 11.2935 3.52547L20.278 12.607C20.3244 12.6542 20.3779 12.6896 20.4354 12.7113C20.493 12.733 20.5535 12.7406 20.6134 12.7337C20.6734 12.7267 20.7316 12.7053 20.7848 12.6707C20.838 12.6361 20.8851 12.589 20.9235 12.532L21.8974 11.0789C21.9358 11.0217 21.9645 10.9557 21.982 10.8847C21.9995 10.8138 22.0054 10.7393 21.9994 10.6656C21.9934 10.5918 21.9755 10.5202 21.9469 10.455C21.9182 10.3897 21.8794 10.3321 21.8325 10.2853Z" fill="white"></path></svg> 