<?xml version="1.0" encoding="UTF-8"?> <svg xmlns="http://www.w3.org/2000/svg" width="28" height="27" viewBox="0 0 28 27" fill="none"><path d="M14.0031 6.57754C10.0303 6.57754 6.82588 9.66825 6.82588 13.5C6.82588 17.3318 10.0303 20.4225 14.0031 20.4225C17.9759 20.4225 21.1804 17.3318 21.1804 13.5C21.1804 9.66825 17.9759 6.57754 14.0031 6.57754ZM14.0031 18.0005C11.4358 18.0005 9.33698 15.9822 9.33698 13.5C9.33698 11.0178 11.4296 8.9995 14.0031 8.9995C16.5767 8.9995 18.6693 11.0178 18.6693 13.5C18.6693 15.9822 16.5704 18.0005 14.0031 18.0005ZM23.148 6.29438C23.148 7.19207 22.3984 7.90902 21.474 7.90902C20.5432 7.90902 19.7999 7.18604 19.7999 6.29438C19.7999 5.40271 20.5495 4.67974 21.474 4.67974C22.3984 4.67974 23.148 5.40271 23.148 6.29438ZM27.9016 7.93311C27.7954 5.77022 27.2832 3.85435 25.6404 2.27586C24.0038 0.697367 22.0174 0.203336 19.7749 0.0948901C17.4637 -0.03163 10.5363 -0.03163 8.2251 0.0948901C5.98885 0.197311 4.00245 0.691342 2.35962 2.26983C0.716788 3.84832 0.21082 5.7642 0.0983826 7.92709C-0.0327942 10.1563 -0.0327942 16.8377 0.0983826 19.0669C0.204573 21.2298 0.716788 23.1457 2.35962 24.7241C4.00245 26.3026 5.9826 26.7967 8.2251 26.9051C10.5363 27.0316 17.4637 27.0316 19.7749 26.9051C22.0174 26.8027 24.0038 26.3087 25.6404 24.7241C27.277 23.1457 27.7892 21.2298 27.9016 19.0669C28.0328 16.8377 28.0328 10.1623 27.9016 7.93311ZM24.9158 21.4587C24.4286 22.6396 23.4853 23.5493 22.2548 24.0253C20.412 24.7302 16.0395 24.5675 14.0031 24.5675C11.9668 24.5675 7.58795 24.7241 5.75148 24.0253C4.52716 23.5553 3.58394 22.6456 3.09046 21.4587C2.35962 19.6814 2.52828 15.4641 2.52828 13.5C2.52828 11.5359 2.36587 7.31256 3.09046 5.54128C3.57769 4.36043 4.52091 3.45069 5.75148 2.97473C7.5942 2.26983 11.9668 2.4325 14.0031 2.4325C16.0395 2.4325 20.4183 2.27586 22.2548 2.97473C23.4791 3.44466 24.4223 4.3544 24.9158 5.54128C25.6466 7.31859 25.478 11.5359 25.478 13.5C25.478 15.4641 25.6466 19.6874 24.9158 21.4587Z" fill="#B0A333"></path></svg> 