<?xml version="1.0" encoding="UTF-8"?> <svg xmlns="http://www.w3.org/2000/svg" width="69" height="95" viewBox="0 0 69 95" fill="none"><path d="M2.83059 60.5601C1.23434 53.278 0.718359 45.7999 1.29931 38.3671C1.89201 34.305 2.1558 30.2017 2.08813 26.097C2.08813 24.1217 1.94896 21.5887 1.97216 17.7078C1.96778 15.409 2.30397 13.1222 2.96979 10.9221C3.58377 8.52823 4.98056 6.40924 6.93722 4.90326C9.79095 2.92797 11.8558 3.78783 20.6026 1.62662L22.7603 1.04565" stroke="#3F4447" stroke-width="0.9" stroke-linecap="round" stroke-linejoin="round"></path><path d="M34.4536 67.1601C27.0275 67.2323 19.622 66.3656 12.4126 64.5806V64.5806" stroke="#3F4447" stroke-width="0.9" stroke-linecap="round" stroke-linejoin="round"></path><path d="M11.0205 70.8083C16.4284 73.1908 21.4124 76.4404 25.7764 80.4292L34.5 89.1902" stroke="#3F4447" stroke-width="0.9" stroke-linecap="round" stroke-linejoin="round"></path><path d="M57.9563 70.8083C52.5484 73.1908 47.5644 76.4404 43.2004 80.4292L34.4536 89.1902V93.9774" stroke="#3F4447" stroke-width="0.9" stroke-linecap="round" stroke-linejoin="round"></path><path d="M13.7814 28.7463C13.7814 32.4645 13.7814 38.2975 13.4797 42.6896" stroke="#3F4447" stroke-width="0.9" stroke-linecap="round" stroke-linejoin="round"></path><path d="M16.7743 34.4863C17.6594 36.7887 18.2518 39.1934 18.5376 41.6438C18.7105 44.999 18.254 48.3568 17.1919 51.5436L15.6606 55.6801C14.7635 58.1589 13.8819 60.6221 13.0157 63.07C13.0157 63.07 12.8069 63.6045 12.4589 64.5805C12.1108 65.5565 11.7165 66.9044 11.322 68.6705C9.27491 77.0799 9.86636 85.917 13.0157 93.9775" stroke="#3F4447" stroke-width="0.9" stroke-linecap="round" stroke-linejoin="round"></path><path d="M52.0399 34.6025C51.2176 36.849 50.6874 39.1921 50.4623 41.5742C50.2621 44.9286 50.7112 48.2902 51.7848 51.4739C51.9936 52.0316 52.2952 52.7753 53.316 55.6104C54.2131 58.0892 55.0948 60.5525 55.9609 63.0003C55.9609 63.0003 56.193 63.5348 56.5178 64.5108C56.8426 65.4869 57.2834 66.8347 57.6778 68.6008C59.704 77.0138 59.1047 85.8468 55.9609 93.9078" stroke="#3F4447" stroke-width="0.9" stroke-linecap="round" stroke-linejoin="round"></path><path d="M66.1463 60.5601C67.7473 53.2787 68.2711 45.8011 67.7008 38.3671C67.0847 34.3075 66.8208 30.2022 66.9119 26.097C66.9119 24.1217 67.0279 21.5887 66.9119 17.7078C66.9287 15.4081 66.5923 13.1194 65.9143 10.9221C65.3003 8.52823 63.9036 6.40924 61.9469 4.90326C59.0932 2.92797 57.0515 3.78783 48.2815 1.62662L46.1238 1.04565" stroke="#3F4447" stroke-width="0.9" stroke-linecap="round" stroke-linejoin="round"></path><path d="M34.4536 67.1601C41.872 67.2315 49.2697 66.3648 56.4714 64.5806V64.5806" stroke="#3F4447" stroke-width="0.9" stroke-linecap="round" stroke-linejoin="round"></path><path d="M55.1954 28.7463C55.1954 32.4645 55.1954 38.2975 55.4971 42.6896" stroke="#3F4447" stroke-width="0.9" stroke-linecap="round" stroke-linejoin="round"></path><path d="M34.4536 19.9852C30.3454 17.4852 25.5577 16.3392 20.765 16.7086C18.7195 16.8901 16.711 17.3675 14.8023 18.1261C13.4296 21.4885 13.0589 25.1773 13.735 28.7463C14.0127 29.9328 14.4171 31.0859 14.9415 32.1856C15.4183 33.147 16.1029 33.99 16.9457 34.6533C17.7885 35.3165 18.7682 35.7834 19.8137 36.02L20.417 36.1594C22.2768 36.562 24.1754 36.7568 26.078 36.7404C28.2484 36.6612 30.3864 36.1887 32.3887 35.3461C33.0423 35.036 33.7382 34.8246 34.4536 34.7186C35.1618 34.8238 35.8501 35.0353 36.4953 35.3461C38.4975 36.1887 40.6356 36.6612 42.806 36.7404C44.7086 36.7568 46.6073 36.562 48.4671 36.1594L49.0935 36.02C50.136 35.7834 51.1125 35.3162 51.9515 34.6528C52.7905 33.9893 53.4708 33.1464 53.9425 32.1856C54.4769 31.0901 54.8818 29.9358 55.149 28.7463C55.8498 25.1784 55.4783 21.4825 54.0817 18.1261C52.1811 17.3672 50.1803 16.8897 48.1422 16.7086C43.3488 16.3312 38.5587 17.4779 34.4536 19.9852V19.9852Z" stroke="#3F4447" stroke-width="0.9" stroke-linecap="round" stroke-linejoin="round"></path></svg> 