<?xml version="1.0" encoding="UTF-8"?> <svg xmlns="http://www.w3.org/2000/svg" width="22" height="19" viewBox="0 0 22 19" fill="none"><path d="M21.3555 9.7969L14.1367 17.6719C13.4922 18.375 12.375 17.8828 12.375 16.875V12.375H6.53125C5.95977 12.375 5.5 11.8735 5.5 11.25V6.75002C5.5 6.12658 5.95977 5.62502 6.53125 5.62502H12.375V1.12502C12.375 0.121895 13.4879 -0.37498 14.1367 0.328145L21.3555 8.20315C21.7551 8.64377 21.7551 9.35627 21.3555 9.7969ZM8.25 17.4375V15.5625C8.25 15.2531 8.01797 15 7.73438 15H4.125C3.36445 15 2.75 14.3297 2.75 13.5V4.50002C2.75 3.67033 3.36445 3.00002 4.125 3.00002H7.73438C8.01797 3.00002 8.25 2.7469 8.25 2.43752V0.56252C8.25 0.253145 8.01797 2.04021e-05 7.73438 2.04021e-05H4.125C1.84766 2.04021e-05 0 2.01565 0 4.50002V13.5C0 15.9844 1.84766 18 4.125 18H7.73438C8.01797 18 8.25 17.7469 8.25 17.4375Z" fill="white"></path></svg> 