<?xml version="1.0" encoding="UTF-8"?> <svg xmlns="http://www.w3.org/2000/svg" width="22" height="19" viewBox="0 0 22 19" fill="none"><path d="M21.3555 9.79687L14.1367 17.6719C13.4922 18.375 12.375 17.8828 12.375 16.875V12.375H6.53125C5.95977 12.375 5.5 11.8734 5.5 11.25V6.74999C5.5 6.12655 5.95977 5.62499 6.53125 5.62499H12.375V1.12499C12.375 0.121865 13.4879 -0.37501 14.1367 0.328115L21.3555 8.20312C21.7551 8.64374 21.7551 9.35624 21.3555 9.79687ZM8.25 17.4375V15.5625C8.25 15.2531 8.01797 15 7.73438 15H4.125C3.36445 15 2.75 14.3297 2.75 13.5V4.49999C2.75 3.6703 3.36445 2.99999 4.125 2.99999H7.73438C8.01797 2.99999 8.25 2.74687 8.25 2.43749V0.56249C8.25 0.253115 8.01797 -1.01154e-05 7.73438 -1.01154e-05H4.125C1.84766 -1.01154e-05 0 2.01562 0 4.49999V13.5C0 15.9844 1.84766 18 4.125 18H7.73438C8.01797 18 8.25 17.7469 8.25 17.4375Z" fill="#B0A333"></path></svg> 