<?xml version="1.0" encoding="UTF-8"?> <svg xmlns="http://www.w3.org/2000/svg" width="74" height="89" viewBox="0 0 74 89" fill="none"><path d="M18.9669 14.6675C18.0093 14.786 17.0305 14.6943 16.1297 14.4018C15.229 14.1093 14.438 13.6263 13.8372 13.0017V13.0017" stroke="#3F4447" stroke-width="0.9" stroke-linecap="round" stroke-linejoin="round"></path><path d="M27.7007 3.22328C28.3504 2.94461 29.0724 2.79907 29.8052 2.79907C30.538 2.79907 31.26 2.94461 31.9097 3.22328C32.4188 3.47808 32.8543 3.82101 33.1859 4.22822C33.5176 4.63544 33.7374 5.09718 33.83 5.58132C33.9518 6.49332 33.7604 7.41512 33.2776 8.24224C32.5091 9.44093 32.0185 10.7467 31.8308 12.093C31.6198 13.8193 31.6198 15.5587 31.8308 17.285C32.2135 17.2833 32.5945 17.327 32.962 17.4148C33.3816 17.5104 33.7747 17.6721 34.1195 17.8908" stroke="#3F4447" stroke-width="0.9" stroke-linecap="round" stroke-linejoin="round"></path><path d="M36.75 6.44692C37.5236 6.41722 38.2934 6.5513 38.986 6.83632C39.4908 7.10268 39.924 7.45123 40.2588 7.86049C40.5936 8.26976 40.823 8.73107 40.9327 9.216C41.074 10.0168 40.9746 10.8338 40.6433 11.5957C39.9067 13.759 38.8808 14.1268 38.2757 15.6628C37.829 16.8402 37.7654 18.0933 38.0916 19.2972C38.4181 19.3629 38.7292 19.4725 39.0123 19.6217C39.2615 19.7856 39.475 19.9831 39.6436 20.2058" stroke="#3F4447" stroke-width="0.9" stroke-linecap="round" stroke-linejoin="round"></path><path d="M43.6686 11.509C44.4488 11.5668 45.1818 11.8415 45.7467 12.2878C46.1065 12.6027 46.3762 12.9796 46.536 13.3911C46.7379 14.0839 46.7482 14.805 46.5661 15.5014C46.384 16.1979 46.014 16.8518 45.4837 17.415C44.5326 18.8082 43.9836 20.3625 43.879 21.958C44.0287 21.9886 44.171 22.0398 44.2999 22.1094C44.557 22.2485 44.7728 22.4333 44.9312 22.6503" stroke="#3F4447" stroke-width="0.9" stroke-linecap="round" stroke-linejoin="round"></path><path d="M27.6482 16.2034C27.2493 15.959 26.8052 15.7691 26.3329 15.6409C25.0965 15.338 24.4914 15.6409 24.0705 15.4246C23.6496 15.2082 24.0705 13.9535 24.7808 11.9632C25.1341 11.08 25.3549 10.1646 25.4384 9.23739C25.7804 6.014 24.9124 2.11998 20.5455 1.16811C18.937 0.741814 17.1893 0.852112 15.6787 1.47525C14.1681 2.09838 13.0156 3.1845 12.4694 4.49966C11.9221 6.72549 12.0944 9.03046 12.9692 11.1844C13.1671 11.7862 13.4497 12.367 13.8111 12.9151V13.0665C14.2444 13.798 14.4826 14.5972 14.5098 15.4105C14.537 16.2239 14.3526 17.0326 13.9689 17.7826C8.7076 25.1596 11.3382 32.926 14.6791 40.3895C15.3894 42.012 16.0734 43.6562 16.7048 45.3003C17.1783 46.5551 17.6518 47.8315 18.0463 49.0862C18.5857 50.7522 19.0073 52.4424 19.3091 54.1484L19.4669 54.9921C19.8752 57.6424 19.8752 60.3245 19.4669 62.9749" stroke="#3F4447" stroke-width="0.9" stroke-linecap="round" stroke-linejoin="round"></path><path d="M18.3882 81.4716C18.9394 82.648 19.7712 83.7219 20.8347 84.63C22.4144 85.8631 24.2995 86.8011 26.3607 87.3798C28.422 87.9586 30.6109 88.1644 32.7778 87.9832C34.4144 87.9263 36.019 87.5913 37.4905 86.9993C38.9619 86.4073 40.2683 85.5712 41.3274 84.5435C43.6617 81.9762 44.9257 78.8578 44.9314 75.6522C45.6153 69.1621 45.2208 66.22 46.1152 59.665" stroke="#3F4447" stroke-width="0.9" stroke-linecap="round" stroke-linejoin="round"></path><path d="M49.2721 42.077C50.1665 37.7503 50.0613 38.183 51.2714 33.9645C51.7212 32.3651 51.7545 30.7056 51.3691 29.0949C50.9837 27.4842 50.1884 25.9588 49.0353 24.6188V24.6188C48.3776 23.7102 49.0354 22.6286 49.8246 21.9363C50.5863 21.2009 51.0384 20.2827 51.1135 19.3186C51.1926 18.6686 50.9874 18.0167 50.5348 17.4798C50.1942 17.0701 49.7201 16.7477 49.1669 16.5496" stroke="#3F4447" stroke-width="0.9" stroke-linecap="round" stroke-linejoin="round"></path><path d="M68.9492 61.5906C67.2129 53.9972 69.4753 46.8149 69.3964 39.2216L72.7636 27.9722C72.8385 27.685 72.7967 27.3855 72.6447 27.1198C72.4926 26.854 72.2386 26.6367 71.9218 26.5011C71.7281 26.4234 71.5168 26.3797 71.3015 26.3728C71.0861 26.3659 70.8713 26.396 70.6709 26.4611C70.4704 26.5262 70.2887 26.625 70.1372 26.7511C69.9857 26.8771 69.8678 27.0278 69.791 27.1934L65.7661 34.4622" stroke="#3F4447" stroke-width="0.9" stroke-linecap="round" stroke-linejoin="round"></path><path d="M51.2714 33.9646C52.0569 35.095 52.7341 36.274 53.2969 37.4908V43.6564C53.2268 44.4232 52.8383 45.1469 52.1965 45.7061C51.5548 46.2654 50.6987 46.6263 49.7719 46.7283C49.3193 46.7929 48.8566 46.7929 48.404 46.7283C48.0743 46.6813 47.755 46.5938 47.4569 46.4687L43.0638 43.8943C40.933 42.6396 38.3023 40.5412 35.4875 41.731C35.1718 41.731 33.0147 43.1804 33.3567 43.4184C35.7424 44.8682 38.026 46.4284 40.1964 48.0912C42.827 50.4925 44.0371 53.6078 46.6941 55.9442C47.0823 56.3029 47.5044 56.6356 47.9567 56.9393C50.9557 58.9512 54.4544 60.379 55.8487 63.4293" stroke="#3F4447" stroke-width="0.9" stroke-linecap="round" stroke-linejoin="round"></path><path d="M51.1659 28.2749L57.4005 34.8515L60.7151 40.2166" stroke="#3F4447" stroke-width="0.9" stroke-linecap="round" stroke-linejoin="round"></path><path d="M52.1393 29.335L60.9782 32.3853L64.6611 37.4691" stroke="#3F4447" stroke-width="0.9" stroke-linecap="round" stroke-linejoin="round"></path><path d="M18.1251 49.1511L15.4945 56.6796L16.0207 63.4076C16.119 64.1696 16.5337 64.8804 17.195 65.4202C17.8563 65.9601 18.7237 66.296 19.651 66.3713C20.4471 66.4417 21.2509 66.3216 21.9659 66.0252L26.2538 63.3427C28.332 62.023 30.8838 59.8597 33.7512 60.963C34.0405 61.0712 36.3818 62.3475 35.9609 62.6071C33.2906 64.2819 30.7999 66.142 28.5162 68.1669C27.5934 69.3086 26.7841 70.5095 26.096 71.7581C24.9172 73.757 23.3137 75.5665 21.3609 77.1015C20.233 77.7026 19.0551 78.2375 17.8358 78.7024C16.0246 79.8437 14.7136 81.4381 14.1003 83.2454L13.5479 85.69" stroke="#3F4447" stroke-width="0.9" stroke-linecap="round" stroke-linejoin="round"></path><path d="M16.8625 45.6033L10.7594 54.2567L8.36551 60.1193C7.89208 60.8276 7.30841 61.4821 6.62927 62.0663" stroke="#3F4447" stroke-width="0.9" stroke-linecap="round" stroke-linejoin="round"></path><path d="M1.18372 84.5434C1.56391 83.5089 1.85406 82.4534 2.05187 81.3849C2.60702 75.6503 2.39525 69.8829 1.42046 64.1863C1.26853 63.2289 1.44152 62.2556 1.92029 61.374L5.18235 55.2084C5.86243 53.9231 6.99958 52.8371 8.44432 52.0932L14.8631 48.6968" stroke="#3F4447" stroke-width="0.9" stroke-linecap="round" stroke-linejoin="round"></path><path d="M30.042 47.4638C29.3436 46.6013 28.902 45.6156 28.753 44.5866C28.5866 43.5331 28.7371 42.4622 29.1915 41.4677C29.6458 40.4733 30.39 39.5858 31.3587 38.8831C32.3275 38.1804 33.4913 37.6839 34.7478 37.4374C36.0043 37.1909 37.3152 37.2018 38.5654 37.4691" stroke="#3F4447" stroke-width="0.9" stroke-linecap="round" stroke-linejoin="round"></path></svg> 