<?xml version="1.0" encoding="UTF-8"?> <svg xmlns="http://www.w3.org/2000/svg" width="97" height="89" viewBox="0 0 97 89" fill="none"><g clip-path="url(#clip0)"><path d="M50.8721 67.0237C48.4029 68.1733 45.712 68.769 42.9883 68.769C40.2645 68.769 37.5736 68.1733 35.1044 67.0237C35.5611 66.4146 36.0179 65.8056 36.4808 65.1966C37.0158 64.4626 37.7678 63.9151 38.6306 63.6314C38.9145 63.5488 39.2065 63.4977 39.5015 63.4791C41.2312 63.3391 41.6271 64.0212 43.0278 64.0395C44.4286 64.0578 44.8184 63.3695 46.548 63.54C46.9173 63.5722 47.2802 63.6563 47.626 63.7898C48.3508 64.0882 48.9819 64.5762 49.4531 65.2027L50.8721 67.0237Z" stroke="#3F4447" stroke-linecap="round" stroke-linejoin="round"></path><path d="M37.0167 71.8472L38.9839 73.3758C39.6424 73.7132 40.3601 73.92 41.0972 73.9848C41.2534 73.9941 41.41 73.9941 41.5661 73.9848H44.5321C44.824 73.985 45.1153 73.9605 45.403 73.9118C46.1094 73.8047 46.788 73.5605 47.4007 73.1931L49.0998 71.835" stroke="#3F4447" stroke-linecap="round" stroke-linejoin="round"></path><path d="M47.5225 53.4058C47.4067 53.9234 47.017 54.0148 45.5127 55.0806C44.6588 55.589 43.6835 55.8573 42.6898 55.8573C41.6961 55.8573 40.7208 55.589 39.867 55.0806C38.3627 54.0331 37.979 53.9234 37.8572 53.4058" stroke="#3F4447" stroke-linecap="round" stroke-linejoin="round"></path><path d="M17.0527 37.6624C17.726 37.137 18.5556 36.8516 19.4097 36.8516C20.2637 36.8516 21.0933 37.137 21.7666 37.6624C22.893 38.6421 24.2414 39.332 25.6949 39.6723C26.711 39.8903 27.7556 39.9438 28.7887 39.8306C29.4952 39.7697 30.0068 39.6539 32.857 38.8561C33.8193 38.5881 34.6232 38.3567 35.2079 38.1862" stroke="#3F4447" stroke-linecap="round" stroke-linejoin="round"></path><path d="M21.9921 41.414C22.6011 39.8915 24.4282 39.5382 24.885 39.4651" stroke="#3F4447" stroke-linecap="round" stroke-linejoin="round"></path><path d="M68.1199 37.6623C67.4452 37.1373 66.6147 36.8523 65.7599 36.8523C64.905 36.8523 64.0746 37.1373 63.3999 37.6623C62.2735 38.6419 60.9251 39.3318 59.4716 39.6721C58.4576 39.8902 57.415 39.9437 56.3839 39.8305C55.6774 39.7695 55.1658 39.6538 52.3156 38.8559L49.9586 38.186" stroke="#3F4447" stroke-linecap="round" stroke-linejoin="round"></path><path d="M60.2877 39.4651C60.7628 39.5382 62.5777 39.8915 63.1745 41.414" stroke="#3F4447" stroke-linecap="round" stroke-linejoin="round"></path><path d="M8.95276 37.979C9.21179 44.9263 10.2475 51.8229 12.0405 58.5398C14.903 69.2892 27.8387 79.8558 35.9754 85.5868C37.9357 87.0005 40.2913 87.7612 42.7082 87.7612C45.1251 87.7612 47.4806 87.0005 49.441 85.5868C52.9028 83.1609 56.2252 80.542 59.3925 77.7425" stroke="#3F4447" stroke-linecap="round" stroke-linejoin="round"></path><path d="M76.5549 37.5283C76.5062 39.2092 76.4087 40.8841 76.2626 42.5406" stroke="#3F4447" stroke-linecap="round" stroke-linejoin="round"></path><path d="M8.95276 37.2847C7.78951 39.9461 5.21332 41.6819 3.4715 43.984C1.84649 46.1945 0.957983 48.8602 0.93175 51.6037C0.905518 54.3471 1.7429 57.0294 3.32534 59.2706C4.26933 60.5496 5.45692 61.6641 6.1573 63.0892C6.64492 64.1063 6.86609 65.2307 6.80005 66.3567C6.734 67.4827 6.3829 68.5736 5.77971 69.5267" stroke="#3F4447" stroke-linecap="round" stroke-linejoin="round"></path><path d="M35.1044 28.8435C35.1044 28.8435 33.2773 26.45 29.1237 25.6522C24.9701 24.8544 19.7507 25.6522 19.7507 25.6522" stroke="#3F4447" stroke-linecap="round" stroke-linejoin="round"></path><path d="M47.8635 28.7888C47.8635 28.7888 49.6906 26.3953 53.8502 25.5975C58.0099 24.7997 63.2232 25.5975 63.2232 25.5975" stroke="#3F4447" stroke-linecap="round" stroke-linejoin="round"></path><path d="M37.7598 5.09155C34.0169 6.4019 30.5073 8.30163 27.3636 10.719C14.6715 21.0725 12.0283 30.0373 9.13541 38.0278C9.13541 38.0278 9.13541 38.0278 9.09277 38.0278" stroke="#3F4447" stroke-linecap="round" stroke-linejoin="round"></path><path d="M41.286 0.913574C46.0121 3.48368 50.7686 6.01115 55.2084 8.9893C65.7446 16.0479 72.1881 25.7741 76.5244 37.5284" stroke="#3F4447" stroke-linecap="round" stroke-linejoin="round"></path><path d="M60.9454 63.1501C61.732 63.1501 62.5009 63.3834 63.1549 63.8204C63.8089 64.2574 64.3187 64.8785 64.6197 65.6052C64.9207 66.3319 64.9994 67.1315 64.846 67.903C64.6925 68.6744 64.3138 69.3831 63.7576 69.9393C63.2014 70.4955 62.4928 70.8742 61.7213 71.0277C60.9498 71.1811 60.1502 71.1024 59.4235 70.8014C58.6968 70.5004 58.0757 69.9906 57.6387 69.3366C57.2017 68.6826 56.9685 67.9137 56.9685 67.1271C56.9685 66.0724 57.3875 65.0608 58.1333 64.315C58.8791 63.5691 59.8907 63.1501 60.9454 63.1501V63.1501Z" stroke="#3F4447" stroke-linecap="round" stroke-linejoin="round"></path><path d="M60.9454 50.2144C61.732 50.2144 62.5009 50.4477 63.1549 50.8846C63.8089 51.3216 64.3187 51.9427 64.6197 52.6694C64.9207 53.3961 64.9994 54.1957 64.846 54.9672C64.6925 55.7386 64.3138 56.4473 63.7576 57.0035C63.2014 57.5597 62.4928 57.9384 61.7213 58.0919C60.9498 58.2453 60.1502 58.1666 59.4235 57.8656C58.6968 57.5646 58.0757 57.0548 57.6387 56.4008C57.2017 55.7468 56.9685 54.9779 56.9685 54.1913C56.9685 53.1366 57.3875 52.125 58.1333 51.3792C58.8791 50.6334 59.8907 50.2144 60.9454 50.2144V50.2144Z" stroke="#3F4447" stroke-linecap="round" stroke-linejoin="round"></path><path d="M64.9225 54.1914L75.4404 56.1647C78.1871 56.6762 80.1299 58.6008 80.1299 60.8359C80.1299 63.132 78.0592 65.0991 75.1968 65.5498L64.9225 67.1272" stroke="#3F4447" stroke-linecap="round" stroke-linejoin="round"></path><path d="M76.7194 53.2048C80.9338 53.9905 83.8815 57.1392 83.8815 60.8543C83.8815 64.5693 80.7268 67.8946 76.3783 68.5645" stroke="#3F4447" stroke-linecap="round" stroke-linejoin="round"></path><path d="M88.4249 63.2231H83.5709" stroke="#3F4447" stroke-linecap="round" stroke-linejoin="round"></path><path d="M88.4249 58.5642H83.5831" stroke="#3F4447" stroke-linecap="round" stroke-linejoin="round"></path><path d="M96.0864 53.2351H90.3494C90.0974 53.2351 89.8479 53.2847 89.6152 53.3811C89.3824 53.4775 89.1709 53.6189 88.9928 53.797C88.8147 53.9751 88.6734 54.1866 88.577 54.4193C88.4805 54.6521 88.4309 54.9016 88.4309 55.1535V66.6033C88.4309 67.1121 88.633 67.6 88.9928 67.9598C89.3526 68.3196 89.8406 68.5217 90.3494 68.5217H96.0864" stroke="#3F4447" stroke-linecap="round" stroke-linejoin="round"></path></g><defs><clipPath id="clip0"><rect width="97" height="88.6441" fill="white"></rect></clipPath></defs></svg> 