<?xml version="1.0" encoding="UTF-8"?> <svg xmlns="http://www.w3.org/2000/svg" width="30" height="32" viewBox="0 0 30 32" fill="none"><path d="M15 18.0685C19.6582 18.0685 23.4375 14.1633 23.4375 9.34979C23.4375 4.53632 19.6582 0.631042 15 0.631042C10.3418 0.631042 6.5625 4.53632 6.5625 9.34979C6.5625 14.1633 10.3418 18.0685 15 18.0685ZM22.5 20.006H19.2715C17.9707 20.6236 16.5234 20.9748 15 20.9748C13.4766 20.9748 12.0352 20.6236 10.7285 20.006H7.5C3.35742 20.006 0 23.4754 0 27.756V28.7248C0 30.3293 1.25977 31.631 2.8125 31.631H27.1875C28.7402 31.631 30 30.3293 30 28.7248V27.756C30 23.4754 26.6426 20.006 22.5 20.006Z" fill="white"></path></svg> 