<?xml version="1.0" encoding="UTF-8"?> <svg xmlns="http://www.w3.org/2000/svg" width="29" height="33" viewBox="0 0 29 33" fill="none"><g clip-path="url(#clip0)"><path d="M0 27.2527C0 21.3598 5.35082 16.5827 11.9513 16.5827C18.5518 16.5827 23.9025 21.3597 23.9025 27.2527H0Z" fill="white"></path><path d="M18.5845 11.4244C18.5845 15.0286 15.6148 17.9506 11.9513 17.9506C8.28787 17.9506 5.31812 15.0286 5.31812 11.4244C5.31812 7.82016 8.28787 4.89795 11.9513 4.89795C15.6148 4.89795 18.5845 7.81987 18.5845 11.4244Z" fill="white" stroke="#B0A333" stroke-miterlimit="10"></path><path d="M19.6824 7.57478C19.6477 7.58223 19.6136 7.589 19.5784 7.59644C19.3173 4.96979 17.687 2.73861 15.3987 1.60251V3.15564C15.3968 3.2901 15.3412 3.41842 15.2439 3.51285C15.1466 3.60728 15.0154 3.66022 14.8788 3.66022C14.7421 3.66022 14.6109 3.60728 14.5136 3.51285C14.4163 3.41842 14.3607 3.2901 14.3588 3.15564V1.17794C12.7951 0.671156 11.1073 0.671156 9.54354 1.17794V3.15564C9.54354 3.29133 9.48875 3.42146 9.39123 3.5174C9.29372 3.61335 9.16145 3.66725 9.02354 3.66725C8.88563 3.66725 8.75337 3.61335 8.65585 3.5174C8.55833 3.42146 8.50355 3.29133 8.50355 3.15564V1.60251C6.21568 2.73851 4.58502 4.96979 4.32424 7.59644C4.28954 7.589 4.25543 7.58223 4.22024 7.57478C3.86637 7.49876 3.57983 7.85525 3.57983 8.37934C3.57983 8.90343 3.86627 9.39484 4.22024 9.47105C9.34704 10.573 14.5553 10.573 19.6824 9.47105C20.0363 9.39493 20.3228 8.90295 20.3228 8.37934C20.3228 7.85573 20.0363 7.49886 19.6824 7.57478Z" fill="white" stroke="#B0A333" stroke-miterlimit="10"></path><path d="M28.9366 25.9857L28.8733 25.5663L28.4477 25.6329C28.2385 25.6655 28.0242 25.6278 27.8394 25.526C27.6546 25.4242 27.51 25.2641 27.429 25.0716C27.3479 24.879 27.3351 24.6652 27.3926 24.4647C27.45 24.2641 27.5745 24.0884 27.7458 23.9659L28.0947 23.7168L27.8379 23.3762C27.4941 22.9201 27.0837 22.5165 26.6199 22.1784L26.2739 21.926L26.0208 22.269C25.8963 22.4376 25.7177 22.5599 25.5138 22.6165C25.31 22.673 25.0928 22.6603 24.8971 22.5806C24.7015 22.5009 24.5388 22.3586 24.4353 22.1769C24.3318 21.9951 24.2935 21.7843 24.3265 21.5785L24.3941 21.1597L23.9679 21.0974C23.397 21.0141 22.8167 21.0141 22.2459 21.0974L21.8195 21.1597L21.8872 21.5785C21.9203 21.7843 21.882 21.9951 21.7785 22.177C21.675 22.3588 21.5123 22.501 21.3166 22.5808C21.1209 22.6605 20.9036 22.6732 20.6997 22.6166C20.4959 22.5601 20.3173 22.4377 20.1927 22.2691L19.9396 21.9258L19.5934 22.1784C19.1299 22.5167 18.7196 22.9205 18.376 23.3768L18.1194 23.7172L18.4681 23.9663C18.6394 24.0888 18.7639 24.2645 18.8213 24.465C18.8788 24.6656 18.866 24.8794 18.785 25.0719C18.7039 25.2644 18.5594 25.4245 18.3746 25.5263C18.1898 25.6282 17.9756 25.6659 17.7664 25.6333L17.3408 25.5669L17.2775 25.9861C17.1925 26.5478 17.1923 27.1188 17.277 27.6806L17.3404 28.1L17.7661 28.0334C17.9752 28.0008 18.1895 28.0385 18.3742 28.1404C18.559 28.2422 18.7035 28.4023 18.7846 28.5948C18.8656 28.7873 18.8785 29.001 18.821 29.2016C18.7636 29.4021 18.6392 29.5778 18.4679 29.7003L18.119 29.9495L18.3757 30.2901C18.7196 30.7461 19.1302 31.1495 19.594 31.4874L19.9401 31.7397L20.1932 31.3968C20.3178 31.2284 20.4964 31.1061 20.7002 31.0496C20.9039 30.9932 21.1211 31.0058 21.3167 31.0855C21.5123 31.1652 21.675 31.3074 21.7785 31.4891C21.882 31.6708 21.9204 31.8815 21.8875 32.0872L21.8199 32.5059L22.246 32.5683C22.8169 32.6517 23.3972 32.6517 23.968 32.5683L24.3945 32.5061L24.3267 32.0872C24.2936 31.8814 24.3319 31.6706 24.4354 31.4887C24.5388 31.3069 24.7015 31.1646 24.8972 31.0848C25.0929 31.0051 25.3102 30.9924 25.5141 31.049C25.718 31.1056 25.8966 31.228 26.0211 31.3966L26.2742 31.7399L26.6204 31.4873C27.0839 31.1493 27.4941 30.7456 27.8376 30.2895L28.0942 29.9491L27.7456 29.6996C27.5743 29.5771 27.4498 29.4014 27.3923 29.2008C27.3348 29.0003 27.3476 28.7865 27.4287 28.594C27.5097 28.4015 27.6543 28.2414 27.839 28.1395C28.0238 28.0377 28.2381 28 28.4473 28.0326L28.8728 28.0991L28.9362 27.6798C29.0212 27.1182 29.0213 26.5474 28.9366 25.9857Z" fill="#B0A333"></path><path d="M27.0351 25.232C26.9174 24.9523 26.8988 24.6418 26.9823 24.3505C27.0657 24.0592 27.2464 23.8039 27.4952 23.6259C27.1764 23.2031 26.7958 22.8289 26.3658 22.5155C26.185 22.7602 25.9256 22.938 25.6295 23.0201C25.3335 23.1022 25.018 23.0838 24.7338 22.968C24.4496 22.8522 24.2133 22.6456 24.063 22.3815C23.9127 22.1175 23.8571 21.8114 23.9052 21.5124C23.3758 21.4351 22.8378 21.4351 22.3084 21.5124C22.3565 21.8114 22.3009 22.1176 22.1505 22.3816C22.0002 22.6457 21.7639 22.8523 21.4797 22.9681C21.1954 23.0839 20.8799 23.1023 20.5838 23.0201C20.2877 22.938 20.0283 22.7602 19.8475 22.5154C19.4178 22.8289 19.0376 23.2031 18.7191 23.6259C18.9679 23.8039 19.1486 24.059 19.2321 24.3503C19.3155 24.6416 19.2969 24.9521 19.1792 25.2317C19.0615 25.5113 18.8515 25.7438 18.5832 25.8917C18.3148 26.0396 18.0037 26.0943 17.6999 26.0471C17.6212 26.5679 17.6212 27.0973 17.6999 27.6181C18.0037 27.5707 18.3149 27.6254 18.5833 27.7733C18.8518 27.9212 19.0617 28.1537 19.1795 28.4334C19.2972 28.713 19.3158 29.0235 19.2323 29.3149C19.1488 29.6062 18.9681 29.8614 18.7192 30.0393C19.0377 30.4623 19.418 30.8367 19.8477 31.1503C20.0287 30.9055 20.288 30.7279 20.584 30.6458C20.88 30.5637 21.1955 30.5821 21.4797 30.6979C21.7638 30.8137 22.0001 31.0202 22.1504 31.2841C22.3008 31.5481 22.3565 31.8542 22.3085 32.1531C22.8378 32.2306 23.3759 32.2308 23.9053 32.1536C23.8568 31.8544 23.9122 31.548 24.0625 31.2836C24.2128 31.0192 24.4492 30.8124 24.7336 30.6965C25.0181 30.5805 25.3339 30.5622 25.6302 30.6446C25.9264 30.7269 26.1859 30.9051 26.3666 31.1503C26.7965 30.8366 27.1768 30.4622 27.4954 30.0391C27.2466 29.8612 27.066 29.606 26.9826 29.3147C26.8991 29.0235 26.9178 28.713 27.0355 28.4335C27.1532 28.1539 27.3631 27.9214 27.6314 27.7735C27.8997 27.6256 28.2108 27.5709 28.5146 27.6181C28.5934 27.0972 28.5934 26.5678 28.5146 26.047C28.2108 26.0943 27.8997 26.0396 27.6313 25.8918C27.3629 25.7439 27.1529 25.5115 27.0351 25.232ZM23.8574 28.6164C22.8565 29.0242 21.7091 28.5566 21.2946 27.5718C20.8801 26.5871 21.3552 25.4582 22.3562 25.0502C23.3572 24.6423 24.5044 25.1101 24.919 26.0947C25.3336 27.0794 24.8583 28.2079 23.8574 28.6164Z" fill="white"></path></g><defs><clipPath id="clip0"><rect width="29" height="32" fill="white" transform="translate(0 0.631042)"></rect></clipPath></defs></svg> 