<?xml version="1.0" encoding="UTF-8"?> <svg xmlns="http://www.w3.org/2000/svg" width="22" height="24" viewBox="0 0 22 24" fill="none"><path d="M21.3125 11.603C21.3234 18.008 16.5352 23.2455 10.664 23.25C8.12818 23.2519 5.79893 22.2876 3.96851 20.676C3.49254 20.2569 3.45696 19.4788 3.88949 19.0069L4.37362 18.4788C4.74354 18.0752 5.3341 18.0311 5.74393 18.3858C7.09251 19.5532 8.79918 20.25 10.6562 20.25C15.0264 20.25 18.5625 16.3917 18.5625 11.625C18.5625 6.85758 15.0257 3 10.6562 3C8.55877 3 6.65375 3.88917 5.23927 5.34056L7.4201 7.71966C7.85323 8.19216 7.54647 9 6.934 9H0.6875C0.307785 9 0 8.66423 0 8.25V1.43564C0 0.767484 0.740523 0.432844 1.17365 0.905297L3.2951 3.21961C5.2082 1.22512 7.80106 0 10.6562 0C16.5348 0 21.3016 5.19281 21.3125 11.603ZM13.5389 15.296L13.961 14.704C14.3107 14.2135 14.2297 13.5067 13.7801 13.1253L12.0312 11.6414V6.75C12.0312 6.12867 11.5696 5.625 11 5.625H10.3125C9.74295 5.625 9.28125 6.12867 9.28125 6.75V13.1086L12.0918 15.4934C12.5414 15.8748 13.1893 15.7865 13.5389 15.296Z" fill="white"></path></svg> 