<?xml version="1.0" encoding="UTF-8"?> <svg xmlns="http://www.w3.org/2000/svg" width="29" height="29" viewBox="0 0 29 29" fill="none"><path d="M23.4382 22.3132C25.1648 22.3132 26.5632 20.9148 26.5632 19.1882C26.5632 17.4617 25.1648 16.0632 23.4382 16.0632C21.7117 16.0632 20.3132 17.4617 20.3132 19.1882C20.3132 20.9148 21.7117 22.3132 23.4382 22.3132Z" fill="#8AB9F6"></path><path fill-rule="evenodd" clip-rule="evenodd" d="M4.68726 -0.000244141C2.09819 -0.000244141 -0.000244141 2.09819 -0.000244141 4.68726V23.4373C-0.000244141 26.0263 2.09819 28.1248 4.68726 28.1248H23.4373C26.0263 28.1248 28.1248 26.0263 28.1248 23.4373V4.68726C28.1248 2.09819 26.0263 -0.000244141 23.4373 -0.000244141H4.68726ZM3.12476 23.4373V7.81226H24.9998V23.4373C24.9998 24.2998 24.2998 24.9998 23.4373 24.9998H4.68726C3.82476 24.9998 3.12476 24.2998 3.12476 23.4373Z" fill="#8AB9F6"></path></svg> 