<?xml version="1.0" encoding="UTF-8"?> <svg xmlns="http://www.w3.org/2000/svg" width="299" height="267" viewBox="0 0 299 267" fill="none"><g clip-path="url(#clip0)"><path d="M61.2585 227.025C72.0947 234.826 83.6396 241.678 95.3077 247.688C126.692 263.86 166.122 275.262 203.892 259.372C249.715 240.095 268.896 187.753 265.637 144.952C258.661 53.2883 161.586 -45.3938 60.5719 22.5562C14.3286 53.6646 -12.0269 110.265 5.41358 158.212C15.8361 186.853 36.7273 209.37 61.2585 227.025Z" fill="#F0EFEF"></path><path d="M189.656 64.7368L189.612 65.0934C200.448 65.3134 211.289 65.6634 222.121 65.7316C234.898 65.813 268.382 64.6906 281.146 65.2914C284.24 65.4389 287.088 65.5401 290.147 64.9261C294.288 64.0986 299.007 64.1184 298.998 58.7814C298.998 55.5154 297.321 50.6384 294.486 48.7127C288.3 44.5158 277.427 45.3763 270.294 45.1364C257.607 44.7117 224.388 44.8173 211.683 44.8503C204.372 44.8701 197.068 44.4101 189.755 44.3397H189.016C189.5 46.2522 189.471 48.3672 189.63 50.2467C189.804 52.3375 189.973 54.4282 190.03 56.5212C190.1 58.5737 190.034 60.6287 189.832 62.6725C189.771 63.2557 189.733 63.993 189.656 64.7368Z" fill="#D9C1A5"></path><path d="M137.352 63.993C137.508 65.4521 137.651 68.41 139.192 69.2485C141.423 70.4611 142.946 66.7506 144.925 66.4447C149.049 65.813 146.866 71.5704 146.452 73.5225C145.246 79.1852 151.01 74.9772 153.584 77.1582C155.228 78.5513 155.325 81.1747 155.301 83.1158C155.237 88.3978 153.648 93.7083 152.075 98.7416C151.883 99.3578 151.681 99.9674 151.496 100.581C150.596 103.575 149.335 106.458 148.551 109.486C147.799 112.406 147.913 115.146 148.037 118.12C148.095 119.281 148.341 120.426 148.765 121.509C149.894 124.489 153.655 127.011 156.987 126.967C167.898 126.835 161.155 113.582 159.515 108.146C158.331 104.213 158.239 99.4524 158.91 95.4293C159.643 91.0277 160.955 86.998 160.792 82.482C160.697 79.8102 160.514 76.3857 162.383 74.1585C164.445 71.7002 167.37 73.1703 169.881 74.0221C173.507 75.2545 175.125 74.284 176.773 71.0202C177.541 69.5201 178.75 68.2912 180.237 67.4989C181.638 66.7322 183.243 66.4243 184.828 66.6185C185.555 66.7368 186.241 67.0349 186.824 67.4857C186.984 67.0023 187.116 66.5099 187.218 66.0111C187.205 65.6898 187.196 65.3685 187.191 65.0494H187.389C187.407 64.9349 187.425 64.8293 187.44 64.7038C188.193 59.2546 187.152 51.6838 186.683 47.1876C186.615 46.2397 186.49 45.2968 186.309 44.3639C186.106 43.4374 185.772 42.5549 185.209 42.0311C185.114 41.9901 185.014 41.9633 184.911 41.9518C183.686 41.7494 179.617 41.811 179.484 41.8066C170.702 41.6129 161.804 41.7582 153.023 41.9739C150.719 42.0289 148.415 42.0839 146.111 42.0817C143.419 42.0817 138.501 40.792 137.288 44.0954C135.402 49.2079 136.795 58.7484 137.352 63.993Z" fill="#6BC4C7"></path><path d="M111.291 207.706C111.454 210.787 111.751 213.868 112.073 216.923C112.396 220.033 112.808 223.679 115.904 225.887C119.381 228.367 126.247 228.07 130.664 228.501C135.875 229.01 187.334 229.353 200.367 227.964C204.768 227.496 211.645 227.658 215.085 225.125C218.144 222.869 218.501 219.216 218.78 216.102C219.053 213.021 219.302 209.955 219.418 206.874C219.671 200.245 219.247 193.607 218.556 187.014C218.23 183.904 217.818 180.257 214.722 178.05C211.533 175.776 155.706 176.806 155.316 176.815C155.281 176.815 118.648 176.525 115.543 178.811C112.482 181.067 112.126 184.721 111.848 187.835C111.267 194.446 110.935 201.088 111.291 207.706ZM165.429 228.286C165.457 228.233 165.488 228.18 165.517 228.125C165.543 228.187 165.506 228.239 165.426 228.292L165.429 228.286ZM114.152 199.349C114.152 197.908 114.504 182.099 115.831 181.05C118.985 178.556 141.39 179.311 144.623 179.241C150.565 179.113 181.951 179.21 185.66 178.926C188.884 178.679 211.287 177.845 214.489 180.293C215.831 181.32 216.436 197.122 216.447 198.559C216.502 204.501 216.861 213.384 215.527 219.273C215.211 220.68 215.631 222.425 214.427 223.624C212.968 225.092 200.164 225.975 196.954 226.349C192.92 226.822 138.1 227.242 134.06 226.833C130.845 226.507 118.028 225.823 116.547 224.377C115.336 223.195 115.73 221.443 115.389 220.044C113.963 214.183 114.185 205.298 114.148 199.356L114.152 199.349Z" fill="#6BC4C7"></path><path d="M223.102 198.302C223.08 198.674 223.056 199.043 223.032 199.402C221.835 199.611 220.643 199.809 219.456 199.999C219.348 195.659 219.016 191.325 218.556 187.014C218.23 183.904 217.818 180.257 214.722 178.05C211.533 175.776 155.706 176.804 155.316 176.815C155.281 176.815 118.648 176.525 115.543 178.811C112.482 181.065 112.126 184.721 111.848 187.835C111.56 191.074 111.333 194.323 111.221 197.573C109.764 197.263 108.457 196.968 107.304 196.693C107.133 194.202 107.133 191.702 107.304 189.21C107.564 185.689 108.252 182.196 108.604 178.684C109.045 174.238 111.025 170.395 113.294 166.65C113.701 166.034 114.142 165.441 114.615 164.874C114.667 164.803 114.995 164.434 115.068 164.301C115.306 163.861 116.016 163.839 116.459 163.243C116.536 163.142 116.509 161.284 116.501 161.156C115.211 159.196 115.427 153.784 115.284 151.543C115.185 150.003 115.064 148.449 115.145 146.897C115.156 146.653 115.125 146.402 115.158 146.16C115.297 145.106 127.572 145.452 132.205 145.416C133.697 145.416 145.543 144.397 148.05 145.053C148.967 145.291 157.863 145.084 159.953 145.11C161.111 145.126 165.514 145.141 166.335 145.051C167.913 144.873 169.48 145.469 170.983 145.19C172.084 144.985 186.126 144.895 187.35 145.374C188.747 145.92 193.162 145.168 194.495 145.275C194.495 145.509 197.075 145.159 198.382 145.214C199.797 145.275 200.613 145.234 202.158 145.324C203.635 145.41 206.529 145.449 208.052 145.452C210.776 145.452 213.496 144.888 214.079 145.452C214.234 145.648 214.312 145.893 214.3 146.143C214.335 146.649 214.348 147.153 214.348 147.659C214.348 148.363 214.319 149.065 214.284 149.767C214.267 150.108 214.251 150.447 214.234 150.788C214.203 151.407 214.205 152.021 214.234 152.637C214.256 153.341 214.3 154.043 214.346 154.746C214.405 155.665 214.467 156.585 214.478 157.505C214.495 158.689 214.196 159.757 213.272 160.536C213.193 161.223 213.237 161.919 213.399 162.591C213.463 162.836 216.991 165.232 217.383 165.855C219.718 169.568 221.166 173.384 221.678 177.821C222.083 181.329 222.827 184.822 223.142 188.328C223.439 191.79 223.305 194.924 223.102 198.302Z" fill="white"></path><path d="M139.449 212.277C139.148 208.412 139.54 204.391 140.273 200.613C140.476 199.455 140.745 198.311 141.078 197.184C141.487 195.883 141.804 194.543 142.229 193.244C142.363 192.828 142.59 192.417 142.304 191.966C142.264 191.902 142.583 191.911 142.649 191.895C143.309 191.748 144.161 192.142 144.59 192.639C145.394 193.563 145.55 194.483 145.314 195.661C145.116 196.651 144.874 197.642 144.692 198.625C144.584 199.224 144.41 199.814 144.28 200.412C144.06 201.425 144.02 202.457 143.84 203.469C143.6 204.79 143.554 206.11 143.431 207.431C143.365 208.164 143.327 210.169 143.34 210.433C143.354 210.697 143.191 212.147 143.483 211.914C143.924 211.564 146.617 204.651 147.368 203.152C148.059 201.779 148.717 200.333 149.522 198.999C149.942 198.306 150.444 197.701 150.917 197.049C151.302 196.515 151.591 196.072 152.328 196.389C153.56 196.917 153.413 198.958 153.477 200.036C153.559 200.84 153.574 201.65 153.523 202.457C153.351 204.013 152.889 205.562 152.643 207.109C152.423 208.41 152.115 209.636 152.018 210.956C151.967 211.674 151.811 213.817 151.883 214.148C152.035 214.843 152.324 214.106 152.53 213.848C152.772 213.53 152.967 213.179 153.109 212.805C153.743 211.259 154.282 209.676 154.725 208.065C154.995 207.07 155.385 206.112 155.642 205.124C155.957 203.879 156.36 202.664 156.789 201.467C157.229 200.221 157.601 198.98 158.158 197.774C158.538 196.948 158.952 196.138 159.359 195.328C159.579 194.888 159.7 194.367 160 193.955C160.052 193.858 160.127 193.774 160.217 193.709C160.306 193.645 160.41 193.602 160.519 193.583C160.651 193.583 161.542 193.667 161.721 193.676C162.654 193.717 159.377 200.327 159.122 201.106C158.62 202.646 158.096 204.158 157.508 205.657C156.797 207.466 156.108 209.284 155.442 211.11C154.964 212.416 154.502 213.734 153.835 214.953C153.466 215.633 152.605 216.934 151.635 216.846C149.909 216.668 148.957 215.428 148.6 213.901C148.096 211.742 148.648 209.517 148.787 207.351C148.891 206.227 149.095 205.114 149.397 204.026C149.634 203.056 150.297 200.828 150.222 200.802C150.147 200.775 149.342 202.27 149.031 202.939C148.151 204.92 146.784 208.001 145.887 209.981C145.292 211.276 143.301 216.624 142.7 216.929C142.505 217.026 142.293 217.08 142.076 217.088C141.859 217.097 141.642 217.059 141.441 216.978C140.462 216.478 139.87 215.257 139.641 214.207C139.534 213.569 139.47 212.924 139.449 212.277Z" fill="#6BC4C7"></path><path d="M209.403 212.548C209.421 212.497 209.513 212.42 209.546 212.431C209.619 212.456 209.683 212.503 209.729 212.565C209.775 212.627 209.802 212.701 209.806 212.779C209.806 212.805 209.731 212.842 209.672 212.889C209.716 212.662 209.328 212.75 209.403 212.548Z" fill="white"></path><path d="M171.802 192.161C170.081 191.281 169.68 192.412 168.82 193.684C166.877 196.545 165.444 199.563 163.978 202.708C163.347 204.061 162.455 205.272 161.813 206.621C161.608 207.048 161.338 207.472 160.869 207.631C160.36 207.803 159.795 207.642 159.328 207.398C159.225 207.343 158.904 207.061 158.827 207.252C158.642 207.693 159.352 208.824 159.984 209.158C160.237 209.293 160.594 209.196 160.521 209.341C160.393 209.594 159.861 210.732 159.724 210.963C159.328 211.687 157.827 214.997 157.669 215.448C157.471 215.701 159.548 215.668 159.592 215.554C159.72 215.195 161.038 212.332 161.412 211.691C161.786 211.051 161.965 210.395 162.341 209.79C162.443 209.617 162.607 209.489 162.799 209.431C163.325 209.211 166.947 208.049 166.927 209.055C166.877 211.476 166.549 214.59 167.367 215.274C167.728 215.569 170.105 215.288 170.565 215.111C171.302 214.828 172.951 199.781 173.312 196.715C173.367 196.246 173.367 195.771 173.312 195.302C173.188 194.021 172.977 192.758 171.802 192.161ZM164.042 206.858C163.961 206.858 163.835 206.806 163.93 206.623C165.017 204.567 165.911 202.424 167.059 200.397C167.279 200.016 169.498 196.072 169.7 195.593C169.738 195.504 169.788 195.441 169.881 195.48C169.973 195.52 169.96 195.599 169.911 195.685C169.357 196.649 167.326 205.065 167.187 205.952C167.169 206.06 167.15 206.211 167.024 206.255C166.258 206.605 164.553 206.799 164.042 206.858Z" fill="#6BC4C7"></path><path d="M179.489 204.367C179.348 203.078 179.22 202.127 179.099 201.176C179.031 200.637 179.005 200.076 178.974 199.517C178.937 198.856 178.833 198.196 178.802 197.556C178.754 196.519 178.516 195.509 178.496 194.475C178.496 194.085 178.455 193.713 178.105 193.462C177.977 193.37 178.206 193.242 178.296 193.242C178.694 193.313 179.132 193.35 179.469 193.546C180.294 193.993 180.993 194.639 181.505 195.425C181.608 195.59 182.216 197.23 182.488 199.803C182.488 199.891 182.464 200.023 182.605 200.034C182.746 200.045 182.726 199.902 182.77 199.814C183.287 198.92 186.679 194.734 187.698 193.418C187.948 193.095 188.21 192.778 188.437 192.434C188.589 192.214 190.272 191.53 190.858 191.994C191.126 192.214 191.298 192.379 190.893 192.654C190.488 192.93 187.53 196.651 186.624 197.716C186.111 198.326 185.743 199.05 185.231 199.644C184.621 200.338 184.143 201.125 183.562 201.845C183.274 202.197 182.975 202.655 182.951 203.018C182.93 203.511 182.973 204.004 183.078 204.486C183.256 205.26 183.37 206.048 183.419 206.841C183.446 207.618 183.661 208.382 183.734 209.139C183.895 210.796 184.441 212.389 184.502 214.06C184.502 214.368 184.603 214.555 184.256 214.797C183.989 214.98 182.799 214.942 182.495 214.737C182.103 214.488 181.764 214.163 181.499 213.781C181.235 213.399 181.05 212.967 180.955 212.512C180.682 211.262 180.294 210.034 180.145 208.756C180.118 208.536 180.044 208.122 179.96 208.113C179.678 208.084 179.661 208.419 179.548 208.615C178.833 209.854 178.259 211.166 177.568 212.418C177.101 213.267 176.773 214.192 176.351 215.059C176.068 215.695 175.65 216.263 175.125 216.72C175.094 216.745 175.055 216.786 175.026 216.78C174.564 216.69 174.35 217.015 174.119 217.315C174.073 217.378 174.02 217.44 173.923 217.418C173.827 217.396 173.844 217.297 173.824 217.227C173.692 216.749 173.921 216.309 174.066 215.906C174.37 215.065 174.784 214.264 175.127 213.437C175.676 212.107 176.293 210.807 176.976 209.541C177.068 209.374 178.655 206.205 178.956 205.815C179.379 205.303 179.557 204.715 179.489 204.367Z" fill="#6BC4C7"></path><path d="M146.798 152.648C140.09 152.76 133.373 152.789 126.677 152.485C123.532 152.342 120.405 151.825 117.271 151.435C116.468 151.319 115.654 151.314 114.85 151.42C114.322 151.504 113.75 151.656 113.78 152.3C113.805 152.908 114.093 153.454 114.819 153.535C116.36 153.704 117.9 153.83 119.441 154.035C123.921 154.638 128.53 155.271 133.085 155.505C137.812 155.747 149.971 155.39 150.84 151.812C150.966 151.303 150.341 151.812 150.022 151.812C148.983 151.843 147.834 152.63 146.798 152.648Z" fill="#7B7A74"></path><path d="M182.374 157.004C189.066 157.07 195.763 157.054 202.449 156.704C205.587 156.539 208.703 155.996 211.826 155.591C212.627 155.468 213.442 155.457 214.247 155.56C214.775 155.637 215.347 155.78 215.321 156.44C215.301 157.048 215.017 157.596 214.291 157.681C212.75 157.862 211.21 157.978 209.687 158.214C201.148 159.534 187.24 159.717 182.59 159.046C180.878 158.799 179.918 158.43 178.734 157.237C178.514 157.017 178.12 156.746 178.221 156.332C178.349 155.822 178.948 156.971 179.264 156.975C180.303 156.984 181.34 156.993 182.374 157.004Z" fill="#7B7A74"></path><path d="M129.093 161.41C130.805 161.438 136.267 161.163 136.604 159.321C136.571 159.072 132.883 159.638 131.283 159.557C127.475 159.358 123.686 159.055 119.905 158.518C118.004 158.247 116.113 158.031 114.276 157.461C114.115 157.413 113.888 157.574 113.693 157.637C113.814 157.814 113.992 158.61 114.148 158.738C116.206 160.499 118.217 160.369 124.289 161.159C124.766 161.282 127.993 161.39 129.093 161.41Z" fill="#7B7A74"></path><path d="M198.655 151.116C199.266 151.684 201.645 153.035 205.664 153.002C206.764 153.002 210.026 152.965 210.519 152.855C212 152.697 213.241 152.586 214.302 152.485C214.977 152.424 215.582 152.362 216.126 152.298V152.278C216.113 151.697 216.097 150.958 216.038 150.183L214.997 150.304L214.365 150.377C210.748 150.784 207.125 150.991 203.487 151.103C201.872 151.152 198.129 150.271 198.091 150.516C198.038 150.883 198.45 150.925 198.655 151.116Z" fill="#7B7A74"></path><path d="M146.787 151.209C140.079 151.321 133.362 151.35 126.666 151.046C123.521 150.903 120.394 150.386 117.26 149.996C116.454 149.88 115.635 149.875 114.828 149.983C114.3 150.064 113.728 150.216 113.759 150.863C113.783 151.473 114.071 152.019 114.797 152.098C116.338 152.27 117.878 152.393 119.419 152.598C123.899 153.201 128.508 153.834 133.074 154.068C137.801 154.31 142.387 153.548 147.086 153.513C148.261 153.521 149.403 153.119 150.314 152.377C150.548 152.188 150.926 151.882 150.82 151.469C150.693 150.96 150.217 151.145 149.898 151.152L146.787 151.209Z" fill="#6BC4C7"></path><path d="M105.906 212.548C105.946 213.19 106.003 213.822 106.01 214.469C106.01 215.437 105.79 216.408 106.01 217.376C106.479 219.5 106.47 221.679 106.652 223.829C106.985 227.7 107.403 232.245 110.504 234.996C113.985 238.09 120.158 238.394 124.502 239.503C131.245 241.226 138.173 240.863 144.969 241.959C148.549 242.536 152.125 242.457 155.752 242.551C158.974 242.637 162.194 242.747 165.416 242.857V242.877H165.636H165.856V242.859C169.073 242.699 172.293 242.538 175.512 242.404C179.13 242.252 182.706 242.278 186.278 241.647C193.045 240.447 199.98 240.703 206.694 238.876C211.021 237.698 217.189 237.302 220.622 234.155C223.679 231.356 224.029 226.804 224.3 222.931C224.451 220.779 224.41 218.6 224.845 216.472C225.046 215.499 224.815 214.53 224.808 213.562C224.808 212.915 224.852 212.283 224.881 211.639C225.101 206.94 225.125 202.248 225.528 197.553C225.885 193.117 225.712 188.654 225.013 184.258C224.638 181.934 224.084 179.637 223.82 177.302C223.353 173.162 222.763 169.071 220.142 165.688C219.066 164.301 217.101 162.871 215.679 161.792C215.37 161.526 215.131 161.187 214.984 160.807C214.944 160.738 214.927 160.658 214.935 160.579C214.942 160.5 214.975 160.426 215.028 160.366C215.607 159.611 215.688 158.674 215.983 157.818C216.932 155.133 216.183 152.344 216.111 149.596V149.574C216.095 148.995 216.082 148.253 216.023 147.478C215.86 145.348 215.343 142.954 213.472 142.89C212.328 142.848 211.19 143.006 210.039 142.96C208.569 142.903 208.023 142.74 206.549 142.885C204.016 143.141 201.487 142.918 198.941 142.945C197.11 142.965 195.266 142.791 193.439 142.857C191.393 142.929 189.35 142.879 187.301 142.857C186.731 142.857 183.448 142.751 182.772 142.758C179.39 142.791 176.007 142.56 172.629 142.85C171.749 142.925 170.834 142.811 169.947 142.85C168.257 142.949 166.564 142.982 164.885 142.995C163.206 143.009 161.5 142.995 159.81 142.929C158.93 142.89 158.021 143.02 157.128 142.958C153.743 142.72 150.365 143.002 146.985 143.022C146.309 143.022 143.023 143.174 142.456 143.191C140.409 143.248 138.367 143.33 136.32 143.288C134.482 143.253 132.643 143.453 130.818 143.462C128.283 143.473 126.327 143.73 123.789 143.515C122.313 143.387 120.843 143.572 119.375 143.651C118.224 143.715 117.084 143.651 115.942 143.631C112.663 143.592 113.428 147.996 113.404 150.357C113.378 153.115 112.667 155.921 113.659 158.599C113.974 159.451 114.617 161.06 114.639 161.24C114.669 161.498 114.627 161.758 114.519 161.994C114.41 162.229 114.238 162.43 114.023 162.574C112.619 163.674 111.023 165.133 109.969 166.535C107.401 169.958 106.873 174.058 106.47 178.2C106.25 180.543 105.722 182.845 105.385 185.174C104.754 189.58 104.649 194.045 105.075 198.476C105.519 203.159 105.618 207.849 105.906 212.548ZM107.306 189.219C107.566 185.698 108.255 182.205 108.607 178.693C109.047 174.247 111.027 170.404 113.296 166.658C113.704 166.043 114.144 165.45 114.617 164.882C114.67 164.812 114.998 164.442 115.07 164.31C115.308 163.87 116.019 163.848 116.461 163.254C116.538 163.15 116.512 161.293 116.503 161.165C115.213 159.207 115.429 153.793 115.286 151.552C115.187 150.012 115.066 148.471 115.147 146.906C115.158 146.662 115.127 146.411 115.16 146.169C115.299 145.115 127.575 145.46 132.207 145.425C133.699 145.425 145.545 144.406 148.052 145.062C148.97 145.3 157.865 145.093 159.956 145.119C161.113 145.135 165.517 145.152 166.338 145.06C167.915 144.881 169.482 145.478 170.985 145.198C172.086 144.994 186.128 144.903 187.352 145.383C188.749 145.929 193.164 145.176 194.498 145.286C194.498 145.507 197.077 145.168 198.384 145.223C199.799 145.284 200.616 145.242 202.161 145.333C203.637 145.418 206.531 145.458 208.054 145.46C210.778 145.46 213.499 144.897 214.082 145.46C214.236 145.656 214.314 145.902 214.302 146.151C214.337 146.658 214.35 147.161 214.35 147.668C214.35 148.372 214.322 149.074 214.286 149.776C214.269 150.117 214.253 150.456 214.236 150.797C214.205 151.416 214.207 152.03 214.236 152.646C214.258 153.35 214.302 154.052 214.348 154.754C214.407 155.674 214.469 156.594 214.48 157.514C214.498 158.698 214.198 159.768 213.274 160.545C213.196 161.233 213.239 161.929 213.402 162.602C213.466 162.844 216.993 165.243 217.385 165.864C219.72 169.577 221.168 173.393 221.681 177.83C222.086 181.338 222.829 184.831 223.144 188.336C223.452 191.792 223.318 194.926 223.116 198.304C222.546 207.849 220.985 217.284 221.049 226.87C221.049 228.664 221.157 230.794 219.969 232.284C218.512 234.109 214.98 234.606 212.863 235.337C209.804 236.393 206.701 237.388 203.494 237.848C197.964 238.643 192.29 238.77 186.723 239.279C179.707 239.921 172.638 239.593 165.62 240.055C158.578 239.701 151.536 240.137 144.507 239.615C138.932 239.191 133.259 239.151 127.715 238.442C124.496 238.031 121.384 237.084 118.31 236.076C116.181 235.377 112.643 234.934 111.157 233.132C109.945 231.659 110.011 229.529 109.993 227.735C109.907 218.149 108.206 208.74 107.489 199.204C107.22 195.821 107.038 192.683 107.306 189.219Z" fill="#6BC4C7"></path><path d="M198.655 151.145C199.266 151.715 203.936 151.944 205.655 151.948C206.755 151.948 210.017 151.911 210.51 151.801C211.993 151.642 213.232 151.532 214.293 151.433C214.971 151.369 215.574 151.31 216.119 151.246V151.224C216.104 150.643 216.091 149.904 216.031 149.129L214.99 149.25L214.357 149.325C210.739 149.732 207.116 149.939 203.481 150.049C201.863 150.1 198.129 150.3 198.091 150.546C198.038 150.912 198.45 150.956 198.655 151.145Z" fill="#6BC4C7"></path><path d="M182.363 155.749C189.058 155.815 195.752 155.798 202.44 155.45C205.576 155.285 208.694 154.741 211.817 154.334C212.619 154.212 213.433 154.202 214.238 154.303C214.764 154.382 215.338 154.523 215.31 155.184C215.29 155.793 215.006 156.341 214.282 156.427C212.741 156.607 211.201 156.722 209.676 156.957C201.139 158.278 186.767 158.058 182.077 158.058C180.903 158.073 179.76 157.679 178.846 156.942C178.626 156.757 178.232 156.451 178.336 156.037C178.461 155.527 178.936 155.712 179.256 155.716L182.363 155.749Z" fill="#6BC4C7"></path><path d="M129.075 160.366C130.787 160.395 135.404 160.263 136.021 159.706C136.228 159.519 136.637 159.486 136.588 159.119C136.558 158.872 132.865 158.593 131.265 158.511C127.458 158.313 123.668 158.009 119.887 157.472C117.988 157.202 116.098 156.986 114.258 156.416C114.097 156.367 113.871 156.528 113.677 156.592C113.796 156.768 113.976 157.565 114.133 157.692C116.19 159.453 118.202 159.323 124.271 160.113C124.76 160.239 127.977 160.347 129.075 160.366Z" fill="#6BC4C7"></path><path d="M192.876 90.4753C196.362 84.8897 200.71 77.9307 207.565 76.5068C212.847 75.4064 217.909 78.6922 218.173 84.3527C218.613 93.6467 210.085 101.666 203.668 107.281C200.316 110.214 196.795 112.948 193.395 115.829C189.088 119.48 185.308 123.699 181.355 127.735C181.107 127.99 180.539 127.898 180.545 127.711C180.985 115.648 185.066 103.924 191.109 93.4398C191.676 92.4421 192.266 91.4539 192.876 90.4753ZM189.744 104.756C187.7 109.493 186.747 114.66 186.003 119.011C186.626 118.919 203.246 101.666 205.33 99.4942C207.524 97.1965 209.453 94.6583 211.078 91.9278L211.21 91.7078C212.53 89.507 214.071 86.9298 214.198 84.3637C214.282 82.8583 213.923 80.6751 212.548 79.8388C211.047 78.9189 208.384 80.1469 207.196 80.9876C200.68 85.5851 192.077 99.3468 189.744 104.756Z" fill="#6BC4C7"></path><path d="M207.185 80.9832C208.373 80.1425 211.036 78.9144 212.537 79.8344C213.912 80.6707 214.271 82.8539 214.187 84.3592C214.053 86.9254 212.51 89.5113 211.199 91.7033L211.067 91.9234C209.441 94.6539 207.513 97.1921 205.318 99.4898C203.234 101.662 186.613 118.914 185.992 119.007C186.747 114.662 187.7 109.488 189.733 104.752C192.077 99.3468 200.679 85.5851 207.185 80.9832Z" fill="#6BC4C7"></path><path d="M222.449 123.881C219.291 123.3 204.955 120.857 200.911 120.444C200.655 120.417 200.431 120.003 200.556 119.962C203.694 118.778 206.278 116.313 209.264 114.823C223.897 107.523 238.496 107.822 242.629 113.111C244.696 115.752 244.291 119.389 241.828 121.639C236.835 126.21 228.494 124.993 222.449 123.881ZM234.377 121.036L234.564 121.009C236.381 120.75 238.525 120.444 240.024 119.33C240.904 118.67 241.956 117.457 241.8 116.271C241.634 114.97 239.744 113.995 238.734 113.698C233.215 112.063 221.628 113.467 217.548 114.629C213.978 115.644 210.653 117.49 207.882 119.077C208.219 119.394 225.387 121.018 227.548 121.218C229.823 121.424 232.115 121.363 234.377 121.036Z" fill="#6BC4C7"></path><path d="M227.548 121.214C225.387 121.014 208.219 119.389 207.882 119.073C210.653 117.49 213.978 115.639 217.548 114.625C221.628 113.463 233.215 112.059 238.734 113.694C239.744 113.991 241.634 114.966 241.8 116.267C241.956 117.453 240.899 118.674 240.024 119.326C238.525 120.439 236.381 120.745 234.564 121.005L234.377 121.031C232.115 121.358 229.823 121.42 227.548 121.214Z" fill="#6BC4C7"></path><path d="M110.279 101.356C105.561 97.0359 99.674 91.6505 93.4064 92.236C88.5649 92.6761 85.3079 97.223 86.866 102.67C89.421 111.614 99.1899 116.823 106.402 120.347C110.171 122.189 114.023 123.791 117.819 125.567C122.625 127.819 127.163 130.759 131.791 133.477C132.082 133.649 132.537 133.402 132.471 133.226C128.309 121.896 121.144 111.92 112.72 103.669C111.928 102.883 111.102 102.111 110.279 101.356ZM117.429 114.028C120.655 117.948 123.094 122.592 125.103 126.503C124.544 126.591 105 114.896 102.546 113.421C99.9299 111.836 97.4946 109.971 95.2836 107.857L95.0988 107.683C93.2942 105.969 91.1705 103.942 90.2572 101.552C89.7137 100.148 89.3307 97.9757 90.2352 96.7938C91.2211 95.4976 93.8686 95.9135 95.1428 96.3779C102.112 98.9132 113.75 109.55 117.429 114.028Z" fill="#6BC4C7"></path><path d="M95.1383 96.3779C93.8641 95.9135 91.2167 95.4975 90.2308 96.7938C89.3263 97.9756 89.7092 100.148 90.2528 101.552C91.1749 103.951 93.2985 105.969 95.0943 107.683L95.2792 107.857C97.4902 109.971 99.9254 111.836 102.541 113.421C104.995 114.895 124.548 126.591 125.099 126.503C123.089 122.592 120.651 117.948 117.425 114.028C113.75 109.55 102.112 98.9132 95.1383 96.3779Z" fill="#6BC4C7"></path><path d="M95.6754 141.393C98.1754 139.952 109.582 133.596 112.887 132.064C113.094 131.967 113.16 131.518 113.037 131.505C109.998 131.267 107.031 129.654 104.014 129.084C89.2955 126.276 76.9936 130.677 75.1473 136.853C74.7139 138.351 74.812 139.953 75.4249 141.388C76.0377 142.822 77.1277 144 78.5099 144.723C84.1987 147.654 90.8911 144.149 95.6754 141.393ZM84.6499 142.053L84.4826 142.082C82.8585 142.348 80.9395 142.661 79.3176 142.025C78.3691 141.653 77.0861 140.792 76.8462 139.622C76.5777 138.341 77.8761 136.882 78.6398 136.32C82.8211 133.213 93.094 131.283 96.9276 131.239C100.279 131.195 103.684 132.016 106.534 132.737C106.349 133.134 92.2797 139.509 90.5081 140.308C88.6395 141.141 86.6701 141.727 84.6499 142.051V142.053Z" fill="#6BC4C7"></path><path d="M90.5081 140.302C92.2796 139.503 106.353 133.127 106.534 132.731C103.673 132.009 100.279 131.19 96.9275 131.232C93.0939 131.276 82.8144 133.213 78.6397 136.314C77.8761 136.879 76.5776 138.339 76.8461 139.615C77.086 140.786 78.369 141.646 79.3175 142.018C80.9394 142.654 82.8584 142.342 84.4825 142.075L84.6498 142.047C86.6701 141.722 88.6395 141.136 90.5081 140.302Z" fill="#6BC4C7"></path><path d="M63.939 121.894C66.7581 121.269 79.5441 118.63 83.1555 118.153C83.3755 118.124 83.5802 117.712 83.4658 117.666C80.6401 116.526 78.2919 114.099 75.5961 112.648C62.3919 105.553 49.3352 106.046 45.7194 111.401C44.855 112.7 44.4671 114.259 44.6216 115.812C44.776 117.365 45.4633 118.816 46.5667 119.92C51.1045 124.423 58.5495 123.089 63.939 121.894ZM53.226 119.216L53.0565 119.191C51.4258 118.958 49.5046 118.681 48.1468 117.587C47.3523 116.949 46.3862 115.741 46.5095 114.554C46.6371 113.251 48.314 112.25 49.2119 111.94C54.1261 110.228 64.5134 111.469 68.1819 112.576C71.3927 113.54 74.3945 115.344 76.8967 116.887C76.6018 117.211 61.2717 119.073 59.3373 119.308C57.3048 119.543 55.2505 119.511 53.226 119.216Z" fill="#6BC4C7"></path><path d="M59.3308 119.304C61.2608 119.073 76.5952 117.211 76.8901 116.883C74.3879 115.342 71.3884 113.535 68.1754 112.571C64.5068 111.471 54.1195 110.223 49.2054 111.935C48.3075 112.246 46.6306 113.256 46.5029 114.55C46.3819 115.736 47.3458 116.944 48.1402 117.583C49.4981 118.683 51.4193 118.954 53.05 119.187L53.2194 119.211C55.2439 119.507 57.2983 119.538 59.3308 119.304Z" fill="#6BC4C7"></path></g><defs><clipPath id="clip0"><rect width="299" height="267" fill="white"></rect></clipPath></defs></svg> 