<?xml version="1.0" encoding="UTF-8"?> <svg xmlns="http://www.w3.org/2000/svg" width="250" height="267" viewBox="0 0 250 267" fill="none"><g clip-path="url(#clip0)"><path d="M57.5762 221.181C67.761 228.522 78.6118 234.971 89.5785 240.63C119.076 255.851 156.136 266.584 191.636 251.628C234.704 233.484 252.732 184.218 249.669 143.93C243.112 57.6532 151.873 -35.2274 56.9329 28.7292C13.4674 58.0094 -11.3038 111.281 5.09242 156.413C14.8843 183.369 34.5196 204.564 57.5762 221.181Z" fill="#F0EFEF"></path><path d="M82.848 212.023C82.848 212.023 85.3052 215.996 89.8392 220.97" stroke="#6BC4C7" stroke-width="5" stroke-linecap="round" stroke-linejoin="round"></path><path d="M175.69 44.1472C175.69 44.1472 189.512 53.3487 190.678 77.8645" stroke="#6BC4C7" stroke-width="5" stroke-linecap="round" stroke-linejoin="round"></path><path d="M178.888 28.9737C178.888 28.9737 190.678 31.3186 196.213 44.1472C204.758 63.9173 197.717 85.2224 197.717 85.2224" stroke="#6BC4C7" stroke-width="5" stroke-linecap="round" stroke-linejoin="round"></path><path d="M166.141 49.8168C166.141 49.8168 125.755 87.4099 84.7922 53.3901C53.8509 27.6935 77.6666 4.55107 108.976 1.84573C126.065 0.368768 174.149 0.621488 175.69 24.3999" stroke="#6BC4C7" stroke-width="5" stroke-linecap="round" stroke-linejoin="round"></path><path d="M64.9334 27.5941C64.9334 27.5941 47.412 50.5605 58.7282 81.4378" stroke="#6BC4C7" stroke-width="5" stroke-linecap="round" stroke-linejoin="round"></path><path d="M74.8287 54.517C74.8287 54.517 78.9242 74.3389 68.6132 88.6693" stroke="#6BC4C7" stroke-width="5" stroke-linecap="round" stroke-linejoin="round"></path><path d="M100.796 40.5781C100.796 40.5781 119.155 72.5657 154.438 58.4693" stroke="#6BC4C7" stroke-width="5" stroke-linecap="round" stroke-linejoin="round"></path><path d="M162.655 110.277C162.676 114.186 160.587 116.92 157.714 116.937C154.841 116.953 152.286 114.244 152.266 110.335C152.245 106.426 154.591 106.088 157.459 106.074C160.328 106.059 162.633 106.36 162.655 110.277Z" fill="#6BC4C7"></path><path d="M171.554 109.62C168.48 107.584 156.314 102.519 146.141 110.07" stroke="#6BC4C7" stroke-width="5" stroke-linecap="round" stroke-linejoin="round"></path><path d="M12.5222 239.195C25.4642 235.86 45.4574 229.622 53.0981 227.319C89.0718 216.481 84.5999 206.37 84.0622 178.847" stroke="#6BC4C7" stroke-width="5" stroke-linecap="round" stroke-linejoin="round"></path><path d="M235.163 235.601C223.605 232.299 211.726 229.233 207.947 227.971C169.475 215.128 174.507 205.767 174.524 179.499" stroke="#6BC4C7" stroke-width="5" stroke-linecap="round" stroke-linejoin="round"></path><path d="M88.7077 179.383C86.2526 176.868 83.9607 174.412 81.9523 172.133C76.1917 165.549 72.2595 157.565 70.5492 148.98C68.518 138.954 65.6802 123.236 65.3306 109.239" stroke="#6BC4C7" stroke-width="5" stroke-linecap="round" stroke-linejoin="round"></path><path d="M125.002 202.871C120.923 202.871 116.728 202.095 113.129 200.363" stroke="#6BC4C7" stroke-width="5" stroke-linecap="round" stroke-linejoin="round"></path><path d="M182.808 159.085C184.104 155.823 185.051 152.433 185.635 148.972C187.331 138.946 189.648 123.228 189.534 109.231" stroke="#6BC4C7" stroke-width="5" stroke-linecap="round" stroke-linejoin="round"></path><path d="M197.88 100.089C197.88 100.089 206.901 106.155 202.542 122.254C198.184 138.354 191.878 136.961 191.878 136.961" stroke="#6BC4C7" stroke-width="5" stroke-linecap="round" stroke-linejoin="round"></path><path d="M54.186 100.089C54.186 100.089 45.1677 106.155 49.5238 122.254C53.8799 138.354 60.1906 136.961 60.1906 136.961" stroke="#6BC4C7" stroke-width="5" stroke-linecap="round" stroke-linejoin="round"></path><path d="M120.942 147.675C121.167 152.901 134.649 152.547 134.424 147.319" stroke="#6BC4C7" stroke-width="5" stroke-linecap="round" stroke-linejoin="round"></path><path d="M142.004 99.7786C142.288 101.245 144.592 101.243 145.55 100.794C153.687 96.9821 155.064 96.4021 163.41 96.8081C166.426 96.9552 177.682 100.052 178.007 99.6046C178.834 98.4674 177.633 96.9966 175.732 95.5777C171.181 92.1577 164.953 90.0655 159.964 90.1919C159.964 90.1919 141.301 91.934 141.667 98.0904L142.004 99.7786Z" fill="#6BC4C7"></path><path d="M94.9688 110.277C94.9482 114.186 97.0372 116.92 99.9102 116.937C102.783 116.953 105.336 114.244 105.358 110.335C105.381 106.426 103.031 106.088 100.163 106.074C97.2937 106.059 94.9895 106.36 94.9688 110.277Z" fill="#6BC4C7"></path><path d="M86.0685 109.62C89.1463 107.58 101.308 102.519 111.475 110.072" stroke="#6BC4C7" stroke-width="5" stroke-linecap="round" stroke-linejoin="round"></path><path d="M115.63 99.7786C115.347 101.245 113.043 101.243 112.085 100.794C103.946 96.9821 102.57 96.4021 94.2221 96.8081C91.2084 96.9552 79.9501 100.052 79.6274 99.6046C78.8 98.4674 80.0018 96.9966 81.9027 95.5777C86.4531 92.1577 92.6832 90.0655 97.6722 90.1919C97.6722 90.1919 116.335 91.934 115.967 98.0904L115.63 99.7786Z" fill="#6BC4C7"></path><path d="M115.14 147.319C115.14 147.319 113.086 143.141 115.967 141.001" stroke="#6BC4C7" stroke-width="5" stroke-linecap="round" stroke-linejoin="round"></path><path d="M141.849 146.71C141.849 146.71 143.762 142.53 140.815 140.392" stroke="#6BC4C7" stroke-width="5" stroke-linecap="round" stroke-linejoin="round"></path><path d="M228.017 136.336C227.165 139.391 225.599 141.444 222.492 142.459C221.239 142.873 221.214 144.628 222.426 145.152C225.421 146.438 227.361 148.4 228.458 152.816C228.82 154.266 230.884 154.287 231.248 152.841C232.261 148.823 233.678 146.606 236.419 145.287C237.571 144.732 237.538 143.056 236.334 142.629C233.143 141.494 231.612 139.414 230.803 136.363C230.72 136.058 230.54 135.789 230.291 135.596C230.041 135.403 229.736 135.297 229.42 135.294C229.105 135.291 228.797 135.391 228.544 135.579C228.291 135.767 228.106 136.033 228.017 136.336Z" fill="#7C9FE6"></path><path d="M13.4695 134.244C12.3298 138.639 10.2407 141.436 5.70881 142.515C4.354 142.838 4.23814 144.705 5.52055 145.249C9.65736 147.014 12.1622 149.585 13.2771 156.002C13.5398 157.521 15.7013 157.618 16.086 156.127C17.5649 150.391 19.4637 147.518 23.4185 146.001C24.6843 145.515 24.6926 143.723 23.4185 143.284C18.899 141.715 17.0788 138.776 16.2908 134.353C16.2304 134.03 16.0622 133.738 15.8138 133.523C15.5655 133.308 15.2517 133.184 14.9238 133.171C14.596 133.159 14.2735 133.258 14.0092 133.453C13.745 133.647 13.5547 133.926 13.4695 134.244Z" fill="#7C9FE6"></path><path d="M23.344 7.55262C22.2023 11.9483 20.1152 14.7448 15.5813 15.824C14.2265 16.1472 14.1127 18.0135 15.3951 18.5583C19.5319 20.3232 22.0347 22.8939 23.1495 29.3134C23.4143 30.8297 25.5758 30.9271 25.9605 29.4356C27.4394 23.6997 29.3362 20.8266 33.2909 19.3103C34.5589 18.8235 34.5672 17.0317 33.2909 16.5925C28.7694 15.0265 26.9513 12.085 26.1632 7.66241C26.102 7.3404 25.9335 7.04868 25.6855 6.83484C25.4374 6.62099 25.1243 6.49766 24.7972 6.48492C24.4701 6.47218 24.1484 6.57081 23.8845 6.76472C23.6206 6.95862 23.4301 7.23635 23.344 7.55262Z" fill="#7C9FE6"></path><path d="M116.126 171.497C119.138 174.254 122.816 176.589 126.882 177.028C137.822 178.209 147.496 161.003 147.496 161.003C130.272 163.532 120.933 163.182 107.857 161.003C108.954 162.926 110.192 164.765 111.559 166.505" stroke="#6BC4C7" stroke-width="5" stroke-linecap="round" stroke-linejoin="round"></path><path d="M115.173 209.471C122.667 211.543 129.335 205.047 142.563 192.313L155.919 178.107C155.687 178.358 160.165 171.391 165.33 167.161C167.688 165.229 171.026 164.85 173.649 166.401C174.578 166.95 175.202 167.598 174.927 168.297C171.525 176.901 162.31 193.933 155.532 198.111C155.095 198.391 161.704 194.755 165.667 196.661C168.132 197.85 168.519 203.054 167.08 205.154C167.08 205.154 176.54 209.183 170.995 217.622C175.672 217.732 177.628 224.483 167.595 233.898C166.989 234.468 162.196 240.297 156.181 244.496C155.546 244.939 145.556 260.707 137.611 265.647" stroke="#6BC4C7" stroke-width="5" stroke-linecap="round" stroke-linejoin="round"></path><path d="M115.173 209.471C111.71 206.536 109.301 202.546 108.316 198.111L105.327 187.547C105.327 187.547 101.732 165.697 90.8485 173.537L96.1974 202.457L92.7846 222.403C92.7846 222.403 88.234 232.158 95.914 252.382" stroke="#6BC4C7" stroke-width="5" stroke-linecap="round" stroke-linejoin="round"></path><path d="M155.532 198.111L141.585 212.079" stroke="#6BC4C7" stroke-width="5" stroke-linecap="round" stroke-linejoin="round"></path><path d="M166.962 205.419L150.065 221.063" stroke="#6BC4C7" stroke-width="5" stroke-linecap="round" stroke-linejoin="round"></path><path d="M170.803 217.811L160.407 227.402" stroke="#6BC4C7" stroke-width="5" stroke-linecap="round" stroke-linejoin="round"></path></g><defs><clipPath id="clip0"><rect width="250" height="267" fill="white"></rect></clipPath></defs></svg> 