<?xml version="1.0" encoding="UTF-8"?> <svg xmlns="http://www.w3.org/2000/svg" width="245" height="268" viewBox="0 0 245 268" fill="none"><g clip-path="url(#clip0)"><path d="M135.954 47.7047C134.944 46.2937 133.947 44.8744 132.962 43.447C132.269 45.4381 131.349 48.0047 130.324 50.6395L134.197 51.1605L135.954 47.7047Z" fill="#F0EFEF"></path><path d="M63.428 127.48L66.9149 112.751C64.0835 121.299 63.428 127.48 63.428 127.48Z" fill="#F0EFEF"></path><path d="M184.047 83.1246C183.468 83.0782 182.897 83.0182 182.328 82.95C186.574 102.714 181.616 121.545 181.616 121.545C182.5 129.828 189.231 133.789 189.231 133.789C189.231 133.789 197.228 139.244 193.08 153.7C191.753 158.337 190.273 161.337 188.875 163.312L181.55 164.885L186.446 186.16L183.454 217.892L178.251 239.939C185.919 238.803 193.786 237.486 201.852 235.99C279.864 221.512 238.6 87.4068 184.047 83.1246Z" fill="#F0EFEF"></path><path d="M87.2025 193.205L87.1617 192.933C86.6504 192.387 86.1527 191.877 85.674 191.364C80.2768 185.571 76.4392 178.496 74.5224 170.804C74.4408 170.482 74.3674 170.141 74.2885 169.809L67.0535 166.898C67.0535 166.898 61.4179 168.156 57.2619 153.694C53.1059 139.233 61.1106 133.783 61.1106 133.783L63.4306 127.474C63.4306 127.474 52.668 104.541 61.5566 81.8645C79.0265 37.2855 117.042 37.5201 129.897 38.982C112.663 13.7386 97.4783 -10.201 70.3011 4.48138C20.8725 31.184 51.4114 76.4312 13.1534 130.494C-25.1046 184.556 32.2824 224.801 32.2824 224.801C45.5773 234.822 64.01 240.954 86.7592 243.597C91.8291 221.018 87.2025 193.205 87.2025 193.205Z" fill="#F0EFEF"></path><path d="M181.616 121.545C181.616 121.545 181.616 109.879 175.632 96.9205C178.713 108.341 181.284 118.441 181.616 121.545Z" fill="#F0EFEF"></path><path d="M132.429 217.868C126.122 219.619 117.551 218.959 111.796 214.813C103.337 208.72 92.694 198.993 85.6848 191.465C80.2867 185.673 76.4488 178.597 74.5333 170.905C72.3057 162.002 71.2041 148.043 70.3229 135.613" stroke="#6BC4C7" stroke-width="5" stroke-linecap="round" stroke-linejoin="round"></path><path d="M180.587 130.502C180.193 134.55 179.771 139.266 179.266 144.183" stroke="#6BC4C7" stroke-width="5" stroke-linecap="round" stroke-linejoin="round"></path><path d="M87.2026 193.312C87.2026 193.312 93.4583 230.952 83.4301 254.218" stroke="#6BC4C7" stroke-width="5" stroke-linecap="round" stroke-linejoin="round"></path><path d="M63.428 127.584C63.428 127.584 69.3736 71.3443 123.151 63.639C126.687 63.1344 134.24 39.773 134.24 39.773C134.24 39.773 82.7555 27.8728 61.5539 81.9763C52.6653 104.65 63.428 127.584 63.428 127.584Z" stroke="#6BC4C7" stroke-width="5" stroke-linecap="round" stroke-linejoin="round"></path><path d="M139.531 40.7849C199.254 54.6954 181.616 121.651 181.616 121.651C181.616 121.651 181.67 71.3443 127.892 63.639" stroke="#6BC4C7" stroke-width="5" stroke-linecap="round" stroke-linejoin="round"></path><path d="M75.0201 127.583C75.0201 127.583 119.626 108.875 123.404 70.9679" stroke="#6BC4C7" stroke-width="5" stroke-linecap="round" stroke-linejoin="round"></path><path d="M143.053 125.554C143.053 125.554 151.37 122.281 160.694 125.554" stroke="#6BC4C7" stroke-width="5" stroke-linecap="round" stroke-linejoin="round"></path><path d="M108.032 125.554C108.032 125.554 99.7168 122.281 90.393 125.554" stroke="#6BC4C7" stroke-width="5" stroke-linecap="round" stroke-linejoin="round"></path><path d="M61.1079 133.892C61.1079 133.892 53.1141 139.347 57.2592 153.803C61.4043 168.259 67.0508 167.007 67.0508 167.007" stroke="#6BC4C7" stroke-width="5" stroke-linecap="round" stroke-linejoin="round"></path><path d="M189.223 133.892C189.223 133.892 197.22 139.347 193.072 153.803C191.744 158.44 190.265 161.44 188.867 163.418" stroke="#6BC4C7" stroke-width="5" stroke-linecap="round" stroke-linejoin="round"></path><path d="M128.529 70.9679C130.544 89.2015 171.231 110.157 175.232 124.823" stroke="#6BC4C7" stroke-width="5" stroke-linecap="round" stroke-linejoin="round"></path><path d="M93.9288 35.7417C93.9288 18.4791 107.126 4.48682 123.404 4.48682C139.683 4.48682 152.877 18.4791 152.877 35.7417" stroke="#6BC4C7" stroke-width="5" stroke-linecap="round" stroke-linejoin="round"></path><path d="M131.213 163.663C131.088 168.357 118.998 168.027 119.121 163.344" stroke="#6BC4C7" stroke-width="5" stroke-linecap="round" stroke-linejoin="round"></path><path d="M144.571 179.491C144.571 179.491 142.805 196.35 125.167 196.855C107.528 197.359 105.763 179.491 105.763 179.491H144.571Z" stroke="#6BC4C7" stroke-width="5" stroke-linecap="round" stroke-linejoin="round"></path><path d="M104.958 143.22C101.39 141.404 95.9824 137.935 87.3195 143.22" stroke="#6BC4C7" stroke-width="5" stroke-linecap="round" stroke-linejoin="round"></path><path d="M160.096 143.22C156.527 141.404 151.12 137.935 142.457 143.22" stroke="#6BC4C7" stroke-width="5" stroke-linecap="round" stroke-linejoin="round"></path><path d="M216.928 114.208C215.962 130.415 217.105 138.723 201.849 138.327C212.318 141.019 216.585 141.699 217.08 160.483C219.281 143.572 220.42 140.234 232.366 138.835C216.283 138.505 218.19 130.524 216.928 114.208Z" fill="#FABDB5"></path><path d="M45.6616 169.923C43.8801 189.182 44.9191 199.108 26.7692 198.052C39.1284 201.666 44.1766 202.643 44.0569 225.028C47.3208 204.967 48.8222 201.047 63.0962 199.847C43.9508 198.83 46.5293 189.4 45.6616 169.923Z" fill="#FABDB5"></path><path d="M86.2805 164.735C91.5937 164.735 95.9008 162.361 95.9008 159.433C95.9008 156.505 91.5937 154.131 86.2805 154.131C80.9674 154.131 76.6603 156.505 76.6603 159.433C76.6603 162.361 80.9674 164.735 86.2805 164.735Z" fill="#FAE4E1"></path><path d="M163.917 165.188C169.23 165.188 173.537 163.028 173.537 160.363C173.537 157.698 169.23 155.538 163.917 155.538C158.604 155.538 154.297 157.698 154.297 160.363C154.297 163.028 158.604 165.188 163.917 165.188Z" fill="#FAE4E1"></path><path d="M184.047 263.434L178.028 240.967L183.452 217.988L186.443 186.256L180.555 160.66L180.509 160.459L180.375 160.303C178.792 158.454 177.245 157.709 175.773 158.091C174.223 158.489 173.184 160.074 172.531 161.56L170.252 152.731L169.749 152.622C166.504 151.916 164.581 154.739 163.841 156.776C163.202 156.756 162.567 156.871 161.975 157.113C161.383 157.355 160.849 157.719 160.406 158.181C157.553 161.116 158.018 167.943 158.26 170.182C156.9 170.91 155.472 173.57 154.852 182.729C154.485 188.143 154.58 193.576 154.58 194.395L154.327 195.513C153.214 200.463 151.387 205.204 149.2 209.781C143.597 221.509 147.696 235.42 147.938 236.802L155.967 266.582" stroke="#6BC4C7" stroke-width="5" stroke-linecap="round" stroke-linejoin="round"></path><path d="M172.523 161.56C172.523 161.56 181.178 179.382 176.782 199.929" stroke="#6BC4C7" stroke-width="5" stroke-linecap="round" stroke-linejoin="round"></path><path d="M158.363 170.597C158.363 170.597 165.228 171.854 159.642 204.189" stroke="#6BC4C7" stroke-width="5" stroke-linecap="round" stroke-linejoin="round"></path><path d="M163.92 157.802C163.92 157.802 172.749 187.289 168.356 207.836" stroke="#6BC4C7" stroke-width="5" stroke-linecap="round" stroke-linejoin="round"></path></g><defs><clipPath id="clip0"><rect width="245" height="268" fill="white"></rect></clipPath></defs></svg> 