<?xml version="1.0" encoding="UTF-8"?> <svg xmlns="http://www.w3.org/2000/svg" width="316" height="267" viewBox="0 0 316 267" fill="none"><g clip-path="url(#clip0)"><path d="M235.654 201.13C271.895 164.985 271.895 106.381 235.654 70.2353C199.413 34.0896 140.654 34.0896 104.412 70.2353C68.1708 106.381 68.1709 164.985 104.412 201.13C140.654 237.276 199.413 237.276 235.654 201.13Z" fill="#F0EFEF"></path><path d="M203.395 179.702C205.327 182.617 208.716 188.124 211.372 191.103C215.398 195.069 217.813 198.329 221.773 201.99C225.734 205.651 227.746 211.48 225.098 216.779C223.432 220.095 219.334 222.825 216.686 225.804C214.069 228.124 213.119 230.348 211.195 233.134C211.156 233.182 211.121 233.233 211.091 233.287C210.833 233.616 210.6 233.953 210.35 234.314V234.363C208.491 237.044 206.542 240.44 205.053 242.544C203.065 245.194 202.397 248.004 201.398 251.151C199.901 255.792 197.913 260.264 192.769 261.412C188.451 262.264 184.055 262.655 179.655 262.576C177.836 262.488 172.692 263.564 171.355 262.247C169.206 260.424 173.851 259.268 175.509 257.935C178.665 255.454 181.949 251.512 183.141 247.498L183.422 247.554C185.243 238.268 187.532 229.079 190.281 220.023C191.585 215.206 193.88 210.3 193.05 205.435H192.994C187.27 187.956 177.264 168.341 167.612 152.653C164.07 146.832 160.544 140.923 156.913 135.07C161.96 127.949 166.036 120.193 169.037 112.003C170.285 108.912 171.516 104.078 173.062 98.9397C175.477 101.983 178.391 104.793 180.492 107.715C184.783 114.845 187.641 123.05 189.79 130.895C194.202 146.816 195.071 165.33 203.475 179.67L203.395 179.702Z" fill="white"></path><path d="M272.827 7.90037C276.047 11.2645 278.8 14.4198 281.763 17.535C263.819 30.7987 224.108 38.1531 195.457 44.6565C184.288 47.2735 173.301 50.6098 162.564 54.6444C153.234 58.0888 148.879 63.2112 143.792 71.5934L143.743 71.6656C141.409 74.9976 141.215 80.5937 139.799 84.841C137.969 88.7087 135.874 92.4457 133.528 96.0252L132.884 95.6559C131.451 90.3006 126.814 86.0213 125.381 81.3886C123.996 75.8969 126.604 61.8142 132.859 58.8596V58.9238C138.221 57.1414 143.236 53.2153 148.235 51.0796C158.966 46.0857 170.043 41.0837 180.774 36.0978C203.073 25.4434 241.005 10.1163 263.69 0.0401001C267.345 1.89477 269.269 4.11877 272.827 7.90037Z" fill="white"></path><path d="M36.8775 242.753C42.569 238.265 48.4938 233.809 53.5091 228.638C58.1218 223.925 63.8535 219.871 68.8687 215.198L68.7641 215.093C79.7284 204.656 84.969 190.83 92.1095 178C103.521 157.538 113.709 136.42 122.619 114.757C125.598 107.924 129.704 102.015 133.519 95.9851C135.866 92.4056 137.961 88.6686 139.79 84.8009C141.207 80.5536 141.4 74.9575 143.735 71.6255L143.783 71.5533C148.895 63.1711 153.226 58.0487 162.556 54.6043C173.332 50.6867 184.312 47.3525 195.449 44.6164C220.485 38.1933 242.639 30.325 267.675 23.5406L281.618 17.6956C284.306 20.4897 291.278 24.3676 294.715 27.0894C303.297 33.5125 304.037 42.1275 309.045 51.0475C313.126 58.2735 313.223 60.6822 311.91 67.4907C309.93 68.6227 295.593 76.202 293.395 77.0691C270.855 85.2746 249.055 83.8455 225.46 83.1389C209.36 82.4243 186.014 80.2807 174.591 93.8334C174.012 95.5355 173.472 97.2697 172.981 98.9638C171.444 104.102 170.212 108.936 168.956 112.027C165.955 120.217 161.879 127.973 156.833 135.094C147.977 147.844 136.755 158.907 125.695 170.862C107.453 190.477 94.5889 214.724 94.5889 241.838H94.6533C94.1461 249.064 93.7034 251.472 87.4082 256.715C79.1809 263.491 75.9689 259.662 67.0252 256.803C58.806 253.953 50.5788 256.45 42.7058 258.947C37.3444 260.376 33.0456 263.933 28.0545 265.723C23.0393 267.153 19.1108 265.009 14.4579 264.294C10.5294 263.933 0.877307 266.791 0.152795 260.376H0.0803223C0.0803223 257.839 3.3004 256.249 5.83619 255.463C10.8434 253.76 15.9391 252.251 21.0348 250.814C26.9597 249.152 31.9025 246.366 36.8775 242.753Z" fill="white"></path><path d="M267.521 22.8443L267.909 24.2928C258.035 27.1686 248.483 30.1893 239.252 33.1088C231.877 35.4411 224.707 37.7089 217.739 39.7866C213.843 40.971 210.025 42.0831 206.284 43.1231C202.544 44.1628 198.906 45.1331 195.369 46.0337L195.365 46.0347C188.317 47.7901 181.785 49.601 175.85 51.4272C172.882 52.3418 170.066 53.2301 167.421 54.1412C166.958 54.3008 166.501 54.4566 166.05 54.6102C163.889 55.3459 161.875 56.0318 160.065 56.853L160.055 56.8572L160.055 56.8572C156.274 58.5105 152.906 60.9779 150.193 64.0822L150.191 64.084C149.058 65.3717 148.115 66.5889 147.338 67.665C146.553 68.751 145.92 69.6678 145.425 70.4514C144.921 71.2556 144.537 71.8592 144.28 72.2623C144.151 72.464 144.053 72.6155 143.988 72.7167L143.914 72.831L143.895 72.86L143.89 72.8674L143.889 72.8693L143.889 72.8698L143.889 72.87L143.889 72.87L143.26 72.4605L143.889 72.8701L142.601 72.1029C144.459 68.6777 146.643 65.4382 149.122 62.4293L149.13 62.4192L149.13 62.4193C151.771 59.3245 155.02 56.802 158.676 55.007L158.684 55.003L158.684 55.003C160.5 54.1385 162.361 53.3706 164.258 52.7024C166.113 52.0188 167.984 51.3512 169.855 50.7076L169.856 50.7075C173.622 49.4143 177.389 48.2095 181.155 47.0932C181.156 47.093 181.156 47.0929 181.156 47.0928L181.37 47.8119C185.137 46.6825 188.878 45.6468 192.591 44.7047C196.305 43.7627 199.949 42.8046 203.524 41.8304L267.521 22.8443ZM267.521 22.8443L264.244 23.6472L264.237 23.6491C262.099 24.1961 258.997 25.016 255.108 26.0599C251.21 27.1063 246.508 28.4736 241.213 30.0227L241.208 30.0243L223.662 35.2981L267.521 22.8443Z" fill="#6BC4C7" stroke="#6BC4C7" stroke-width="1.5"></path><path d="M144.339 73.8575C144.339 73.8575 144.242 75.5597 144.041 77.9202C143.84 80.2806 143.526 83.2915 143.236 85.9892C143.538 84.8152 143.771 83.625 143.936 82.4244C144.366 79.5902 144.501 76.7193 144.339 73.8575Z" fill="#6BC4C7"></path><path d="M170.438 78.8836L169.568 79.2048L168.53 79.6062C168.064 79.7839 167.609 79.9904 167.169 80.2244C166.619 80.478 166.081 80.7594 165.559 81.0675C164.988 81.4127 164.352 81.7579 163.716 82.1754C163.08 82.5929 162.403 83.0666 161.735 83.5805C161.067 84.0943 160.351 84.6403 159.674 85.2665C158.274 86.4709 156.865 87.8518 155.448 89.3211C154.031 90.7904 152.615 92.3641 151.157 93.9377C150.441 94.7406 149.692 95.5033 148.952 96.2902C148.211 97.077 147.462 97.8558 146.674 98.5784L145.506 99.6944L144.307 100.754C143.502 101.477 142.697 102.087 141.892 102.769L142.56 102.368C142.995 102.095 143.671 101.742 144.46 101.172L145.78 100.24C146.255 99.8871 146.746 99.4776 147.285 99.0441C147.825 98.6105 148.372 98.1208 148.952 97.6069C149.531 97.0931 150.127 96.523 150.747 95.9289C151.987 94.7326 153.283 93.3757 154.659 91.9144C156.036 90.4532 157.477 88.9036 159.039 87.338C159.425 86.9366 159.844 86.5351 160.246 86.1658C160.649 85.7965 161.051 85.3629 161.502 85.0096C161.953 84.6564 162.355 84.2067 162.814 83.8535L164.199 82.7455C165.163 82.0092 166.166 81.3231 167.201 80.6901C168.249 80.0342 169.329 79.4313 170.438 78.8836Z" fill="#6BC4C7"></path><path d="M175.153 94.324L174.035 93.3252C177.357 89.3941 181.67 86.4182 186.529 84.7042C191.177 83.0507 196.025 82.0244 200.945 81.6526C205.655 81.2739 210.382 81.1633 215.104 81.3214C217.363 81.3721 219.574 81.468 221.746 81.5623L221.964 81.5717C224.21 81.6691 226.414 81.763 228.605 81.803L228.613 81.8031L228.613 81.8031C229.703 81.8339 230.786 81.8655 231.862 81.8968C239.492 82.1188 246.773 82.3307 253.646 82.2044L253.649 82.2044C257.577 82.1457 261.354 81.9672 264.98 81.669C266.437 81.5468 267.867 81.3936 269.285 81.2418C269.627 81.2051 269.968 81.1686 270.309 81.1326C271.445 81.0125 272.543 80.8433 273.643 80.6738C274.222 80.5846 274.802 80.4953 275.388 80.4131C277.018 80.1841 278.606 79.8598 280.167 79.5307C281.137 79.3262 282.076 79.103 283.01 78.8806C283.571 78.7472 284.13 78.6141 284.694 78.4856L288.919 77.3066L292.829 76.0255C295.249 75.0854 297.509 73.971 299.551 72.9605C301.594 71.9498 303.484 71.0032 305.183 70.1521L305.185 70.1512C308.585 68.4596 311.21 67.0986 312.971 66.1482C313.85 65.6744 314.511 65.2989 314.951 65.0429C315.171 64.9149 315.335 64.8168 315.444 64.7512C315.499 64.7183 315.539 64.6936 315.566 64.6774L315.591 64.6624L315.595 64.6594L315.602 64.6552L315.603 64.6544L315.603 64.6543L315.603 64.6543L315.607 64.6603L316.41 65.9191C312.944 68.1774 309.274 70.213 305.559 72.2061C305.185 72.4071 304.81 72.6086 304.435 72.8104C301.099 74.6038 297.721 76.4201 294.165 78.0406L294.143 78.0508L294.12 78.0594C290.068 79.5962 285.92 80.8714 281.703 81.8773L281.699 81.8784C277.498 82.8533 273.246 83.5952 268.962 84.1006L268.959 84.1009C264.706 84.5848 260.466 84.8996 256.282 85.0207C252.107 85.1415 247.989 85.1495 243.954 85.0771C239.922 85.0047 235.971 84.868 232.147 84.7315C231.962 84.7249 231.777 84.7183 231.592 84.7117C227.963 84.5824 224.397 84.4554 220.97 84.2407L220.961 84.2402L220.961 84.2402C214.406 83.7555 207.828 83.6754 201.263 84.0002C198.508 84.1697 195.766 84.5142 193.055 85.0317L175.153 94.324ZM175.153 94.324L175.797 93.6416L175.797 93.6416L175.8 93.6379C176.399 92.9948 177.036 92.3882 177.708 91.8212L177.708 91.8211C178.786 90.9106 179.935 90.0859 181.142 89.3548M175.153 94.324L181.142 89.3548M181.142 89.3548C182.777 88.3908 184.494 87.5752 186.274 86.9175C188.479 86.1046 190.746 85.4738 193.055 85.0317L181.142 89.3548Z" fill="#6BC4C7" stroke="#6BC4C7" stroke-width="1.5"></path><path d="M186.644 75.6867L187.14 77.1025L187.14 77.1026C187.136 77.1039 187.132 77.1051 187.129 77.1064C185.678 77.6155 184.365 78.45 183.289 79.5455L183.285 79.5497C182.188 80.6502 181.228 81.8794 180.428 83.2103C178.816 85.9315 177.489 88.811 176.468 91.8033L176.465 91.8142L176.465 91.8141C175.131 95.5375 174.105 99.2776 173.075 103.032C172.442 105.341 171.807 107.655 171.098 109.974L171.096 109.983L171.095 109.983C170.703 111.209 170.247 112.406 169.804 113.571C169.692 113.863 169.582 114.153 169.474 114.441C169.473 114.442 169.473 114.442 169.473 114.443L168.67 116.615L168.667 116.62C168.474 117.131 168.243 117.646 168.023 118.134C167.924 118.355 167.827 118.571 167.737 118.779C167.737 118.779 167.737 118.78 167.737 118.78L167.048 118.482C166.437 119.903 165.793 121.332 165.108 122.673C164.96 122.964 164.814 123.255 164.667 123.547C164.137 124.603 163.606 125.662 162.975 126.687L186.644 75.6867ZM186.644 75.6867C186.644 75.6867 186.644 75.6868 186.644 75.6868C186.644 75.687 186.643 75.6871 186.643 75.6873C186.64 75.6882 186.638 75.6891 186.635 75.69L186.36 75.7863C186.043 75.8839 185.732 76.0001 185.429 76.1345L185.424 76.1368C184.262 76.662 183.191 77.3667 182.249 78.2249L182.245 78.2286C180.783 79.5805 179.522 81.1329 178.498 82.8392C177.141 85.0747 175.976 87.4205 175.015 89.8514C173.909 92.5449 172.879 95.5696 171.855 98.8528C171.448 100.155 171.053 101.486 170.649 102.846C170.023 104.949 169.378 107.121 168.639 109.365C168.251 110.526 167.786 111.673 167.299 112.872C167.026 113.545 166.746 114.235 166.469 114.953L166.466 114.96C166.118 115.896 165.689 116.798 165.228 117.766C165.055 118.129 164.897 118.478 164.742 118.82C164.463 119.433 164.195 120.023 163.874 120.627L163.874 120.627L163.868 120.639C161.84 124.635 159.565 128.502 157.056 132.217L157.055 132.219C154.459 136.083 151.457 139.916 148.314 143.764C145.183 147.598 141.711 151.413 138.139 155.265C138.138 155.265 138.138 155.266 138.138 155.266L127.144 167.001C126.528 167.658 125.915 168.319 125.301 168.98C124.984 169.323 124.666 169.665 124.349 170.006L124.344 170.012L124.338 170.017L121.577 173.109L121.571 173.115L121.565 173.122L121.353 173.372C119.631 175.397 117.882 177.453 116.252 179.624C112.784 184.085 109.625 188.777 106.796 193.666L106.793 193.671C103.988 198.614 101.576 203.768 99.579 209.087C97.5727 214.368 96.0853 219.83 95.1378 225.397C94.2109 230.831 93.795 236.34 93.8955 241.851L95.3946 241.872L94.6454 241.838L95.3946 241.872L95.3946 241.872L95.3947 241.871L95.3948 241.868L95.3954 241.856L95.3976 241.807L95.4067 241.613C95.4147 241.442 95.4268 241.186 95.4429 240.848C95.4751 240.171 95.5234 239.168 95.5877 237.86L95.5887 237.842V237.823C95.5887 237.488 95.5899 237.198 95.6364 236.892L95.4466 236.864L95.6364 236.892C95.6685 236.682 95.6883 236.473 95.7055 236.28C95.7081 236.249 95.7108 236.219 95.7134 236.19C95.7279 236.025 95.7414 235.87 95.7604 235.713L95.7612 235.705L95.762 235.698C95.8421 234.899 95.9384 234.011 96.0431 233.055C96.1459 232.117 96.2885 231.112 96.4716 230.032C96.5326 229.673 96.5888 229.315 96.6453 228.955C96.7663 228.184 96.8887 227.405 97.0617 226.585L97.062 226.584L97.8647 222.749C98.0692 221.898 98.3095 221.044 98.5617 220.148C98.7021 219.649 98.8462 219.137 98.9898 218.605C99.8361 215.739 100.89 212.657 102.184 209.431L102.189 209.419C102.583 208.387 103.038 207.382 103.513 206.334C103.788 205.727 104.07 205.105 104.35 204.455C104.955 203.053 105.695 201.664 106.466 200.216C106.621 199.926 106.777 199.633 106.933 199.338C107.855 197.594 108.834 195.818 109.952 194.078L109.956 194.072L109.959 194.066L111.618 191.373L113.429 188.679L113.43 188.678L114.347 187.31L115.328 185.966L115.328 185.965L117.331 183.225C117.768 182.679 118.199 182.129 118.629 181.579C119.628 180.304 120.629 179.027 121.719 177.779L121.725 177.772L121.731 177.765C124.411 174.544 127.396 171.378 130.502 168.082C130.921 167.639 131.341 167.192 131.763 166.744L131.217 166.23L131.764 166.744C132.534 165.924 133.313 165.099 134.098 164.267C140.515 157.468 147.348 150.228 153.707 141.984C157.379 137.265 160.693 132.279 163.622 127.068L186.644 75.6867Z" fill="#6BC4C7" stroke="#6BC4C7" stroke-width="1.5"></path><path d="M1.02495 260.274L-0.469116 260.368L0.280884 260.368C-0.469116 260.368 -0.469116 260.368 -0.469116 260.368L-0.469116 260.369L-0.469115 260.369L-0.469113 260.37L-0.469101 260.373L-0.469045 260.38L-0.468744 260.397C-0.468437 260.41 -0.467889 260.427 -0.466925 260.448C-0.464996 260.489 -0.461403 260.546 -0.454745 260.616C-0.441495 260.757 -0.416127 260.954 -0.367668 261.205C-0.220887 262.006 0.126464 262.757 0.641955 263.388L0.656006 263.405L0.671049 263.421C1.53721 264.362 2.6803 265.003 3.93511 265.253C5.44907 265.585 6.99982 265.72 8.54852 265.654C9.24647 265.654 9.99243 265.616 10.7437 265.577C10.8799 265.57 11.0163 265.563 11.1527 265.556C12.0474 265.512 12.9538 265.475 13.8579 265.501C14.7787 265.603 15.6883 265.789 16.5752 266.056L16.5832 266.059L16.5913 266.061L19.7371 266.933C22.2273 267.696 24.8578 267.89 27.4335 267.501L27.4593 267.497L27.4848 267.491L28.4911 267.266L28.5171 267.26L28.5426 267.253C28.7925 267.178 29.0481 267.086 29.2816 267.003C29.3689 266.971 29.4531 266.941 29.5327 266.913L29.5456 266.909L29.5582 266.904C30.1915 266.657 30.8188 266.382 31.4402 266.081C32.6712 265.52 33.8827 264.887 35.0734 264.265L35.0826 264.261L35.0958 264.254L35.1088 264.246C37.4263 262.916 39.8653 261.809 42.3928 260.939C43.1529 260.717 43.9129 260.489 44.6744 260.26C46.6916 259.655 48.719 259.047 50.7844 258.545C52.2087 258.211 53.6357 257.929 55.0708 257.757L55.0709 257.757L55.0839 257.755C56.5281 257.556 57.9837 257.451 59.4415 257.441C60.8853 257.45 62.3253 257.588 63.7447 257.852C65.2084 258.171 66.6508 258.58 68.0638 259.077L68.0656 259.077C68.738 259.312 69.4108 259.558 70.0948 259.809L70.2704 259.873C71.0068 260.143 71.7559 260.416 72.5183 260.678C74.1195 261.322 75.7903 261.78 77.4971 262.041L77.5086 262.043L77.5202 262.044C79.4117 262.273 81.3304 262 83.0817 261.25L83.0848 261.249C84.6978 260.551 86.195 259.611 87.525 258.464C88.819 257.426 90.0336 256.294 91.159 255.077C93.6186 252.638 95.0674 249.365 95.2161 245.909C95.3451 244.423 95.3678 242.947 95.3897 241.522C95.3913 241.419 95.3928 241.317 95.3944 241.215L93.8999 241.114L93.8999 241.114L93.8998 241.114L93.8996 241.116L93.8988 241.123L93.8954 241.151L93.882 241.263L93.8294 241.701C93.7832 242.087 93.7149 242.658 93.6265 243.4C93.5308 244.139 93.4042 245.045 93.207 246.099L93.2068 246.099L93.2046 246.113C93.0107 247.263 92.6618 248.383 92.1675 249.44C91.5092 250.726 90.637 251.892 89.588 252.887L89.588 252.887L89.5811 252.894C88.2863 254.154 86.893 255.31 85.4142 256.35L85.408 256.355C84.6283 256.915 83.8027 257.409 82.9399 257.832L82.939 257.832C82.5077 258.044 82.0642 258.23 81.6107 258.39C81.4832 258.432 81.3784 258.456 81.249 258.486C81.1572 258.508 81.053 258.532 80.9195 258.567L80.9077 258.571L80.896 258.574C80.6891 258.636 80.4758 258.675 80.2602 258.688L80.2239 258.691L80.188 258.696C78.3664 258.99 76.3488 258.402 74.0361 257.465C73.8398 257.386 73.6419 257.305 73.4422 257.224C71.2937 256.351 68.9517 255.4 66.4581 254.626L66.4581 254.626L66.4472 254.623C63.4918 253.754 60.4057 253.412 57.3313 253.614L57.3255 253.615C54.1394 253.849 50.9866 254.415 47.9185 255.303C46.3684 255.732 44.8136 256.217 43.2834 256.707C43.2828 256.707 43.2821 256.707 43.2814 256.707L40.9347 257.445L40.9269 257.447L40.9192 257.45C40.0752 257.735 39.2462 258.063 38.4355 258.432C36.8351 259.15 35.3191 259.995 33.8443 260.828C33.7287 260.893 33.6135 260.959 33.4985 261.024C32.1358 261.794 30.8066 262.546 29.4373 263.2L29.4303 263.203L29.4234 263.207C28.7314 263.555 28.0141 263.851 27.2776 264.091C26.5663 264.297 25.8343 264.423 25.0951 264.468C23.4691 264.528 21.8427 264.363 20.2627 263.975L20.2505 263.972L20.2381 263.97C19.7745 263.872 19.3015 263.768 18.8197 263.661C17.5505 263.38 16.2196 263.085 14.8335 262.878L14.8041 262.874L14.7746 262.872C13.7765 262.803 12.774 262.836 11.7828 262.972L9.05726 263.259L9.04454 263.261L9.03187 263.263C7.31365 263.503 5.56826 263.475 3.85882 263.179C3.12785 263.043 2.45163 262.701 1.91017 262.194C1.4245 261.66 1.11544 260.989 1.02495 260.274Z" fill="#6BC4C7" stroke="#6BC4C7" stroke-width="1.5"></path><path d="M0.119484 262.86L1.41927 262.121L1.2985 261.864L1.29064 261.847L1.28197 261.831C1.17625 261.632 1.0958 261.421 1.04246 261.202L1.0326 261.162L1.01833 261.122C0.976923 261.009 0.951624 260.891 0.943116 260.77V260.456V260.456V260.455V260.454V260.454V260.453V260.453V260.452V260.451V260.451V260.45V260.449V260.449V260.448V260.447V260.447V260.446V260.445V260.445V260.444V260.443V260.443V260.442V260.441V260.441V260.44V260.439V260.439V260.438V260.437V260.437V260.436V260.435V260.435V260.434V260.433V260.433V260.432V260.431V260.431V260.43V260.429V260.428V260.428V260.427V260.426V260.426V260.425V260.424V260.424V260.423V260.422V260.422V260.421V260.42V260.42V260.419V260.418V260.418V260.417V260.416V260.416V260.415V260.414V260.414V260.413V260.412V260.412V260.411V260.41V260.41V260.409V260.408V260.407V260.407V260.406V260.405V260.405V260.404V260.403V260.403V260.402V260.401V260.401V260.4V260.399V260.399V260.398V260.397V260.397V260.396V260.395V260.394V260.394V260.393V260.392V260.392V260.391V260.39V260.39V260.389V260.388V260.388V260.387V260.386V260.385V260.385V260.384V260.383V260.383V260.382V260.381V260.381V260.38V260.379V260.379V260.378V260.377V260.376V260.376V260.375V260.374V260.374V260.373V260.372V260.372V260.371V260.37V260.37V260.369V260.368V260.367V260.367V260.366V260.365V260.365V260.364V260.363V260.363V260.362V260.361V260.36V260.36V260.359V260.358V260.358V260.357V260.356V260.356V260.355V260.354V260.353V260.353V260.352V260.351V260.351V260.35V260.349V260.349V260.348V260.347V260.346V260.346V260.345V260.344V260.344V260.343V260.342V260.341V260.341V260.34V260.339V260.339V260.338V260.337V260.337V260.336V260.335V260.334V260.334V260.333V260.332V260.332V260.331V260.33V260.329V260.329V260.328V260.327V260.327V260.326V260.325V260.325V260.324V260.323V260.322V260.322V260.321V260.32V260.32V260.319V260.318V260.317V260.317V260.316V260.315V260.315V260.314V260.313V260.312V260.312V260.311V260.31V260.31V260.309V260.308V260.307V260.307V260.306V260.305V260.305V260.304V260.303V260.302V260.302V260.301V260.3V260.3V260.299V260.298V260.297V260.297V260.296V260.295V260.295V260.294V260.293V260.292V260.292V260.291V260.29V260.29V260.289V260.288V260.287V260.287V260.286V260.285V260.285V260.284V260.283V260.282V260.282V260.281V260.28V260.28V260.279V260.278V260.277V260.277V260.276V260.275V260.275V260.274V260.273V260.272V260.272V260.271V260.27V260.269V260.269V260.268V260.267V260.267V260.266V260.265V260.264V260.264V260.263V260.262V260.262V260.261V260.26V260.259V260.259V260.258V260.257V260.257V260.256V260.255V260.254V260.254V260.253V260.252V260.252V260.251V260.25V260.249V260.249V260.248V260.247V260.246V260.246V260.245V260.244V260.244V260.243V260.242V260.241V260.241V260.24V260.239V260.239V260.238V260.237V260.236V260.236V260.235V260.234V260.233V260.233V260.232V260.231V260.231V260.23V260.229V260.228V260.228V260.227V260.226V260.226V260.225V260.224V260.223V260.223V260.222V260.221V260.221V260.22V260.219V260.218V260.218V260.217V260.216V260.215V260.215V260.214V260.213V260.213V260.212V260.211V260.21V260.21V260.209V260.208V260.208V260.207V260.206V260.205V260.205V260.204V260.203V260.202V260.202V260.201V260.2V260.2V260.199V260.198V260.197V260.197V260.196V260.195V260.195V260.194V260.193V260.192V260.192V260.191V260.19V260.189V260.189V260.188V260.187V260.187V260.186V260.185V260.184V260.184V260.183V260.182V260.182V260.181V260.18V260.179V260.179V260.178V260.177V260.177V260.176V260.175V260.174V260.174V260.173V260.172V260.172V260.171V260.17V260.169V260.169V260.168V260.167V260.166V260.166V260.165V260.164V260.164V260.163V260.162V260.161V260.161V260.16V260.159V260.159V260.158V260.157V260.156V260.156V260.155V260.154V260.154V260.153V260.152V260.151V260.151V260.15V260.149V260.149V260.148V260.147V260.147C1.00415 259.739 1.17741 259.355 1.44415 259.038C2.41813 258.01 3.64587 257.254 5.0049 256.847L5.03364 256.839L5.0616 256.828C5.68231 256.586 6.41061 256.396 7.20538 256.188C7.37651 256.143 7.55072 256.098 7.7276 256.051L7.72763 256.051L7.73987 256.047L10.7909 255.18L10.7909 255.18L10.7972 255.179L17.4949 253.211L17.4949 253.211L17.5016 253.209L21.0665 252.126C21.0667 252.126 21.0669 252.126 21.0671 252.126C22.2915 251.756 23.5576 251.363 24.805 250.869L24.805 250.869L24.8107 250.866C29.7063 248.879 34.2439 246.108 38.2445 242.663L38.2312 242.647C38.3073 242.547 38.444 242.34 38.505 242.094V240.459L37.2981 241.498L37.2847 241.507C37.2524 241.529 37.2037 241.562 37.139 241.605C37.0096 241.692 36.8163 241.821 36.5619 241.989C36.053 242.325 35.2999 242.817 34.3256 243.437L34.3242 243.438C31.6269 245.162 28.7888 246.657 25.8399 247.906C24.9202 248.291 23.94 248.646 22.8993 249.005C22.2137 249.242 21.5153 249.446 20.7736 249.664C20.4009 249.773 20.0172 249.886 19.6187 250.007C17.3047 250.699 14.8548 251.455 12.286 252.258L12.286 252.258L12.2767 252.261L8.34824 253.545L8.34822 253.545L8.34087 253.548C7.96583 253.675 7.57372 253.798 7.17166 253.924C6.22928 254.22 5.23231 254.533 4.27271 254.953C2.74816 255.532 1.38292 256.465 0.289141 257.673L0.280582 257.682L0.272348 257.692C-0.349162 258.428 -0.696347 259.355 -0.709766 260.318L-0.710075 260.34L-0.709076 260.362C-0.668769 261.255 -0.381982 262.119 0.119484 262.86Z" fill="#6BC4C7" stroke="#6BC4C7" stroke-width="1.5"></path><path d="M37.2747 243.344L36.3458 242.169C37.8785 240.8 39.4026 239.469 40.8993 238.163C44.7181 234.83 48.3577 231.652 51.5024 228.384C52.5906 227.242 53.7438 226.1 54.8734 225.047C56.007 223.989 57.1461 223.016 58.2523 222.089L58.2548 222.087C59.8035 220.802 61.3005 219.605 62.7053 218.481C63.3052 218.001 63.8883 217.535 64.4515 217.08C65.3891 216.313 66.2709 215.577 67.1052 214.873C67.9344 214.174 68.7003 213.497 69.4114 212.852C69.7182 212.573 70.0035 212.29 70.2928 212.003C70.3271 211.969 70.3614 211.935 70.3958 211.901C70.7149 211.585 71.044 211.262 71.3873 210.972C71.8939 210.543 72.3102 210.096 72.7215 209.654C72.7925 209.578 72.8634 209.502 72.9346 209.426C73.3907 208.939 73.7957 208.473 74.0949 208.098C74.2874 207.857 74.4488 207.644 74.6017 207.443C74.7009 207.313 74.7965 207.187 74.8947 207.061L74.8953 207.06L75.5796 206.185L76.8409 206.983C76.5085 207.646 76.1136 208.351 75.6632 209.012C75.5375 209.197 75.4087 209.392 75.2762 209.593C74.9881 210.03 74.6827 210.493 74.3539 210.929C73.8832 211.552 73.4104 212.162 72.9117 212.773C72.409 213.39 71.8828 213.988 71.3416 214.569L71.3409 214.57C69.1944 216.867 66.9099 219.032 64.5 221.052C63.59 221.834 62.6869 222.595 61.7973 223.344C60.3904 224.529 59.017 225.686 57.7026 226.854L57.6972 226.859L57.6971 226.859C56.6228 227.795 55.6354 228.717 54.6464 229.687C53.6428 230.672 52.6424 231.621 51.647 232.5L51.641 232.505L51.641 232.505C48.3696 235.333 44.9528 237.988 41.4044 240.461L37.2747 243.344ZM37.2747 243.344L41.404 240.462L37.2747 243.344Z" fill="#6BC4C7" stroke="#6BC4C7" stroke-width="1.5"></path><path d="M144.443 71.9801L143.192 71.1525L143.188 71.1586L143.055 71.3583C142.891 71.5865 142.74 71.8245 142.605 72.071C142.084 72.9863 141.667 73.9567 141.362 74.9643C140.94 76.2444 140.54 77.8443 140.16 79.691C139.959 80.6059 139.745 81.5766 139.476 82.5926C139.34 83.1042 139.2 83.6165 139.022 84.1568L139.022 84.1567L139.019 84.1672C139.012 84.1883 139.006 84.2086 139 84.2281C138.965 84.3378 138.939 84.4208 138.92 84.471L138.739 84.8395L138.739 84.8396L138.347 85.638C138.347 85.6388 138.346 85.6396 138.346 85.6404C137.29 87.7541 135.959 90.0276 134.481 92.4558C133.262 94.4584 131.867 96.5537 130.381 98.7854C130.074 99.2467 129.763 99.7137 129.449 100.187C127.617 102.948 125.737 105.905 123.96 109.159C123.045 110.789 122.215 112.502 121.407 114.259C120.871 115.425 120.369 116.618 119.868 117.812C119.612 118.419 119.357 119.026 119.098 119.63C112.833 134.139 105.178 150.492 96.5017 166.948L96.5003 166.951C95.0498 169.731 93.5542 172.485 92.047 175.26C91.3152 176.607 90.5807 177.96 89.8473 179.323C88.3843 182.041 87.0115 184.816 85.6499 187.568C84.9245 189.035 84.2022 190.495 83.4711 191.936L83.4684 191.942C81.4091 196.088 79.141 200.127 76.6727 204.045C74.2299 207.845 71.4086 211.39 68.2516 214.626L69.3074 215.691L69.9273 215.097L69.9354 215.089L69.9432 215.081C70.0498 214.973 70.1967 214.833 70.3718 214.666C70.7444 214.311 71.2445 213.834 71.7543 213.282C71.8914 213.134 72.0361 212.978 72.1875 212.816C72.8599 212.095 73.6647 211.232 74.526 210.193C75.5738 208.929 76.7372 207.452 77.9661 205.715C79.1933 203.981 80.4831 202.006 81.8114 199.809C83.1425 197.607 84.4867 195.16 85.8588 192.543C86.5772 191.174 87.3276 189.755 88.1047 188.286C88.8111 186.951 89.5396 185.574 90.2861 184.154C91.635 181.588 93.1167 178.962 94.6804 176.19C94.9196 175.766 95.1607 175.339 95.4036 174.908L95.405 174.905C102.661 161.911 110.666 146.16 118.413 128.336C119.914 124.901 121.387 121.364 122.872 117.796C123.308 116.749 123.745 115.7 124.184 114.65C126.329 110.033 128.809 105.578 131.602 101.32C134.551 96.8519 137.252 92.2262 139.693 87.4633L139.695 87.4609C139.889 87.0777 140.078 86.6635 140.258 86.2681C140.363 86.0393 140.464 85.8169 140.562 85.6104C140.655 85.4225 140.736 85.2289 140.805 85.0308L140.811 85.0143L140.816 84.9976L140.961 84.5079L140.961 84.5063C141.021 84.3013 141.08 84.0665 141.134 83.8527C141.166 83.7248 141.196 83.6044 141.223 83.5024L141.226 83.4935L141.228 83.4847C141.556 82.1363 141.801 80.7755 142.041 79.4318C142.069 79.2905 142.097 79.1493 142.124 79.0085C142.623 76.4675 143.102 74.0293 144.443 71.9801Z" fill="#6BC4C7" stroke="#6BC4C7" stroke-width="1.5"></path><path d="M133.146 59.5626L132.651 58.1469C134.858 57.3429 136.92 56.2413 138.954 55.0518C139.666 54.6357 140.38 54.2049 141.097 53.7726C142.404 52.9846 143.719 52.1919 145.037 51.4759C145.944 50.9594 146.866 50.525 147.745 50.1104C147.932 50.0224 148.117 49.9353 148.299 49.8484L148.303 49.8465L151.52 48.3388L151.523 48.3371L157.807 45.352L157.81 45.3505L181.955 34.0165C181.956 34.0161 181.956 34.0157 181.957 34.0153C185.813 32.1652 189.618 30.4284 193.323 28.7656C197.031 27.1013 200.658 25.5259 204.169 24.0158C211.194 20.9949 217.79 18.2475 223.829 15.75L223.83 15.7496C225.757 14.9562 227.627 14.1867 229.437 13.442C238.981 9.5146 246.845 6.2786 252.56 3.87052C252.561 3.87009 252.562 3.86965 252.564 3.86922L260.422 0.475615L260.424 0.474728L263.162 -0.697489L263.786 0.665892C249.477 7.65268 233.899 14.3318 218.823 20.754M133.146 59.5626L218.529 20.0641M133.146 59.5626L134.008 59.2736L134.008 59.2737L134.021 59.269C134.603 59.0615 135.454 58.7318 136.499 58.2475C137.54 57.7653 138.844 57.1069 140.314 56.2969C140.791 56.034 141.283 55.7583 141.794 55.4723C142.861 54.8742 144.01 54.231 145.269 53.5652C146.522 52.9026 147.895 52.2938 149.379 51.6355C150.077 51.3259 150.8 51.0052 151.547 50.6629M133.146 59.5626L151.547 50.6629M218.823 20.754C218.823 20.7541 218.823 20.7541 218.823 20.7541L218.529 20.0641M218.823 20.754C218.823 20.7539 218.824 20.7538 218.824 20.7536L218.529 20.0641M218.823 20.754C211.28 23.9818 203.854 27.1594 196.75 30.2965L196.75 30.2969C193.192 31.8624 189.736 33.3934 186.362 34.9558C185.777 35.2266 185.196 35.496 184.62 35.7636C181.867 37.0407 179.199 38.279 176.531 39.4565L176.533 39.4555L176.226 38.7714M218.529 20.0641C210.986 23.2917 203.556 26.4711 196.447 29.6104C192.889 31.1761 189.428 32.7096 186.047 34.2752C185.46 34.5466 184.879 34.8164 184.302 35.0843C181.549 36.3616 178.887 37.5966 176.226 38.7714M176.226 38.7714L158.676 46.6557L176.226 38.7714ZM260.775 1.2911L261.017 1.85271L263.752 0.681376L263.457 -0.00805664M260.775 1.2911L252.725 4.25209C255.339 3.04451 257.926 1.82793 260.477 0.601995C260.478 0.601731 260.478 0.601467 260.479 0.601203C261.366 0.174604 262.249 -0.253128 263.128 -0.682006L263.457 -0.00805664M260.775 1.2911C261.673 0.859222 262.568 0.426173 263.457 -0.00805664M260.775 1.2911L263.457 -0.00805664M151.547 50.6629C151.548 50.6624 151.549 50.662 151.55 50.6615L158.982 47.3405L158.984 47.3398L176.528 39.4575L151.547 50.6629ZM243.039 9.45992C246.903 7.86259 250.292 6.45401 253.146 5.25155L253.152 5.24892L261.015 1.8536L260.774 1.29128C258.222 2.51753 255.634 3.73436 253.02 4.94208C253.018 4.9426 253.017 4.94311 253.016 4.94362C249.726 6.46327 246.394 7.96849 243.039 9.45992ZM156.376 46.8619L151.792 48.9105L156.376 46.8619ZM152.113 49.5884L156.69 47.5431L148.867 51.0419C148.946 51.007 149.025 50.9719 149.105 50.9367C149.799 50.6288 150.511 50.3127 151.238 49.9797L152.11 49.5897L152.113 49.5884Z" fill="#6BC4C7" stroke="#6BC4C7" stroke-width="1.5"></path><path d="M133.904 59.2438L133.385 57.8385L133.139 57.9151C132.856 57.9936 132.58 58.0974 132.315 58.2252C131.89 58.4077 131.486 58.6349 131.11 58.9032C130.606 59.2482 130.137 59.6408 129.709 60.0757L129.709 60.0757L129.703 60.0815C128.607 61.2195 127.685 62.5131 126.968 63.9202C126.065 65.6615 125.35 67.4935 124.835 69.3854C124.22 71.5556 123.826 73.7822 123.659 76.0315C123.56 77.2573 123.56 78.4892 123.659 79.7151L123.659 79.7176C123.716 80.3869 123.825 81.0507 123.984 81.7031L123.994 81.744L124.009 81.7835L124.339 82.6827L124.347 82.705L124.356 82.7267L124.735 83.5857L124.747 83.6131L124.761 83.6395C125.941 85.8273 127.292 87.9191 128.801 89.8956C130.196 91.7368 131.343 93.7522 132.213 95.8904L133.636 95.4301L133.636 95.43L133.636 95.4299L133.636 95.4294L133.636 95.427L133.633 95.4171L133.623 95.3768L133.585 95.216C133.551 95.0738 133.501 94.8624 133.437 94.5868L133.437 94.5868L133.434 94.5738C133.218 93.7147 132.937 92.8733 132.593 92.0568L132.59 92.0498L132.587 92.0428C132.036 90.8073 131.409 89.6076 130.707 88.4507L130.707 88.4499C130.556 88.2022 130.403 87.951 130.247 87.6956C129.56 86.5735 128.825 85.3723 128.099 84.0471L128.099 84.0471L128.096 84.0418C127.647 83.2364 127.258 82.3984 126.934 81.535C126.901 81.4311 126.871 81.3436 126.843 81.2632C126.798 81.1343 126.76 81.0235 126.724 80.8916L126.001 81.0915L126.724 80.8916C126.675 80.717 126.648 80.5331 126.616 80.2757L126.615 80.2633L126.613 80.2511C126.539 79.7918 126.509 79.3027 126.476 78.7328C126.421 76.4719 126.603 74.2115 127.02 71.9884L127.02 71.9884L127.022 71.9777C127.446 69.5148 128.151 67.1083 129.122 64.8047C129.624 63.6263 130.267 62.5123 131.035 61.4867C131.78 60.5036 132.768 59.7305 133.904 59.2438Z" fill="#6BC4C7" stroke="#6BC4C7" stroke-width="1.5"></path><path d="M180.428 172.168C179.458 170.258 178.432 168.316 177.342 166.327C176.253 164.34 175.115 162.303 173.919 160.255L173.917 160.253C171.495 156.138 168.848 151.937 166.086 147.631C163.32 143.321 160.395 138.924 157.408 134.452L156.129 135.234L159.768 141.762L159.768 141.762L159.772 141.769C160.939 143.807 162.339 146.271 163.925 149.065L163.925 149.065L163.929 149.072L169.288 158.285C173.089 164.986 177.251 172.711 181.252 180.875L181.253 180.878C182.256 182.904 183.244 184.962 184.217 187.03C185.19 189.099 186.154 191.183 187.085 193.257C188.016 195.329 188.923 197.427 189.807 199.504C189.967 199.887 190.126 200.27 190.285 200.653C190.556 201.307 190.827 201.96 191.1 202.611L192.329 205.696L193.748 205.216L193.748 205.216L193.748 205.216L193.748 205.214L193.746 205.209L193.741 205.19L193.719 205.113C193.7 205.045 193.671 204.943 193.633 204.808C193.556 204.538 193.441 204.136 193.288 203.605C193.101 202.956 192.84 202.133 192.53 201.157C192.329 200.527 192.109 199.832 191.875 199.078L191.873 199.072C191.664 198.421 191.417 197.723 191.161 196.996C191.027 196.619 190.891 196.234 190.756 195.844C190.519 195.156 190.241 194.424 189.952 193.661C189.752 193.132 189.546 192.588 189.343 192.034L189.341 192.027L189.338 192.021C188.288 189.307 187.044 186.235 185.548 182.896C184.055 179.564 182.367 175.963 180.428 172.168ZM180.428 172.168C180.428 172.168 180.428 172.168 180.428 172.169L179.759 172.508L180.427 172.167C180.427 172.167 180.428 172.167 180.428 172.168Z" fill="#6BC4C7" stroke="#6BC4C7" stroke-width="1.5"></path><path d="M173.603 98.4739L172.418 99.3924L173.022 98.9478L172.418 99.3925L172.418 99.3926L172.418 99.3928L172.418 99.3933L172.42 99.3952L172.424 99.4017L172.442 99.4256C172.458 99.4464 172.481 99.4768 172.511 99.5165C172.571 99.596 172.66 99.7127 172.777 99.8644C173.013 100.168 173.364 100.611 173.827 101.174C174.231 101.666 174.731 102.243 175.297 102.898C175.385 102.999 175.474 103.102 175.565 103.207C176.245 103.994 177.017 104.892 177.853 105.904L177.853 105.904L177.854 105.906C178.277 106.415 178.707 106.947 179.137 107.496L179.139 107.498C179.347 107.761 179.54 108.037 179.718 108.322L180.282 109.321L180.282 109.321L180.286 109.328C181.073 110.686 181.802 112.178 182.555 113.816C184.207 117.441 185.629 121.165 186.812 124.967L186.813 124.971C187.469 127.046 188.094 129.202 188.686 131.439C189.272 133.678 189.832 135.986 190.336 138.357L190.337 138.36C190.912 141.016 191.445 143.723 191.988 146.481C192.42 148.678 192.859 150.906 193.33 153.167L193.331 153.17C193.869 155.709 194.448 158.248 195.067 160.787L195.067 160.787L195.07 160.799C195.732 163.326 196.438 165.862 197.309 168.356L197.31 168.359L197.962 170.198L197.963 170.199C198.123 170.648 198.307 171.098 198.484 171.528C198.555 171.7 198.624 171.868 198.69 172.033C198.741 172.161 198.793 172.293 198.846 172.426C199.031 172.894 199.225 173.385 199.447 173.86C199.447 173.861 199.447 173.861 199.447 173.861L200.246 175.592C200.602 176.418 201.056 177.231 201.483 177.995C201.681 178.349 201.873 178.694 202.047 179.024C202.358 179.615 202.712 180.173 203.063 180.707C203.156 180.85 203.249 180.99 203.341 181.128C203.598 181.516 203.847 181.891 204.084 182.278L205.37 181.507L204.431 179.905C204.43 179.904 204.43 179.904 204.43 179.903C204.349 179.764 204.266 179.625 204.181 179.483C203.919 179.042 203.638 178.57 203.366 177.988C203.217 177.668 203.044 177.333 202.871 176.996C202.816 176.889 202.761 176.782 202.706 176.676C202.476 176.224 202.245 175.754 202.035 175.248C201.884 174.885 201.727 174.526 201.567 174.162C201.233 173.401 200.89 172.621 200.586 171.741L200.581 171.727L200.576 171.714L199.779 169.671L199.061 167.445L199.059 167.439C198.894 166.94 198.756 166.458 198.614 165.959C198.529 165.664 198.443 165.363 198.349 165.05C198.111 164.258 197.865 163.372 197.652 162.489L197.652 162.489L197.648 162.476C197.185 160.7 196.761 158.81 196.318 156.81C196.099 155.821 195.9 154.803 195.696 153.75L195.653 153.531C195.463 152.552 195.268 151.546 195.049 150.521L193.747 143.704L193.746 143.7C193.279 141.34 192.786 138.872 192.211 136.394C191.638 133.92 190.982 131.33 190.229 128.737C188.696 123.302 186.702 118.006 184.268 112.908L184.268 112.908L184.264 112.898C183.618 111.595 182.941 110.267 182.179 108.975C182.134 108.898 182.089 108.82 182.044 108.742C181.723 108.183 181.389 107.6 180.99 107.018C180.618 106.476 180.203 105.993 179.815 105.542C179.721 105.433 179.629 105.326 179.539 105.22C178.607 104.077 177.602 102.978 176.606 101.888L176.57 101.848C175.556 100.738 174.549 99.6352 173.603 98.4739ZM179.355 105.368C179.239 105.227 179.124 105.087 179.009 104.949C179.009 104.949 179.009 104.948 179.008 104.948L178.612 105.277L179.355 105.368Z" fill="#6BC4C7" stroke="#6BC4C7" stroke-width="1.5"></path><path d="M202.759 180.085L204.014 179.263L207.927 184.996L207.929 184.999L207.929 184.999C209.153 186.812 210.475 188.558 211.888 190.229C213.407 191.785 214.911 193.365 216.352 194.931C216.462 195.05 216.572 195.17 216.681 195.289C218.009 196.732 219.293 198.129 220.604 199.436L220.61 199.442L220.61 199.442C221.054 199.895 221.494 200.306 221.946 200.729C222.216 200.982 222.491 201.239 222.774 201.512C223.536 202.233 224.224 203.029 224.826 203.888L224.83 203.893L224.83 203.893C225.412 204.736 225.91 205.634 226.317 206.573L226.322 206.585L226.322 206.585C226.704 207.508 226.988 208.467 227.172 209.448L227.172 209.449C227.522 211.344 227.428 213.294 226.898 215.147L226.895 215.157L226.895 215.157C226.634 216.022 226.285 216.858 225.853 217.652L225.85 217.658L225.846 217.665C225.418 218.417 224.913 219.123 224.34 219.772L224.335 219.778L224.335 219.778C223.31 220.918 222.214 221.992 221.053 222.995C220.935 223.101 220.818 223.206 220.702 223.31C219.785 224.132 218.93 224.898 218.168 225.657C218.167 225.658 218.166 225.659 218.165 225.66L217.539 226.301L217.396 226.451C217.323 226.531 217.237 226.612 217.213 226.634C217.21 226.637 217.208 226.639 217.207 226.64L217.193 226.654L217.178 226.667L216.86 226.953C216.466 227.316 216.1 227.695 215.763 228.077C215.156 228.792 214.592 229.544 214.076 230.327C213.86 230.655 213.655 230.969 213.459 231.268C212.789 232.293 212.237 233.136 211.802 233.735C211.524 234.12 211.303 234.409 211.151 234.605C211.075 234.702 211.016 234.776 210.976 234.826C210.955 234.852 210.94 234.871 210.929 234.884L210.916 234.9L210.912 234.904L210.911 234.906L210.911 234.906L210.911 234.906L210.911 234.906L210.334 234.427L210.911 234.906L209.731 233.981C210.505 232.934 211.176 231.828 211.875 230.675C212.173 230.183 212.477 229.682 212.796 229.174C213.331 228.299 213.93 227.465 214.589 226.679L214.597 226.67L214.605 226.661C214.937 226.289 215.292 225.901 215.669 225.542L215.673 225.538L215.938 225.289L216.035 225.193L216.14 225.074L216.148 225.064L216.148 225.065C216.198 225.011 216.251 224.952 216.306 224.891C216.419 224.765 216.54 224.631 216.658 224.508C216.658 224.507 216.658 224.507 216.659 224.506L216.936 224.772L217.099 224.605L217.106 224.598L217.106 224.598C217.898 223.808 218.786 223.012 219.7 222.193C219.819 222.087 219.938 221.98 220.057 221.874L220.062 221.869L220.068 221.864C220.491 221.498 220.906 221.123 221.311 220.738C221.314 220.735 221.317 220.732 221.319 220.73C221.977 220.104 222.61 219.453 223.218 218.778C223.72 218.207 224.163 217.588 224.539 216.928C224.655 216.715 224.764 216.499 224.866 216.279L224.33 216.029C224.331 216.025 224.333 216.021 224.335 216.018M202.759 180.085L211.587 190.485C210.205 188.772 208.915 186.987 207.723 185.138C207.722 185.137 207.722 185.137 207.721 185.136C207.635 185.003 207.55 184.87 207.466 184.736L207.466 184.736L207.464 184.734C206.666 183.485 206.005 182.432 205.476 181.59C205.275 181.271 205.094 180.981 204.931 180.724L204.03 179.287L203.395 179.686L202.775 180.109L203.716 181.487L203.717 181.489L206.396 185.414L206.199 185.539C206.199 185.54 206.199 185.54 206.199 185.54M202.759 180.085L203.661 181.522L203.661 181.522L203.662 181.523C203.823 181.778 204.003 182.065 204.203 182.383C204.732 183.225 205.398 184.287 206.199 185.54M202.759 180.085L206.199 185.54M224.335 216.018C224.337 216.014 224.339 216.01 224.341 216.006L224.869 216.274C225.101 215.774 225.298 215.258 225.457 214.73C225.563 214.36 225.648 213.985 225.715 213.608L225.122 213.514C225.122 213.512 225.123 213.51 225.123 213.508M224.335 216.018C224.706 215.219 224.971 214.375 225.123 213.508M224.335 216.018L206.199 185.54M225.123 213.508C225.123 213.506 225.124 213.505 225.124 213.503L225.715 213.606C225.875 212.692 225.918 211.761 225.844 210.835L225.237 210.892C225.236 210.889 225.236 210.887 225.236 210.884M225.123 213.508C225.261 212.641 225.299 211.76 225.236 210.884M225.236 210.884C225.236 210.882 225.236 210.879 225.235 210.876L225.844 210.832C225.814 210.461 225.765 210.091 225.697 209.723C225.533 208.846 225.279 207.989 224.939 207.164C224.716 206.653 224.465 206.155 224.184 205.673L223.657 205.987C223.656 205.986 223.656 205.986 223.655 205.985M225.236 210.884C225.073 209.156 224.533 207.484 223.655 205.985M223.655 205.985C223.655 205.984 223.654 205.983 223.654 205.982L224.184 205.672C224 205.356 223.804 205.048 223.597 204.747C223.052 203.971 222.43 203.251 221.741 202.599L221.736 202.594L221.736 202.594C221.486 202.354 221.225 202.109 220.959 201.86C220.887 201.793 220.815 201.725 220.742 201.657C220.74 201.655 220.738 201.653 220.735 201.651C220.336 201.276 219.93 200.891 219.542 200.495C218.72 199.675 217.909 198.821 217.098 197.951C216.593 197.409 216.089 196.86 215.582 196.309C215.471 196.188 215.359 196.068 215.248 195.947C214.779 195.437 214.304 194.926 213.823 194.414C212.831 193.36 211.817 192.304 210.796 191.258L210.792 191.254L210.777 191.239L210.776 191.237L210.76 191.218C209.306 189.5 207.946 187.704 206.687 185.84L206.397 185.416L206.2 185.541C206.2 185.541 206.2 185.541 206.199 185.54M223.655 205.985C222.781 204.518 221.671 203.204 220.369 202.096L220.353 202.082L220.338 202.067C219.034 200.824 217.829 199.565 216.699 198.309C216.324 197.891 215.95 197.479 215.58 197.071C214.856 196.271 214.147 195.489 213.473 194.721C212.83 193.988 212.196 193.32 211.567 192.658C211.21 192.282 210.854 191.907 210.5 191.524L210.483 191.506L210.467 191.486C208.931 189.588 207.507 187.602 206.199 185.54M211.618 190.524C211.613 190.518 211.608 190.511 211.603 190.505L211.618 190.524ZM211.618 190.524C211.939 190.871 212.276 191.226 212.622 191.59C213.266 192.269 213.941 192.98 214.601 193.732C215.048 194.241 215.507 194.753 215.978 195.275C216.209 195.531 216.444 195.789 216.68 196.051C217.052 196.461 217.43 196.878 217.815 197.306C218.576 198.152 219.37 198.997 220.204 199.837C220.205 199.837 220.205 199.838 220.206 199.838C220.581 200.216 220.965 200.593 221.358 200.967C221.713 201.271 222.056 201.588 222.384 201.919L211.618 190.524ZM217.259 226.073C217.265 226.066 217.272 226.059 217.278 226.052L217.259 226.073ZM217.259 226.073L217.143 226.204L217.141 226.206L217.259 226.073ZM216.163 225.563L215.91 225.79L215.908 225.792L215.855 225.84L215.854 225.84L215.847 225.846C215.486 226.179 215.148 226.522 214.835 226.866C214.831 226.87 214.828 226.873 214.825 226.877C214.76 226.948 214.697 227.019 214.634 227.09L214.634 227.09L214.625 227.101C214.034 227.796 213.482 228.523 212.972 229.279L216.163 225.563ZM216.163 225.563C216.169 225.557 216.174 225.552 216.18 225.547L216.163 225.563ZM215.731 227.651C216.031 227.316 216.326 226.994 216.628 226.701L215.731 227.651ZM215.731 227.651C215.668 227.727 215.605 227.804 215.543 227.881L215.731 227.651ZM224.318 204.244C223.744 203.414 223.097 202.636 222.386 201.92L220.749 222.645C221.161 222.261 221.577 221.87 221.995 221.463C222.699 220.836 223.347 220.15 223.93 219.413C223.93 219.413 223.931 219.412 223.931 219.412C224.443 218.765 224.906 218.08 225.314 217.362C225.315 217.361 225.315 217.36 225.316 217.359C225.442 217.138 225.562 216.913 225.678 216.685L225.684 216.674L225.689 216.663C225.942 216.119 226.153 215.558 226.319 214.984C226.319 214.983 226.319 214.982 226.319 214.982C226.435 214.581 226.529 214.173 226.601 213.761L226.601 213.761L226.603 213.751C226.761 212.764 226.804 211.763 226.731 210.767L226.731 210.76L226.73 210.752C226.693 210.352 226.637 209.955 226.564 209.561C226.564 209.561 226.564 209.561 226.564 209.561C226.39 208.622 226.116 207.704 225.747 206.823C225.747 206.822 225.747 206.822 225.746 206.821C225.517 206.273 225.25 205.739 224.948 205.224L224.948 205.224L224.945 205.219C224.747 204.887 224.538 204.562 224.319 204.245C224.319 204.245 224.319 204.244 224.318 204.244ZM220.337 223.028C220.472 222.902 220.608 222.776 220.745 222.649L217.895 225.383C218.688 224.558 219.505 223.8 220.337 223.028ZM217.745 225.541C217.794 225.489 217.843 225.438 217.892 225.387L217.281 226.048C217.339 225.985 217.392 225.926 217.443 225.87C217.545 225.756 217.639 225.652 217.743 225.544L217.745 225.541ZM217.127 226.222L217.134 226.214L216.631 226.698C216.655 226.675 216.678 226.652 216.702 226.63C216.702 226.629 216.703 226.629 216.703 226.628L216.942 226.404L216.958 226.39L216.973 226.375L216.982 226.367L216.99 226.359L217.111 226.238L217.127 226.222ZM216.201 225.526C216.197 225.53 216.193 225.534 216.188 225.538L216.284 225.445C216.265 225.465 216.251 225.478 216.237 225.492L216.201 225.526ZM216.303 225.423L216.3 225.426L216.935 224.773L216.463 225.255L216.463 225.255L216.456 225.263L216.414 225.307L216.409 225.312L216.303 225.423ZM214.073 229.961C214.515 229.238 215.004 228.545 215.537 227.887L213.912 230.219C213.964 230.135 214.016 230.051 214.068 229.968L214.068 229.968L214.073 229.961Z" fill="#6BC4C7" stroke="#6BC4C7" stroke-width="1.5"></path><path d="M187.282 224.857C186.579 227.276 185.908 229.8 185.293 232.389C184.039 237.561 183.119 242.809 182.54 248.099L184.011 248.371L184.952 244.792L184.953 244.79L187.511 235.163C187.511 235.162 187.511 235.161 187.511 235.161C187.64 234.692 187.772 234.212 187.906 233.722C188.923 230.015 190.102 225.719 191.444 221.066L191.445 221.066L191.448 221.055C191.81 219.722 192.17 218.406 192.577 217.061C192.99 215.694 193.391 214.244 193.703 212.738C194.049 211.188 194.22 209.604 194.211 208.016L194.211 208.015C194.201 206.336 193.864 204.675 193.22 203.124L191.795 203.576L192.527 203.411L191.795 203.576L191.795 203.576L191.795 203.576L191.796 203.576L191.796 203.577L191.797 203.581L191.8 203.595L191.812 203.65L191.862 203.866C191.902 204.042 191.961 204.297 192.037 204.623C192.047 204.844 192.088 205.062 192.12 205.234C192.122 205.247 192.125 205.259 192.127 205.272C192.168 205.495 192.203 205.691 192.213 205.902L192.212 205.902L192.213 205.914C192.248 206.482 192.248 207.051 192.213 207.619C192.166 208.326 192.076 209.03 191.943 209.726L191.943 209.729C191.79 210.547 191.592 211.357 191.351 212.154L191.35 212.154L191.347 212.165C191.017 213.322 190.594 214.533 190.135 215.848C189.897 216.528 189.65 217.236 189.401 217.978L189.399 217.985L189.397 217.992C189.151 218.773 188.897 219.572 188.637 220.388C188.54 220.694 188.442 221.002 188.343 221.313C187.977 222.463 187.629 223.651 187.282 224.857ZM187.282 224.857C187.283 224.857 187.283 224.856 187.283 224.856L188.003 225.065L187.282 224.858C187.282 224.858 187.282 224.857 187.282 224.857Z" fill="#6BC4C7" stroke="#6BC4C7" stroke-width="1.5"></path><path d="M183.863 247.724L182.436 247.266L182.268 247.728C182.268 247.728 182.267 247.729 182.267 247.73C182.166 248.003 181.985 248.426 181.721 248.97C180.937 250.507 179.962 251.938 178.819 253.232L178.819 253.232L178.814 253.238C178.016 254.161 177.153 255.026 176.232 255.828C175.747 256.25 175.208 256.689 174.691 257.083C174.097 257.446 173.479 257.769 172.842 258.051C171.998 258.415 171.201 258.879 170.468 259.433L170.443 259.451L170.42 259.472C170.153 259.711 169.927 259.993 169.751 260.307L169.751 260.306L169.746 260.316C169.485 260.797 169.422 261.361 169.571 261.888L169.571 261.888L169.573 261.896C169.691 262.299 169.909 262.666 170.206 262.963C170.432 263.218 170.691 263.442 170.976 263.629L171.026 263.662L171.081 263.686C172.1 264.143 173.213 264.352 174.329 264.298C175.305 264.297 176.261 264.248 177.224 264.175L177.236 264.174L177.249 264.173C178.146 264.074 179.049 264.041 179.951 264.072L179.964 264.073H179.977H179.983H179.989H179.995H180H180.006H180.012H180.018H180.024H180.03H180.036H180.042H180.048H180.054H180.059H180.065H180.071H180.077H180.083H180.089H180.095H180.101H180.107H180.113H180.118H180.124H180.13H180.136H180.142H180.148H180.154H180.16H180.166H180.172H180.177H180.183H180.189H180.195H180.201H180.207H180.213H180.219H180.225H180.231H180.236H180.242H180.248H180.254H180.26H180.266H180.272H180.278H180.284H180.29H180.296H180.301H180.307H180.313H180.319H180.325H180.331H180.337H180.343H180.349H180.355H180.36H180.366H180.372H180.378H180.384H180.39H180.396H180.402H180.408H180.414H180.42H180.426H180.431H180.437H180.443H180.449H180.455H180.461H180.467H180.473H180.479H180.485H180.491H180.496H180.502H180.508H180.514H180.52H180.526H180.532H180.538H180.544H180.55H180.556H180.562H180.567H180.573H180.579H180.585H180.591H180.597H180.603H180.609H180.615H180.621H180.627H180.633H180.638H180.644H180.65H180.656H180.662H180.668H180.674H180.68H180.686H180.692H180.698H180.704H180.709H180.715H180.721H180.727H180.733H180.739H180.745H180.751H180.757H180.763H180.769H180.775H180.781H180.786H180.792H180.798H180.804H180.81H180.816H180.822H180.828H180.834H180.84H180.846H180.852H180.858H180.864H180.869H180.875H180.881H180.887H180.893H180.899H180.905H180.911H180.917H180.923H180.929H180.935H180.941H180.947H180.952H180.958H180.964H180.97H180.976H180.982H180.988H180.994H181H181.006H181.012H181.018H181.024H181.03H181.036H181.041H181.047H181.053H181.059H181.065H181.071H181.077H181.083H181.089H181.095H181.101H181.107H181.113H181.119H181.125H181.131H181.136H181.142H181.148H181.154H181.16H181.166H181.172H181.178H181.184H181.19H181.196H181.202H181.208H181.214H181.22H181.226H181.232H181.237H181.243H181.249H181.255H181.261H181.267H181.273H181.279H181.285H181.291H181.297H181.303H181.309H181.315H181.321H181.327H181.333H181.339H181.345H181.35H181.356H181.362H181.368H181.374H181.38H181.386H181.392H181.398H181.404H181.41H181.416H181.422H181.428H181.434H181.44H181.446H181.452H181.458H181.464H181.469H181.475H181.481H181.487H181.493H181.499H181.505H181.511H181.517H181.523H181.529H181.535H181.541H181.547H181.553H181.559H181.565H181.571H181.577H181.583H181.589H181.595H181.601H181.606H181.612H181.618H181.624H181.63H181.636H181.642H181.648H181.654H181.66H181.666H181.672H181.678H181.684H181.69H181.696H181.702H181.708H181.714H181.72H181.726H181.732H181.738H181.744H181.75H181.756H181.762H181.768H181.774H181.779H181.785H181.791H181.797H181.803H181.809H181.815H181.821H181.827H181.833H181.839H181.845H181.851H181.857H181.863H181.869H181.875H181.881H181.887H181.893H181.899H181.905H181.911H181.917H181.923H181.929H181.935H181.941H181.947H181.953H181.959H181.965H181.971H181.977H181.983H181.989H181.995H182.001H182.007H182.012H182.018H182.024H182.03H182.036H182.042H182.048H182.054H182.06H182.066H182.072H182.078H182.084H182.09H182.096H182.102H182.108H182.114H182.12H182.126H182.132H182.138H182.144H182.15H182.156H182.162H182.168H182.174H182.18H182.186H182.192H182.198H182.204H182.21H182.216H182.222H182.228H182.234H182.24H182.246H182.252H182.258H182.264H182.27H182.276H182.282H182.288H182.294H182.3H182.306H182.312H182.318H182.324H182.33H182.336H182.342H182.348H182.354H182.36H182.366H182.372H182.378H182.384H182.39H182.396H182.402H182.408H182.414H182.42H182.426H182.432H182.438H182.444H182.45H182.456H182.462H182.468H182.474H182.48H182.486H182.492H182.498H182.504H182.51H182.516H182.522H182.528H182.534H182.54H182.546H182.552H182.558H182.564H182.57H182.576H182.582H182.588H182.594H182.6H182.606H182.612H182.618H182.624H182.63H182.636H182.642H182.648H182.654H182.66H182.666H182.672H182.678H182.684H182.69H182.696H182.702H182.708H182.714H182.72H182.726H182.732H182.738H182.745H182.751H182.757H182.763H182.769H182.775H182.781H182.787H182.793H182.799H182.805H182.811H182.817H182.823H182.829H182.835H182.841H182.847H182.853H182.859H182.865H182.871H182.877H182.883H182.889H182.895H182.901H182.907H182.913H182.919H182.925H182.931H182.937H182.943H182.949H182.955H182.961H182.968H182.974H182.98H182.986H182.992H182.998H183.004H183.01H183.016H183.022H183.028H183.04L183.053 264.072C185.175 264.002 187.292 263.826 189.396 263.545C190.481 263.406 191.556 263.236 192.654 263.033C193.903 262.806 195.104 262.37 196.207 261.743L196.219 261.736L196.231 261.728C198.395 260.387 200.097 258.419 201.11 256.086C202.063 253.96 202.831 251.755 203.405 249.497L203.405 249.497L203.407 249.489C203.905 247.434 204.714 245.467 205.806 243.655C206.804 242.179 207.689 240.634 208.546 239.137C208.793 238.705 209.039 238.276 209.284 237.855L209.289 237.846L209.293 237.838C210.331 235.941 211.489 234.112 212.76 232.363L212.742 232.35C212.796 232.251 212.868 232.094 212.903 231.922V229.613L211.581 231.434C211.57 231.445 211.556 231.459 211.541 231.474C211.488 231.529 211.412 231.609 211.315 231.715C211.12 231.927 210.841 232.243 210.494 232.668C209.8 233.517 208.853 234.795 207.705 236.473C207.263 237.102 206.782 237.825 206.276 238.585C206.129 238.805 205.981 239.028 205.83 239.253L206.454 239.67L205.83 239.253C205.159 240.258 204.437 241.301 203.567 242.421L203.554 242.438L203.542 242.456C202.62 243.795 201.879 245.25 201.338 246.783C200.982 247.725 200.659 248.734 200.337 249.739C200.134 250.372 199.932 251.003 199.723 251.615L199.722 251.616C199.165 253.251 198.413 254.814 197.482 256.271L197.48 256.274C196.57 257.711 195.226 258.824 193.642 259.452C193.232 259.606 192.812 259.733 192.386 259.834L190.874 260.094C190.873 260.094 190.873 260.094 190.872 260.094C189.833 260.268 188.775 260.411 187.686 260.547C185.489 260.819 183.279 260.972 181.066 261.007H179.301C178.779 261.007 178.273 261.062 177.823 261.111C177.677 261.127 177.536 261.142 177.403 261.155L177.391 261.156L177.379 261.158C176.238 261.303 175.091 261.387 173.941 261.409L173.941 261.409L173.932 261.409C173.459 261.424 172.987 261.375 172.528 261.263C172.5 261.255 172.473 261.246 172.446 261.236L172.491 261.176C172.512 261.162 172.533 261.148 172.555 261.134L172.565 261.128L172.574 261.122C173.055 260.804 173.553 260.512 174.065 260.248L174.073 260.244L174.08 260.241C174.15 260.202 174.222 260.163 174.295 260.124C174.773 259.866 175.301 259.581 175.822 259.233L175.838 259.222L175.854 259.21L176.272 258.897L176.29 258.884L176.307 258.869L176.675 258.559C176.675 258.558 176.676 258.558 176.676 258.557C176.892 258.377 177.099 258.183 177.286 258.008C177.332 257.965 177.377 257.923 177.42 257.883L177.42 257.883L177.424 257.879C178.4 256.961 179.306 255.972 180.136 254.92C181.859 252.801 183.128 250.352 183.863 247.724ZM171.555 261.455L171.548 261.46L171.555 261.455Z" fill="#6BC4C7" stroke="#6BC4C7" stroke-width="1.5"></path><path d="M49.9913 101.959C49.9913 101.959 52.1407 110.79 44.646 115.278C44.646 115.278 51.3679 117.615 54.3062 122.858C54.3062 122.858 55.0226 114.741 59.5629 110.879C57.3606 110.28 55.3379 109.155 53.67 107.6C52.0022 106.046 50.7395 104.109 49.9913 101.959Z" fill="#F2D17E"></path><path d="M67.2428 91.1437C67.2428 91.1437 68.4825 96.2259 64.1837 98.7872C64.1837 98.7872 68.0397 100.128 69.7303 103.131C69.7303 103.131 70.1408 98.474 72.741 96.2581C71.4764 95.9162 70.3146 95.2717 69.3565 94.3804C68.3983 93.4891 67.6727 92.3781 67.2428 91.1437Z" fill="#F2D17E"></path><path d="M46.0226 66.5031C46.0226 66.5031 48.7435 77.7435 39.2363 83.3637C39.2363 83.3637 47.7614 86.3344 51.5047 92.9984C51.5047 92.9984 52.4144 82.6974 58.1702 77.8078C55.3771 77.049 52.8114 75.6232 50.6949 73.6535C48.5784 71.6839 46.9747 69.2297 46.0226 66.5031Z" fill="#F2D17E"></path><path d="M247.493 228.566C247.493 228.566 244.611 237.213 235.885 237.044C235.885 237.044 240.353 242.576 240.071 248.574C240.071 248.574 244.982 242.062 250.883 241.187C249.331 239.517 248.211 237.495 247.62 235.295C247.03 233.096 246.986 230.786 247.493 228.566Z" fill="#F2D17E"></path><path d="M267.876 228.566C267.876 228.566 266.226 233.528 261.219 233.431C261.219 233.431 263.779 236.603 263.634 240.047C263.634 240.047 266.459 236.314 269.832 235.808C268.94 234.851 268.295 233.691 267.954 232.429C267.613 231.167 267.587 229.841 267.876 228.566Z" fill="#F2D17E"></path><path d="M262.942 196.45C262.942 196.45 259.287 207.426 248.21 207.209C248.21 207.209 253.845 214.234 253.523 221.846C253.523 221.846 259.762 213.592 267.208 212.476C265.245 210.351 263.831 207.782 263.088 204.989C262.344 202.197 262.294 199.266 262.942 196.45Z" fill="#F2D17E"></path></g><defs><clipPath id="clip0"><rect width="316" height="267" fill="white"></rect></clipPath></defs></svg> 