<?xml version="1.0" encoding="UTF-8"?> <svg xmlns="http://www.w3.org/2000/svg" width="243" height="268" viewBox="0 0 243 268" fill="none"><g clip-path="url(#clip0)"><path fill-rule="evenodd" clip-rule="evenodd" d="M113.658 44C176.418 44 227.317 95.0678 227.317 158.037C227.317 221.007 176.418 272.074 113.658 272.074C50.8981 272.074 0 221.007 0 158.037C0 95.0678 50.8966 44 113.658 44Z" fill="#F0EFEF"></path><path d="M26.4513 163.436C26.6559 161.881 27.2882 160.412 28.2779 159.193C29.2677 157.975 30.5763 157.054 32.0585 156.532C34.6867 155.677 35.9023 157.113 35.9108 157.173C36.0925 161.221 36.5328 165.254 37.2291 169.247C38.3798 175.822 40.0603 182.295 42.2542 188.601C27.2474 176.065 25.8007 167.589 26.4513 163.436ZM38.5903 76.2791C48.1269 61.4282 67.4997 43.7234 105.68 43.7234C137.355 43.7234 162.181 57.0447 175.646 81.2436C189.754 106.656 187.443 136.469 178.095 152.165C177.307 152.09 176.512 152.119 175.732 152.251C178.052 124.856 172.308 102.546 158.979 87.4984C146.66 73.5875 128.64 66.538 105.423 66.538C82.652 66.538 63.9983 74.2283 51.4912 88.8229C38.2907 104.204 32.6577 126.42 35.303 152.054C34.4183 151.913 33.5167 151.913 32.632 152.054C22.4876 128.701 24.859 97.812 38.6245 76.356L38.5903 76.2791ZM81.5306 41.9033C77.9779 38.0924 76.6594 34.4608 76.6594 28.5051C76.6594 15.1496 89.7402 4.28057 105.817 4.28057C121.894 4.28057 134.958 15.1838 134.958 28.5393C134.907 33.5572 133.089 38.3974 129.821 42.211C121.901 40.3346 113.786 39.4052 105.646 39.4425C97.5479 39.4005 89.4714 40.2805 81.5733 42.0657C81.5733 42.0657 81.5734 41.9803 81.4963 41.9375L81.5306 41.9033ZM160.443 109.886C148.372 96.0432 129.864 89.028 105.423 89.028C81.3593 89.028 62.1407 96.7183 49.8647 111.287C45.2253 116.846 41.6869 123.234 39.4378 130.111C40.9787 114.867 46.1494 101.674 54.7357 91.6597C66.4296 78.065 83.9532 70.8788 105.423 70.8788C127.347 70.8788 144.28 77.4412 155.743 90.3866C164.432 100.196 169.663 113.415 171.323 129.325C169.026 122.204 165.327 115.612 160.443 109.937V109.886ZM131.705 236.862C122.391 244.458 113.111 248.645 105.577 248.645C88.9526 248.645 62.6458 228.052 48.8118 194.103C45.4543 185.864 42.9974 177.286 41.4838 168.52C40.876 165.008 40.251 157.036 40.2082 156.746C39.5062 139.87 43.9578 125.01 53.169 114.098C64.5975 100.538 82.6691 93.3687 105.389 93.3687C128.503 93.3687 145.932 99.8884 157.147 112.748C168.584 125.865 172.907 145.176 169.637 168.589C168.879 173.951 167.699 179.245 166.11 184.422C165.942 184.968 165.998 185.559 166.266 186.063C166.534 186.568 166.992 186.946 167.54 187.114C168.087 187.281 168.678 187.225 169.184 186.958C169.69 186.69 170.068 186.233 170.236 185.687C171.898 180.293 173.127 174.776 173.909 169.187C174.405 165.641 175.09 157.13 175.133 156.754C175.184 156.053 180.107 156.335 182.675 158.967C184.695 161.026 190.097 168.93 174.756 184.063C174.35 184.466 174.12 185.012 174.118 185.584C174.115 186.155 174.34 186.704 174.743 187.109C175.146 187.515 175.694 187.744 176.267 187.747C176.839 187.749 177.389 187.525 177.795 187.122C195.969 169.178 188.488 158.728 185.765 155.951C184.769 154.919 183.612 154.054 182.341 153.387C192.083 136.093 194.18 105.767 179.413 79.1501C169.577 61.4368 154.031 49.2433 134.358 43.3816C137.535 39.0684 139.256 33.8586 139.272 28.5051C139.272 12.7656 124.257 -0.0345459 105.8 -0.0345459C87.3432 -0.0345459 72.3279 12.7827 72.3279 28.5051C72.3279 34.7855 73.6547 39.0921 76.9591 43.2278C55.138 49.5082 42.2799 62.5134 34.9349 73.9891C20.4931 96.5047 17.9591 128.881 28.5058 153.456C26.8068 154.425 25.352 155.768 24.2526 157.384C23.1532 158.999 22.4382 160.845 22.1624 162.778C21.0923 169.614 24.2597 180.962 45.2761 196.462C59.3327 229.735 85.7423 252.951 105.577 252.951C114.138 252.951 124.351 248.423 134.435 240.203C134.655 240.024 134.838 239.803 134.972 239.554C135.106 239.305 135.19 239.031 135.219 238.75C135.247 238.468 135.22 238.183 135.139 237.912C135.057 237.641 134.923 237.389 134.744 237.169C134.564 236.95 134.343 236.768 134.094 236.634C133.844 236.499 133.57 236.416 133.288 236.387C133.006 236.359 132.721 236.386 132.449 236.467C132.177 236.549 131.924 236.683 131.705 236.862Z" fill="#6BC4C7"></path><path d="M122.365 222.481C122.566 222.281 122.726 222.043 122.835 221.781C122.944 221.52 123 221.239 123 220.956C123 220.672 122.944 220.392 122.835 220.13C122.726 219.868 122.566 219.631 122.365 219.431C120.174 217.243 115.517 213.389 111.955 212.877C110.115 212.595 108.437 213.851 106.956 214.944C106.588 215.218 106.151 215.534 105.817 215.799C105.586 215.637 105.304 215.406 105.09 215.235C103.866 214.244 102.188 212.894 99.8935 212.894C96.4693 212.894 90.3912 217.85 88.6106 219.362C88.1747 219.733 87.904 220.261 87.8582 220.831C87.8125 221.4 87.9953 221.965 88.3665 222.4C88.7377 222.835 89.2669 223.105 89.8377 223.151C90.4084 223.196 90.9739 223.014 91.4098 222.643C94.834 219.755 98.755 217.217 99.8935 217.209C100.664 217.209 101.537 217.909 102.376 218.585C103.523 219.507 105.081 220.772 106.973 220.037C107.894 219.623 108.757 219.092 109.541 218.456C110.141 218.012 111.151 217.269 111.348 217.183C113.06 217.431 116.578 219.747 119.335 222.524C119.534 222.725 119.771 222.885 120.033 222.994C120.294 223.104 120.575 223.16 120.859 223.16C121.142 223.16 121.423 223.104 121.684 222.994C121.946 222.885 122.183 222.725 122.382 222.524L122.365 222.481Z" fill="#6BC4C7"></path><path d="M112.015 222.763C110.063 224.959 107.983 226.07 105.826 226.096H105.766C101.965 226.096 98.8577 222.797 98.8149 222.746C98.4289 222.323 97.8905 222.071 97.3182 222.045C96.7459 222.018 96.1865 222.22 95.763 222.605C95.3396 222.99 95.0867 223.528 95.0602 224.099C95.0337 224.67 95.2358 225.229 95.6218 225.651C95.8015 225.848 100.013 230.411 105.766 230.411H105.826C109.25 230.411 112.435 228.787 115.243 225.643C115.583 225.21 115.745 224.664 115.696 224.117C115.647 223.569 115.391 223.06 114.98 222.695C114.568 222.329 114.033 222.133 113.482 222.147C112.931 222.162 112.407 222.385 112.015 222.772V222.763Z" fill="#6BC4C7"></path><path d="M113.667 198.188C113.938 198.092 114.188 197.944 114.4 197.75C114.613 197.557 114.784 197.324 114.905 197.063C115.026 196.803 115.094 196.521 115.104 196.234C115.114 195.947 115.066 195.662 114.964 195.393C114.862 195.125 114.707 194.88 114.509 194.672C114.311 194.465 114.073 194.299 113.809 194.184C113.545 194.069 113.262 194.009 112.974 194.005C112.687 194.002 112.402 194.055 112.135 194.164C105.946 196.505 98.7036 194.164 98.6351 194.164C98.1005 194.014 97.5288 194.075 97.0382 194.335C96.5475 194.594 96.1753 195.031 95.9984 195.557C95.8215 196.082 95.8534 196.655 96.0876 197.157C96.3218 197.66 96.7403 198.053 97.2568 198.257C99.6966 199.111 107.127 200.709 113.667 198.257V198.188Z" fill="#6BC4C7"></path><path d="M52.3305 172.075C53.4397 172.512 54.6225 172.732 55.8148 172.725C59.3675 172.725 62.6633 170.922 64.3754 169.777C67.0425 171.314 70.054 172.157 73.133 172.229H73.2442C79.4078 172.229 85.1522 168.674 90.3057 161.659C90.4743 161.431 90.5963 161.173 90.6648 160.898C90.7332 160.623 90.7468 160.337 90.7047 160.057C90.6626 159.777 90.5655 159.508 90.4192 159.265C90.2729 159.023 90.0802 158.811 89.852 158.643C89.6238 158.475 89.3645 158.353 89.0891 158.284C88.8138 158.216 88.5277 158.203 88.2471 158.245C87.9665 158.287 87.6968 158.383 87.4537 158.529C87.2106 158.675 86.9987 158.868 86.83 159.096C82.5497 164.94 77.9525 167.897 73.2356 167.897H73.1844C65.086 167.854 58.751 159.198 58.691 159.113C58.3573 158.648 57.8523 158.335 57.2872 158.242C56.7221 158.149 56.1431 158.284 55.6777 158.617C55.2122 158.95 54.8986 159.454 54.8055 160.018C54.7124 160.583 54.8475 161.16 55.1813 161.625C56.7083 163.651 58.4761 165.484 60.446 167.085C58.6312 168.042 56.1143 168.922 53.9741 168.059C53.7111 167.953 53.4297 167.9 53.1461 167.902C52.8624 167.905 52.5818 167.963 52.3207 168.074C52.0596 168.185 51.8229 168.345 51.6241 168.547C51.4253 168.749 51.2683 168.989 51.162 169.251C51.0558 169.514 51.0023 169.795 51.0048 170.078C51.0074 170.361 51.0658 170.641 51.1766 170.902C51.2875 171.162 51.4489 171.398 51.6513 171.597C51.8537 171.795 52.0932 171.952 52.3562 172.058L52.3305 172.075Z" fill="#6BC4C7"></path><path d="M156.514 168.076C154.339 168.931 151.668 167.991 149.725 166.931C151.474 165.337 153.057 163.571 154.45 161.659C154.791 161.198 154.934 160.621 154.848 160.054C154.762 159.488 154.455 158.978 153.993 158.639C153.531 158.299 152.952 158.156 152.384 158.242C151.817 158.327 151.307 158.635 150.966 159.096C146.686 164.94 142.097 167.897 137.381 167.897H137.321C129.222 167.854 122.896 159.198 122.827 159.113C122.494 158.648 121.989 158.335 121.424 158.242C120.858 158.149 120.28 158.284 119.814 158.617C119.349 158.95 119.035 159.454 118.942 160.018C118.849 160.583 118.984 161.16 119.317 161.625C119.626 162.052 126.962 172.144 137.295 172.212H137.406C140.465 172.184 143.456 171.314 146.052 169.7C147.765 170.845 151.06 172.708 154.664 172.708C155.859 172.714 157.045 172.494 158.157 172.058C158.689 171.844 159.113 171.428 159.337 170.902C159.561 170.375 159.566 169.781 159.352 169.251C159.137 168.721 158.72 168.297 158.193 168.074C157.665 167.85 157.07 167.845 156.539 168.059L156.514 168.076Z" fill="#6BC4C7"></path><path d="M146.087 142.929C151.54 143.578 158.928 147.979 159.013 148.056C159.504 148.35 160.091 148.438 160.647 148.301C161.202 148.163 161.68 147.81 161.975 147.321C162.271 146.831 162.359 146.245 162.221 145.69C162.083 145.136 161.73 144.659 161.239 144.364C160.905 144.159 152.978 139.443 146.6 138.682C140.48 137.964 120.704 141.528 118.47 141.938C117.902 142.042 117.4 142.367 117.072 142.841C116.745 143.316 116.619 143.9 116.724 144.467C116.828 145.033 117.154 145.535 117.629 145.862C118.104 146.189 118.69 146.314 119.258 146.21C125.139 145.125 141.438 142.416 146.087 142.997V142.929Z" fill="#6BC4C7"></path><path d="M64.3667 142.929C69.0151 142.356 85.3059 145.057 91.1957 146.142C91.7633 146.245 92.3487 146.119 92.8231 145.791C93.2975 145.463 93.6221 144.961 93.7254 144.394C93.8287 143.828 93.7024 143.244 93.3741 142.77C93.0458 142.296 92.5424 141.973 91.9748 141.869C89.749 141.459 70.0081 137.888 63.853 138.614C57.4753 139.374 49.5482 144.091 49.2144 144.296C48.9609 144.436 48.7381 144.625 48.5596 144.853C48.381 145.081 48.2502 145.342 48.175 145.621C48.0997 145.9 48.0815 146.192 48.1215 146.478C48.1615 146.764 48.2589 147.04 48.4078 147.288C48.5568 147.536 48.7543 147.751 48.9884 147.921C49.2226 148.092 49.4888 148.213 49.7709 148.278C50.0531 148.343 50.3455 148.351 50.6308 148.301C50.9161 148.252 51.1884 148.145 51.4314 147.987C51.5085 147.945 58.8964 143.544 64.3667 142.861V142.929Z" fill="#6BC4C7"></path><path d="M150.701 209.245C150.649 204.171 152.141 199.201 154.981 194.992C155.303 194.519 155.422 193.937 155.314 193.376C155.205 192.814 154.878 192.318 154.404 191.997C153.929 191.677 153.346 191.557 152.784 191.666C152.221 191.774 151.724 192.101 151.403 192.574C148.075 197.505 146.314 203.322 146.349 209.267C146.384 215.212 148.214 221.008 151.6 225.899C151.926 226.369 152.425 226.691 152.989 226.794C153.552 226.896 154.134 226.771 154.605 226.446C155.076 226.121 155.398 225.622 155.501 225.06C155.604 224.497 155.478 223.917 155.153 223.447C152.258 219.276 150.694 214.328 150.667 209.254L150.701 209.245Z" fill="#6BC4C7"></path><path d="M139.17 208.724C139.121 200.026 142.074 191.578 147.533 184.798C147.711 184.578 147.843 184.325 147.923 184.053C148.002 183.782 148.028 183.497 147.997 183.216C147.967 182.934 147.881 182.662 147.745 182.414C147.609 182.166 147.425 181.947 147.204 181.769C146.983 181.592 146.729 181.46 146.457 181.38C146.185 181.301 145.9 181.276 145.618 181.306C145.336 181.337 145.063 181.423 144.815 181.558C144.566 181.694 144.347 181.878 144.169 182.098C138.087 189.638 134.797 199.041 134.855 208.72C134.912 218.4 138.314 227.763 144.486 235.23C144.851 235.671 145.377 235.948 145.948 236.002C146.519 236.056 147.088 235.881 147.529 235.516C147.971 235.151 148.249 234.626 148.303 234.057C148.357 233.487 148.181 232.919 147.816 232.478C142.283 225.775 139.229 217.375 139.17 208.69V208.724Z" fill="#6BC4C7"></path><path d="M214.486 220.798H184.61C183.636 220.803 182.696 220.442 181.977 219.787C181.258 219.131 180.814 218.229 180.732 217.26C180.732 217.158 180.732 200.265 180.732 200.171C180.814 199.202 181.258 198.3 181.977 197.644C182.696 196.988 183.636 196.627 184.61 196.633H214.512C215.543 196.633 216.532 197.042 217.26 197.769C217.989 198.497 218.399 199.483 218.399 200.512V216.961C218.399 217.99 217.989 218.977 217.26 219.704C216.532 220.432 215.543 220.84 214.512 220.84L214.486 220.798ZM176.383 215.295H168.618C166.05 215.295 163.859 212.279 163.859 208.698C163.859 205.118 166.067 202.085 168.618 202.085H176.383V215.295ZM287.834 216.201H274.882C271.445 216.203 268.15 217.567 265.72 219.992C263.29 222.418 261.923 225.707 261.921 229.137V251.166C261.921 253.691 260.916 256.112 259.128 257.897C257.339 259.682 254.914 260.685 252.384 260.685C249.855 260.685 247.429 259.682 245.641 257.897C243.853 256.112 242.848 253.691 242.848 251.166V223.942C242.841 219.328 241.002 214.905 237.733 211.642C234.464 208.379 230.033 206.543 225.41 206.536H222.696V200.47C222.694 198.297 221.828 196.214 220.289 194.678C218.75 193.141 216.663 192.277 214.486 192.275H184.61C182.911 192.278 181.256 192.809 179.875 193.796C178.494 194.782 177.456 196.174 176.905 197.778H168.67C164.389 197.778 159.587 201.794 159.587 208.698C159.587 214.68 163.662 219.61 168.67 219.61H176.905C177.455 221.213 178.493 222.605 179.875 223.59C181.256 224.575 182.912 225.105 184.61 225.104H214.512C216.687 225.102 218.773 224.239 220.312 222.705C221.85 221.17 222.717 219.09 222.722 216.918V210.852H225.435C228.911 210.858 232.242 212.24 234.699 214.694C237.155 217.147 238.537 220.473 238.542 223.942V251.166C238.496 253.011 238.82 254.847 239.496 256.565C240.172 258.283 241.185 259.848 242.476 261.17C243.767 262.491 245.31 263.541 247.014 264.258C248.718 264.974 250.548 265.344 252.397 265.344C254.246 265.344 256.077 264.974 257.781 264.258C259.484 263.541 261.027 262.491 262.319 261.17C263.61 259.848 264.623 258.283 265.299 256.565C265.974 254.847 266.299 253.011 266.253 251.166V229.137C266.253 226.851 267.163 224.658 268.783 223.041C270.402 221.424 272.6 220.516 274.89 220.516H287.843C288.152 220.564 288.467 220.544 288.768 220.459C289.068 220.374 289.347 220.224 289.584 220.021C289.822 219.818 290.012 219.567 290.143 219.283C290.273 219 290.341 218.691 290.341 218.38C290.341 218.068 290.273 217.759 290.143 217.476C290.012 217.193 289.822 216.941 289.584 216.738C289.347 216.535 289.068 216.386 288.768 216.3C288.467 216.215 288.152 216.195 287.843 216.243L287.834 216.201Z" fill="#6BC4C7"></path></g><defs><clipPath id="clip0"><rect width="243" height="268" fill="white"></rect></clipPath></defs></svg> 