<?xml version="1.0" encoding="UTF-8"?> <svg xmlns="http://www.w3.org/2000/svg" width="243" height="268" viewBox="0 0 243 268" fill="none"><g clip-path="url(#clip0)"><path fill-rule="evenodd" clip-rule="evenodd" d="M121.5 39.9255C184.26 39.9255 235.158 90.9934 235.158 153.963C235.158 216.932 184.26 268 121.5 268C58.7398 268 7.84167 216.932 7.84167 153.963C7.84167 90.9934 58.7382 39.9255 121.5 39.9255Z" fill="#F0EFEF"></path><path fill-rule="evenodd" clip-rule="evenodd" d="M105.627 203.531C88.3346 189.567 75.2928 179.549 68.9192 179.052C62.3387 178.541 62.2933 181.784 65.6368 184.348L70.2337 187.875C80.5744 187.154 96.6902 199.049 104.562 205.108L105.627 203.531ZM77.5819 180.474C79.6187 180.146 82.1882 180.641 84.2688 181.927C92.1654 186.819 101.729 194.846 110.16 201.22C109.36 201.731 108.59 202.288 107.855 202.89L106.808 202.047C101.536 197.785 87.8144 186.23 77.5959 180.479L77.5819 180.474ZM87.3444 181.631C88.9723 180.801 91.841 181.213 94.0987 182.773C97.5676 185.165 101.195 187.754 104.966 190.285C108.98 192.98 113.16 195.607 117.5 197.862C115.582 198.462 113.723 199.238 111.946 200.179C103.853 194.11 95.8426 187.182 87.3522 181.636L87.3444 181.631ZM243 188.911C231.343 185.675 215.945 174.817 204.072 171.358C185.584 165.971 172.874 172.531 159.389 189.425C156.307 193.286 153.031 197.237 146.966 197.273C130.561 197.37 115.897 197.474 107.694 205.612C104.914 208.37 103.634 211.786 107.617 211.831C116.311 212.015 124.41 214.494 133.1 214.678C145.143 214.936 151.709 214.75 164.593 212.889C160.152 215.069 146.239 216.198 142.535 216.505C131.603 217.429 119.468 214.874 108.283 213.945C103.543 213.551 100.67 212.296 103.67 206.834C91.4603 197.419 77.7542 188.613 69.5631 189.864C66.0379 190.405 65.571 193.112 68.4397 195.514C76.8502 202.558 86.5971 209.558 94.0894 216.728C97.9107 220.381 100.345 222.329 105.469 223.465C118.735 226.408 128.45 230.789 141.545 234.523C146.227 235.856 150.067 236.232 154.079 234.191C168.986 227.839 183.428 220.383 198.09 216.354C207.32 213.817 218.493 224.418 226.837 231.085C222.294 221.771 209.858 205.788 199.036 209.234C182.983 214.337 166.396 226.054 150.454 232.168C143.217 234.946 115.007 221.386 106.356 219.466C101.995 218.5 100.089 216.803 96.9142 213.766C89.4705 206.642 79.0734 201.102 71.0876 194.567C76.2736 190.027 93.0036 201.629 99.5339 206.515C98.9808 209.075 98.8821 211.128 100.145 213.046C102.014 215.887 105.513 216.558 108.651 216.819C120.159 217.776 131.349 220.482 142.883 219.504C144.525 219.366 163.916 217.775 173.655 208.612C164.065 212.227 148.19 213.288 133.45 212.237C124.605 211.608 121.016 209.663 114.589 208.865C116.156 200.522 136.785 200.013 146.987 200.043C153.739 200.062 159.64 198.37 163.654 193.341C172.246 182.579 182.792 177.431 194.861 177.206C211.267 176.903 227.066 189.935 243 188.911Z" fill="#6BC4C7"></path><path fill-rule="evenodd" clip-rule="evenodd" d="M164.147 149.879C161.523 147.959 156.47 145.34 150.496 147.741C147.406 148.984 143.983 150.023 140.842 150.845C143.16 152.477 145.602 153.576 148.138 153.856C150.507 154.118 152.754 153.82 155.032 153.177C158.344 152.234 161.181 150.952 164.141 149.876L164.147 149.879ZM147.648 146.601C146.394 144.9 144.636 143.372 142.366 143.506C140.547 143.616 137.425 144.042 134.199 144.539C135.606 146.233 137.148 147.81 138.81 149.255C141.801 148.523 144.753 147.638 147.654 146.604L147.648 146.601ZM111.211 111.271C121.917 127.998 132.311 154.186 147.905 155.915C156.954 156.918 163.16 150.682 172.772 149.998C180.691 158.948 178.333 171.775 166.96 174.05C153.351 176.774 148.596 182.804 136.765 188.383C114.083 199.56 107.856 181.226 96.5992 171.739C82.3776 159.751 54.1851 156.319 32.3615 150.811C14.3922 146.274 14.5552 133.128 18.5896 116.834C21.1121 106.65 25.4427 98.5657 22.4877 88.0537C19.243 76.5106 5.82044 67.0251 -0.00952148 59.7688C8.87094 64.4581 29.6025 78.0354 31.9228 86.3607C35.3337 98.6348 30.9201 106.853 28.0733 118.34C25.6182 128.268 20.0373 144.848 33.1653 148.162C48.6434 152.068 70.6535 153.178 87.2362 159.48C96.2153 162.892 102.45 165.375 108.668 172.482C116.897 181.892 121.492 186.495 134.269 180.257C144.782 175.123 155.514 172.619 167.218 170.162C174.168 168.703 173.879 158.058 170.463 153.413C160.834 156.263 153.188 158.536 146.893 157.982C126.329 156.173 117.838 138.505 103.675 116.372C91.0716 96.6777 74.2194 80.2896 62.6253 59.6572C51.5357 39.8862 46.2604 15.9212 43.0783 0C55.3696 28.4751 59.039 36.5049 69.5865 55.5354C80.8061 75.7796 98.7472 91.7982 111.217 111.274L111.211 111.271Z" fill="#6BC4C7"></path></g><defs><clipPath id="clip0"><rect width="243" height="268" fill="white"></rect></clipPath></defs></svg> 