<?xml version="1.0" encoding="UTF-8"?> <svg xmlns="http://www.w3.org/2000/svg" width="13" height="12" viewBox="0 0 13 12" fill="none"><path d="M12.8537 10.3128C13.2703 11.0627 12.7474 12 11.9153 12H1.08456C0.250911 12 -0.269585 11.0612 0.146189 10.3128L5.56164 0.562149C5.97842 -0.188062 7.02233 -0.186703 7.43837 0.562149L12.8537 10.3128ZM6.5 8.29688C5.92663 8.29688 5.46181 8.77957 5.46181 9.375C5.46181 9.97043 5.92663 10.4531 6.5 10.4531C7.07338 10.4531 7.5382 9.97043 7.5382 9.375C7.5382 8.77957 7.07338 8.29688 6.5 8.29688ZM5.51433 4.42158L5.68175 7.60908C5.68958 7.75823 5.80834 7.875 5.95218 7.875H7.04783C7.19167 7.875 7.31043 7.75823 7.31826 7.60908L7.48568 4.42158C7.49414 4.26047 7.37062 4.125 7.21525 4.125H5.78473C5.62937 4.125 5.50587 4.26047 5.51433 4.42158Z" fill="#FF0000"></path></svg> 