<?xml version="1.0" encoding="UTF-8"?> <svg xmlns="http://www.w3.org/2000/svg" width="97" height="83" viewBox="0 0 97 83" fill="none"><g clip-path="url(#clip0)"><path d="M72.1575 33.9074L55.6946 11.5932C53.9383 9.23199 59.1226 5.46687 60.8366 7.78551L77.2784 30.0785C79.0347 32.4822 73.8715 36.2686 72.1575 33.9074Z" stroke="#3F4447" stroke-width="0.9" stroke-linecap="round" stroke-linejoin="round"></path><path d="M76.051 28.4407L62.0639 9.50866C61.1963 8.31743 62.0639 6.99857 62.995 6.19024C63.926 5.38191 65.767 4.40341 66.9308 5.40319C67.0278 5.48996 67.1196 5.58227 67.2059 5.6797C67.2059 5.6797 81.1296 24.5692 81.1719 24.6117C82.8859 26.9517 77.765 30.7806 76.051 28.4407Z" stroke="#3F4447" stroke-width="0.9" stroke-linecap="round" stroke-linejoin="round"></path><path d="M48.6481 34.4179L48.4366 34.1414C47.3218 32.4322 46.6675 30.4614 46.5376 28.4218C46.4078 26.3822 46.8069 24.3437 47.6959 22.5056V22.5056" stroke="#3F4447" stroke-width="0.9" stroke-linecap="round" stroke-linejoin="round"></path><path d="M57.8106 36.5026L46.9765 21.3782C45.2413 19.0383 50.341 15.1668 52.0973 17.5493L65.1957 35.3113" stroke="#3F4447" stroke-width="0.9" stroke-linecap="round" stroke-linejoin="round"></path><path d="M48.7963 34.6094C50.2733 36.5315 52.3799 37.8654 54.7424 38.3745" stroke="#3F4447" stroke-width="0.9" stroke-linecap="round" stroke-linejoin="round"></path><path d="M63.9261 33.5672L50.6584 15.5712C49.4099 13.8907 51.8857 11.721 53.2823 11.3168C53.6968 11.1319 54.1573 11.0777 54.6031 11.1612C55.0488 11.2448 55.4589 11.4622 55.7793 11.7848L72.0729 33.8863C73.0251 35.1626 72.0729 36.4815 71.0149 37.3536L70.6552 37.694C69.9278 38.3447 69.4056 39.195 69.1527 40.1402C69.0725 40.4393 69.0229 40.7458 69.0046 41.0549C69.0046 45.8837 72.3903 47.7981 72.5807 52.3929C72.6106 53.4831 72.3323 54.5596 71.7779 55.4971C71.2236 56.4347 70.416 57.1949 69.449 57.6896C68.4731 58.1574 67.3841 58.334 66.3114 58.1982C65.2387 58.0625 64.2272 57.6202 63.3971 56.9238C62.9331 56.5392 62.5454 56.0701 62.2544 55.5411C61.7806 54.5287 61.5708 53.4117 61.6449 52.2953C61.7189 51.1789 62.0743 50.0998 62.6776 49.1595C63.6298 47.0323 64.6032 44.9051 63.0797 42.778C62.6172 42.1548 61.9752 41.6899 61.2407 41.4463C60.5063 41.2027 59.715 41.1924 58.9745 41.4166C58.3806 41.6219 57.8685 42.0143 57.514 42.5354C57.1594 43.0566 56.9815 43.6787 57.0066 44.3095C57.0066 45.6284 57.7049 46.8196 57.7049 48.1385C57.7182 48.7375 57.5842 49.3305 57.3148 49.8649C57.0453 50.3992 56.6487 50.8584 56.1602 51.2017C55.3558 51.7357 54.4057 52.0042 53.4423 51.9699C52.4789 51.9356 51.5502 51.6001 50.7854 51.0102C50.0468 50.3319 49.5928 49.3964 49.5157 48.3937C49.5925 46.6673 50.1903 45.0053 51.2297 43.6288C51.8548 42.5803 52.1672 41.3734 52.1297 40.1516C52.0921 38.9298 51.7063 37.7445 51.0181 36.7367" stroke="#3F4447" stroke-width="0.9" stroke-linecap="round" stroke-linejoin="round"></path><path d="M80.6218 23.8883L67.735 6.42411C69.6078 5.99137 71.5625 6.07954 73.3892 6.67917C75.216 7.27879 76.8458 8.36721 78.1037 9.8276L80.3255 12.8482C81.3536 14.4836 81.9186 16.3698 81.9596 18.3038C82.0007 20.2379 81.5162 22.1467 80.5583 23.8245L80.6218 23.8883Z" stroke="#3F4447" stroke-width="0.9" stroke-linecap="round" stroke-linejoin="round"></path><path d="M77.0245 8.42372L86.7583 0.957275" stroke="#3F4447" stroke-width="0.9" stroke-linecap="round" stroke-linejoin="round"></path><path d="M81.5317 14.5501L91.8369 6.67944" stroke="#3F4447" stroke-width="0.9" stroke-linecap="round" stroke-linejoin="round"></path><path d="M40.988 24.5691H5.33249C4.17078 24.5691 3.05664 25.033 2.23519 25.8588C1.41373 26.6846 0.952271 27.8045 0.952271 28.9724V33.3757H42.5116" stroke="#3F4447" stroke-width="0.9" stroke-linecap="round" stroke-linejoin="round"></path><path d="M83.0975 33.3757H96.0266V28.9724C96.0294 28.3934 95.9181 27.8195 95.6989 27.284C95.4798 26.7485 95.1573 26.262 94.75 25.8525C94.3427 25.4431 93.8587 25.1189 93.326 24.8986C92.7933 24.6783 92.2224 24.5663 91.6464 24.5691H85.6368" stroke="#3F4447" stroke-width="0.9" stroke-linecap="round" stroke-linejoin="round"></path><path d="M71.6285 71.3462V79.6635C71.6285 79.9586 71.5704 80.2508 71.4574 80.5232C71.3444 80.7956 71.1788 81.0428 70.9703 81.2504C70.7617 81.4581 70.5143 81.6222 70.2423 81.7332C69.9702 81.8442 69.679 81.8999 69.3855 81.897H28.0378C27.7508 81.8974 27.4666 81.8391 27.2028 81.7256C26.9389 81.6121 26.7007 81.4458 26.5028 81.2369C26.3048 81.0279 26.1513 80.7807 26.0514 80.5102C25.9515 80.2397 25.9074 79.9517 25.9217 79.6635V71.3462" stroke="#3F4447" stroke-width="0.9" stroke-linecap="round" stroke-linejoin="round"></path><path d="M92.8948 33.3757C92.9024 41.0099 90.9487 48.5167 87.2229 55.1689C83.4971 61.8212 78.1255 67.3935 71.6285 71.3461H43.76" stroke="#3F4447" stroke-width="0.9" stroke-linecap="round" stroke-linejoin="round"></path><path d="M4.54946 33.3757C4.54189 41.0099 6.49563 48.5167 10.2214 55.1689C13.9472 61.8212 19.3188 67.3935 25.8158 71.3461H32.9046" stroke="#3F4447" stroke-width="0.9" stroke-linecap="round" stroke-linejoin="round"></path></g><defs><clipPath id="clip0"><rect width="97" height="82.8542" fill="white"></rect></clipPath></defs></svg> 