<?xml version="1.0" encoding="UTF-8"?> <svg xmlns="http://www.w3.org/2000/svg" width="769" height="484" viewBox="0 0 769 484" fill="none"><path d="M-33.3118 481.866C133.854 482.237 154.911 490.749 167.263 471.376C133.496 471.376 118.328 474.375 94.4617 464.959C101.762 459.967 114.195 452.658 122.691 451.786C131.186 450.915 147.989 460.683 155.107 455.164C170.91 443.046 159.463 410.899 157.808 393.695C155.222 367.35 147.003 343.033 152.405 315.642C157.997 287.271 138.71 254.524 131.544 226.889C125.939 205.274 129.086 162.61 149.583 144.946C166.736 130.166 190.211 139.461 208.094 147.141C222.904 153.504 236.255 163.765 252.362 163.353C261.513 163.117 276.181 158.017 284.778 160.651C308.874 168.034 275.674 195.695 273.297 213.967C270.083 238.71 271.812 264.845 260.466 249.816C230.684 210.374 214.037 164.974 228.165 101.998C231.501 87.1377 245.723 92.778 250.788 78.6941C255.083 110.908 228.05 143.088 287.473 146.162C314.83 147.574 321.915 167.055 316.856 194.736C310.853 227.761 275.175 261.778 300.986 289.669C358.39 351.686 400.449 346.309 397.282 435.163C395.547 483.946 326.115 500.381 310.441 455.839C295.867 486.804 269.806 484.588 247.635 475.3C218.595 463.141 207.114 444.275 207.79 403.827C208.465 363.845 234.85 333.002 222.033 319.35C210.282 306.847 192.439 289.487 182.802 274.68C157.558 235.88 164.433 230.193 144.308 200.883C121.624 167.852 114.458 140.677 156.464 124.668C171.767 118.845 218.636 109.807 209.721 81.6054C205.98 69.7709 232.075 53.1201 233.425 22.7231C234.492 -1.28371 199.139 14.2255 188.178 22.3989C146.983 53.1201 170.396 78.7887 196.957 82.8416C210.754 84.9491 198.369 46.0748 210.012 22.8515C219.953 3.02591 239.51 0.0605161 259.311 0.783289C289.222 1.87758 314.351 20.0144 311.764 35.2332C307.935 57.754 296.009 37.9351 287.675 43.5687C278.281 49.9183 286.554 67.7579 271.555 71.2232C274.331 64.6507 271.697 60.1992 268.09 56.9501C256.387 45.6897 255.934 90.049 266.584 80.5922C260.891 94.0614 251.612 99.9787 266.74 115.143C283.029 131.456 286.777 116.042 295.104 101.391C296.252 96.4527 303.424 98.3981 304.133 95.7772C300.642 81.7338 300.642 81.7338 298.953 75.7625C305.254 74.4115 303.802 68.3321 305.382 65.2992C318.086 23.1757 259.993 -13.0034 231.42 13.5095C194.85 47.4257 236.822 68.6699 208.337 126.931C188.536 167.426 204.649 208.577 219.939 249.829C228.523 272.991 264.511 309.86 271.265 333.59C275.816 349.545 283.103 380.151 292.355 402.489C306.814 437.378 349.489 484.777 386.072 484.075C413.497 483.555 402.28 484.865 768.312 484.075" stroke="black" stroke-opacity="0.1" stroke-linecap="round" stroke-linejoin="round"></path></svg> 