<svg width="12" height="12" viewBox="0 0 12 12" fill="none" xmlns="http://www.w3.org/2000/svg">
<rect width="12" height="12" fill="white" fill-opacity="0.01"/>
<path fill-rule="evenodd" clip-rule="evenodd" d="M0.586129 6.45728L7.04729 0L12 4.94974L5.94613 11H11.9792V12H3.97437V11.9872C3.51309 11.9529 3.06146 11.7595 2.70874 11.407L0.586129 9.28568C-0.195376 8.50464 -0.195376 7.23831 0.586129 6.45728ZM6.97618 1.5L10.4783 5L6.10103 9.41828L3.34317 6.66208L2.63564 7.36919L5.39701 10.1289L4.83133 10.6999C4.44059 11.0904 3.80703 11.0904 3.41626 10.6999L1.29368 8.57858C0.902909 8.18805 0.902909 7.5549 1.29368 7.16437L6.97618 1.5Z" fill="white"/>
</svg>
