<?xml version="1.0" encoding="UTF-8"?>
<svg width="20px" height="20px" viewBox="0 0 20 20" version="1.1" xmlns="http://www.w3.org/2000/svg" xmlns:xlink="http://www.w3.org/1999/xlink">
    <!-- Generator: Sketch 52.4 (67378) - http://www.bohemiancoding.com/sketch -->
    <title>conditions</title>
    <desc>Created with Sketch.</desc>
    <g id="Page-1" stroke="none" stroke-width="1" fill="none" fill-rule="evenodd">
        <g id="conditions" fill="#FFFFFF">
            <path d="M8.5,8.80762939 L8.5,8.50910034 C8.5,8.06808492 8.85751363,7.71057129 9.29852905,7.71057129 L9.7014709,7.71057129 C10.1424864,7.71057129 10.5,8.06808492 10.5,8.50910034 L10.5,8.80762939 C10.5,9.08377177 10.7238576,9.30762939 11,9.30762939 L16.0097351,9.30762939 C16.5620199,9.30762939 17.0097351,9.75534464 17.0097351,10.3076294 L17.0097351,13.3076294 C17.0097351,13.8599141 16.5620199,14.3076294 16.0097351,14.3076294 C15.4574504,14.3076294 15.0097351,13.8599141 15.0097351,13.3076294 L15.0097351,11.8076294 C15.0097351,11.531487 14.7858775,11.3076294 14.5097351,11.3076294 L4.52194214,11.3076294 C4.24579976,11.3076294 4.02194214,11.531487 4.02194214,11.8076294 L4.02194214,12.3076294 C4.02194214,12.8599141 3.57422689,13.3076294 3.02194214,13.3076294 C2.46965739,13.3076294 2.02194214,12.8599141 2.02194214,12.3076294 L2.02194214,10.3076294 C2.02194214,9.75534464 2.46965739,9.30762939 3.02194214,9.30762939 L8,9.30762939 C8.27614237,9.30762939 8.5,9.08377177 8.5,8.80762939 Z" id="Path"></path>
            <path d="M3.35355339,14.3964466 L3.875,13.875 C4.35824916,13.3917508 5.14175084,13.3917508 5.625,13.875 C6.10824916,14.3582492 6.10824916,15.1417508 5.625,15.625 L5.10355339,16.1464466 C4.90829124,16.3417088 4.90829124,16.6582912 5.10355339,16.8535534 L5.625,17.375 C6.10824916,17.8582492 6.10824916,18.6417508 5.625,19.125 C5.14175084,19.6082492 4.35824916,19.6082492 3.875,19.125 L3.35355339,18.6035534 C3.15829124,18.4082912 2.84170876,18.4082912 2.64644661,18.6035534 L2.125,19.125 C1.64175084,19.6082492 0.85824916,19.6082492 0.375,19.125 C-0.108249156,18.6417508 -0.108249156,17.8582492 0.375,17.375 L0.89644661,16.8535534 C1.09170876,16.6582912 1.09170876,16.3417088 0.89644661,16.1464466 L0.375,15.625 C-0.108249156,15.1417508 -0.108249156,14.3582492 0.375,13.875 C0.85824916,13.3917508 1.64175084,13.3917508 2.125,13.875 L2.64644661,14.3964466 C2.84170876,14.5917088 3.15829124,14.5917088 3.35355339,14.3964466 Z" id="Path"></path>
            <path d="M15.7701359,16.1478776 L17.8914562,14.0265573 C18.3470679,13.5709456 19.0857604,13.5709455 19.541372,14.0265572 C19.9969838,14.4821689 19.9969837,15.2208614 19.541372,15.6764731 L16.1236893,19.0941558 C15.733165,19.4846801 15.1,19.4846802 14.7094757,19.0941558 L12.9417088,17.3263889 C12.4860971,16.8707772 12.4860971,16.1320847 12.9417088,15.676473 C13.3973204,15.2208613 14.1360129,15.2208614 14.5916246,15.6764731 L15.0630291,16.1478776 C15.2582913,16.3431398 15.5748738,16.3431397 15.7701359,16.1478776 Z" id="Path"></path>
            <path d="M9.5,7 C7.56700338,7 6,5.43299662 6,3.5 C6,1.56700338 7.56700338,0 9.5,0 C11.4329966,0 13,1.56700338 13,3.5 C13,5.43299662 11.4329966,7 9.5,7 Z M9.5,4.66666667 C10.1443322,4.66666667 10.6666667,4.14433221 10.6666667,3.5 C10.6666667,2.85566779 10.1443322,2.33333333 9.5,2.33333333 C8.85566779,2.33333333 8.33333333,2.85566779 8.33333333,3.5 C8.33333333,4.14433221 8.85566779,4.66666667 9.5,4.66666667 Z" id="Oval" fill-rule="nonzero"></path>
        </g>
    </g>
</svg>