<?xml version="1.0" encoding="UTF-8"?> <svg xmlns="http://www.w3.org/2000/svg" id="Layer_2" data-name="Layer 2" viewBox="0 0 365.41 129.23"><defs><style>.cls-1{fill:#6bc9cb;}.cls-2{fill:#afa333;}</style></defs><title>camden-logo</title><path class="cls-1" d="M144.07,154c-10.68,0-19-7.29-19-20.14,0-10.93,8.28-20.75,18.78-20.75,3.52,0,6,1.67,8.34,3.77a2,2,0,0,0,1.17.62c.87,0,2.1-2.41,2.84-3.83.13-.31.31-.75.62-.75s.56.37.56.75V129.4c0,.68-.06,1-.56,1-.31,0-.31-.87-.49-1.73-.87-4-4-14.83-12.73-14.83S133.57,124.33,133.57,134c0,10.93,3.28,18.78,11.25,18.78,9.08,0,12.54-7.91,13-14.76,0-.38.12-1,.55-1s.56.68.5,1.05C158,146.82,153.77,154,144.07,154Z" transform="translate(-67.29 -73.48)"></path><path class="cls-1" d="M157.27,154a.54.54,0,0,1-.5-.51.52.52,0,0,1,.56-.56c3.86,0,5.81-1.65,8.53-9.6,3.28-9.67,7.32-21.22,10.36-29.68a1.08,1.08,0,0,1,1.07-.76c.44,0,.76.44.88.82L192.32,151c.5,1.45.82,1.9,6.44,1.9a.62.62,0,0,1,.63.56c0,.32-.38.51-.63.51h-21.6a.57.57,0,0,1-.57-.57.51.51,0,0,1,.57-.5c7.64,0,7.9-.76,7.27-2.47l-3.6-9.85c-.19-.63-.64-.82-1.65-.82h-10c-1.14,0-1.39.25-1.52.88,0,0-2.15,5.69-2.15,7.71,0,2.65,2.21,4.55,5.43,4.55.32,0,.7.12.7.5s-.32.57-.76.57Zm15.85-29.24-3.72,10.8c-1,2.84-.76,3.22,0,3.22h9.15c1.14,0,1.58-.38.51-3l-4.42-11c-.13-.44-.38-1.07-.76-1.07S173.25,124.32,173.12,124.76Z" transform="translate(-67.29 -73.48)"></path><path class="cls-1" d="M193.36,113.42c0-.31.32-.5.7-.5H209.3c.83,0,1.08.19,1.27.76,4,11.55,6,16.83,9.46,26.35.19.51.38,1.33.83,1.33s.69-.76.82-1.27c3.11-10.22,6.48-20.76,8.26-26.54a.86.86,0,0,1,.88-.63h15.37c.38,0,.64.19.64.5a.6.6,0,0,1-.64.58c-6.92,0-7.43.57-7.43,2.79v33.27c0,2.22.57,2.86,7.37,2.86.57,0,.7.19.7.51s-.07.57-.7.57H223a.59.59,0,0,1-.63-.57.57.57,0,0,1,.63-.51c6.8,0,7.68-.76,7.75-2.86l.44-34.79-.57-.07s-11.11,35.5-11.81,37.72c-.25.82-.38,1.08-.95,1.08s-.83-.51-1-1.08c-4.51-12.95-8.44-24.26-13.33-38h-.38l.38,28.45c.12,8.13,3.36,9.59,8.06,9.59.19,0,.64.19.64.51a.62.62,0,0,1-.64.57H195.14c-.25,0-.64-.26-.64-.57a.61.61,0,0,1,.58-.51c3.74,0,7-.89,7-9.65V121.68c0-6.16-2.66-7.68-8-7.68C193.87,114,193.36,113.81,193.36,113.42Z" transform="translate(-67.29 -73.48)"></path><path class="cls-1" d="M247.49,154a.57.57,0,0,1-.57-.57.52.52,0,0,1,.57-.51c6.49,0,7.5-.95,7.5-2.86V116.83c0-2.16-.76-2.86-7.56-2.86a.54.54,0,1,1,.06-1.08h23c11.5,0,20.72,8.77,20.72,21.1,0,12.51-9,20-20.09,20Zm15.57-37.11v33.17c0,2.29.7,2.86,3,2.86h4.83c9,0,11.95-6.48,11.95-20.27,0-11.82-3.75-18.68-12.46-18.68h-5C263.83,114,263.06,114.54,263.06,116.89Z" transform="translate(-67.29 -73.48)"></path><path class="cls-1" d="M288.52,154a.57.57,0,0,1-.57-.57.52.52,0,0,1,.57-.51c6.48,0,7.5-.95,7.5-2.86V116.84c0-2.16-.76-2.86-7.56-2.86a.52.52,0,0,1-.51-.57.52.52,0,0,1,.57-.51h37.29c.89,0,1.08.26,1.08.83v14.42c0,.25-.13.7-.44.7s-.45-.38-.51-.7c-.83-7.37-4.13-14.17-11-14.17h-8.64c-1.33,0-2.22.7-2.22,2.93v13.53c0,1,.63,1.46,2,1.46,6.87,0,8.2-2.48,9.41-10.42.06-.32.12-.83.5-.83s.45.58.45.89v22.24c0,.19-.19.69-.51.69s-.44-.5-.44-.69c-.51-7.12-1.65-10.93-9.53-10.93-1.08,0-1.84.38-1.84,1.33v15.88c0,2,1,2.86,2.41,2.86h6.92c8.39,0,12.65-5.21,14.36-16.26,0-.19.19-.63.51-.63s.44.31.44.63V153.3c0,.45-.31.7-.82.7Z" transform="translate(-67.29 -73.48)"></path><path class="cls-1" d="M365.67,141.67l.44-.06L365.92,122c0-7.37-3.05-8.07-8.13-8.07-.19,0-.64-.19-.64-.51a.62.62,0,0,1,.64-.57h16.14a.67.67,0,0,1,.63.57c0,.25-.38.51-.63.51-3.75,0-7.12.7-7,8.13l.57,30.19c0,.82.06,2-.83,2.28s-1.39-.95-2-1.71c0,0-16.84-21.42-25.48-31.9h-.38v22.37c0,8,3.75,9.59,8.45,9.59.19,0,.64.19.64.51a.62.62,0,0,1-.64.57H330.53a.67.67,0,0,1-.64-.57.61.61,0,0,1,.57-.51c3.75,0,7.25-.89,7.25-9.66v-21.6c0-4.83-3.18-7.69-7.44-7.69-.25,0-.76-.19-.76-.57s.32-.51.7-.51h11.56c.83,0,1,.12,1.4.57C351,123.05,356.9,130.87,365.67,141.67Z" transform="translate(-67.29 -73.48)"></path><path class="cls-1" d="M67.87,202.71a.57.57,0,0,1-.58-.57.52.52,0,0,1,.58-.51c6.48,0,7.49-.95,7.49-2.86V165.55c0-2.16-.76-2.86-7.56-2.86a.54.54,0,1,1,.07-1.08H92.2c6.67,0,14,3.81,14,10.23,0,5.14-5.59,8.32-10.29,8.45v.38c4.7.19,12.13,3.75,12.13,10.61,0,7.88-8.7,11.43-16.58,11.43Zm30.81-31.19c0-6.61-3.69-8.83-9-8.83-6,0-6.29.25-6.29,2.67v13.53c0,1,.57,1.4,4,1.4C94.61,180.29,98.68,178.57,98.68,171.52Zm-15.25,11v16.2c0,2.42.45,2.86,5.15,2.86,9.59,0,11.43-3.17,11.43-10.54,0-9.15-4.89-9.91-12.58-9.91C84,181.18,83.43,181.62,83.43,182.57Z" transform="translate(-67.29 -73.48)"></path><path class="cls-1" d="M108.7,202.71a.57.57,0,0,1-.58-.57.52.52,0,0,1,.58-.51c6.48,0,7.49-.95,7.49-2.86V165.55c0-2.16-.76-2.86-7.56-2.86a.54.54,0,1,1,.07-1.08H146c.89,0,1.08.25,1.08.82v14.43c0,.25-.13.7-.45.7s-.44-.39-.5-.7c-.83-7.37-4.13-14.17-11-14.17h-8.65c-1.33,0-2.22.7-2.22,2.92v13.53c0,1,.64,1.46,2,1.46,6.86,0,8.2-2.47,9.4-10.41.07-.32.13-.83.51-.83s.45.57.45.89v22.24c0,.19-.19.69-.51.69s-.45-.5-.45-.69c-.5-7.12-1.65-10.93-9.53-10.93-1.08,0-1.84.38-1.84,1.33v15.88c0,2,1,2.86,2.42,2.86h6.92c8.39,0,12.64-5.21,14.36-16.26,0-.19.19-.64.51-.64s.44.32.44.64V202c0,.45-.32.7-.82.7Z" transform="translate(-67.29 -73.48)"></path><path class="cls-1" d="M148.26,202.71a.55.55,0,0,1-.51-.5.53.53,0,0,1,.57-.57c3.86,0,5.82-1.65,8.54-9.62,3.29-9.68,7.34-21.26,10.38-29.73a1.1,1.1,0,0,1,1.07-.76c.45,0,.76.44.89.82l14.17,37.39c.51,1.45.82,1.9,6.46,1.9a.62.62,0,0,1,.63.57c0,.31-.38.5-.63.5H168.19a.56.56,0,0,1-.57-.57.51.51,0,0,1,.57-.5c7.65,0,7.91-.76,7.27-2.47l-3.6-9.87c-.19-.63-.64-.82-1.65-.82h-10c-1.14,0-1.4.25-1.52.88,0,0-2.15,5.7-2.15,7.72,0,2.66,2.21,4.56,5.44,4.56.31,0,.69.12.69.5s-.31.57-.76.57Zm15.88-29.29-3.73,10.82c-.95,2.85-.76,3.23,0,3.23h9.17c1.14,0,1.58-.38.51-3l-4.43-11c-.13-.44-.38-1.07-.76-1.07S164.27,173,164.14,173.42Z" transform="translate(-67.29 -73.48)"></path><path class="cls-1" d="M190,188.47v-22.9c0-2.2-.57-2.82-7.28-2.82-.56,0-.69-.19-.69-.51s.06-.56.69-.56h22.9a.58.58,0,0,1,.63.56.57.57,0,0,1-.63.51c-6.71,0-7.65.75-7.65,2.82v22.9c0,8.85,3,12.8,9.28,12.8,8.16,0,12.11-5.83,12-12.49s-.32-12.67-.38-18.69c-.06-5.71-2.7-7.34-8-7.34-.19,0-.63-.19-.63-.51a.62.62,0,0,1,.63-.56H227a.67.67,0,0,1,.63.56.61.61,0,0,1-.57.51c-5,0-7,1.69-7,7.34.06,6.15.25,12.11.25,18.69,0,8.91-6.34,13.93-14.37,13.93C197.35,202.71,190,197.51,190,188.47Z" transform="translate(-67.29 -73.48)"></path><path class="cls-1" d="M228.55,161.68h34.63c1,0,1.4.19,1.4,1.08,0,6.28-.13,10.91-.13,16.49,0,.44-.19.7-.57.7s-.57-.2-.57-.7c0-6-3.62-16.49-9.9-16.49h-2.34c-.64,0-.95.32-.95,1v35c0,2,.76,2.86,8.94,2.86.51,0,.76.19.76.5s-.32.57-.7.57H233.31a.56.56,0,0,1-.57-.57.51.51,0,0,1,.57-.5c7.93,0,8.75-1,8.75-2.86V163.84c0-.76-.44-1.08-1.46-1.08H239c-7.42,0-10,9.57-10,16.3,0,.38-.19.69-.57.69s-.57-.38-.57-.76c0-6-.06-14-.19-16.3A.84.84,0,0,1,228.55,161.68Z" transform="translate(-67.29 -73.48)"></path><path class="cls-1" d="M291.59,184.22v14.4c0,2,1.77,2.84,8.65,2.84.5,0,.76.19.76.51s-.32.57-.7.57H274.47a.57.57,0,0,1-.56-.57.51.51,0,0,1,.56-.51c6.45,0,9.1-.94,9.1-2.84V184.48L272,165.22c-.94-1.84-2-2.47-7.39-2.47-.44,0-.69-.19-.69-.5s.19-.57.69-.57h22.93a.54.54,0,1,1,0,1.07c-4.74,0-7.27-.06-7.27,1.46,0,1.2,5.69,10.35,10.23,17.8.13.19.38.63.7.63s.63-.5.82-.75c2-3.29,4.67-7.71,6.5-10.86a7.38,7.38,0,0,0,1.27-4c0-1.71-.7-4.3-6.19-4.3-.19,0-.63-.19-.63-.5a.62.62,0,0,1,.63-.57h15a.67.67,0,0,1,.63.57.61.61,0,0,1-.57.5c-3.35,0-4.86,1.39-7.51,5.75C295.5,177.85,291.59,184.22,291.59,184.22Z" transform="translate(-67.29 -73.48)"></path><path class="cls-1" d="M325.43,173.05c0-6.74,4.51-11.37,11.86-11.37a10.65,10.65,0,0,1,6.74,1.85c1.48,1,3,2.85,3.71,2.85s2.35-2.35,3.4-3.77c.12-.13.24-.37.49-.37s.43.43.43.68c0,4.88-.37,9.64-.37,14,0,.31-.24,1-.74,1s-.56-.49-.62-.8c-1.73-8-5.56-14.83-13.22-14.83-4,0-8,2.53-8,6.61s4.2,6.49,8.59,7.79c1,.31,5,1.23,6,1.48,7,1.61,11.12,4.76,11.12,11.68,0,8.53-5.43,12.85-12.36,12.85a12.55,12.55,0,0,1-7.72-2.84c-1.36-1.05-2.9-2.84-3.46-2.84-.74,0-2.53,3-3.65,4.76-.12.18-.37.55-.68.49s-.37-.49-.37-.74c.13-5.75.25-10.51.25-16.25,0-.68.06-1.12.56-1.12s.55.81.68,1.24C329.94,193.07,334,202,342.92,202c4.76,0,8-3.27,8-7.66,0-5.87-6.67-8.1-12.05-9.39C332.1,183.31,325.43,181.39,325.43,173.05Z" transform="translate(-67.29 -73.48)"></path><path class="cls-1" d="M375.33,184.55c-1.27,0-1.52.32-1.52,1.33v12.9c0,2.35,1.84,2.85,9.27,2.85.51,0,.76.19.76.51s-.31.57-.7.57H358.25a.57.57,0,0,1-.58-.57.52.52,0,0,1,.58-.51c6.47,0,7.49-.7,7.49-2.85V165.56c0-2.16-.76-2.86-7.56-2.86a.54.54,0,1,1,.07-1.08h23.12c7.55,0,15.43,4.44,15.43,12,0,6.48-7.3,10.93-14.48,10.93Zm-1.52-20.2v18.17c0,1,.57,1,1.46,1h6.86c4.38,0,6.67-3.24,6.67-9.65,0-7.43-2.23-11.18-9-11.18h-3.37C374.25,162.7,373.81,162.89,373.81,164.35Z" transform="translate(-67.29 -73.48)"></path><path class="cls-1" d="M390.7,202.71a.55.55,0,0,1-.51-.5.53.53,0,0,1,.57-.57c3.84,0,5.79-1.63,8.5-9.57,3.28-9.64,7.31-21.16,10.33-29.6a1.11,1.11,0,0,1,1.07-.76c.44,0,.76.44.89.82l14.1,37.22c.51,1.45.82,1.89,6.43,1.89a.62.62,0,0,1,.63.57c0,.31-.38.5-.63.5H410.54a.56.56,0,0,1-.57-.56.52.52,0,0,1,.57-.51c7.62,0,7.87-.75,7.24-2.45l-3.59-9.83c-.19-.63-.63-.82-1.64-.82H402.6c-1.13,0-1.38.25-1.51.88,0,0-2.14,5.67-2.14,7.69,0,2.64,2.2,4.53,5.41,4.53.32,0,.7.13.7.51s-.32.56-.76.56Zm15.81-29.16-3.72,10.77c-.94,2.84-.76,3.22,0,3.22h9.13c1.14,0,1.58-.38.51-3l-4.41-11c-.13-.44-.38-1.07-.76-1.07S406.63,173.11,406.51,173.55Z" transform="translate(-67.29 -73.48)"></path><path class="cls-2" d="M123,105.07v4.82c19.58-11.88,38.83,0,38.83,0v-4.82C141.63,95.45,123,105.07,123,105.07Zm8.82.4a1.32,1.32,0,1,1,1.32-1.32A1.32,1.32,0,0,1,131.84,105.47ZM153,102.83a1.32,1.32,0,1,1-1.32,1.32A1.32,1.32,0,0,1,153,102.83Zm-9.22-.2a1.32,1.32,0,1,1-1.32-1.32A1.33,1.33,0,0,1,143.77,102.63Z" transform="translate(-67.29 -73.48)"></path><path class="cls-2" d="M167.24,86.78c-1.75.3-2.77,1.62-3.15,3.62,0,0-2.36-4.09-5.6-3.62A3.58,3.58,0,0,0,156,88.5c-1,1.62-2.08,4.67,1.92,7.08,0,0-1.94-3.69.45-3.69,3.06,0,3.79,7.16.52,7.93S154.28,98.75,153,96c0,0-5,5.38-6.85.27-1.38-3.81-.34-5.24.84-5.81a1.51,1.51,0,0,1,.58-.15,1.71,1.71,0,0,1,1.86,1.59,3.68,3.68,0,0,1-1.14,3s5.35-2.25,5.35-7.49c0-4-5.25-4.58-7.41-2.94,0,0-1,.61.19-.53,0,0,2.57-2.53-1.35-7.42l-1.86-1.89a1.48,1.48,0,0,1-.4-.72.41.41,0,0,0-.28-.37.38.38,0,0,0-.21,0,.41.41,0,0,0-.28.37,1.33,1.33,0,0,1-.4.72l-1.86,1.89c-3.92,4.89-1.35,7.42-1.35,7.42,1.19,1.14.19.53.19.53-2.16-1.64-7.41-1.06-7.41,2.94,0,5.24,5.35,7.49,5.35,7.49a3.75,3.75,0,0,1-1.14-3,1.91,1.91,0,0,1,.15-.58,1.73,1.73,0,0,1,2.29-.86c1.18.57,2.22,2,.84,5.81-1.85,5.11-6.85-.27-6.85-.27-1.29,2.79-2.5,4.66-5.92,3.86s-2.54-7.93.52-7.93c2.39,0,.45,3.69.45,3.69,4-2.41,2.92-5.46,1.92-7.08a3.56,3.56,0,0,0-2.47-1.72c-3.24-.47-5.6,3.62-5.6,3.62-.38-2-1.4-3.32-3.15-3.62a22.71,22.71,0,0,1-4.28-1.14c5.34,5.71,8.64,15.83,9.34,18.3h.11c.77-.4,19.29-9.57,39.37,0l.1.07c.69-2.43,4-12.6,9.35-18.32A22.25,22.25,0,0,1,167.24,86.78Z" transform="translate(-67.29 -73.48)"></path><path class="cls-2" d="M579.75,167.87" transform="translate(-67.29 -73.48)"></path></svg> 