<svg id="Layer_1" data-name="Layer 1" xmlns="http://www.w3.org/2000/svg" width="18" height="16" viewBox="0 0 18 16"><title>icons</title><path d="M9,.85A7.15,7.15,0,1,0,16.15,8,7.15,7.15,0,0,0,9,.85Zm0,1a6.1,6.1,0,0,1,4.26,1.74,1.26,1.26,0,0,0-.95.8,1.83,1.83,0,0,0,.6,1.91A4.6,4.6,0,0,1,13.51,8l-1.36,3.7L9.86,5.26h1l0-.66H7l0,.58H7.9L9,8,7.45,11.87,5,5.23H6V4.62H3.9A6.12,6.12,0,0,1,9,1.88ZM2.88,8a6.09,6.09,0,0,1,.47-2.35l3.22,8A6.13,6.13,0,0,1,2.88,8Zm4.24,5.82,2-5.2,2.1,5.06a6.06,6.06,0,0,1-4.14.14ZM12,13.34l2.32-5.87a3.4,3.4,0,0,0,.3-1.93A6.1,6.1,0,0,1,12,13.34Z" style="fill:#fff"/></svg>