<svg id="Layer_1" data-name="Layer 1" xmlns="http://www.w3.org/2000/svg" xmlns:xlink="http://www.w3.org/1999/xlink" width="54.96" height="62.81" viewBox="0 0 54.96 62.81"><defs><clipPath id="clip-path"><path d="M58.73,200.8l-.12.52a5.27,5.27,0,0,0-.63.07,5.17,5.17,0,0,0-.58.12.83.83,0,0,0-.47.31,1.46,1.46,0,0,0-.2.46l-1.87,8.1a.76.76,0,0,0,0,.13,1.15,1.15,0,0,0,0,.13.56.56,0,0,0,.08.3.63.63,0,0,0,.28.22,2.68,2.68,0,0,0,.52.13l.59.09-.12.52h-5l.12-.52.63,0a2.42,2.42,0,0,0,.58-.09,1,1,0,0,0,.46-.3,1,1,0,0,0,.21-.46L55,202.35a1.32,1.32,0,0,0,0-.14,1.27,1.27,0,0,0,0-.14.55.55,0,0,0-.07-.27.57.57,0,0,0-.28-.21,3.19,3.19,0,0,0-.57-.18,4.62,4.62,0,0,0-.54-.1l.12-.52Z" style="fill:#6f767d;clip-rule:evenodd"/></clipPath><clipPath id="clip-path-2"><path d="M58.73,223.09l-.12.52a5.27,5.27,0,0,0-.63.07,5.17,5.17,0,0,0-.58.12.83.83,0,0,0-.47.31,1.46,1.46,0,0,0-.2.46l-1.87,8.1a.76.76,0,0,0,0,.13,1.15,1.15,0,0,0,0,.13.56.56,0,0,0,.08.3.63.63,0,0,0,.28.22,2.68,2.68,0,0,0,.52.13l.59.09-.12.52h-5l.12-.52.63,0a2.42,2.42,0,0,0,.58-.09,1,1,0,0,0,.46-.3,1,1,0,0,0,.21-.46L55,224.64a1.32,1.32,0,0,0,0-.14,1.27,1.27,0,0,0,0-.14.55.55,0,0,0-.07-.27.57.57,0,0,0-.28-.21,3.19,3.19,0,0,0-.57-.18,4.62,4.62,0,0,0-.54-.1l.12-.52Z" style="fill:#577e9c;clip-rule:evenodd"/></clipPath><clipPath id="clip-path-3"><path d="M92.87,199.35a4.27,4.27,0,0,0-.64.09,2,2,0,0,0-.69.26,1.1,1.1,0,0,0-.37.74,7.89,7.89,0,0,0-.1,1.38v4.82a3.21,3.21,0,0,1-.38,1.6,3.35,3.35,0,0,1-1,1.12,4.25,4.25,0,0,1-1.3.61,5,5,0,0,1-1.31.18,5.6,5.6,0,0,1-1.78-.26,4,4,0,0,1-1.31-.71,3,3,0,0,1-.79-1,2.82,2.82,0,0,1-.27-1.2v-6.55a1,1,0,0,0-.09-.46.86.86,0,0,0-.36-.34,1.83,1.83,0,0,0-.5-.18,3.91,3.91,0,0,0-.5-.08v-.55h4.62v.55a3.83,3.83,0,0,0-.55.07,3.67,3.67,0,0,0-.49.12.56.56,0,0,0-.36.31,1.24,1.24,0,0,0-.09.48v6.13a4.76,4.76,0,0,0,.1.93,2.44,2.44,0,0,0,.39.91,2.29,2.29,0,0,0,.83.7,3.14,3.14,0,0,0,1.44.27A3.38,3.38,0,0,0,88.8,209a2.4,2.4,0,0,0,.92-.72,2.69,2.69,0,0,0,.45-.88,3.34,3.34,0,0,0,.13-.93v-4.55a6.6,6.6,0,0,0-.12-1.42,1.19,1.19,0,0,0-.37-.72,2.1,2.1,0,0,0-.75-.3,4.82,4.82,0,0,0-.72-.12v-.55h4.53Z" style="fill:#6f767d;clip-rule:evenodd"/></clipPath><clipPath id="clip-path-4"><rect x="80.9" y="212.89" width="12.98" height="1" style="fill:#6f767d"/></clipPath><clipPath id="clip-path-5"><path d="M92.87,221.64a4.27,4.27,0,0,0-.64.09,2,2,0,0,0-.69.26,1.1,1.1,0,0,0-.37.74,7.89,7.89,0,0,0-.1,1.38v4.82a3.21,3.21,0,0,1-.38,1.6,3.35,3.35,0,0,1-1,1.12,4.25,4.25,0,0,1-1.3.61,5,5,0,0,1-1.31.18,5.6,5.6,0,0,1-1.78-.26,4,4,0,0,1-1.31-.71,3,3,0,0,1-.79-1,2.82,2.82,0,0,1-.27-1.2V222.7a1,1,0,0,0-.09-.46.86.86,0,0,0-.36-.34,1.83,1.83,0,0,0-.5-.18,3.91,3.91,0,0,0-.5-.08v-.55h4.62v.55a3.83,3.83,0,0,0-.55.07,3.67,3.67,0,0,0-.49.12.56.56,0,0,0-.36.31,1.24,1.24,0,0,0-.09.48v6.13a4.76,4.76,0,0,0,.1.93,2.44,2.44,0,0,0,.39.91,2.29,2.29,0,0,0,.83.7,3.14,3.14,0,0,0,1.44.27,3.38,3.38,0,0,0,1.44-.27,2.4,2.4,0,0,0,.92-.72,2.69,2.69,0,0,0,.45-.88,3.34,3.34,0,0,0,.13-.93v-4.55a6.6,6.6,0,0,0-.12-1.42,1.19,1.19,0,0,0-.37-.72,2.1,2.1,0,0,0-.75-.3,4.82,4.82,0,0,0-.72-.12v-.55h4.53Z" style="fill:#577e9c;clip-rule:evenodd"/></clipPath><clipPath id="clip-path-6"><rect x="80.9" y="235.17" width="12.98" height="1" style="fill:#577e9c"/></clipPath><clipPath id="clip-path-7"><path d="M123.85,211.23a5.19,5.19,0,0,0,.64-1.61,9.3,9.3,0,0,0,.2-2,9.21,9.21,0,0,0-.22-2.09,5.19,5.19,0,0,0-.65-1.62,3.12,3.12,0,0,0-1.08-1,2.93,2.93,0,0,0-1.48-.37,2.85,2.85,0,0,0-1.59.43,3.34,3.34,0,0,0-1.07,1.15,5.51,5.51,0,0,0-.58,1.61,9.51,9.51,0,0,0-.19,1.94,9.31,9.31,0,0,0,.2,2,5.15,5.15,0,0,0,.64,1.61,3.15,3.15,0,0,0,1.06,1.07,2.91,2.91,0,0,0,1.53.39,2.94,2.94,0,0,0,1.51-.39A3.06,3.06,0,0,0,123.85,211.23Zm1.16-7.86a5.44,5.44,0,0,1,1.15,1.85,6.65,6.65,0,0,1,.41,2.39,6.53,6.53,0,0,1-.42,2.4,5.34,5.34,0,0,1-1.17,1.84A5.08,5.08,0,0,1,123.3,213a5.42,5.42,0,0,1-4.18,0,5,5,0,0,1-1.68-1.21,5.47,5.47,0,0,1-1.11-1.84,6.59,6.59,0,0,1-.4-2.32,6.47,6.47,0,0,1,.42-2.41,5.62,5.62,0,0,1,1.16-1.83,5,5,0,0,1,1.71-1.17,5.36,5.36,0,0,1,4.11,0A5,5,0,0,1,125,203.37Z" style="fill:#6f767d;clip-rule:evenodd"/></clipPath><clipPath id="clip-path-8"><rect x="114.43" y="198.65" width="13.66" height="1" style="fill:#6f767d"/></clipPath><clipPath id="clip-path-9"><path d="M165,206.5a2.59,2.59,0,0,1,.52.86,3.18,3.18,0,0,1,.17,1.08,3.08,3.08,0,0,1-1.09,2.42,3.94,3.94,0,0,1-2.7,1,5,5,0,0,1-1.48-.23,5.73,5.73,0,0,1-1.28-.56l-.34.57h-.62l-.11-3.8h.63a8.36,8.36,0,0,0,.46,1.27,4.44,4.44,0,0,0,.69,1.06,3.14,3.14,0,0,0,.95.73,2.77,2.77,0,0,0,1.26.27A2.85,2.85,0,0,0,163,211a1.65,1.65,0,0,0,.65-.4A1.63,1.63,0,0,0,164,210a2.43,2.43,0,0,0,.12-.8,2.22,2.22,0,0,0-.37-1.24,2.31,2.31,0,0,0-1.12-.87l-1.16-.45q-.66-.25-1.13-.46a3.68,3.68,0,0,1-1.46-1.11,2.87,2.87,0,0,1-.52-1.79,2.73,2.73,0,0,1,.26-1.18,3.07,3.07,0,0,1,.73-1,3.33,3.33,0,0,1,1.07-.64,3.65,3.65,0,0,1,1.29-.23,3.77,3.77,0,0,1,1.37.23,6.52,6.52,0,0,1,1.11.55l.32-.53h.63l.06,3.68h-.63q-.17-.63-.39-1.21a4.28,4.28,0,0,0-.56-1,2.56,2.56,0,0,0-.82-.72,2.41,2.41,0,0,0-1.19-.27,1.81,1.81,0,0,0-1.27.48,1.51,1.51,0,0,0-.52,1.16,2,2,0,0,0,.34,1.19,2.46,2.46,0,0,0,1,.78q.57.27,1.12.47t1.07.43a8,8,0,0,1,.9.46A3.39,3.39,0,0,1,165,206.5Z" style="fill:#6f767d;clip-rule:evenodd"/></clipPath><clipPath id="clip-path-10"><polyline points="158.86 205.53 153.84 205.53 153.84 206.53 169.84 206.53 169.84 205.53 158.86 205.53" style="fill:#6f767d"/></clipPath><clipPath id="clip-path-11"><path d="M165,229.1a2.59,2.59,0,0,1,.52.86,3.18,3.18,0,0,1,.17,1.08,3.08,3.08,0,0,1-1.09,2.42,3.94,3.94,0,0,1-2.7,1,5,5,0,0,1-1.48-.23,5.73,5.73,0,0,1-1.28-.56l-.34.57h-.62l-.11-3.8h.63a8.36,8.36,0,0,0,.46,1.27,4.44,4.44,0,0,0,.69,1.06,3.14,3.14,0,0,0,.95.73,2.77,2.77,0,0,0,1.26.27,2.85,2.85,0,0,0,.94-.14,1.65,1.65,0,0,0,.65-.4,1.63,1.63,0,0,0,.37-.61,2.43,2.43,0,0,0,.12-.8,2.22,2.22,0,0,0-.37-1.24,2.31,2.31,0,0,0-1.12-.87l-1.16-.45q-.66-.25-1.13-.46a3.68,3.68,0,0,1-1.46-1.11,2.87,2.87,0,0,1-.52-1.79,2.73,2.73,0,0,1,.26-1.18,3.07,3.07,0,0,1,.73-1,3.33,3.33,0,0,1,1.07-.64,3.65,3.65,0,0,1,1.29-.23,3.77,3.77,0,0,1,1.37.23,6.52,6.52,0,0,1,1.11.55l.32-.53h.63l.06,3.68h-.63q-.17-.63-.39-1.21a4.28,4.28,0,0,0-.56-1,2.56,2.56,0,0,0-.82-.72,2.41,2.41,0,0,0-1.19-.27,1.81,1.81,0,0,0-1.27.48,1.51,1.51,0,0,0-.52,1.16,2,2,0,0,0,.34,1.19,2.46,2.46,0,0,0,1,.78q.57.27,1.12.47t1.07.43a8,8,0,0,1,.9.46A3.39,3.39,0,0,1,165,229.1Z" style="fill:#577e9c;clip-rule:evenodd"/></clipPath><clipPath id="clip-path-12"><polyline points="158.86 228.13 153.84 228.13 153.84 229.13 169.84 229.13 169.84 228.13 158.86 228.13" style="fill:#577e9c"/></clipPath><clipPath id="clip-path-13"><path d="M123.85,233.83a5.19,5.19,0,0,0,.64-1.61,9.3,9.3,0,0,0,.2-2,9.21,9.21,0,0,0-.22-2.09,5.19,5.19,0,0,0-.65-1.62,3.12,3.12,0,0,0-1.08-1,2.93,2.93,0,0,0-1.48-.37,2.85,2.85,0,0,0-1.59.43,3.34,3.34,0,0,0-1.07,1.15,5.51,5.51,0,0,0-.58,1.61,9.51,9.51,0,0,0-.19,1.94,9.31,9.31,0,0,0,.2,2,5.15,5.15,0,0,0,.64,1.61,3.15,3.15,0,0,0,1.06,1.07,2.91,2.91,0,0,0,1.53.39,2.94,2.94,0,0,0,1.51-.39A3.06,3.06,0,0,0,123.85,233.83ZM125,226a5.44,5.44,0,0,1,1.15,1.85,6.65,6.65,0,0,1,.41,2.39,6.53,6.53,0,0,1-.42,2.4,5.34,5.34,0,0,1-1.17,1.84,5.08,5.08,0,0,1-1.69,1.16,5.42,5.42,0,0,1-4.18,0,5,5,0,0,1-1.68-1.21,5.47,5.47,0,0,1-1.11-1.84,6.59,6.59,0,0,1-.4-2.32,6.47,6.47,0,0,1,.42-2.41,5.62,5.62,0,0,1,1.16-1.83,5,5,0,0,1,1.71-1.17,5.36,5.36,0,0,1,4.11,0A5,5,0,0,1,125,226Z" style="fill:#577e9c;clip-rule:evenodd"/></clipPath><clipPath id="clip-path-14"><rect x="114.43" y="221.25" width="13.66" height="1" style="fill:#577e9c"/></clipPath></defs><title>icons</title><path d="M58.73,200.8l-.12.52a5.27,5.27,0,0,0-.63.07,5.17,5.17,0,0,0-.58.12.83.83,0,0,0-.47.31,1.46,1.46,0,0,0-.2.46l-1.87,8.1a.76.76,0,0,0,0,.13,1.15,1.15,0,0,0,0,.13.56.56,0,0,0,.08.3.63.63,0,0,0,.28.22,2.68,2.68,0,0,0,.52.13l.59.09-.12.52h-5l.12-.52.63,0a2.42,2.42,0,0,0,.58-.09,1,1,0,0,0,.46-.3,1,1,0,0,0,.21-.46L55,202.35a1.32,1.32,0,0,0,0-.14,1.27,1.27,0,0,0,0-.14.55.55,0,0,0-.07-.27.57.57,0,0,0-.28-.21,3.19,3.19,0,0,0-.57-.18,4.62,4.62,0,0,0-.54-.1l.12-.52Z" style="fill:#6f767d;fill-rule:evenodd"/><g style="clip-path:url(#clip-path)"><rect x="1.53" y="-979.11" width="519" height="1315" style="fill:#6f767d"/></g><path d="M58.73,223.09l-.12.52a5.27,5.27,0,0,0-.63.07,5.17,5.17,0,0,0-.58.12.83.83,0,0,0-.47.31,1.46,1.46,0,0,0-.2.46l-1.87,8.1a.76.76,0,0,0,0,.13,1.15,1.15,0,0,0,0,.13.56.56,0,0,0,.08.3.63.63,0,0,0,.28.22,2.68,2.68,0,0,0,.52.13l.59.09-.12.52h-5l.12-.52.63,0a2.42,2.42,0,0,0,.58-.09,1,1,0,0,0,.46-.3,1,1,0,0,0,.21-.46L55,224.64a1.32,1.32,0,0,0,0-.14,1.27,1.27,0,0,0,0-.14.55.55,0,0,0-.07-.27.57.57,0,0,0-.28-.21,3.19,3.19,0,0,0-.57-.18,4.62,4.62,0,0,0-.54-.1l.12-.52Z" style="fill:#577e9c;fill-rule:evenodd"/><g style="clip-path:url(#clip-path-2)"><rect x="1.53" y="-956.83" width="519" height="1315" style="fill:#577e9c"/></g><path d="M92.87,199.35a4.27,4.27,0,0,0-.64.09,2,2,0,0,0-.69.26,1.1,1.1,0,0,0-.37.74,7.89,7.89,0,0,0-.1,1.38v4.82a3.21,3.21,0,0,1-.38,1.6,3.35,3.35,0,0,1-1,1.12,4.25,4.25,0,0,1-1.3.61,5,5,0,0,1-1.31.18,5.6,5.6,0,0,1-1.78-.26,4,4,0,0,1-1.31-.71,3,3,0,0,1-.79-1,2.82,2.82,0,0,1-.27-1.2v-6.55a1,1,0,0,0-.09-.46.86.86,0,0,0-.36-.34,1.83,1.83,0,0,0-.5-.18,3.91,3.91,0,0,0-.5-.08v-.55h4.62v.55a3.83,3.83,0,0,0-.55.07,3.67,3.67,0,0,0-.49.12.56.56,0,0,0-.36.31,1.24,1.24,0,0,0-.09.48v6.13a4.76,4.76,0,0,0,.1.93,2.44,2.44,0,0,0,.39.91,2.29,2.29,0,0,0,.83.7,3.14,3.14,0,0,0,1.44.27A3.38,3.38,0,0,0,88.8,209a2.4,2.4,0,0,0,.92-.72,2.69,2.69,0,0,0,.45-.88,3.34,3.34,0,0,0,.13-.93v-4.55a6.6,6.6,0,0,0-.12-1.42,1.19,1.19,0,0,0-.37-.72,2.1,2.1,0,0,0-.75-.3,4.82,4.82,0,0,0-.72-.12v-.55h4.53Z" style="fill:#6f767d;fill-rule:evenodd"/><g style="clip-path:url(#clip-path-3)"><rect x="-4.1" y="-981.11" width="519" height="1315" style="fill:#6f767d"/></g><rect x="80.9" y="212.89" width="12.98" height="1" style="fill:#6f767d"/><g style="clip-path:url(#clip-path-4)"><rect x="-3.1" y="-981.11" width="519" height="1315" style="fill:#6f767d"/></g><path d="M92.87,221.64a4.27,4.27,0,0,0-.64.09,2,2,0,0,0-.69.26,1.1,1.1,0,0,0-.37.74,7.89,7.89,0,0,0-.1,1.38v4.82a3.21,3.21,0,0,1-.38,1.6,3.35,3.35,0,0,1-1,1.12,4.25,4.25,0,0,1-1.3.61,5,5,0,0,1-1.31.18,5.6,5.6,0,0,1-1.78-.26,4,4,0,0,1-1.31-.71,3,3,0,0,1-.79-1,2.82,2.82,0,0,1-.27-1.2V222.7a1,1,0,0,0-.09-.46.86.86,0,0,0-.36-.34,1.83,1.83,0,0,0-.5-.18,3.91,3.91,0,0,0-.5-.08v-.55h4.62v.55a3.83,3.83,0,0,0-.55.07,3.67,3.67,0,0,0-.49.12.56.56,0,0,0-.36.31,1.24,1.24,0,0,0-.09.48v6.13a4.76,4.76,0,0,0,.1.93,2.44,2.44,0,0,0,.39.91,2.29,2.29,0,0,0,.83.7,3.14,3.14,0,0,0,1.44.27,3.38,3.38,0,0,0,1.44-.27,2.4,2.4,0,0,0,.92-.72,2.69,2.69,0,0,0,.45-.88,3.34,3.34,0,0,0,.13-.93v-4.55a6.6,6.6,0,0,0-.12-1.42,1.19,1.19,0,0,0-.37-.72,2.1,2.1,0,0,0-.75-.3,4.82,4.82,0,0,0-.72-.12v-.55h4.53Z" style="fill:#577e9c;fill-rule:evenodd"/><g style="clip-path:url(#clip-path-5)"><rect x="-4.1" y="-958.83" width="519" height="1315" style="fill:#577e9c"/></g><rect x="80.9" y="235.17" width="12.98" height="1" style="fill:#577e9c"/><g style="clip-path:url(#clip-path-6)"><rect x="-3.1" y="-958.83" width="519" height="1315" style="fill:#577e9c"/></g><path d="M123.85,211.23a5.19,5.19,0,0,0,.64-1.61,9.3,9.3,0,0,0,.2-2,9.21,9.21,0,0,0-.22-2.09,5.19,5.19,0,0,0-.65-1.62,3.12,3.12,0,0,0-1.08-1,2.93,2.93,0,0,0-1.48-.37,2.85,2.85,0,0,0-1.59.43,3.34,3.34,0,0,0-1.07,1.15,5.51,5.51,0,0,0-.58,1.61,9.51,9.51,0,0,0-.19,1.94,9.31,9.31,0,0,0,.2,2,5.15,5.15,0,0,0,.64,1.61,3.15,3.15,0,0,0,1.06,1.07,2.91,2.91,0,0,0,1.53.39,2.94,2.94,0,0,0,1.51-.39A3.06,3.06,0,0,0,123.85,211.23Zm1.16-7.86a5.44,5.44,0,0,1,1.15,1.85,6.65,6.65,0,0,1,.41,2.39,6.53,6.53,0,0,1-.42,2.4,5.34,5.34,0,0,1-1.17,1.84A5.08,5.08,0,0,1,123.3,213a5.42,5.42,0,0,1-4.18,0,5,5,0,0,1-1.68-1.21,5.47,5.47,0,0,1-1.11-1.84,6.59,6.59,0,0,1-.4-2.32,6.47,6.47,0,0,1,.42-2.41,5.62,5.62,0,0,1,1.16-1.83,5,5,0,0,1,1.71-1.17,5.36,5.36,0,0,1,4.11,0A5,5,0,0,1,125,203.37Z" style="fill:#6f767d;fill-rule:evenodd"/><g style="clip-path:url(#clip-path-7)"><rect x="-4.7" y="-981.85" width="519" height="1315" style="fill:#6f767d"/></g><rect x="114.43" y="198.65" width="13.66" height="1" style="fill:#6f767d"/><g style="clip-path:url(#clip-path-8)"><rect x="12.86" y="-981.35" width="442.97" height="1315" style="fill:#6f767d"/></g><path d="M165,206.5a2.59,2.59,0,0,1,.52.86,3.18,3.18,0,0,1,.17,1.08,3.08,3.08,0,0,1-1.09,2.42,3.94,3.94,0,0,1-2.7,1,5,5,0,0,1-1.48-.23,5.73,5.73,0,0,1-1.28-.56l-.34.57h-.62l-.11-3.8h.63a8.36,8.36,0,0,0,.46,1.27,4.44,4.44,0,0,0,.69,1.06,3.14,3.14,0,0,0,.95.73,2.77,2.77,0,0,0,1.26.27A2.85,2.85,0,0,0,163,211a1.65,1.65,0,0,0,.65-.4A1.63,1.63,0,0,0,164,210a2.43,2.43,0,0,0,.12-.8,2.22,2.22,0,0,0-.37-1.24,2.31,2.31,0,0,0-1.12-.87l-1.16-.45q-.66-.25-1.13-.46a3.68,3.68,0,0,1-1.46-1.11,2.87,2.87,0,0,1-.52-1.79,2.73,2.73,0,0,1,.26-1.18,3.07,3.07,0,0,1,.73-1,3.33,3.33,0,0,1,1.07-.64,3.65,3.65,0,0,1,1.29-.23,3.77,3.77,0,0,1,1.37.23,6.52,6.52,0,0,1,1.11.55l.32-.53h.63l.06,3.68h-.63q-.17-.63-.39-1.21a4.28,4.28,0,0,0-.56-1,2.56,2.56,0,0,0-.82-.72,2.41,2.41,0,0,0-1.19-.27,1.81,1.81,0,0,0-1.27.48,1.51,1.51,0,0,0-.52,1.16,2,2,0,0,0,.34,1.19,2.46,2.46,0,0,0,1,.78q.57.27,1.12.47t1.07.43a8,8,0,0,1,.9.46A3.39,3.39,0,0,1,165,206.5Z" style="fill:#6f767d;fill-rule:evenodd"/><g style="clip-path:url(#clip-path-9)"><rect x="1.3" y="-980.41" width="519" height="1315" style="fill:#6f767d"/></g><polyline points="158.86 205.53 153.84 205.53 153.84 206.53 169.84 206.53 169.84 205.53 158.86 205.53" style="fill:#6f767d"/><g style="clip-path:url(#clip-path-10)"><rect x="0.84" y="-980.47" width="519" height="1315" style="fill:#6f767d"/></g><path d="M165,229.1a2.59,2.59,0,0,1,.52.86,3.18,3.18,0,0,1,.17,1.08,3.08,3.08,0,0,1-1.09,2.42,3.94,3.94,0,0,1-2.7,1,5,5,0,0,1-1.48-.23,5.73,5.73,0,0,1-1.28-.56l-.34.57h-.62l-.11-3.8h.63a8.36,8.36,0,0,0,.46,1.27,4.44,4.44,0,0,0,.69,1.06,3.14,3.14,0,0,0,.95.73,2.77,2.77,0,0,0,1.26.27,2.85,2.85,0,0,0,.94-.14,1.65,1.65,0,0,0,.65-.4,1.63,1.63,0,0,0,.37-.61,2.43,2.43,0,0,0,.12-.8,2.22,2.22,0,0,0-.37-1.24,2.31,2.31,0,0,0-1.12-.87l-1.16-.45q-.66-.25-1.13-.46a3.68,3.68,0,0,1-1.46-1.11,2.87,2.87,0,0,1-.52-1.79,2.73,2.73,0,0,1,.26-1.18,3.07,3.07,0,0,1,.73-1,3.33,3.33,0,0,1,1.07-.64,3.65,3.65,0,0,1,1.29-.23,3.77,3.77,0,0,1,1.37.23,6.52,6.52,0,0,1,1.11.55l.32-.53h.63l.06,3.68h-.63q-.17-.63-.39-1.21a4.28,4.28,0,0,0-.56-1,2.56,2.56,0,0,0-.82-.72,2.41,2.41,0,0,0-1.19-.27,1.81,1.81,0,0,0-1.27.48,1.51,1.51,0,0,0-.52,1.16,2,2,0,0,0,.34,1.19,2.46,2.46,0,0,0,1,.78q.57.27,1.12.47t1.07.43a8,8,0,0,1,.9.46A3.39,3.39,0,0,1,165,229.1Z" style="fill:#577e9c;fill-rule:evenodd"/><g style="clip-path:url(#clip-path-11)"><rect x="1.3" y="-957.82" width="519" height="1315" style="fill:#577e9c"/></g><polyline points="158.86 228.13 153.84 228.13 153.84 229.13 169.84 229.13 169.84 228.13 158.86 228.13" style="fill:#577e9c"/><g style="clip-path:url(#clip-path-12)"><rect x="0.84" y="-957.87" width="519" height="1315" style="fill:#577e9c"/></g><path d="M47.61,10.57a1.86,1.86,0,0,1,0,3.72H7.35a1.86,1.86,0,0,1,0-3.72H47.61m0-5.58H7.35a7.44,7.44,0,0,0,0,14.88H47.61A7.44,7.44,0,0,0,47.61,5Z" style="fill:#979797"/><path d="M47.61,48.52a1.86,1.86,0,0,1,0,3.72H7.35a1.86,1.86,0,0,1,0-3.72H47.61m0-5.58H7.35A7.42,7.42,0,0,0,0,50.38H0a7.42,7.42,0,0,0,7.35,7.44H47.61A7.42,7.42,0,0,0,55,50.38h0a7.42,7.42,0,0,0-7.35-7.44Z" style="fill:#979797"/><path d="M36,29.54a1.86,1.86,0,0,1,0,3.72H7.54a1.86,1.86,0,0,1,0-3.72H36M36,24H7.54a7.44,7.44,0,0,0,0,14.88H36A7.44,7.44,0,0,0,36,24Z" style="fill:#979797"/><path d="M123.85,233.83a5.19,5.19,0,0,0,.64-1.61,9.3,9.3,0,0,0,.2-2,9.21,9.21,0,0,0-.22-2.09,5.19,5.19,0,0,0-.65-1.62,3.12,3.12,0,0,0-1.08-1,2.93,2.93,0,0,0-1.48-.37,2.85,2.85,0,0,0-1.59.43,3.34,3.34,0,0,0-1.07,1.15,5.51,5.51,0,0,0-.58,1.61,9.51,9.51,0,0,0-.19,1.94,9.31,9.31,0,0,0,.2,2,5.15,5.15,0,0,0,.64,1.61,3.15,3.15,0,0,0,1.06,1.07,2.91,2.91,0,0,0,1.53.39,2.94,2.94,0,0,0,1.51-.39A3.06,3.06,0,0,0,123.85,233.83ZM125,226a5.44,5.44,0,0,1,1.15,1.85,6.65,6.65,0,0,1,.41,2.39,6.53,6.53,0,0,1-.42,2.4,5.34,5.34,0,0,1-1.17,1.84,5.08,5.08,0,0,1-1.69,1.16,5.42,5.42,0,0,1-4.18,0,5,5,0,0,1-1.68-1.21,5.47,5.47,0,0,1-1.11-1.84,6.59,6.59,0,0,1-.4-2.32,6.47,6.47,0,0,1,.42-2.41,5.62,5.62,0,0,1,1.16-1.83,5,5,0,0,1,1.71-1.17,5.36,5.36,0,0,1,4.11,0A5,5,0,0,1,125,226Z" style="fill:#577e9c;fill-rule:evenodd"/><g style="clip-path:url(#clip-path-13)"><rect x="-4.7" y="-959.26" width="519" height="1315" style="fill:#577e9c"/></g><rect x="114.43" y="221.25" width="13.66" height="1" style="fill:#577e9c"/><g style="clip-path:url(#clip-path-14)"><rect x="12.86" y="-958.75" width="442.97" height="1315" style="fill:#577e9c"/></g></svg>