<svg id="Layer_1" data-name="Layer 1" xmlns="http://www.w3.org/2000/svg" xmlns:xlink="http://www.w3.org/1999/xlink" width="16" height="16" viewBox="0 0 16 16"><defs><clipPath id="clip-path"><path d="M11.77,2.46,11.66,3A5.27,5.27,0,0,0,11,3a5.17,5.17,0,0,0-.58.12.83.83,0,0,0-.47.31,1.46,1.46,0,0,0-.2.46L7.9,12a.76.76,0,0,0,0,.13,1.15,1.15,0,0,0,0,.13.56.56,0,0,0,.08.3.63.63,0,0,0,.28.22,2.68,2.68,0,0,0,.52.13l.59.09-.12.52h-5L4.34,13,5,13a2.42,2.42,0,0,0,.58-.09,1,1,0,0,0,.46-.3,1,1,0,0,0,.21-.46L8.09,4a1.32,1.32,0,0,0,0-.14,1.27,1.27,0,0,0,0-.14.55.55,0,0,0-.07-.27.57.57,0,0,0-.28-.21,3.19,3.19,0,0,0-.57-.18A4.62,4.62,0,0,0,6.66,3l.12-.52Z" style="fill:#6f767d;clip-rule:evenodd"/></clipPath><clipPath id="clip-path-2"><rect x="-45.43" y="-1177.46" width="519" height="1315" style="fill:#6f767d"/></clipPath><clipPath id="clip-path-3"><path d="M11.77,24.74l-.12.52a5.27,5.27,0,0,0-.63.07,5.17,5.17,0,0,0-.58.12.83.83,0,0,0-.47.31,1.46,1.46,0,0,0-.2.46L7.9,34.32a.76.76,0,0,0,0,.13,1.15,1.15,0,0,0,0,.13.56.56,0,0,0,.08.3.63.63,0,0,0,.28.22,2.68,2.68,0,0,0,.52.13l.59.09-.12.52h-5l.12-.52.63,0a2.42,2.42,0,0,0,.58-.09,1,1,0,0,0,.46-.3,1,1,0,0,0,.21-.46L8.09,26.3a1.32,1.32,0,0,0,0-.14,1.27,1.27,0,0,0,0-.14.55.55,0,0,0-.07-.27.57.57,0,0,0-.28-.21,3.19,3.19,0,0,0-.57-.18,4.62,4.62,0,0,0-.54-.1l.12-.52Z" style="fill:#577e9c;clip-rule:evenodd"/></clipPath><clipPath id="clip-path-4"><path d="M45.91,1a4.27,4.27,0,0,0-.64.09,2,2,0,0,0-.69.26,1.1,1.1,0,0,0-.37.74,7.89,7.89,0,0,0-.1,1.38V8.3a3.21,3.21,0,0,1-.38,1.6,3.35,3.35,0,0,1-1,1.12,4.25,4.25,0,0,1-1.3.61,5,5,0,0,1-1.31.18,5.6,5.6,0,0,1-1.78-.26A4,4,0,0,1,37,10.84a3,3,0,0,1-.79-1A2.82,2.82,0,0,1,36,8.62V2.07a1,1,0,0,0-.09-.46.86.86,0,0,0-.36-.34,1.83,1.83,0,0,0-.5-.18,3.91,3.91,0,0,0-.5-.08V.46h4.62V1a3.83,3.83,0,0,0-.55.07,3.67,3.67,0,0,0-.49.12.56.56,0,0,0-.36.31,1.24,1.24,0,0,0-.09.48V8.11a4.76,4.76,0,0,0,.1.93,2.44,2.44,0,0,0,.39.91,2.29,2.29,0,0,0,.83.7,3.14,3.14,0,0,0,1.44.27,3.38,3.38,0,0,0,1.44-.27,2.4,2.4,0,0,0,.92-.72,2.69,2.69,0,0,0,.45-.88,3.34,3.34,0,0,0,.13-.93V3.58a6.6,6.6,0,0,0-.12-1.42,1.19,1.19,0,0,0-.37-.72,2.1,2.1,0,0,0-.75-.3A4.82,4.82,0,0,0,41.38,1V.46h4.53Z" style="fill:#6f767d;clip-rule:evenodd"/></clipPath><clipPath id="clip-path-5"><rect x="33.94" y="14.54" width="12.98" height="1" style="fill:#6f767d"/></clipPath><clipPath id="clip-path-6"><path d="M45.91,23.3a4.27,4.27,0,0,0-.64.09,2,2,0,0,0-.69.26,1.1,1.1,0,0,0-.37.74,7.89,7.89,0,0,0-.1,1.38v4.82a3.21,3.21,0,0,1-.38,1.6,3.35,3.35,0,0,1-1,1.12,4.25,4.25,0,0,1-1.3.61,5,5,0,0,1-1.31.18,5.6,5.6,0,0,1-1.78-.26A4,4,0,0,1,37,33.13a3,3,0,0,1-.79-1,2.82,2.82,0,0,1-.27-1.2V24.35a1,1,0,0,0-.09-.46.86.86,0,0,0-.36-.34,1.83,1.83,0,0,0-.5-.18,3.91,3.91,0,0,0-.5-.08v-.55h4.62v.55a3.83,3.83,0,0,0-.55.07,3.67,3.67,0,0,0-.49.12.56.56,0,0,0-.36.31,1.24,1.24,0,0,0-.09.48V30.4a4.76,4.76,0,0,0,.1.93,2.44,2.44,0,0,0,.39.91,2.29,2.29,0,0,0,.83.7,3.14,3.14,0,0,0,1.44.27,3.38,3.38,0,0,0,1.44-.27,2.4,2.4,0,0,0,.92-.72,2.69,2.69,0,0,0,.45-.88,3.34,3.34,0,0,0,.13-.93V25.87a6.6,6.6,0,0,0-.12-1.42,1.19,1.19,0,0,0-.37-.72,2.1,2.1,0,0,0-.75-.3,4.82,4.82,0,0,0-.72-.12v-.55h4.53Z" style="fill:#577e9c;clip-rule:evenodd"/></clipPath><clipPath id="clip-path-7"><rect x="33.94" y="36.83" width="12.98" height="1" style="fill:#577e9c"/></clipPath><clipPath id="clip-path-8"><path d="M76.9,12.89a5.19,5.19,0,0,0,.64-1.61,9.3,9.3,0,0,0,.2-2,9.21,9.21,0,0,0-.22-2.09,5.19,5.19,0,0,0-.65-1.62,3.12,3.12,0,0,0-1.08-1,2.93,2.93,0,0,0-1.48-.37,2.85,2.85,0,0,0-1.59.43,3.34,3.34,0,0,0-1.07,1.15A5.51,5.51,0,0,0,71,7.34a9.51,9.51,0,0,0-.19,1.94,9.31,9.31,0,0,0,.2,2,5.15,5.15,0,0,0,.64,1.61A3.15,3.15,0,0,0,72.76,14a2.91,2.91,0,0,0,1.53.39A2.94,2.94,0,0,0,75.8,14,3.06,3.06,0,0,0,76.9,12.89ZM78.06,5a5.44,5.44,0,0,1,1.15,1.85,6.65,6.65,0,0,1,.41,2.39,6.53,6.53,0,0,1-.42,2.4A5.34,5.34,0,0,1,78,13.51a5.08,5.08,0,0,1-1.69,1.16,5.42,5.42,0,0,1-4.18,0,5,5,0,0,1-1.68-1.21,5.47,5.47,0,0,1-1.11-1.84A6.59,6.59,0,0,1,69,9.27a6.47,6.47,0,0,1,.42-2.41A5.62,5.62,0,0,1,70.55,5a5,5,0,0,1,1.71-1.17,5.36,5.36,0,0,1,4.11,0A5,5,0,0,1,78.06,5Z" style="fill:#6f767d;clip-rule:evenodd"/></clipPath><clipPath id="clip-path-9"><rect x="67.47" y="0.31" width="13.66" height="1" style="fill:#6f767d"/></clipPath><clipPath id="clip-path-10"><path d="M118,8.16a2.59,2.59,0,0,1,.52.86,3.18,3.18,0,0,1,.17,1.08,3.08,3.08,0,0,1-1.09,2.42,3.94,3.94,0,0,1-2.7,1,5,5,0,0,1-1.48-.23,5.73,5.73,0,0,1-1.28-.56l-.34.57h-.62l-.11-3.8h.63a8.36,8.36,0,0,0,.46,1.27,4.44,4.44,0,0,0,.69,1.06,3.14,3.14,0,0,0,.95.73,2.77,2.77,0,0,0,1.26.27,2.85,2.85,0,0,0,.94-.14,1.65,1.65,0,0,0,.65-.4,1.63,1.63,0,0,0,.37-.61,2.43,2.43,0,0,0,.12-.8,2.22,2.22,0,0,0-.37-1.24,2.31,2.31,0,0,0-1.12-.87l-1.16-.45q-.66-.25-1.13-.46a3.68,3.68,0,0,1-1.46-1.11,2.87,2.87,0,0,1-.52-1.79,2.73,2.73,0,0,1,.26-1.18,3.07,3.07,0,0,1,.73-1,3.33,3.33,0,0,1,1.07-.64,3.65,3.65,0,0,1,1.29-.23,3.77,3.77,0,0,1,1.37.23,6.52,6.52,0,0,1,1.11.55l.32-.53h.63l.06,3.68h-.63q-.17-.63-.39-1.21a4.28,4.28,0,0,0-.56-1,2.56,2.56,0,0,0-.82-.72,2.41,2.41,0,0,0-1.19-.27,1.81,1.81,0,0,0-1.27.48,1.51,1.51,0,0,0-.52,1.16,2,2,0,0,0,.34,1.19,2.46,2.46,0,0,0,1,.78q.57.27,1.12.47t1.07.43a8,8,0,0,1,.9.46A3.39,3.39,0,0,1,118,8.16Z" style="fill:#6f767d;clip-rule:evenodd"/></clipPath><clipPath id="clip-path-11"><polyline points="111.91 7.19 106.88 7.19 106.88 8.19 122.88 8.19 122.88 7.19 111.91 7.19" style="fill:#6f767d"/></clipPath><clipPath id="clip-path-12"><path d="M118,30.76a2.59,2.59,0,0,1,.52.86,3.18,3.18,0,0,1,.17,1.08,3.08,3.08,0,0,1-1.09,2.42,3.94,3.94,0,0,1-2.7,1,5,5,0,0,1-1.48-.23,5.73,5.73,0,0,1-1.28-.56l-.34.57h-.62l-.11-3.8h.63a8.36,8.36,0,0,0,.46,1.27,4.44,4.44,0,0,0,.69,1.06,3.14,3.14,0,0,0,.95.73,2.77,2.77,0,0,0,1.26.27,2.85,2.85,0,0,0,.94-.14,1.65,1.65,0,0,0,.65-.4,1.63,1.63,0,0,0,.37-.61,2.43,2.43,0,0,0,.12-.8,2.22,2.22,0,0,0-.37-1.24,2.31,2.31,0,0,0-1.12-.87l-1.16-.45q-.66-.25-1.13-.46a3.68,3.68,0,0,1-1.46-1.11,2.87,2.87,0,0,1-.52-1.79,2.73,2.73,0,0,1,.26-1.18,3.07,3.07,0,0,1,.73-1,3.33,3.33,0,0,1,1.07-.64,3.65,3.65,0,0,1,1.29-.23,3.77,3.77,0,0,1,1.37.23,6.52,6.52,0,0,1,1.11.55l.32-.53h.63l.06,3.68h-.63q-.17-.63-.39-1.21a4.28,4.28,0,0,0-.56-1,2.56,2.56,0,0,0-.82-.72,2.41,2.41,0,0,0-1.19-.27,1.81,1.81,0,0,0-1.27.48,1.51,1.51,0,0,0-.52,1.16,2,2,0,0,0,.34,1.19,2.46,2.46,0,0,0,1,.78q.57.27,1.12.47t1.07.43a8,8,0,0,1,.9.46A3.39,3.39,0,0,1,118,30.76Z" style="fill:#577e9c;clip-rule:evenodd"/></clipPath><clipPath id="clip-path-13"><polyline points="111.91 29.79 106.88 29.79 106.88 30.79 122.88 30.79 122.88 29.79 111.91 29.79" style="fill:#577e9c"/></clipPath><clipPath id="clip-path-14"><path d="M76.9,35.49a5.19,5.19,0,0,0,.64-1.61,9.3,9.3,0,0,0,.2-2,9.21,9.21,0,0,0-.22-2.09,5.19,5.19,0,0,0-.65-1.62,3.12,3.12,0,0,0-1.08-1,2.93,2.93,0,0,0-1.48-.37,2.85,2.85,0,0,0-1.59.43,3.34,3.34,0,0,0-1.07,1.15A5.51,5.51,0,0,0,71,29.93a9.51,9.51,0,0,0-.19,1.94,9.31,9.31,0,0,0,.2,2,5.15,5.15,0,0,0,.64,1.61,3.15,3.15,0,0,0,1.06,1.07,2.91,2.91,0,0,0,1.53.39,2.94,2.94,0,0,0,1.51-.39A3.06,3.06,0,0,0,76.9,35.49Zm1.16-7.86a5.44,5.44,0,0,1,1.15,1.85,6.65,6.65,0,0,1,.41,2.39,6.53,6.53,0,0,1-.42,2.4A5.34,5.34,0,0,1,78,36.1a5.08,5.08,0,0,1-1.69,1.16,5.42,5.42,0,0,1-4.18,0A5,5,0,0,1,70.47,36a5.47,5.47,0,0,1-1.11-1.84,6.59,6.59,0,0,1-.4-2.32,6.47,6.47,0,0,1,.42-2.41,5.62,5.62,0,0,1,1.16-1.83,5,5,0,0,1,1.71-1.17,5.36,5.36,0,0,1,4.11,0A5,5,0,0,1,78.06,27.63Z" style="fill:#577e9c;clip-rule:evenodd"/></clipPath><clipPath id="clip-path-15"><rect x="67.47" y="22.91" width="13.66" height="1" style="fill:#577e9c"/></clipPath></defs><title>icons</title><path d="M11.77,2.46,11.66,3A5.27,5.27,0,0,0,11,3a5.17,5.17,0,0,0-.58.12.83.83,0,0,0-.47.31,1.46,1.46,0,0,0-.2.46L7.9,12a.76.76,0,0,0,0,.13,1.15,1.15,0,0,0,0,.13.56.56,0,0,0,.08.3.63.63,0,0,0,.28.22,2.68,2.68,0,0,0,.52.13l.59.09-.12.52h-5L4.34,13,5,13a2.42,2.42,0,0,0,.58-.09,1,1,0,0,0,.46-.3,1,1,0,0,0,.21-.46L8.09,4a1.32,1.32,0,0,0,0-.14,1.27,1.27,0,0,0,0-.14.55.55,0,0,0-.07-.27.57.57,0,0,0-.28-.21,3.19,3.19,0,0,0-.57-.18A4.62,4.62,0,0,0,6.66,3l.12-.52Z" style="fill:#6f767d;fill-rule:evenodd"/><g style="clip-path:url(#clip-path)"><rect x="-45.43" y="-1177.46" width="519" height="1315" style="fill:#6f767d"/><g style="clip-path:url(#clip-path-2)"><rect x="-0.77" y="-2.54" width="17.55" height="21.09" style="fill:#6f767d;opacity:0.400000005960465"/></g></g><path d="M11.77,24.74l-.12.52a5.27,5.27,0,0,0-.63.07,5.17,5.17,0,0,0-.58.12.83.83,0,0,0-.47.31,1.46,1.46,0,0,0-.2.46L7.9,34.32a.76.76,0,0,0,0,.13,1.15,1.15,0,0,0,0,.13.56.56,0,0,0,.08.3.63.63,0,0,0,.28.22,2.68,2.68,0,0,0,.52.13l.59.09-.12.52h-5l.12-.52.63,0a2.42,2.42,0,0,0,.58-.09,1,1,0,0,0,.46-.3,1,1,0,0,0,.21-.46L8.09,26.3a1.32,1.32,0,0,0,0-.14,1.27,1.27,0,0,0,0-.14.55.55,0,0,0-.07-.27.57.57,0,0,0-.28-.21,3.19,3.19,0,0,0-.57-.18,4.62,4.62,0,0,0-.54-.1l.12-.52Z" style="fill:#577e9c;fill-rule:evenodd"/><g style="clip-path:url(#clip-path-3)"><rect x="-45.43" y="-1155.17" width="519" height="1315" style="fill:#577e9c"/></g><path d="M45.91,1a4.27,4.27,0,0,0-.64.09,2,2,0,0,0-.69.26,1.1,1.1,0,0,0-.37.74,7.89,7.89,0,0,0-.1,1.38V8.3a3.21,3.21,0,0,1-.38,1.6,3.35,3.35,0,0,1-1,1.12,4.25,4.25,0,0,1-1.3.61,5,5,0,0,1-1.31.18,5.6,5.6,0,0,1-1.78-.26A4,4,0,0,1,37,10.84a3,3,0,0,1-.79-1A2.82,2.82,0,0,1,36,8.62V2.07a1,1,0,0,0-.09-.46.86.86,0,0,0-.36-.34,1.83,1.83,0,0,0-.5-.18,3.91,3.91,0,0,0-.5-.08V.46h4.62V1a3.83,3.83,0,0,0-.55.07,3.67,3.67,0,0,0-.49.12.56.56,0,0,0-.36.31,1.24,1.24,0,0,0-.09.48V8.11a4.76,4.76,0,0,0,.1.93,2.44,2.44,0,0,0,.39.91,2.29,2.29,0,0,0,.83.7,3.14,3.14,0,0,0,1.44.27,3.38,3.38,0,0,0,1.44-.27,2.4,2.4,0,0,0,.92-.72,2.69,2.69,0,0,0,.45-.88,3.34,3.34,0,0,0,.13-.93V3.58a6.6,6.6,0,0,0-.12-1.42,1.19,1.19,0,0,0-.37-.72,2.1,2.1,0,0,0-.75-.3A4.82,4.82,0,0,0,41.38,1V.46h4.53Z" style="fill:#6f767d;fill-rule:evenodd"/><g style="clip-path:url(#clip-path-4)"><rect x="-51.06" y="-1179.46" width="519" height="1315" style="fill:#6f767d"/></g><rect x="33.94" y="14.54" width="12.98" height="1" style="fill:#6f767d"/><g style="clip-path:url(#clip-path-5)"><rect x="-50.06" y="-1179.46" width="519" height="1315" style="fill:#6f767d"/></g><path d="M45.91,23.3a4.27,4.27,0,0,0-.64.09,2,2,0,0,0-.69.26,1.1,1.1,0,0,0-.37.74,7.89,7.89,0,0,0-.1,1.38v4.82a3.21,3.21,0,0,1-.38,1.6,3.35,3.35,0,0,1-1,1.12,4.25,4.25,0,0,1-1.3.61,5,5,0,0,1-1.31.18,5.6,5.6,0,0,1-1.78-.26A4,4,0,0,1,37,33.13a3,3,0,0,1-.79-1,2.82,2.82,0,0,1-.27-1.2V24.35a1,1,0,0,0-.09-.46.86.86,0,0,0-.36-.34,1.83,1.83,0,0,0-.5-.18,3.91,3.91,0,0,0-.5-.08v-.55h4.62v.55a3.83,3.83,0,0,0-.55.07,3.67,3.67,0,0,0-.49.12.56.56,0,0,0-.36.31,1.24,1.24,0,0,0-.09.48V30.4a4.76,4.76,0,0,0,.1.93,2.44,2.44,0,0,0,.39.91,2.29,2.29,0,0,0,.83.7,3.14,3.14,0,0,0,1.44.27,3.38,3.38,0,0,0,1.44-.27,2.4,2.4,0,0,0,.92-.72,2.69,2.69,0,0,0,.45-.88,3.34,3.34,0,0,0,.13-.93V25.87a6.6,6.6,0,0,0-.12-1.42,1.19,1.19,0,0,0-.37-.72,2.1,2.1,0,0,0-.75-.3,4.82,4.82,0,0,0-.72-.12v-.55h4.53Z" style="fill:#577e9c;fill-rule:evenodd"/><g style="clip-path:url(#clip-path-6)"><rect x="-51.06" y="-1157.17" width="519" height="1315" style="fill:#577e9c"/></g><rect x="33.94" y="36.83" width="12.98" height="1" style="fill:#577e9c"/><g style="clip-path:url(#clip-path-7)"><rect x="-50.06" y="-1157.17" width="519" height="1315" style="fill:#577e9c"/></g><path d="M76.9,12.89a5.19,5.19,0,0,0,.64-1.61,9.3,9.3,0,0,0,.2-2,9.21,9.21,0,0,0-.22-2.09,5.19,5.19,0,0,0-.65-1.62,3.12,3.12,0,0,0-1.08-1,2.93,2.93,0,0,0-1.48-.37,2.85,2.85,0,0,0-1.59.43,3.34,3.34,0,0,0-1.07,1.15A5.51,5.51,0,0,0,71,7.34a9.51,9.51,0,0,0-.19,1.94,9.31,9.31,0,0,0,.2,2,5.15,5.15,0,0,0,.64,1.61A3.15,3.15,0,0,0,72.76,14a2.91,2.91,0,0,0,1.53.39A2.94,2.94,0,0,0,75.8,14,3.06,3.06,0,0,0,76.9,12.89ZM78.06,5a5.44,5.44,0,0,1,1.15,1.85,6.65,6.65,0,0,1,.41,2.39,6.53,6.53,0,0,1-.42,2.4A5.34,5.34,0,0,1,78,13.51a5.08,5.08,0,0,1-1.69,1.16,5.42,5.42,0,0,1-4.18,0,5,5,0,0,1-1.68-1.21,5.47,5.47,0,0,1-1.11-1.84A6.59,6.59,0,0,1,69,9.27a6.47,6.47,0,0,1,.42-2.41A5.62,5.62,0,0,1,70.55,5a5,5,0,0,1,1.71-1.17,5.36,5.36,0,0,1,4.11,0A5,5,0,0,1,78.06,5Z" style="fill:#6f767d;fill-rule:evenodd"/><g style="clip-path:url(#clip-path-8)"><rect x="-51.66" y="-1180.2" width="519" height="1315" style="fill:#6f767d"/></g><rect x="67.47" y="0.31" width="13.66" height="1" style="fill:#6f767d"/><g style="clip-path:url(#clip-path-9)"><rect x="-34.1" y="-1179.69" width="442.97" height="1315" style="fill:#6f767d"/></g><path d="M118,8.16a2.59,2.59,0,0,1,.52.86,3.18,3.18,0,0,1,.17,1.08,3.08,3.08,0,0,1-1.09,2.42,3.94,3.94,0,0,1-2.7,1,5,5,0,0,1-1.48-.23,5.73,5.73,0,0,1-1.28-.56l-.34.57h-.62l-.11-3.8h.63a8.36,8.36,0,0,0,.46,1.27,4.44,4.44,0,0,0,.69,1.06,3.14,3.14,0,0,0,.95.73,2.77,2.77,0,0,0,1.26.27,2.85,2.85,0,0,0,.94-.14,1.65,1.65,0,0,0,.65-.4,1.63,1.63,0,0,0,.37-.61,2.43,2.43,0,0,0,.12-.8,2.22,2.22,0,0,0-.37-1.24,2.31,2.31,0,0,0-1.12-.87l-1.16-.45q-.66-.25-1.13-.46a3.68,3.68,0,0,1-1.46-1.11,2.87,2.87,0,0,1-.52-1.79,2.73,2.73,0,0,1,.26-1.18,3.07,3.07,0,0,1,.73-1,3.33,3.33,0,0,1,1.07-.64,3.65,3.65,0,0,1,1.29-.23,3.77,3.77,0,0,1,1.37.23,6.52,6.52,0,0,1,1.11.55l.32-.53h.63l.06,3.68h-.63q-.17-.63-.39-1.21a4.28,4.28,0,0,0-.56-1,2.56,2.56,0,0,0-.82-.72,2.41,2.41,0,0,0-1.19-.27,1.81,1.81,0,0,0-1.27.48,1.51,1.51,0,0,0-.52,1.16,2,2,0,0,0,.34,1.19,2.46,2.46,0,0,0,1,.78q.57.27,1.12.47t1.07.43a8,8,0,0,1,.9.46A3.39,3.39,0,0,1,118,8.16Z" style="fill:#6f767d;fill-rule:evenodd"/><g style="clip-path:url(#clip-path-10)"><rect x="-45.66" y="-1178.76" width="519" height="1315" style="fill:#6f767d"/></g><polyline points="111.91 7.19 106.88 7.19 106.88 8.19 122.88 8.19 122.88 7.19 111.91 7.19" style="fill:#6f767d"/><g style="clip-path:url(#clip-path-11)"><rect x="-46.12" y="-1178.81" width="519" height="1315" style="fill:#6f767d"/></g><path d="M118,30.76a2.59,2.59,0,0,1,.52.86,3.18,3.18,0,0,1,.17,1.08,3.08,3.08,0,0,1-1.09,2.42,3.94,3.94,0,0,1-2.7,1,5,5,0,0,1-1.48-.23,5.73,5.73,0,0,1-1.28-.56l-.34.57h-.62l-.11-3.8h.63a8.36,8.36,0,0,0,.46,1.27,4.44,4.44,0,0,0,.69,1.06,3.14,3.14,0,0,0,.95.73,2.77,2.77,0,0,0,1.26.27,2.85,2.85,0,0,0,.94-.14,1.65,1.65,0,0,0,.65-.4,1.63,1.63,0,0,0,.37-.61,2.43,2.43,0,0,0,.12-.8,2.22,2.22,0,0,0-.37-1.24,2.31,2.31,0,0,0-1.12-.87l-1.16-.45q-.66-.25-1.13-.46a3.68,3.68,0,0,1-1.46-1.11,2.87,2.87,0,0,1-.52-1.79,2.73,2.73,0,0,1,.26-1.18,3.07,3.07,0,0,1,.73-1,3.33,3.33,0,0,1,1.07-.64,3.65,3.65,0,0,1,1.29-.23,3.77,3.77,0,0,1,1.37.23,6.52,6.52,0,0,1,1.11.55l.32-.53h.63l.06,3.68h-.63q-.17-.63-.39-1.21a4.28,4.28,0,0,0-.56-1,2.56,2.56,0,0,0-.82-.72,2.41,2.41,0,0,0-1.19-.27,1.81,1.81,0,0,0-1.27.48,1.51,1.51,0,0,0-.52,1.16,2,2,0,0,0,.34,1.19,2.46,2.46,0,0,0,1,.78q.57.27,1.12.47t1.07.43a8,8,0,0,1,.9.46A3.39,3.39,0,0,1,118,30.76Z" style="fill:#577e9c;fill-rule:evenodd"/><g style="clip-path:url(#clip-path-12)"><rect x="-45.66" y="-1156.16" width="519" height="1315" style="fill:#577e9c"/></g><polyline points="111.91 29.79 106.88 29.79 106.88 30.79 122.88 30.79 122.88 29.79 111.91 29.79" style="fill:#577e9c"/><g style="clip-path:url(#clip-path-13)"><rect x="-46.12" y="-1156.21" width="519" height="1315" style="fill:#577e9c"/></g><path d="M76.9,35.49a5.19,5.19,0,0,0,.64-1.61,9.3,9.3,0,0,0,.2-2,9.21,9.21,0,0,0-.22-2.09,5.19,5.19,0,0,0-.65-1.62,3.12,3.12,0,0,0-1.08-1,2.93,2.93,0,0,0-1.48-.37,2.85,2.85,0,0,0-1.59.43,3.34,3.34,0,0,0-1.07,1.15A5.51,5.51,0,0,0,71,29.93a9.51,9.51,0,0,0-.19,1.94,9.31,9.31,0,0,0,.2,2,5.15,5.15,0,0,0,.64,1.61,3.15,3.15,0,0,0,1.06,1.07,2.91,2.91,0,0,0,1.53.39,2.94,2.94,0,0,0,1.51-.39A3.06,3.06,0,0,0,76.9,35.49Zm1.16-7.86a5.44,5.44,0,0,1,1.15,1.85,6.65,6.65,0,0,1,.41,2.39,6.53,6.53,0,0,1-.42,2.4A5.34,5.34,0,0,1,78,36.1a5.08,5.08,0,0,1-1.69,1.16,5.42,5.42,0,0,1-4.18,0A5,5,0,0,1,70.47,36a5.47,5.47,0,0,1-1.11-1.84,6.59,6.59,0,0,1-.4-2.32,6.47,6.47,0,0,1,.42-2.41,5.62,5.62,0,0,1,1.16-1.83,5,5,0,0,1,1.71-1.17,5.36,5.36,0,0,1,4.11,0A5,5,0,0,1,78.06,27.63Z" style="fill:#577e9c;fill-rule:evenodd"/><g style="clip-path:url(#clip-path-14)"><rect x="-51.66" y="-1157.6" width="519" height="1315" style="fill:#577e9c"/></g><rect x="67.47" y="22.91" width="13.66" height="1" style="fill:#577e9c"/><g style="clip-path:url(#clip-path-15)"><rect x="-34.1" y="-1157.09" width="442.97" height="1315" style="fill:#577e9c"/></g></svg>