<svg id="Layer_1" data-name="Layer 1" xmlns="http://www.w3.org/2000/svg" xmlns:xlink="http://www.w3.org/1999/xlink" width="16" height="16" viewBox="0 0 16 16"><defs><clipPath id="clip-path"><path d="M-316.59,25.23h9.87a2.47,2.47,0,0,1,2.47,2.47,2.47,2.47,0,0,1-2.47,2.47h-9.87a2.47,2.47,0,0,1-2.47-2.47A2.47,2.47,0,0,1-316.59,25.23Z" style="fill:#4e555b;clip-rule:evenodd"/></clipPath><clipPath id="clip-path-2"><path d="M-299.81,25.23h18.75a2.47,2.47,0,0,1,2.47,2.47,2.47,2.47,0,0,1-2.47,2.47h-18.75a2.47,2.47,0,0,1-2.47-2.47A2.47,2.47,0,0,1-299.81,25.23Z" style="fill:#4e555b;clip-rule:evenodd"/></clipPath><clipPath id="clip-path-3"><rect x="-319.06" y="8.45" width="19.54" height="12.83" rx="3.95" ry="3.95" style="fill:#4e555b"/></clipPath><clipPath id="clip-path-4"><path d="M-293.89,9.44H-287a2.47,2.47,0,0,1,2.47,2.47A2.47,2.47,0,0,1-287,14.38h-6.91a2.47,2.47,0,0,1-2.47-2.47A2.47,2.47,0,0,1-293.89,9.44Z" style="fill:#4e555b;clip-rule:evenodd"/></clipPath><clipPath id="clip-path-5"><path d="M-282,17.34h5.92a2.47,2.47,0,0,1,2.47,2.47,2.47,2.47,0,0,1-2.47,2.47H-282a2.47,2.47,0,0,1-2.47-2.47A2.47,2.47,0,0,1-282,17.34Z" style="fill:#4e555b;clip-rule:evenodd"/></clipPath><clipPath id="clip-path-6"><path d="M-293.89,17.34H-289a2.47,2.47,0,0,1,2.47,2.47A2.47,2.47,0,0,1-289,22.27h-4.94a2.47,2.47,0,0,1-2.47-2.47A2.47,2.47,0,0,1-293.89,17.34Z" style="fill:#4e555b;clip-rule:evenodd"/></clipPath><clipPath id="clip-path-7"><path d="M-228.93,25.23h9.87a2.47,2.47,0,0,1,2.47,2.47,2.47,2.47,0,0,1-2.47,2.47h-9.87a2.47,2.47,0,0,1-2.47-2.47A2.47,2.47,0,0,1-228.93,25.23Z" style="fill:#577e9c;clip-rule:evenodd"/></clipPath><clipPath id="clip-path-8"><path d="M-212.15,25.23h18.75a2.47,2.47,0,0,1,2.47,2.47,2.47,2.47,0,0,1-2.47,2.47h-18.75a2.47,2.47,0,0,1-2.47-2.47A2.47,2.47,0,0,1-212.15,25.23Z" style="fill:#577e9c;clip-rule:evenodd"/></clipPath><clipPath id="clip-path-9"><rect x="-231.39" y="8.45" width="19.54" height="12.83" rx="3.95" ry="3.95" style="fill:#577e9c"/></clipPath><clipPath id="clip-path-10"><path d="M-206.23,9.44h6.91a2.47,2.47,0,0,1,2.47,2.47,2.47,2.47,0,0,1-2.47,2.47h-6.91a2.47,2.47,0,0,1-2.47-2.47A2.47,2.47,0,0,1-206.23,9.44Z" style="fill:#577e9c;clip-rule:evenodd"/></clipPath><clipPath id="clip-path-11"><path d="M-194.38,17.34h5.92A2.47,2.47,0,0,1-186,19.8a2.47,2.47,0,0,1-2.47,2.47h-5.92a2.47,2.47,0,0,1-2.47-2.47A2.47,2.47,0,0,1-194.38,17.34Z" style="fill:#577e9c;clip-rule:evenodd"/></clipPath><clipPath id="clip-path-12"><path d="M-206.23,17.34h4.94a2.47,2.47,0,0,1,2.47,2.47,2.47,2.47,0,0,1-2.47,2.47h-4.94a2.47,2.47,0,0,1-2.47-2.47A2.47,2.47,0,0,1-206.23,17.34Z" style="fill:#577e9c;clip-rule:evenodd"/></clipPath><clipPath id="clip-path-13"><path d="M-310.39,74.65a4.13,4.13,0,0,1,4.12-4.13h19.59a4.12,4.12,0,0,1,4.12,4.13V86a4.13,4.13,0,0,1-4.12,4.13h-19.59A4.12,4.12,0,0,1-310.39,86Z" style="fill:#4e555b;clip-rule:evenodd"/></clipPath><clipPath id="clip-path-14"><path d="M-222.72,74.65a4.13,4.13,0,0,1,4.12-4.13H-199a4.12,4.12,0,0,1,4.12,4.13V86A4.13,4.13,0,0,1-199,90.11H-218.6A4.12,4.12,0,0,1-222.72,86Z" style="fill:#577f9c;clip-rule:evenodd"/></clipPath><clipPath id="clip-path-15"><circle cx="-278.6" cy="193.98" r="7.1" style="fill:#464d54"/></clipPath><clipPath id="clip-path-16"><path d="M-291.92,192a3.39,3.39,0,0,1-.94.25,1.6,1.6,0,0,0,.72-.87,3.36,3.36,0,0,1-1,.38,1.67,1.67,0,0,0-1.19-.49,1.61,1.61,0,0,0-1.64,1.57,1.56,1.56,0,0,0,0,.36,4.73,4.73,0,0,1-3.38-1.64,1.51,1.51,0,0,0-.22.79,1.55,1.55,0,0,0,.73,1.3,1.67,1.67,0,0,1-.74-.2v0a1.59,1.59,0,0,0,1.31,1.54,1.76,1.76,0,0,1-.43.05l-.31,0a1.64,1.64,0,0,0,1.53,1.09,3.39,3.39,0,0,1-2,.67l-.39,0a4.79,4.79,0,0,0,2.51.7,4.53,4.53,0,0,0,4.66-4.46v-.2A3.23,3.23,0,0,0-291.92,192Z" style="fill:#60666b;clip-rule:evenodd"/></clipPath><clipPath id="clip-path-17"><circle cx="-275.5" cy="194.42" r="1.33" style="fill:#60666b"/></clipPath><clipPath id="clip-path-18"><circle cx="-280.82" cy="197.08" r="1.33" style="fill:#60666b"/></clipPath><clipPath id="clip-path-19"><path d="M-280.56,192.61a.44.44,0,0,1-.22-.59.44.44,0,0,1,.59-.22l5,2.27a.44.44,0,0,1,0,.79l-5.22,2.85a.44.44,0,0,1-.6-.18.44.44,0,0,1,.18-.6l4.44-2.42Z" style="fill:#60666b"/></clipPath><clipPath id="clip-path-20"><circle cx="-190.94" cy="193.98" r="7.1" style="fill:#577f9c"/></clipPath><clipPath id="clip-path-21"><path d="M-204.25,192a3.39,3.39,0,0,1-.94.25,1.6,1.6,0,0,0,.72-.87,3.36,3.36,0,0,1-1,.38,1.67,1.67,0,0,0-1.19-.49,1.61,1.61,0,0,0-1.64,1.57,1.56,1.56,0,0,0,0,.36,4.73,4.73,0,0,1-3.38-1.64,1.51,1.51,0,0,0-.22.79,1.55,1.55,0,0,0,.73,1.3,1.67,1.67,0,0,1-.74-.2v0a1.59,1.59,0,0,0,1.31,1.54,1.76,1.76,0,0,1-.43.05l-.31,0a1.64,1.64,0,0,0,1.53,1.09,3.39,3.39,0,0,1-2,.67l-.39,0a4.79,4.79,0,0,0,2.51.7,4.53,4.53,0,0,0,4.66-4.46v-.2A3.23,3.23,0,0,0-204.25,192Z" style="fill:#6a9ab7;clip-rule:evenodd"/></clipPath><clipPath id="clip-path-22"><circle cx="-187.83" cy="194.42" r="1.33" style="fill:#6a9ab7"/></clipPath><clipPath id="clip-path-23"><circle cx="-193.16" cy="197.08" r="1.33" style="fill:#6a9ab7"/></clipPath><clipPath id="clip-path-24"><path d="M-192.9,192.61a.44.44,0,0,1-.22-.59.44.44,0,0,1,.59-.22l5,2.27a.44.44,0,0,1,0,.79l-5.22,2.85a.44.44,0,0,1-.6-.18.44.44,0,0,1,.18-.6l4.44-2.42Z" style="fill:#6a9ab7"/></clipPath><clipPath id="clip-path-25"><rect x="-321.22" y="295.25" width="49.72" height="12.43" rx="4.14" ry="4.14" style="fill:#464d54"/></clipPath><clipPath id="clip-path-26"><rect x="-318.68" y="297.32" width="16.57" height="8.29" rx="3.11" ry="3.11" style="fill:#3a4249"/></clipPath><clipPath id="clip-path-27"><path d="M-297.4,297.32h10.88a1.55,1.55,0,0,1,1.55,1.55,1.55,1.55,0,0,1-1.55,1.55H-297.4a1.55,1.55,0,0,1-1.55-1.55A1.55,1.55,0,0,1-297.4,297.32Z" style="fill:#585f65;clip-rule:evenodd"/></clipPath><clipPath id="clip-path-28"><path d="M-286.62,302.5h6.32a1.55,1.55,0,0,1,1.55,1.55,1.55,1.55,0,0,1-1.55,1.55h-6.32a1.55,1.55,0,0,1-1.55-1.55A1.55,1.55,0,0,1-286.62,302.5Z" style="fill:#585f65;clip-rule:evenodd"/></clipPath><clipPath id="clip-path-29"><path d="M-297.4,302.5h6.32a1.55,1.55,0,0,1,1.55,1.55,1.55,1.55,0,0,1-1.55,1.55h-6.32a1.55,1.55,0,0,1-1.55-1.55A1.55,1.55,0,0,1-297.4,302.5Z" style="fill:#585f65;clip-rule:evenodd"/></clipPath><clipPath id="clip-path-30"><rect x="-321.22" y="308.95" width="49.72" height="12.43" rx="4.14" ry="4.14" style="fill:#464d54"/></clipPath><clipPath id="clip-path-31"><rect x="-318.68" y="311.02" width="16.57" height="8.29" rx="3.11" ry="3.11" style="fill:#3a4249"/></clipPath><clipPath id="clip-path-32"><path d="M-297.4,311h10.88a1.55,1.55,0,0,1,1.55,1.55,1.55,1.55,0,0,1-1.55,1.55H-297.4a1.55,1.55,0,0,1-1.55-1.55A1.55,1.55,0,0,1-297.4,311Z" style="fill:#585f65;clip-rule:evenodd"/></clipPath><clipPath id="clip-path-33"><path d="M-286.62,316.2h6.32a1.55,1.55,0,0,1,1.55,1.55,1.55,1.55,0,0,1-1.55,1.55h-6.32a1.55,1.55,0,0,1-1.55-1.55A1.55,1.55,0,0,1-286.62,316.2Z" style="fill:#585f65;clip-rule:evenodd"/></clipPath><clipPath id="clip-path-34"><path d="M-297.4,316.2h6.32a1.55,1.55,0,0,1,1.55,1.55,1.55,1.55,0,0,1-1.55,1.55h-6.32a1.55,1.55,0,0,1-1.55-1.55A1.55,1.55,0,0,1-297.4,316.2Z" style="fill:#585f65;clip-rule:evenodd"/></clipPath><clipPath id="clip-path-35"><rect x="-233.55" y="295.25" width="49.72" height="12.43" rx="4.14" ry="4.14" style="fill:#577f9c"/></clipPath><clipPath id="clip-path-36"><rect x="-231.01" y="297.32" width="16.57" height="8.29" rx="3.11" ry="3.11" style="fill:#6a9ab7"/></clipPath><clipPath id="clip-path-37"><path d="M-209.73,297.32h10.88a1.55,1.55,0,0,1,1.55,1.55,1.55,1.55,0,0,1-1.55,1.55h-10.88a1.55,1.55,0,0,1-1.55-1.55A1.55,1.55,0,0,1-209.73,297.32Z" style="fill:#6a9ab7;clip-rule:evenodd"/></clipPath><clipPath id="clip-path-38"><path d="M-199,302.5h6.32a1.55,1.55,0,0,1,1.55,1.55,1.55,1.55,0,0,1-1.55,1.55H-199a1.55,1.55,0,0,1-1.55-1.55A1.55,1.55,0,0,1-199,302.5Z" style="fill:#6a9ab7;clip-rule:evenodd"/></clipPath><clipPath id="clip-path-39"><path d="M-209.73,302.5h6.32a1.55,1.55,0,0,1,1.55,1.55,1.55,1.55,0,0,1-1.55,1.55h-6.32a1.55,1.55,0,0,1-1.55-1.55A1.55,1.55,0,0,1-209.73,302.5Z" style="fill:#6a9ab7;clip-rule:evenodd"/></clipPath><clipPath id="clip-path-40"><rect x="-233.55" y="308.95" width="49.72" height="12.43" rx="4.14" ry="4.14" style="fill:#577f9c"/></clipPath><clipPath id="clip-path-41"><rect x="-231.01" y="311.02" width="16.57" height="8.29" rx="3.11" ry="3.11" style="fill:#6a9ab7"/></clipPath><clipPath id="clip-path-42"><path d="M-209.73,311h10.88a1.55,1.55,0,0,1,1.55,1.55,1.55,1.55,0,0,1-1.55,1.55h-10.88a1.55,1.55,0,0,1-1.55-1.55A1.55,1.55,0,0,1-209.73,311Z" style="fill:#6a9ab7;clip-rule:evenodd"/></clipPath><clipPath id="clip-path-43"><path d="M-199,316.2h6.32a1.55,1.55,0,0,1,1.55,1.55,1.55,1.55,0,0,1-1.55,1.55H-199a1.55,1.55,0,0,1-1.55-1.55A1.55,1.55,0,0,1-199,316.2Z" style="fill:#6a9ab7;clip-rule:evenodd"/></clipPath><clipPath id="clip-path-44"><path d="M-209.73,316.2h6.32a1.55,1.55,0,0,1,1.55,1.55,1.55,1.55,0,0,1-1.55,1.55h-6.32a1.55,1.55,0,0,1-1.55-1.55A1.55,1.55,0,0,1-209.73,316.2Z" style="fill:#6a9ab7;clip-rule:evenodd"/></clipPath><clipPath id="clip-path-45"><path d="M-120.32,11.82h1.49c1.44,0,2.18-.5,2.18-1.58s-.72-1.44-2.18-1.44h-1.49Zm0-5h1.24c1.3,0,1.85-.54,1.85-1.39s-.59-1.26-1.84-1.26h-1.26Zm-2.65,7V2.13h4c2.43,0,4.32.67,4.32,2.92a2.72,2.72,0,0,1-1.53,2.54v.07a2.66,2.66,0,0,1,2.11,2.75c0,2.39-2,3.46-4.55,3.46Z" style="fill:#6f767c;clip-rule:evenodd"/></clipPath><clipPath id="clip-path-46"><path d="M270.1,11.82h1.49c1.44,0,2.18-.5,2.18-1.58s-.72-1.44-2.18-1.44H270.1Zm0-5h1.24c1.3,0,1.85-.54,1.85-1.39s-.59-1.26-1.84-1.26H270.1Zm-2.65,7V2.13h4c2.43,0,4.32.67,4.32,2.92a2.72,2.72,0,0,1-1.53,2.54v.07a2.66,2.66,0,0,1,2.11,2.75c0,2.39-2,3.46-4.55,3.46Z" style="fill:#577e9c;clip-rule:evenodd"/></clipPath><clipPath id="clip-path-47"><path d="M-97.56,9.54l1.38-1.38a2.76,2.76,0,0,1,3.91,0l.16.16a2.76,2.76,0,0,1,0,3.91l-1.38,1.38a2.76,2.76,0,0,1-3.91,0l-.16-.16A2.76,2.76,0,0,1-97.56,9.54Zm1,1a1.38,1.38,0,0,0,0,2l.16.16a1.38,1.38,0,0,0,2,0l1.38-1.38a1.38,1.38,0,0,0,0-2l-.16-.16a1.38,1.38,0,0,0-2,0Z" style="fill:#6f767c"/></clipPath><clipPath id="clip-path-48"><path d="M-91.79,3.77l1.38-1.38a2.76,2.76,0,0,1,3.91,0l.16.16a2.76,2.76,0,0,1,0,3.91l-1.38,1.38a2.76,2.76,0,0,1-3.91,0l-.16-.16A2.76,2.76,0,0,1-91.79,3.77Zm1,1a1.38,1.38,0,0,0,0,2l.16.16a1.38,1.38,0,0,0,2,0l1.38-1.38a1.38,1.38,0,0,0,0-2l-.16-.16a1.38,1.38,0,0,0-2,0Z" style="fill:#6f767c"/></clipPath><clipPath id="clip-path-49"><path d="M-93.86,10.89a.69.69,0,0,1-1,0,.69.69,0,0,1,0-1l5.05-5.05a.69.69,0,0,1,1,0,.69.69,0,0,1,0,1Z" style="fill:#6f767c"/></clipPath><clipPath id="clip-path-50"><path d="M302.3,9.54l1.38-1.38a2.76,2.76,0,0,1,3.91,0l.16.16a2.76,2.76,0,0,1,0,3.91l-1.38,1.38a2.76,2.76,0,0,1-3.91,0l-.16-.16A2.76,2.76,0,0,1,302.3,9.54Zm1,1a1.38,1.38,0,0,0,0,2l.16.16a1.38,1.38,0,0,0,2,0l1.38-1.38a1.38,1.38,0,0,0,0-2l-.16-.16a1.38,1.38,0,0,0-2,0Z" style="fill:#577e9c"/></clipPath><clipPath id="clip-path-51"><path d="M308.07,3.77l1.38-1.38a2.76,2.76,0,0,1,3.91,0l.16.16a2.76,2.76,0,0,1,0,3.91l-1.38,1.38a2.76,2.76,0,0,1-3.91,0l-.16-.16A2.76,2.76,0,0,1,308.07,3.77Zm1,1a1.38,1.38,0,0,0,0,2l.16.16a1.38,1.38,0,0,0,2,0l1.38-1.38a1.38,1.38,0,0,0,0-2l-.16-.16a1.38,1.38,0,0,0-2,0Z" style="fill:#577e9c"/></clipPath><clipPath id="clip-path-52"><path d="M306,10.89a.69.69,0,0,1-1-1l5.05-5.05a.69.69,0,1,1,1,1Z" style="fill:#577e9c"/></clipPath><clipPath id="clip-path-53"><path d="M-71.31,10.35a.74.74,0,0,1-1,0,.74.74,0,0,1,0-1c3.15-3.35,5.88-4.93,8.24-4.62S-60.36,6-60.07,7.78a.74.74,0,0,1-.6.85.74.74,0,0,1-.85-.6c-.17-1-1-1.62-2.82-1.85S-68.46,7.31-71.31,10.35Z" style="fill:#6f767c"/></clipPath><clipPath id="clip-path-54"><path d="M-71.11,9.32l2.37.54a.74.74,0,0,1,.56.88.74.74,0,0,1-.88.56L-72,10.63a.74.74,0,0,1-.57-.72V5.42a.74.74,0,0,1,.74-.74.74.74,0,0,1,.74.74Z" style="fill:#6f767c"/></clipPath><clipPath id="clip-path-55"><path d="M-38.93,10.35a.74.74,0,0,0,1,0,.74.74,0,0,0,0-1C-41,6-43.73,4.41-46.09,4.72S-49.88,6-50.17,7.78a.74.74,0,0,0,.6.85.74.74,0,0,0,.85-.6c.17-1,1-1.62,2.82-1.85S-41.78,7.31-38.93,10.35Z" style="fill:#6f767c"/></clipPath><clipPath id="clip-path-56"><path d="M-39.12,9.32l-2.37.54a.74.74,0,0,0-.56.88.74.74,0,0,0,.88.56l2.95-.67a.74.74,0,0,0,.57-.72V5.42a.74.74,0,0,0-.74-.74.74.74,0,0,0-.74.74Z" style="fill:#6f767c"/></clipPath><clipPath id="clip-path-57"><path d="M384.9,10.35a.74.74,0,0,0,1.07-1c-3.15-3.35-5.88-4.93-8.24-4.62S373.95,6,373.65,7.78A.74.74,0,1,0,375.1,8c.17-1,1-1.62,2.82-1.85S382,7.31,384.9,10.35Z" style="fill:#577e9c"/></clipPath><clipPath id="clip-path-58"><path d="M384.7,9.32l-2.37.54a.74.74,0,0,0,.33,1.44l2.95-.67a.74.74,0,0,0,.57-.72V5.42a.74.74,0,1,0-1.47,0Z" style="fill:#577e9c"/></clipPath><clipPath id="clip-path-59"><path d="M-22.52,3.28h7V5.62h-.33a2.12,2.12,0,0,0-.94-1.69,2.9,2.9,0,0,0-1.3-.27v6.1a1.18,1.18,0,0,0,.22.85,1.44,1.44,0,0,0,.93.21v.29h-4.13v-.29a1.36,1.36,0,0,0,.9-.21A1.18,1.18,0,0,0-20,9.76V3.66a3,3,0,0,0-1.3.27,2,2,0,0,0-.94,1.69h-.33Z" style="fill:#6f767c;clip-rule:evenodd"/></clipPath><clipPath id="clip-path-60"><path d="M-15.1,10.2l.51-.51a.64.64,0,0,1,.91,0,.64.64,0,0,1,0,.91l-.51.51.51.51a.64.64,0,0,1,0,.91.64.64,0,0,1-.91,0L-15.1,12l-.51.51a.64.64,0,0,1-.91,0,.64.64,0,0,1,0-.91l.51-.51-.51-.51a.64.64,0,0,1,0-.91.64.64,0,0,1,.91,0Z" style="fill:#6f767c"/></clipPath><clipPath id="clip-path-61"><path d="M11.54,9.52q-.19-.47-.42-.94t-.49-.94V9.52h-.51V6.69h.45q.13.2.26.44l.25.47.22.45.18.38V6.69H12V9.52ZM8.94,7.24l-.08.3-.07.28-.06.28-.06.29h.55l-.05-.29q0-.14-.06-.28L9,7.55Zm.5,2.28-.13-.65H8.56l-.13.65H7.84Q8,8.69,8.25,8l.4-1.31h.61q.2.62.4,1.32T10,9.52ZM6.77,7.15H6.5v.91h.23A.65.65,0,0,0,7.13,8a.44.44,0,0,0,.14-.37.41.41,0,0,0-.13-.35A.58.58,0,0,0,6.77,7.15Zm-.06-.49a1.38,1.38,0,0,1,.84.22.84.84,0,0,1,.3.72.86.86,0,0,1-.3.73,1.38,1.38,0,0,1-.85.23H6.5v1H5.93V6.73l.19,0,.21,0h.38ZM4.63,9.11a.79.79,0,0,0,.24,0A.37.37,0,0,0,5,9a.28.28,0,0,0,.08-.12.45.45,0,0,0,0-.13.26.26,0,0,0-.05-.16.51.51,0,0,0-.13-.12l-.17-.1-.19-.08L4.3,8.19A1.05,1.05,0,0,1,4.05,8a.75.75,0,0,1-.19-.23.7.7,0,0,1-.07-.34.78.78,0,0,1,.26-.62,1,1,0,0,1,.71-.22,1.56,1.56,0,0,1,.45.06,1.73,1.73,0,0,1,.33.13l-.16.43-.25-.11a1,1,0,0,0-.32,0q-.45,0-.45.32a.24.24,0,0,0,0,.14.47.47,0,0,0,.12.11l.16.08.18.07.28.11a1,1,0,0,1,.27.16.81.81,0,0,1,.2.26.85.85,0,0,1,.08.39.76.76,0,0,1-.26.61,1.2,1.2,0,0,1-.78.22,1.71,1.71,0,0,1-.56-.08,1.82,1.82,0,0,1-.32-.14l.16-.46A1.85,1.85,0,0,0,4.21,9,1.2,1.2,0,0,0,4.63,9.11Z" style="fill:#6f767c;clip-rule:evenodd"/></clipPath><clipPath id="clip-path-62"><path d="M2.14,8l1,1.61a.51.51,0,1,1-.86.54L1.11,8.31a.51.51,0,0,1,0-.54l1.24-2a.51.51,0,1,1,.86.54Z" style="fill:#6f767c"/></clipPath><clipPath id="clip-path-63"><path d="M12.84,9.65a.51.51,0,0,0,.86.54l1.19-1.88a.51.51,0,0,0,0-.54l-1.24-2a.51.51,0,0,0-.86.54L13.86,8Z" style="fill:#6f767c"/></clipPath><clipPath id="clip-path-64"><path d="M-102.77,43.46a5.16,5.16,0,0,0-2-2,10.35,10.35,0,0,0-2.95-1.09A17.74,17.74,0,0,0-111.4,40a7.43,7.43,0,0,0-2.81.53,6.76,6.76,0,0,0-2.13,1.3,7.12,7.12,0,0,0-1.3,1.59,2.73,2.73,0,0,0-.44,1.31,2.89,2.89,0,0,0,.59,1.91,2,2,0,0,0,1.67.68,4.38,4.38,0,0,1,2.21.43,1.81,1.81,0,0,1,.83,1.67,2.44,2.44,0,0,0,.77,1.85,2.68,2.68,0,0,0,1.94.74,9.26,9.26,0,0,0,6-1.68,4.9,4.9,0,0,0,2-3.9A6,6,0,0,0-102.77,43.46Zm.7-.4a6.79,6.79,0,0,1,.82,3.42A5.69,5.69,0,0,1-103.57,51a10,10,0,0,1-6.49,1.86,3.48,3.48,0,0,1-2.5-1,3.24,3.24,0,0,1-1-2.42,1,1,0,0,0-.44-1,3.72,3.72,0,0,0-1.79-.32,2.83,2.83,0,0,1-2.29-1,3.67,3.67,0,0,1-.78-2.42,3.48,3.48,0,0,1,.55-1.71,7.9,7.9,0,0,1,1.44-1.77,7.54,7.54,0,0,1,2.38-1.46,8.23,8.23,0,0,1,3.11-.59,18.53,18.53,0,0,1,3.86.37,11.15,11.15,0,0,1,3.17,1.18A6,6,0,0,1-102.08,43.06Z" style="fill:#fff"/></clipPath><clipPath id="clip-path-65"><path d="M-115.67,46.45A1.56,1.56,0,0,1-116.8,46a1.56,1.56,0,0,1-.47-1.13,1.56,1.56,0,0,1,.47-1.13,1.56,1.56,0,0,1,1.13-.47,1.56,1.56,0,0,1,1.13.47,1.56,1.56,0,0,1,.47,1.13,1.56,1.56,0,0,1-.47,1.13A1.56,1.56,0,0,1-115.67,46.45Zm.57-1a.76.76,0,0,0,.23-.57.76.76,0,0,0-.23-.57.76.76,0,0,0-.57-.23.76.76,0,0,0-.57.23.76.76,0,0,0-.23.57.76.76,0,0,0,.23.57.76.76,0,0,0,.57.23A.76.76,0,0,0-115.1,45.42Z" style="fill:#fff"/></clipPath><clipPath id="clip-path-66"><path d="M-112.49,44a1.52,1.52,0,0,1-1.13-.47,1.58,1.58,0,0,1-.45-1.13,1.58,1.58,0,0,1,.45-1.13,1.52,1.52,0,0,1,1.13-.47,1.59,1.59,0,0,1,1.14.47,1.55,1.55,0,0,1,.48,1.14,1.55,1.55,0,0,1-.48,1.14A1.59,1.59,0,0,1-112.49,44Zm0-.8a.79.79,0,0,0,.58-.24.75.75,0,0,0,.24-.56.75.75,0,0,0-.24-.56.79.79,0,0,0-.58-.24.72.72,0,0,0-.56.23.78.78,0,0,0-.23.57A.78.78,0,0,0-113,43,.72.72,0,0,0-112.49,43.25Z" style="fill:#fff"/></clipPath><clipPath id="clip-path-67"><path d="M-108.94,50.79a1.56,1.56,0,0,1-1.13.47,1.56,1.56,0,0,1-1.13-.47,1.56,1.56,0,0,1-.47-1.13,1.56,1.56,0,0,1,.47-1.13,1.56,1.56,0,0,1,1.13-.47,1.56,1.56,0,0,1,1.13.47,1.56,1.56,0,0,1,.47,1.13A1.56,1.56,0,0,1-108.94,50.79Zm-.33-1.13a.76.76,0,0,0-.24-.56.76.76,0,0,0-.56-.24.76.76,0,0,0-.56.24.76.76,0,0,0-.24.56.76.76,0,0,0,.24.56.76.76,0,0,0,.56.24.76.76,0,0,0,.56-.24A.76.76,0,0,0-109.26,49.66Z" style="fill:#fff"/></clipPath><clipPath id="clip-path-68"><path d="M-108.46,44a1.56,1.56,0,0,1-1.13-.47,1.56,1.56,0,0,1-.47-1.13,1.56,1.56,0,0,1,.47-1.13,1.56,1.56,0,0,1,1.13-.47,1.56,1.56,0,0,1,1.13.47,1.56,1.56,0,0,1,.47,1.13,1.56,1.56,0,0,1-.47,1.13A1.56,1.56,0,0,1-108.46,44Zm.57-1a.76.76,0,0,0,.23-.57.76.76,0,0,0-.23-.57.76.76,0,0,0-.57-.23.76.76,0,0,0-.57.23.76.76,0,0,0-.23.57A.76.76,0,0,0-109,43a.76.76,0,0,0,.57.23A.76.76,0,0,0-107.9,43Z" style="fill:#fff"/></clipPath><clipPath id="clip-path-69"><path d="M-104.13,45.18a1.56,1.56,0,0,1-1.13.47,1.56,1.56,0,0,1-1.13-.47,1.56,1.56,0,0,1-.47-1.13,1.56,1.56,0,0,1,.47-1.13,1.56,1.56,0,0,1,1.13-.47,1.56,1.56,0,0,1,1.13.47,1.56,1.56,0,0,1,.47,1.13A1.56,1.56,0,0,1-104.13,45.18Zm-.33-1.13a.76.76,0,0,0-.23-.57.76.76,0,0,0-.57-.23.76.76,0,0,0-.57.23.76.76,0,0,0-.23.57.76.76,0,0,0,.23.57.76.76,0,0,0,.57.23.76.76,0,0,0,.57-.23A.76.76,0,0,0-104.46,44Z" style="fill:#fff"/></clipPath><clipPath id="clip-path-70"><path d="M-115.4,51.08l-.13-1-2.77.4v.47Zm-3.7.58V49.74l4.27-.61.35,2.8Z" style="fill:#fff"/></clipPath><clipPath id="clip-path-71"><path d="M-121.91,50.79l.62.31a5.86,5.86,0,0,0,.8.3c.68.2,1.06.12,1.19-.23.41-1.07-.59-2-2.3-1.66a3.34,3.34,0,0,0-2,1A3.43,3.43,0,0,1-121.91,50.79Zm.15-2.06c2.28-.48,3.86,1,3.21,2.73-.32.85-1.13,1-2.16.71a6.63,6.63,0,0,1-.91-.34l-.66-.32a3.44,3.44,0,0,0-1.91-.17.4.4,0,0,1-.43-.5C-124.33,49.75-123.35,49.06-121.77,48.72Z" style="fill:#fff"/></clipPath><clipPath id="clip-path-72"><path d="M-72.8,48.13a2,2,0,0,1-2,2,2,2,0,0,1-2-2,2,2,0,0,1,2-2A2,2,0,0,1-72.8,48.13Zm-.64,0a1.4,1.4,0,0,0-1.4-1.4,1.4,1.4,0,0,0-1.4,1.4,1.4,1.4,0,0,0,1.4,1.4A1.4,1.4,0,0,0-73.44,48.13Zm2.81-.64h-.46a.7.7,0,0,1-.62-.46,3.21,3.21,0,0,0-.14-.33.69.69,0,0,1,.11-.76l.33-.33a.27.27,0,0,0,0-.38l-.53-.53a.26.26,0,0,0-.19-.08.26.26,0,0,0-.19.08l-.33.33a.65.65,0,0,1-.46.18.69.69,0,0,1-.3-.07l-.33-.14a.69.69,0,0,1-.46-.62v-.46a.27.27,0,0,0-.27-.27h-.75a.27.27,0,0,0-.27.27v.46a.69.69,0,0,1-.46.62l-.33.14a.7.7,0,0,1-.3.07A.65.65,0,0,1-77,45l-.33-.33a.26.26,0,0,0-.19-.08.26.26,0,0,0-.19.08l-.53.53a.26.26,0,0,0-.08.19.26.26,0,0,0,.08.19l.33.33a.69.69,0,0,1,.11.76A3.29,3.29,0,0,0-78,47a.7.7,0,0,1-.62.46h-.46a.27.27,0,0,0-.27.27v.75a.27.27,0,0,0,.27.27h.46a.69.69,0,0,1,.62.46,3.31,3.31,0,0,0,.14.33.69.69,0,0,1-.11.76l-.33.33a.27.27,0,0,0,0,.38l.53.53a.26.26,0,0,0,.19.08.26.26,0,0,0,.19-.08l.33-.33a.65.65,0,0,1,.46-.18.69.69,0,0,1,.3.07l.33.14a.7.7,0,0,1,.46.62v.46a.27.27,0,0,0,.27.27h.75a.27.27,0,0,0,.27-.27v-.46a.69.69,0,0,1,.46-.62l.33-.14a.69.69,0,0,1,.3-.07.65.65,0,0,1,.46.18l.33.33a.26.26,0,0,0,.19.08.26.26,0,0,0,.19-.08l.53-.53a.27.27,0,0,0,0-.38l-.33-.33a.69.69,0,0,1-.11-.76,3.19,3.19,0,0,0,.14-.33.7.7,0,0,1,.62-.46h.46a.27.27,0,0,0,.27-.27v-.75A.27.27,0,0,0-70.63,47.49Zm-.64-1.07a3.84,3.84,0,0,1,.17.4s0,0,0,0h.46a.91.91,0,0,1,.91.91v.75a.91.91,0,0,1-.91.91h-.46s0,0,0,0a3.82,3.82,0,0,1-.17.4s0,0,0,0l.33.33a.91.91,0,0,1,0,1.28l-.53.53a.9.9,0,0,1-.64.27.9.9,0,0,1-.64-.27l-.33-.33h0l-.4.17s0,0,0,0v.46a.91.91,0,0,1-.91.91h-.75a.91.91,0,0,1-.91-.91v-.46s0,0,0,0l-.4-.17s0,0,0,0l-.33.33a.9.9,0,0,1-.64.27.9.9,0,0,1-.64-.27l-.53-.53a.91.91,0,0,1,0-1.28l.33-.33s0,0,0,0a4,4,0,0,1-.17-.4s0,0,0,0h-.46a.91.91,0,0,1-.91-.91v-.75a.91.91,0,0,1,.91-.91h.46s0,0,0,0a3.92,3.92,0,0,1,.17-.4s0,0,0,0l-.33-.33a.9.9,0,0,1-.27-.64.9.9,0,0,1,.27-.64l.53-.53a.9.9,0,0,1,.64-.27.9.9,0,0,1,.64.27l.33.33h0l.4-.17s0,0,0,0v-.46a.91.91,0,0,1,.91-.91h.75a.91.91,0,0,1,.91.91v.46s0,0,0,0l.4.17s0,0,0,0l.33-.33a.9.9,0,0,1,.64-.26.9.9,0,0,1,.64.27l.53.53a.91.91,0,0,1,0,1.28l-.33.33S-71.28,46.41-71.27,46.42Z" style="fill:#fff"/></clipPath><clipPath id="clip-path-73"><path d="M-79.64,41.74a1,1,0,0,1-1,1,1,1,0,0,1-1-1,1,1,0,0,1,1-1A1,1,0,0,1-79.64,41.74Zm1.13.73a.11.11,0,0,1,.08-.07h.27a.45.45,0,0,0,.45-.45v-.43a.45.45,0,0,0-.45-.45h-.27a.11.11,0,0,1-.08-.07,2.24,2.24,0,0,0-.09-.22.11.11,0,0,1,0-.1l.19-.19a.45.45,0,0,0,0-.64l-.31-.31a.45.45,0,0,0-.32-.13.45.45,0,0,0-.32.13l-.19.19-.06,0h0l-.22-.09a.11.11,0,0,1-.07-.08v-.27a.45.45,0,0,0-.45-.45h-.43a.45.45,0,0,0-.45.45v.27a.11.11,0,0,1-.07.08l-.22.09h0l-.06,0-.19-.19a.45.45,0,0,0-.32-.13.45.45,0,0,0-.32.13l-.31.31a.45.45,0,0,0,0,.64l.19.19a.11.11,0,0,1,0,.1,2.15,2.15,0,0,0-.09.22.11.11,0,0,1-.08.07H-83a.45.45,0,0,0-.45.45V42a.45.45,0,0,0,.45.45h.26a.11.11,0,0,1,.08.07,2.16,2.16,0,0,0,.09.22.11.11,0,0,1,0,.1l-.19.19a.45.45,0,0,0-.13.32.45.45,0,0,0,.13.32l.31.31a.45.45,0,0,0,.32.13.45.45,0,0,0,.32-.13l.19-.19.06,0h0l.22.09a.11.11,0,0,1,.07.08v.27a.45.45,0,0,0,.45.45h.43a.45.45,0,0,0,.45-.45V43.9a.11.11,0,0,1,.07-.08l.22-.09h0l.06,0,.19.19a.45.45,0,0,0,.32.13.45.45,0,0,0,.32-.13l.31-.31a.45.45,0,0,0,0-.64l-.19-.19a.11.11,0,0,1,0-.1A2.29,2.29,0,0,0-78.51,42.47Z" style="fill:#626b71;clip-rule:evenodd"/></clipPath><clipPath id="clip-path-74"><path d="M-40.29,40.42h-.23l-.23,0V42h.38a1.07,1.07,0,0,0,.67-.18.73.73,0,0,0,.23-.61.68.68,0,0,0-.22-.58A1,1,0,0,0-40.29,40.42Zm-.11-.81A2.27,2.27,0,0,1-39,40a1.39,1.39,0,0,1,.49,1.2A1.42,1.42,0,0,1-39,42.38a2.28,2.28,0,0,1-1.4.37h-.33v1.58h-.93V39.73l.31-.05.34,0,.34,0Zm-2.43.05v4.67h-.93V42.27H-45v2.06h-.93V39.67H-45v1.84h1.24V39.67Zm-5.81.75h-.23l-.23,0V42h.38a1.07,1.07,0,0,0,.67-.18.73.73,0,0,0,.23-.61.68.68,0,0,0-.22-.58A1,1,0,0,0-48.64,40.42Zm-.11-.81a2.27,2.27,0,0,1,1.38.37,1.39,1.39,0,0,1,.49,1.2,1.42,1.42,0,0,1-.49,1.21,2.28,2.28,0,0,1-1.4.37h-.33v1.58H-50V39.73l.31-.05.34,0,.34,0Z" style="fill:none;clip-rule:evenodd"/></clipPath><clipPath id="clip-path-75"><path d="M-35.46,42a.38.38,0,0,1-.33-.15.58.58,0,0,1-.11-.34.56.56,0,0,1,.11-.34.38.38,0,0,1,.33-.15.38.38,0,0,1,.32.15.54.54,0,0,1,.12.34.57.57,0,0,1-.11.34A.38.38,0,0,1-35.46,42Zm2.76,0a.38.38,0,0,1-.33-.15.58.58,0,0,1-.11-.34.56.56,0,0,1,.11-.34A.38.38,0,0,1-32.7,41a.38.38,0,0,1,.32.15.54.54,0,0,1,.12.34.57.57,0,0,1-.11.34A.38.38,0,0,1-32.7,42Zm2.75,0a.38.38,0,0,1-.32-.15.57.57,0,0,1-.11-.34.55.55,0,0,1,.11-.34.38.38,0,0,1,.32-.15.38.38,0,0,1,.32.15.56.56,0,0,1,.11.34.58.58,0,0,1-.11.34A.38.38,0,0,1-29.94,42Z" style="fill:none;clip-rule:evenodd"/></clipPath><clipPath id="clip-path-76"><rect x="-45.15" y="44.2" width="17.35" height="8.3" rx="2.26" ry="2.26" style="fill:none"/></clipPath><clipPath id="clip-path-77"><path d="M-30.06,49.63l-.08,0-.17.06-.25.06-.33,0a.89.89,0,0,1-.75-.3,1.44,1.44,0,0,1-.24-.89V46.21h-.78V45.6h1.53v3.08a.52.52,0,0,0,.11.39.42.42,0,0,0,.29.1,1,1,0,0,0,.37-.06l.2-.08Zm-4.09-2.75a.89.89,0,0,1,.39.07.55.55,0,0,1,.24.22,1,1,0,0,1,.12.37,3.85,3.85,0,0,1,0,.52v1.7H-34V48a1.4,1.4,0,0,0,0-.27.5.5,0,0,0-.05-.16.17.17,0,0,0-.08-.07l-.09,0h-.11l-.11,0q0,.11,0,.25t0,.31v.57H-35V48a1,1,0,0,0-.06-.4.19.19,0,0,0-.18-.11h-.09l-.1,0v2.23H-36V47l.46-.1a2.63,2.63,0,0,1,.4,0,.93.93,0,0,1,.28,0,.52.52,0,0,1,.21.13,1.23,1.23,0,0,1,.24-.12A.83.83,0,0,1-34.15,46.88Zm-4.55.65h-.65v-.62h.65V46.2l.74-.12v.83h1.19v.62h-1.19v1.15a.87.87,0,0,0,0,.25.36.36,0,0,0,.08.15.27.27,0,0,0,.13.07l.17,0h.19l.17,0,.17,0,.19-.08.1.64a1.92,1.92,0,0,1-.44.12,3.07,3.07,0,0,1-.46,0,2.23,2.23,0,0,1-.46,0,.74.74,0,0,1-.34-.16.75.75,0,0,1-.21-.34,1.89,1.89,0,0,1-.07-.58Zm-3.82,2.22V45.69l.74-.13v1.38l.22-.06.22,0a1.3,1.3,0,0,1,.52.09.82.82,0,0,1,.34.27,1.09,1.09,0,0,1,.18.41,2.38,2.38,0,0,1,.05.53v1.6H-41v-1.5a1.33,1.33,0,0,0-.09-.57.35.35,0,0,0-.34-.17l-.2,0-.16,0v2.18Z" style="fill:none;clip-rule:evenodd"/></clipPath><clipPath id="clip-path-78"><path d="M8.66,45.55,6,46.66l-.24-.74,1.92-.75-1.92-.75L6,43.69l2.63,1.1ZM2.71,46.92V42.69H5.28v.7H3.56v1h1.5V45H3.56v1.19H5.43v.7ZM2.29,44.8a3,3,0,0,1-.15,1,1.78,1.78,0,0,1-.41.67,1.56,1.56,0,0,1-.62.38A2.49,2.49,0,0,1,.32,47l-.44,0-.46-.08V42.74A4.22,4.22,0,0,1,0,42.66l.47,0a2.26,2.26,0,0,1,.76.12,1.42,1.42,0,0,1,.59.39,1.83,1.83,0,0,1,.37.67A3.18,3.18,0,0,1,2.29,44.8Zm-2,1.44H.41a1,1,0,0,0,.48-.11.87.87,0,0,0,.32-.3,1.33,1.33,0,0,0,.17-.46,3,3,0,0,0,.05-.58,3.42,3.42,0,0,0,0-.53,1.5,1.5,0,0,0-.14-.46A.84.84,0,0,0,1,43.49a.81.81,0,0,0-.46-.12H.39l-.12,0ZM-4,44.8a2.81,2.81,0,0,1,.4-1.65,1.31,1.31,0,0,1,1.12-.56,1.3,1.3,0,0,1,1.14.56A2.89,2.89,0,0,1-.94,44.8a2.85,2.85,0,0,1-.4,1.65A1.3,1.3,0,0,1-2.46,47a1.31,1.31,0,0,1-1.14-.56A2.87,2.87,0,0,1-4,44.8Zm.86,0q0,.31,0,.58a1.87,1.87,0,0,0,.1.47.76.76,0,0,0,.2.32.5.5,0,0,0,.35.12.51.51,0,0,0,.35-.12.74.74,0,0,0,.21-.32,1.91,1.91,0,0,0,.1-.47q0-.27,0-.58t0-.58a1.87,1.87,0,0,0-.1-.47.76.76,0,0,0-.2-.32.5.5,0,0,0-.35-.12.5.5,0,0,0-.35.12.76.76,0,0,0-.2.32,1.91,1.91,0,0,0-.1.47Q-3.14,44.49-3.14,44.8ZM-5.39,47a1.67,1.67,0,0,1-1.37-.58,2.52,2.52,0,0,1-.47-1.64,2.83,2.83,0,0,1,.14-.94,2,2,0,0,1,.4-.7,1.69,1.69,0,0,1,.61-.43,2,2,0,0,1,.77-.15,2,2,0,0,1,.41,0l.32.09.23.1.14.08-.22.67a1.59,1.59,0,0,0-.38-.17,1.66,1.66,0,0,0-.51-.07,1.08,1.08,0,0,0-.39.07.85.85,0,0,0-.34.24,1.28,1.28,0,0,0-.24.45,2.26,2.26,0,0,0-.09.7,2.06,2.06,0,0,0,.25,1.11.9.9,0,0,0,.82.39,1.67,1.67,0,0,0,.54-.08,2.06,2.06,0,0,0,.35-.15l.21.66a2.1,2.1,0,0,1-.48.2A2.42,2.42,0,0,1-5.39,47Zm-4.06,1h-.88l1.92-5.92h.86Zm-4.12-3.27,2.63-1.1.23.74-1.92.75,1.92.75-.23.74-2.63-1.11Z" style="fill:none;clip-rule:evenodd"/></clipPath><clipPath id="clip-path-79"><path d="M-5.21,50a.37.37,0,0,1-.33-.15.58.58,0,0,1-.11-.34.56.56,0,0,1,.11-.34A.38.38,0,0,1-5.21,49a.38.38,0,0,1,.32.15.54.54,0,0,1,.12.34.57.57,0,0,1-.11.34A.38.38,0,0,1-5.21,50Zm2.76,0a.37.37,0,0,1-.33-.15.58.58,0,0,1-.11-.34.56.56,0,0,1,.11-.34A.38.38,0,0,1-2.45,49a.38.38,0,0,1,.32.15.54.54,0,0,1,.12.34.57.57,0,0,1-.11.34A.38.38,0,0,1-2.45,50ZM.3,50A.38.38,0,0,1,0,49.81a.57.57,0,0,1-.11-.34A.55.55,0,0,1,0,49.13.38.38,0,0,1,.3,49a.38.38,0,0,1,.32.15.56.56,0,0,1,.11.34.58.58,0,0,1-.11.34A.37.37,0,0,1,.3,50Z" style="fill:none;clip-rule:evenodd"/></clipPath><clipPath id="clip-path-80"><rect x="21.83" y="36.64" width="12.55" height="9.86" rx="1.79" ry="1.79" style="fill:none"/></clipPath><clipPath id="clip-path-81"><path d="M34.36,53.5a3.09,3.09,0,0,1-2.55,1.07h0c-2,0-3.9-1.4-5.16-2.55a18.61,18.61,0,0,1-2.1-2.31,1.21,1.21,0,0,1,.77-.28,2.08,2.08,0,0,1,1.21.49l0,0,1.19.93a.4.4,0,0,0,.42,0,.41.41,0,0,0,.23-.36l0-5.88V42.61a.6.6,0,1,1,1.2,0,.27.27,0,0,0,0,0L30,46.5a.41.41,0,0,0,.29.35L31,47a12,12,0,0,1,4.16,1.67C35.27,49.38,35.56,52,34.36,53.5ZM36,48.34a.41.41,0,0,0-.19-.28,12.94,12.94,0,0,0-4.58-1.89l-.36-.08-.42-3.56a1.41,1.41,0,0,0-2.82,0s0,0,0,0v2.09l0,5.11-.54-.43a2.89,2.89,0,0,0-1.74-.7,2.1,2.1,0,0,0-1.61.78.42.42,0,0,0,0,.52,18.89,18.89,0,0,0,2.42,2.74,13,13,0,0,0,2.58,1.91,6.74,6.74,0,0,0,3.15.9h0a3.85,3.85,0,0,0,3.18-1.38C36.7,52,36,48.49,36,48.34Z" style="fill:none;clip-rule:evenodd"/></clipPath><clipPath id="clip-path-82"><path d="M56.26,37.05h16a2,2,0,0,1,2,2v4a2,2,0,0,1-2,2h-16a2,2,0,0,1-2-2v-4A2,2,0,0,1,56.26,37.05Zm0,1a1,1,0,0,0-1,1v4a1,1,0,0,0,1,1h16a1,1,0,0,0,1-1v-4a1,1,0,0,0-1-1Z" style="fill:none"/></clipPath><clipPath id="clip-path-83"><polygon points="69.26 42.05 67.26 40.05 71.26 40.05 69.26 42.05" style="fill:none;clip-rule:evenodd"/></clipPath><clipPath id="clip-path-84"><rect x="54.26" y="47.05" width="20" height="8" rx="2" ry="2" style="fill:none"/></clipPath><clipPath id="clip-path-85"><circle cx="100.99" cy="49.55" r="1" style="fill:none"/></clipPath><clipPath id="clip-path-86"><path d="M93,42.55h4a2,2,0,0,1,2,2v8a2,2,0,0,1-2,2H93a2,2,0,0,1-2-2v-8A2,2,0,0,1,93,42.55Zm0,1a1,1,0,0,0-1,1v8a1,1,0,0,0,1,1h4a1,1,0,0,0,1-1v-8a1,1,0,0,0-1-1Z" style="fill:none"/></clipPath><clipPath id="clip-path-87"><circle cx="94.99" cy="51.55" r="1" style="fill:none"/></clipPath><clipPath id="clip-path-88"><path d="M126.88,42.47a.35.35,0,0,1,.61.33,6.94,6.94,0,0,0,.26,7,.35.35,0,0,1-.59.37,7.63,7.63,0,0,1-.28-7.65Zm13.26-.34a.35.35,0,1,1-.59.36,6.92,6.92,0,0,0-5.94-3.36h-.15a.35.35,0,0,1,0-.69h.16A7.62,7.62,0,0,1,140.14,42.13Zm-6.53,11.55a.35.35,0,0,1,0-.69,6.93,6.93,0,0,0,6-3.54.35.35,0,0,1,.6.34A7.62,7.62,0,0,1,133.61,53.67Z" style="fill:none"/></clipPath><clipPath id="clip-path-89"><path d="M132.23,41.29a.35.35,0,0,1,.18.67,4.16,4.16,0,0,0-2.75,5.62.35.35,0,1,1-.64.27,4.85,4.85,0,0,1,3.21-6.56Zm1.26,9.53a.35.35,0,0,1,0-.69A4.16,4.16,0,0,0,137.65,46a4.2,4.2,0,0,0,0-.55.35.35,0,1,1,.69-.09,4.85,4.85,0,0,1-4.81,5.49Z" style="fill:none"/></clipPath><clipPath id="clip-path-90"><path d="M133.32,48.48a.35.35,0,0,1,0-.69,1.73,1.73,0,1,0-1-3.15.35.35,0,1,1-.4-.57,2.43,2.43,0,1,1,1.4,4.41Z" style="fill:none"/></clipPath><clipPath id="clip-path-91"><rect x="158.73" y="40.27" width="12.46" height="3.11" rx="0.78" ry="0.78" style="fill:none"/></clipPath><clipPath id="clip-path-92"><path d="M175.15,51.08a1.95,1.95,0,1,1-1.95-1.95A1.95,1.95,0,0,1,175.15,51.08Zm-.78,0a1.17,1.17,0,1,0-1.17,1.17A1.17,1.17,0,0,0,174.37,51.08Zm2.25-.39h-.37a.69.69,0,0,1-.62-.46,2.48,2.48,0,0,0-.11-.26.69.69,0,0,1,.11-.77l.27-.27a.09.09,0,0,0,0-.12l-.43-.43-.06,0-.06,0-.26.27a.65.65,0,0,1-.47.18.69.69,0,0,1-.3-.07l-.26-.11a.69.69,0,0,1-.46-.62v-.37a.09.09,0,0,0-.09-.09h-.61a.09.09,0,0,0-.09.09V48a.69.69,0,0,1-.46.62l-.26.11a.7.7,0,0,1-.3.07.66.66,0,0,1-.47-.18l-.26-.26-.06,0-.06,0-.43.43a.09.09,0,0,0,0,.12l.27.27a.69.69,0,0,1,.12.77,2.54,2.54,0,0,0-.11.26.69.69,0,0,1-.62.46h-.37a.09.09,0,0,0-.09.09v.61a.09.09,0,0,0,.09.09h.37a.69.69,0,0,1,.62.46,2.56,2.56,0,0,0,.11.26.69.69,0,0,1-.12.77l-.27.27a.09.09,0,0,0,0,.12l.43.43a.08.08,0,0,0,.06,0l.06,0,.27-.27a.66.66,0,0,1,.47-.18.69.69,0,0,1,.3.07l.26.11a.69.69,0,0,1,.46.62v.37a.09.09,0,0,0,.09.09h.61a.09.09,0,0,0,.09-.09v-.37a.69.69,0,0,1,.46-.62l.26-.11a.69.69,0,0,1,.3-.07.66.66,0,0,1,.47.18l.27.27.06,0,.06,0,.43-.43a.09.09,0,0,0,0-.12l-.27-.27a.69.69,0,0,1-.11-.77,2.46,2.46,0,0,0,.11-.26.69.69,0,0,1,.62-.46h.37a.09.09,0,0,0,.09-.09v-.61A.09.09,0,0,0,176.61,50.69Zm-.27,1.52v0h0Zm-4.27,2h0Zm-2-2v0Zm6.17-2.56v0h0Zm.39.26a.87.87,0,0,1,.87.87v.61a.87.87,0,0,1-.87.87h-.28l-.09.22.2.2a.87.87,0,0,1,0,1.22l-.43.43a.87.87,0,0,1-1.22,0l-.2-.2-.22.09v.28a.87.87,0,0,1-.87.87h-.61a.87.87,0,0,1-.87-.87v-.28l-.22-.09-.2.2a.87.87,0,0,1-1.22,0l-.43-.43a.87.87,0,0,1,0-1.22l.2-.2-.09-.22h-.28a.87.87,0,0,1-.87-.87v-.61a.87.87,0,0,1,.87-.87h.28l.09-.22-.2-.2a.87.87,0,0,1,0-1.22l.43-.43a.87.87,0,0,1,1.22,0l.2.2.22-.09v-.28a.87.87,0,0,1,.87-.87h.61a.87.87,0,0,1,.87.87v.28l.22.09.2-.2a.87.87,0,0,1,1.22,0l.43.43a.87.87,0,0,1,0,1.22l-.2.2.09.22Z" style="fill:none"/></clipPath><clipPath id="clip-path-93"><rect x="191.47" y="38.87" width="14.36" height="2.87" rx="0.72" ry="0.72" style="fill:none"/></clipPath><clipPath id="clip-path-94"><rect x="191.47" y="50.36" width="14.36" height="2.87" rx="0.72" ry="0.72" style="fill:none"/></clipPath><clipPath id="clip-path-95"><path d="M192.9,42.46h11.49a1.44,1.44,0,0,1,1.44,1.44v4.31a1.44,1.44,0,0,1-1.44,1.44H192.9a1.44,1.44,0,0,1-1.44-1.44V43.9A1.44,1.44,0,0,1,192.9,42.46Zm0,.72a.72.72,0,0,0-.72.72v4.31a.72.72,0,0,0,.72.72h11.49a.72.72,0,0,0,.72-.72V43.9a.72.72,0,0,0-.72-.72Z" style="fill:none"/></clipPath><clipPath id="clip-path-96"><path d="M224,48.27l2.48-2.48a2.56,2.56,0,0,1,3.62,0l1.08,1.08a2.56,2.56,0,0,1,0,3.62L228.69,53a2.56,2.56,0,0,1-3.62,0L224,51.89A2.56,2.56,0,0,1,224,48.27Zm.54.54a1.8,1.8,0,0,0,0,2.54l1.08,1.08a1.8,1.8,0,0,0,2.54,0l2.48-2.48a1.8,1.8,0,0,0,0-2.54l-1.08-1.08a1.8,1.8,0,0,0-2.54,0Z" style="fill:none"/></clipPath><clipPath id="clip-path-97"><path d="M230.64,41.62l2.48-2.48a2.56,2.56,0,0,1,3.62,0l1.08,1.08a2.56,2.56,0,0,1,0,3.62l-2.48,2.48a2.56,2.56,0,0,1-3.62,0l-1.08-1.08A2.56,2.56,0,0,1,230.64,41.62Zm.54.54a1.8,1.8,0,0,0,0,2.54l1.08,1.08a1.8,1.8,0,0,0,2.54,0l2.48-2.48a1.8,1.8,0,0,0,0-2.54l-1.08-1.08a1.8,1.8,0,0,0-2.54,0Z" style="fill:none"/></clipPath><clipPath id="clip-path-98"><path d="M228.4,49.09a.38.38,0,0,1-.54-.54l5.83-5.83a.38.38,0,1,1,.54.54Z" style="fill:none"/></clipPath></defs><title>icons_</title><path d="M-316.59,25.23h9.87a2.47,2.47,0,0,1,2.47,2.47,2.47,2.47,0,0,1-2.47,2.47h-9.87a2.47,2.47,0,0,1-2.47-2.47A2.47,2.47,0,0,1-316.59,25.23Z" style="fill:#4e555b;fill-rule:evenodd"/><g style="clip-path:url(#clip-path)"><rect x="-392.1" y="-36.95" width="499.44" height="683.03" style="fill:#4e555b"/></g><path d="M-299.81,25.23h18.75a2.47,2.47,0,0,1,2.47,2.47,2.47,2.47,0,0,1-2.47,2.47h-18.75a2.47,2.47,0,0,1-2.47-2.47A2.47,2.47,0,0,1-299.81,25.23Z" style="fill:#4e555b;fill-rule:evenodd"/><g style="clip-path:url(#clip-path-2)"><rect x="-392.1" y="-36.95" width="499.44" height="683.03" style="fill:#4e555b"/></g><rect x="-319.06" y="8.45" width="19.54" height="12.83" rx="3.95" ry="3.95" style="fill:#4e555b"/><g style="clip-path:url(#clip-path-3)"><rect x="-392.1" y="-36.95" width="499.44" height="683.03" style="fill:#4e555b"/></g><path d="M-293.89,9.44H-287a2.47,2.47,0,0,1,2.47,2.47A2.47,2.47,0,0,1-287,14.38h-6.91a2.47,2.47,0,0,1-2.47-2.47A2.47,2.47,0,0,1-293.89,9.44Z" style="fill:#4e555b;fill-rule:evenodd"/><g style="clip-path:url(#clip-path-4)"><rect x="-392.1" y="-36.95" width="499.44" height="683.03" style="fill:#4e555b"/></g><path d="M-282,17.34h5.92a2.47,2.47,0,0,1,2.47,2.47,2.47,2.47,0,0,1-2.47,2.47H-282a2.47,2.47,0,0,1-2.47-2.47A2.47,2.47,0,0,1-282,17.34Z" style="fill:#4e555b;fill-rule:evenodd"/><g style="clip-path:url(#clip-path-5)"><rect x="-392.1" y="-36.95" width="499.44" height="683.03" style="fill:#4e555b"/></g><path d="M-293.89,17.34H-289a2.47,2.47,0,0,1,2.47,2.47A2.47,2.47,0,0,1-289,22.27h-4.94a2.47,2.47,0,0,1-2.47-2.47A2.47,2.47,0,0,1-293.89,17.34Z" style="fill:#4e555b;fill-rule:evenodd"/><g style="clip-path:url(#clip-path-6)"><rect x="-392.1" y="-36.95" width="499.44" height="683.03" style="fill:#4e555b"/></g><path d="M-228.93,25.23h9.87a2.47,2.47,0,0,1,2.47,2.47,2.47,2.47,0,0,1-2.47,2.47h-9.87a2.47,2.47,0,0,1-2.47-2.47A2.47,2.47,0,0,1-228.93,25.23Z" style="fill:#577e9c;fill-rule:evenodd"/><g style="clip-path:url(#clip-path-7)"><rect x="-304.44" y="-36.95" width="499.44" height="683.03" style="fill:#577e9c"/></g><path d="M-212.15,25.23h18.75a2.47,2.47,0,0,1,2.47,2.47,2.47,2.47,0,0,1-2.47,2.47h-18.75a2.47,2.47,0,0,1-2.47-2.47A2.47,2.47,0,0,1-212.15,25.23Z" style="fill:#577e9c;fill-rule:evenodd"/><g style="clip-path:url(#clip-path-8)"><rect x="-304.44" y="-36.95" width="499.44" height="683.03" style="fill:#577e9c"/></g><rect x="-231.39" y="8.45" width="19.54" height="12.83" rx="3.95" ry="3.95" style="fill:#577e9c"/><g style="clip-path:url(#clip-path-9)"><rect x="-304.44" y="-36.95" width="499.44" height="683.03" style="fill:#577e9c"/></g><path d="M-206.23,9.44h6.91a2.47,2.47,0,0,1,2.47,2.47,2.47,2.47,0,0,1-2.47,2.47h-6.91a2.47,2.47,0,0,1-2.47-2.47A2.47,2.47,0,0,1-206.23,9.44Z" style="fill:#577e9c;fill-rule:evenodd"/><g style="clip-path:url(#clip-path-10)"><rect x="-304.44" y="-36.95" width="499.44" height="683.03" style="fill:#577e9c"/></g><path d="M-194.38,17.34h5.92A2.47,2.47,0,0,1-186,19.8a2.47,2.47,0,0,1-2.47,2.47h-5.92a2.47,2.47,0,0,1-2.47-2.47A2.47,2.47,0,0,1-194.38,17.34Z" style="fill:#577e9c;fill-rule:evenodd"/><g style="clip-path:url(#clip-path-11)"><rect x="-304.44" y="-36.95" width="499.44" height="683.03" style="fill:#577e9c"/></g><path d="M-206.23,17.34h4.94a2.47,2.47,0,0,1,2.47,2.47,2.47,2.47,0,0,1-2.47,2.47h-4.94a2.47,2.47,0,0,1-2.47-2.47A2.47,2.47,0,0,1-206.23,17.34Z" style="fill:#577e9c;fill-rule:evenodd"/><g style="clip-path:url(#clip-path-12)"><rect x="-304.44" y="-36.95" width="499.44" height="683.03" style="fill:#577e9c"/></g><path d="M-310.39,74.65a4.13,4.13,0,0,1,4.12-4.13h19.59a4.12,4.12,0,0,1,4.12,4.13V86a4.13,4.13,0,0,1-4.12,4.13h-19.59A4.12,4.12,0,0,1-310.39,86Z" style="fill:#4e555b;fill-rule:evenodd"/><g style="clip-path:url(#clip-path-13)"><rect x="-397.01" y="-52.19" width="521.76" height="713.55" style="fill:#4e555b"/></g><path d="M-222.72,74.65a4.13,4.13,0,0,1,4.12-4.13H-199a4.12,4.12,0,0,1,4.12,4.13V86A4.13,4.13,0,0,1-199,90.11H-218.6A4.12,4.12,0,0,1-222.72,86Z" style="fill:#577f9c;fill-rule:evenodd"/><g style="clip-path:url(#clip-path-14)"><rect x="-309.34" y="-52.19" width="521.76" height="713.55" style="fill:#577f9c"/></g><circle cx="-278.6" cy="193.98" r="7.1" style="fill:#464d54"/><path d="M-291.92,192a3.39,3.39,0,0,1-.94.25,1.6,1.6,0,0,0,.72-.87,3.36,3.36,0,0,1-1,.38,1.67,1.67,0,0,0-1.19-.49,1.61,1.61,0,0,0-1.64,1.57,1.56,1.56,0,0,0,0,.36,4.73,4.73,0,0,1-3.38-1.64,1.51,1.51,0,0,0-.22.79,1.55,1.55,0,0,0,.73,1.3,1.67,1.67,0,0,1-.74-.2v0a1.59,1.59,0,0,0,1.31,1.54,1.76,1.76,0,0,1-.43.05l-.31,0a1.64,1.64,0,0,0,1.53,1.09,3.39,3.39,0,0,1-2,.67l-.39,0a4.79,4.79,0,0,0,2.51.7,4.53,4.53,0,0,0,4.66-4.46v-.2A3.23,3.23,0,0,0-291.92,192Z" style="fill:#60666b;fill-rule:evenodd"/><circle cx="-275.5" cy="194.42" r="1.33" style="fill:#60666b"/><circle cx="-280.82" cy="197.08" r="1.33" style="fill:#60666b"/><path d="M-280.56,192.61a.44.44,0,0,1-.22-.59.44.44,0,0,1,.59-.22l5,2.27a.44.44,0,0,1,0,.79l-5.22,2.85a.44.44,0,0,1-.6-.18.44.44,0,0,1,.18-.6l4.44-2.42Z" style="fill:#60666b"/><circle cx="-190.94" cy="193.98" r="7.1" style="fill:#577f9c"/><path d="M-204.25,192a3.39,3.39,0,0,1-.94.25,1.6,1.6,0,0,0,.72-.87,3.36,3.36,0,0,1-1,.38,1.67,1.67,0,0,0-1.19-.49,1.61,1.61,0,0,0-1.64,1.57,1.56,1.56,0,0,0,0,.36,4.73,4.73,0,0,1-3.38-1.64,1.51,1.51,0,0,0-.22.79,1.55,1.55,0,0,0,.73,1.3,1.67,1.67,0,0,1-.74-.2v0a1.59,1.59,0,0,0,1.31,1.54,1.76,1.76,0,0,1-.43.05l-.31,0a1.64,1.64,0,0,0,1.53,1.09,3.39,3.39,0,0,1-2,.67l-.39,0a4.79,4.79,0,0,0,2.51.7,4.53,4.53,0,0,0,4.66-4.46v-.2A3.23,3.23,0,0,0-204.25,192Z" style="fill:#6a9ab7;fill-rule:evenodd"/><circle cx="-187.83" cy="194.42" r="1.33" style="fill:#6a9ab7"/><circle cx="-193.16" cy="197.08" r="1.33" style="fill:#6a9ab7"/><path d="M-192.9,192.61a.44.44,0,0,1-.22-.59.44.44,0,0,1,.59-.22l5,2.27a.44.44,0,0,1,0,.79l-5.22,2.85a.44.44,0,0,1-.6-.18.44.44,0,0,1,.18-.6l4.44-2.42Z" style="fill:#6a9ab7"/><rect x="-321.22" y="295.25" width="49.72" height="12.43" rx="4.14" ry="4.14" style="fill:#464d54"/><g style="clip-path:url(#clip-path-25)"><rect x="-395.8" y="-128.39" width="524.11" height="716.77" style="fill:#464d54"/></g><rect x="-318.68" y="297.32" width="16.57" height="8.29" rx="3.11" ry="3.11" style="fill:#3a4249"/><g style="clip-path:url(#clip-path-26)"><rect x="-395.8" y="-128.39" width="524.11" height="716.77" style="fill:#3a4249"/></g><path d="M-297.4,297.32h10.88a1.55,1.55,0,0,1,1.55,1.55,1.55,1.55,0,0,1-1.55,1.55H-297.4a1.55,1.55,0,0,1-1.55-1.55A1.55,1.55,0,0,1-297.4,297.32Z" style="fill:#585f65;fill-rule:evenodd"/><g style="clip-path:url(#clip-path-27)"><rect x="-395.8" y="-128.39" width="524.11" height="716.77" style="fill:#585f65"/></g><path d="M-286.62,302.5h6.32a1.55,1.55,0,0,1,1.55,1.55,1.55,1.55,0,0,1-1.55,1.55h-6.32a1.55,1.55,0,0,1-1.55-1.55A1.55,1.55,0,0,1-286.62,302.5Z" style="fill:#585f65;fill-rule:evenodd"/><g style="clip-path:url(#clip-path-28)"><rect x="-395.8" y="-128.39" width="524.11" height="716.77" style="fill:#585f65"/></g><path d="M-297.4,302.5h6.32a1.55,1.55,0,0,1,1.55,1.55,1.55,1.55,0,0,1-1.55,1.55h-6.32a1.55,1.55,0,0,1-1.55-1.55A1.55,1.55,0,0,1-297.4,302.5Z" style="fill:#585f65;fill-rule:evenodd"/><g style="clip-path:url(#clip-path-29)"><rect x="-395.8" y="-128.39" width="524.11" height="716.77" style="fill:#585f65"/></g><rect x="-321.22" y="308.95" width="49.72" height="12.43" rx="4.14" ry="4.14" style="fill:#464d54"/><g style="clip-path:url(#clip-path-30)"><rect x="-395.8" y="-114.69" width="524.11" height="716.77" style="fill:#464d54"/></g><rect x="-318.68" y="311.02" width="16.57" height="8.29" rx="3.11" ry="3.11" style="fill:#3a4249"/><g style="clip-path:url(#clip-path-31)"><rect x="-395.8" y="-114.69" width="524.11" height="716.77" style="fill:#3a4249"/></g><path d="M-297.4,311h10.88a1.55,1.55,0,0,1,1.55,1.55,1.55,1.55,0,0,1-1.55,1.55H-297.4a1.55,1.55,0,0,1-1.55-1.55A1.55,1.55,0,0,1-297.4,311Z" style="fill:#585f65;fill-rule:evenodd"/><g style="clip-path:url(#clip-path-32)"><rect x="-395.8" y="-114.69" width="524.11" height="716.77" style="fill:#585f65"/></g><path d="M-286.62,316.2h6.32a1.55,1.55,0,0,1,1.55,1.55,1.55,1.55,0,0,1-1.55,1.55h-6.32a1.55,1.55,0,0,1-1.55-1.55A1.55,1.55,0,0,1-286.62,316.2Z" style="fill:#585f65;fill-rule:evenodd"/><g style="clip-path:url(#clip-path-33)"><rect x="-395.8" y="-114.69" width="524.11" height="716.77" style="fill:#585f65"/></g><path d="M-297.4,316.2h6.32a1.55,1.55,0,0,1,1.55,1.55,1.55,1.55,0,0,1-1.55,1.55h-6.32a1.55,1.55,0,0,1-1.55-1.55A1.55,1.55,0,0,1-297.4,316.2Z" style="fill:#585f65;fill-rule:evenodd"/><g style="clip-path:url(#clip-path-34)"><rect x="-395.8" y="-114.69" width="524.11" height="716.77" style="fill:#585f65"/></g><rect x="-233.55" y="295.25" width="49.72" height="12.43" rx="4.14" ry="4.14" style="fill:#577f9c"/><g style="clip-path:url(#clip-path-35)"><rect x="-308.13" y="-128.39" width="524.11" height="716.77" style="fill:#577f9c"/></g><rect x="-231.01" y="297.32" width="16.57" height="8.29" rx="3.11" ry="3.11" style="fill:#6a9ab7"/><g style="clip-path:url(#clip-path-36)"><rect x="-308.13" y="-128.39" width="524.11" height="716.77" style="fill:#6a9ab7"/></g><path d="M-209.73,297.32h10.88a1.55,1.55,0,0,1,1.55,1.55,1.55,1.55,0,0,1-1.55,1.55h-10.88a1.55,1.55,0,0,1-1.55-1.55A1.55,1.55,0,0,1-209.73,297.32Z" style="fill:#6a9ab7;fill-rule:evenodd"/><g style="clip-path:url(#clip-path-37)"><rect x="-308.13" y="-128.39" width="524.11" height="716.77" style="fill:#6a9ab7"/></g><path d="M-199,302.5h6.32a1.55,1.55,0,0,1,1.55,1.55,1.55,1.55,0,0,1-1.55,1.55H-199a1.55,1.55,0,0,1-1.55-1.55A1.55,1.55,0,0,1-199,302.5Z" style="fill:#6a9ab7;fill-rule:evenodd"/><g style="clip-path:url(#clip-path-38)"><rect x="-308.13" y="-128.39" width="524.11" height="716.77" style="fill:#6a9ab7"/></g><path d="M-209.73,302.5h6.32a1.55,1.55,0,0,1,1.55,1.55,1.55,1.55,0,0,1-1.55,1.55h-6.32a1.55,1.55,0,0,1-1.55-1.55A1.55,1.55,0,0,1-209.73,302.5Z" style="fill:#6a9ab7;fill-rule:evenodd"/><g style="clip-path:url(#clip-path-39)"><rect x="-308.13" y="-128.39" width="524.11" height="716.77" style="fill:#6a9ab7"/></g><rect x="-233.55" y="308.95" width="49.72" height="12.43" rx="4.14" ry="4.14" style="fill:#577f9c"/><g style="clip-path:url(#clip-path-40)"><rect x="-308.13" y="-114.69" width="524.11" height="716.77" style="fill:#577f9c"/></g><rect x="-231.01" y="311.02" width="16.57" height="8.29" rx="3.11" ry="3.11" style="fill:#6a9ab7"/><g style="clip-path:url(#clip-path-41)"><rect x="-308.13" y="-114.69" width="524.11" height="716.77" style="fill:#6a9ab7"/></g><path d="M-209.73,311h10.88a1.55,1.55,0,0,1,1.55,1.55,1.55,1.55,0,0,1-1.55,1.55h-10.88a1.55,1.55,0,0,1-1.55-1.55A1.55,1.55,0,0,1-209.73,311Z" style="fill:#6a9ab7;fill-rule:evenodd"/><g style="clip-path:url(#clip-path-42)"><rect x="-308.13" y="-114.69" width="524.11" height="716.77" style="fill:#6a9ab7"/></g><path d="M-199,316.2h6.32a1.55,1.55,0,0,1,1.55,1.55,1.55,1.55,0,0,1-1.55,1.55H-199a1.55,1.55,0,0,1-1.55-1.55A1.55,1.55,0,0,1-199,316.2Z" style="fill:#6a9ab7;fill-rule:evenodd"/><g style="clip-path:url(#clip-path-43)"><rect x="-308.13" y="-114.69" width="524.11" height="716.77" style="fill:#6a9ab7"/></g><path d="M-209.73,316.2h6.32a1.55,1.55,0,0,1,1.55,1.55,1.55,1.55,0,0,1-1.55,1.55h-6.32a1.55,1.55,0,0,1-1.55-1.55A1.55,1.55,0,0,1-209.73,316.2Z" style="fill:#6a9ab7;fill-rule:evenodd"/><g style="clip-path:url(#clip-path-44)"><rect x="-308.13" y="-114.69" width="524.11" height="716.77" style="fill:#6a9ab7"/></g><path d="M-120.32,11.82h1.49c1.44,0,2.18-.5,2.18-1.58s-.72-1.44-2.18-1.44h-1.49Zm0-5h1.24c1.3,0,1.85-.54,1.85-1.39s-.59-1.26-1.84-1.26h-1.26Zm-2.65,7V2.13h4c2.43,0,4.32.67,4.32,2.92a2.72,2.72,0,0,1-1.53,2.54v.07a2.66,2.66,0,0,1,2.11,2.75c0,2.39-2,3.46-4.55,3.46Z" style="fill:#6f767c;fill-rule:evenodd"/><g style="clip-path:url(#clip-path-45)"><rect x="-487.35" y="-762.13" width="1149" height="2330" style="fill:#6f767c"/></g><path d="M270.1,11.82h1.49c1.44,0,2.18-.5,2.18-1.58s-.72-1.44-2.18-1.44H270.1Zm0-5h1.24c1.3,0,1.85-.54,1.85-1.39s-.59-1.26-1.84-1.26H270.1Zm-2.65,7V2.13h4c2.43,0,4.32.67,4.32,2.92a2.72,2.72,0,0,1-1.53,2.54v.07a2.66,2.66,0,0,1,2.11,2.75c0,2.39-2,3.46-4.55,3.46Z" style="fill:#577e9c;fill-rule:evenodd"/><g style="clip-path:url(#clip-path-46)"><rect x="-96.93" y="-762.13" width="1149" height="2330" style="fill:#577e9c"/></g><path d="M-97.56,9.54l1.38-1.38a2.76,2.76,0,0,1,3.91,0l.16.16a2.76,2.76,0,0,1,0,3.91l-1.38,1.38a2.76,2.76,0,0,1-3.91,0l-.16-.16A2.76,2.76,0,0,1-97.56,9.54Zm1,1a1.38,1.38,0,0,0,0,2l.16.16a1.38,1.38,0,0,0,2,0l1.38-1.38a1.38,1.38,0,0,0,0-2l-.16-.16a1.38,1.38,0,0,0-2,0Z" style="fill:#6f767c"/><g style="clip-path:url(#clip-path-47)"><rect x="-426.46" y="-626.05" width="945.51" height="1917.36" style="fill:#6f767c"/></g><path d="M-91.79,3.77l1.38-1.38a2.76,2.76,0,0,1,3.91,0l.16.16a2.76,2.76,0,0,1,0,3.91l-1.38,1.38a2.76,2.76,0,0,1-3.91,0l-.16-.16A2.76,2.76,0,0,1-91.79,3.77Zm1,1a1.38,1.38,0,0,0,0,2l.16.16a1.38,1.38,0,0,0,2,0l1.38-1.38a1.38,1.38,0,0,0,0-2l-.16-.16a1.38,1.38,0,0,0-2,0Z" style="fill:#6f767c"/><g style="clip-path:url(#clip-path-48)"><rect x="-426.46" y="-626.05" width="945.51" height="1917.36" style="fill:#6f767c"/></g><path d="M-93.86,10.89a.69.69,0,0,1-1,0,.69.69,0,0,1,0-1l5.05-5.05a.69.69,0,0,1,1,0,.69.69,0,0,1,0,1Z" style="fill:#6f767c"/><g style="clip-path:url(#clip-path-49)"><rect x="-426.46" y="-626.05" width="945.51" height="1917.36" style="fill:#6f767c"/></g><path d="M302.3,9.54l1.38-1.38a2.76,2.76,0,0,1,3.91,0l.16.16a2.76,2.76,0,0,1,0,3.91l-1.38,1.38a2.76,2.76,0,0,1-3.91,0l-.16-.16A2.76,2.76,0,0,1,302.3,9.54Zm1,1a1.38,1.38,0,0,0,0,2l.16.16a1.38,1.38,0,0,0,2,0l1.38-1.38a1.38,1.38,0,0,0,0-2l-.16-.16a1.38,1.38,0,0,0-2,0Z" style="fill:#577e9c"/><g style="clip-path:url(#clip-path-50)"><rect x="-26.6" y="-626.05" width="945.51" height="1917.36" style="fill:#577e9c"/></g><path d="M308.07,3.77l1.38-1.38a2.76,2.76,0,0,1,3.91,0l.16.16a2.76,2.76,0,0,1,0,3.91l-1.38,1.38a2.76,2.76,0,0,1-3.91,0l-.16-.16A2.76,2.76,0,0,1,308.07,3.77Zm1,1a1.38,1.38,0,0,0,0,2l.16.16a1.38,1.38,0,0,0,2,0l1.38-1.38a1.38,1.38,0,0,0,0-2l-.16-.16a1.38,1.38,0,0,0-2,0Z" style="fill:#577e9c"/><g style="clip-path:url(#clip-path-51)"><rect x="-26.6" y="-626.05" width="945.51" height="1917.36" style="fill:#577e9c"/></g><path d="M306,10.89a.69.69,0,0,1-1-1l5.05-5.05a.69.69,0,1,1,1,1Z" style="fill:#577e9c"/><g style="clip-path:url(#clip-path-52)"><rect x="-26.6" y="-626.05" width="945.51" height="1917.36" style="fill:#577e9c"/></g><path d="M-71.31,10.35a.74.74,0,0,1-1,0,.74.74,0,0,1,0-1c3.15-3.35,5.88-4.93,8.24-4.62S-60.36,6-60.07,7.78a.74.74,0,0,1-.6.85.74.74,0,0,1-.85-.6c-.17-1-1-1.62-2.82-1.85S-68.46,7.31-71.31,10.35Z" style="fill:#6f767c"/><g style="clip-path:url(#clip-path-53)"><rect x="-338" y="-588.07" width="847.1" height="1717.8" style="fill:#6f767c"/></g><path d="M-71.11,9.32l2.37.54a.74.74,0,0,1,.56.88.74.74,0,0,1-.88.56L-72,10.63a.74.74,0,0,1-.57-.72V5.42a.74.74,0,0,1,.74-.74.74.74,0,0,1,.74.74Z" style="fill:#6f767c"/><g style="clip-path:url(#clip-path-54)"><rect x="-338" y="-588.07" width="847.1" height="1717.8" style="fill:#6f767c"/></g><path d="M-38.93,10.35a.74.74,0,0,0,1,0,.74.74,0,0,0,0-1C-41,6-43.73,4.41-46.09,4.72S-49.88,6-50.17,7.78a.74.74,0,0,0,.6.85.74.74,0,0,0,.85-.6c.17-1,1-1.62,2.82-1.85S-41.78,7.31-38.93,10.35Z" style="fill:#6f767c"/><g style="clip-path:url(#clip-path-55)"><rect x="-619.34" y="-588.07" width="847.1" height="1717.8" style="fill:#6f767c"/></g><path d="M-39.12,9.32l-2.37.54a.74.74,0,0,0-.56.88.74.74,0,0,0,.88.56l2.95-.67a.74.74,0,0,0,.57-.72V5.42a.74.74,0,0,0-.74-.74.74.74,0,0,0-.74.74Z" style="fill:#6f767c"/><g style="clip-path:url(#clip-path-56)"><rect x="-619.34" y="-588.07" width="847.1" height="1717.8" style="fill:#6f767c"/></g><path d="M384.9,10.35a.74.74,0,0,0,1.07-1c-3.15-3.35-5.88-4.93-8.24-4.62S373.95,6,373.65,7.78A.74.74,0,1,0,375.1,8c.17-1,1-1.62,2.82-1.85S382,7.31,384.9,10.35Z" style="fill:#577e9c"/><g style="clip-path:url(#clip-path-57)"><rect x="-195.52" y="-588.07" width="847.1" height="1717.8" style="fill:#577e9c"/></g><path d="M384.7,9.32l-2.37.54a.74.74,0,0,0,.33,1.44l2.95-.67a.74.74,0,0,0,.57-.72V5.42a.74.74,0,1,0-1.47,0Z" style="fill:#577e9c"/><g style="clip-path:url(#clip-path-58)"><rect x="-195.52" y="-588.07" width="847.1" height="1717.8" style="fill:#577e9c"/></g><path d="M-22.52,3.28h7V5.62h-.33a2.12,2.12,0,0,0-.94-1.69,2.9,2.9,0,0,0-1.3-.27v6.1a1.18,1.18,0,0,0,.22.85,1.44,1.44,0,0,0,.93.21v.29h-4.13v-.29a1.36,1.36,0,0,0,.9-.21A1.18,1.18,0,0,0-20,9.76V3.66a3,3,0,0,0-1.3.27,2,2,0,0,0-.94,1.69h-.33Z" style="fill:#6f767c;fill-rule:evenodd"/><g style="clip-path:url(#clip-path-59)"><rect x="-255.94" y="-538.18" width="739.9" height="1500.4" style="fill:#6f767c"/></g><path d="M-15.1,10.2l.51-.51a.64.64,0,0,1,.91,0,.64.64,0,0,1,0,.91l-.51.51.51.51a.64.64,0,0,1,0,.91.64.64,0,0,1-.91,0L-15.1,12l-.51.51a.64.64,0,0,1-.91,0,.64.64,0,0,1,0-.91l.51-.51-.51-.51a.64.64,0,0,1,0-.91.64.64,0,0,1,.91,0Z" style="fill:#6f767c"/><g style="clip-path:url(#clip-path-60)"><rect x="-255.94" y="-538.18" width="739.9" height="1500.4" style="fill:#6f767c"/></g><path d="M11.54,9.52q-.19-.47-.42-.94t-.49-.94V9.52h-.51V6.69h.45q.13.2.26.44l.25.47.22.45.18.38V6.69H12V9.52ZM8.94,7.24l-.08.3-.07.28-.06.28-.06.29h.55l-.05-.29q0-.14-.06-.28L9,7.55Zm.5,2.28-.13-.65H8.56l-.13.65H7.84Q8,8.69,8.25,8l.4-1.31h.61q.2.62.4,1.32T10,9.52ZM6.77,7.15H6.5v.91h.23A.65.65,0,0,0,7.13,8a.44.44,0,0,0,.14-.37.41.41,0,0,0-.13-.35A.58.58,0,0,0,6.77,7.15Zm-.06-.49a1.38,1.38,0,0,1,.84.22.84.84,0,0,1,.3.72.86.86,0,0,1-.3.73,1.38,1.38,0,0,1-.85.23H6.5v1H5.93V6.73l.19,0,.21,0h.38ZM4.63,9.11a.79.79,0,0,0,.24,0A.37.37,0,0,0,5,9a.28.28,0,0,0,.08-.12.45.45,0,0,0,0-.13.26.26,0,0,0-.05-.16.51.51,0,0,0-.13-.12l-.17-.1-.19-.08L4.3,8.19A1.05,1.05,0,0,1,4.05,8a.75.75,0,0,1-.19-.23.7.7,0,0,1-.07-.34.78.78,0,0,1,.26-.62,1,1,0,0,1,.71-.22,1.56,1.56,0,0,1,.45.06,1.73,1.73,0,0,1,.33.13l-.16.43-.25-.11a1,1,0,0,0-.32,0q-.45,0-.45.32a.24.24,0,0,0,0,.14.47.47,0,0,0,.12.11l.16.08.18.07.28.11a1,1,0,0,1,.27.16.81.81,0,0,1,.2.26.85.85,0,0,1,.08.39.76.76,0,0,1-.26.61,1.2,1.2,0,0,1-.78.22,1.71,1.71,0,0,1-.56-.08,1.82,1.82,0,0,1-.32-.14l.16-.46A1.85,1.85,0,0,0,4.21,9,1.2,1.2,0,0,0,4.63,9.11Z" style="fill:#6f767c;fill-rule:evenodd"/><g style="clip-path:url(#clip-path-61)"><rect x="-197.69" y="-461.73" width="648.47" height="1315.01" style="fill:#6f767c"/></g><path d="M2.14,8l1,1.61a.51.51,0,1,1-.86.54L1.11,8.31a.51.51,0,0,1,0-.54l1.24-2a.51.51,0,1,1,.86.54Z" style="fill:#6f767c"/><g style="clip-path:url(#clip-path-62)"><rect x="-197.69" y="-461.73" width="648.47" height="1315.01" style="fill:#6f767c"/></g><path d="M12.84,9.65a.51.51,0,0,0,.86.54l1.19-1.88a.51.51,0,0,0,0-.54l-1.24-2a.51.51,0,0,0-.86.54L13.86,8Z" style="fill:#6f767c"/><g style="clip-path:url(#clip-path-63)"><rect x="-197.69" y="-461.73" width="648.47" height="1315.01" style="fill:#6f767c"/></g><path d="M-102.77,43.46a5.16,5.16,0,0,0-2-2,10.35,10.35,0,0,0-2.95-1.09A17.74,17.74,0,0,0-111.4,40a7.43,7.43,0,0,0-2.81.53,6.76,6.76,0,0,0-2.13,1.3,7.12,7.12,0,0,0-1.3,1.59,2.73,2.73,0,0,0-.44,1.31,2.89,2.89,0,0,0,.59,1.91,2,2,0,0,0,1.67.68,4.38,4.38,0,0,1,2.21.43,1.81,1.81,0,0,1,.83,1.67,2.44,2.44,0,0,0,.77,1.85,2.68,2.68,0,0,0,1.94.74,9.26,9.26,0,0,0,6-1.68,4.9,4.9,0,0,0,2-3.9A6,6,0,0,0-102.77,43.46Zm.7-.4a6.79,6.79,0,0,1,.82,3.42A5.69,5.69,0,0,1-103.57,51a10,10,0,0,1-6.49,1.86,3.48,3.48,0,0,1-2.5-1,3.24,3.24,0,0,1-1-2.42,1,1,0,0,0-.44-1,3.72,3.72,0,0,0-1.79-.32,2.83,2.83,0,0,1-2.29-1,3.67,3.67,0,0,1-.78-2.42,3.48,3.48,0,0,1,.55-1.71,7.9,7.9,0,0,1,1.44-1.77,7.54,7.54,0,0,1,2.38-1.46,8.23,8.23,0,0,1,3.11-.59,18.53,18.53,0,0,1,3.86.37,11.15,11.15,0,0,1,3.17,1.18A6,6,0,0,1-102.08,43.06Z" style="fill:#fff"/><g style="clip-path:url(#clip-path-64)"><rect x="-526.9" y="-195.8" width="920.16" height="1865.94" style="fill:#fff"/></g><path d="M-115.67,46.45A1.56,1.56,0,0,1-116.8,46a1.56,1.56,0,0,1-.47-1.13,1.56,1.56,0,0,1,.47-1.13,1.56,1.56,0,0,1,1.13-.47,1.56,1.56,0,0,1,1.13.47,1.56,1.56,0,0,1,.47,1.13,1.56,1.56,0,0,1-.47,1.13A1.56,1.56,0,0,1-115.67,46.45Zm.57-1a.76.76,0,0,0,.23-.57.76.76,0,0,0-.23-.57.76.76,0,0,0-.57-.23.76.76,0,0,0-.57.23.76.76,0,0,0-.23.57.76.76,0,0,0,.23.57.76.76,0,0,0,.57.23A.76.76,0,0,0-115.1,45.42Z" style="fill:#fff"/><g style="clip-path:url(#clip-path-65)"><rect x="-526.9" y="-195.8" width="920.16" height="1865.94" style="fill:#fff"/></g><path d="M-112.49,44a1.52,1.52,0,0,1-1.13-.47,1.58,1.58,0,0,1-.45-1.13,1.58,1.58,0,0,1,.45-1.13,1.52,1.52,0,0,1,1.13-.47,1.59,1.59,0,0,1,1.14.47,1.55,1.55,0,0,1,.48,1.14,1.55,1.55,0,0,1-.48,1.14A1.59,1.59,0,0,1-112.49,44Zm0-.8a.79.79,0,0,0,.58-.24.75.75,0,0,0,.24-.56.75.75,0,0,0-.24-.56.79.79,0,0,0-.58-.24.72.72,0,0,0-.56.23.78.78,0,0,0-.23.57A.78.78,0,0,0-113,43,.72.72,0,0,0-112.49,43.25Z" style="fill:#fff"/><g style="clip-path:url(#clip-path-66)"><rect x="-526.9" y="-195.8" width="920.16" height="1865.94" style="fill:#fff"/></g><path d="M-108.94,50.79a1.56,1.56,0,0,1-1.13.47,1.56,1.56,0,0,1-1.13-.47,1.56,1.56,0,0,1-.47-1.13,1.56,1.56,0,0,1,.47-1.13,1.56,1.56,0,0,1,1.13-.47,1.56,1.56,0,0,1,1.13.47,1.56,1.56,0,0,1,.47,1.13A1.56,1.56,0,0,1-108.94,50.79Zm-.33-1.13a.76.76,0,0,0-.24-.56.76.76,0,0,0-.56-.24.76.76,0,0,0-.56.24.76.76,0,0,0-.24.56.76.76,0,0,0,.24.56.76.76,0,0,0,.56.24.76.76,0,0,0,.56-.24A.76.76,0,0,0-109.26,49.66Z" style="fill:#fff"/><g style="clip-path:url(#clip-path-67)"><rect x="-526.9" y="-195.8" width="920.16" height="1865.94" style="fill:#fff"/></g><path d="M-108.46,44a1.56,1.56,0,0,1-1.13-.47,1.56,1.56,0,0,1-.47-1.13,1.56,1.56,0,0,1,.47-1.13,1.56,1.56,0,0,1,1.13-.47,1.56,1.56,0,0,1,1.13.47,1.56,1.56,0,0,1,.47,1.13,1.56,1.56,0,0,1-.47,1.13A1.56,1.56,0,0,1-108.46,44Zm.57-1a.76.76,0,0,0,.23-.57.76.76,0,0,0-.23-.57.76.76,0,0,0-.57-.23.76.76,0,0,0-.57.23.76.76,0,0,0-.23.57A.76.76,0,0,0-109,43a.76.76,0,0,0,.57.23A.76.76,0,0,0-107.9,43Z" style="fill:#fff"/><g style="clip-path:url(#clip-path-68)"><rect x="-526.9" y="-195.8" width="920.16" height="1865.94" style="fill:#fff"/></g><path d="M-104.13,45.18a1.56,1.56,0,0,1-1.13.47,1.56,1.56,0,0,1-1.13-.47,1.56,1.56,0,0,1-.47-1.13,1.56,1.56,0,0,1,.47-1.13,1.56,1.56,0,0,1,1.13-.47,1.56,1.56,0,0,1,1.13.47,1.56,1.56,0,0,1,.47,1.13A1.56,1.56,0,0,1-104.13,45.18Zm-.33-1.13a.76.76,0,0,0-.23-.57.76.76,0,0,0-.57-.23.76.76,0,0,0-.57.23.76.76,0,0,0-.23.57.76.76,0,0,0,.23.57.76.76,0,0,0,.57.23.76.76,0,0,0,.57-.23A.76.76,0,0,0-104.46,44Z" style="fill:#fff"/><g style="clip-path:url(#clip-path-69)"><rect x="-520.68" y="-199.55" width="920.16" height="1865.94" style="fill:#fff"/></g><path d="M-115.4,51.08l-.13-1-2.77.4v.47Zm-3.7.58V49.74l4.27-.61.35,2.8Z" style="fill:#fff"/><g style="clip-path:url(#clip-path-70)"><rect x="-526.9" y="-195.8" width="920.16" height="1865.94" style="fill:#fff"/></g><path d="M-121.91,50.79l.62.31a5.86,5.86,0,0,0,.8.3c.68.2,1.06.12,1.19-.23.41-1.07-.59-2-2.3-1.66a3.34,3.34,0,0,0-2,1A3.43,3.43,0,0,1-121.91,50.79Zm.15-2.06c2.28-.48,3.86,1,3.21,2.73-.32.85-1.13,1-2.16.71a6.63,6.63,0,0,1-.91-.34l-.66-.32a3.44,3.44,0,0,0-1.91-.17.4.4,0,0,1-.43-.5C-124.33,49.75-123.35,49.06-121.77,48.72Z" style="fill:#fff"/><g style="clip-path:url(#clip-path-71)"><rect x="-526.9" y="-195.8" width="920.16" height="1865.94" style="fill:#fff"/></g><path d="M-72.8,48.13a2,2,0,0,1-2,2,2,2,0,0,1-2-2,2,2,0,0,1,2-2A2,2,0,0,1-72.8,48.13Zm-.64,0a1.4,1.4,0,0,0-1.4-1.4,1.4,1.4,0,0,0-1.4,1.4,1.4,1.4,0,0,0,1.4,1.4A1.4,1.4,0,0,0-73.44,48.13Zm2.81-.64h-.46a.7.7,0,0,1-.62-.46,3.21,3.21,0,0,0-.14-.33.69.69,0,0,1,.11-.76l.33-.33a.27.27,0,0,0,0-.38l-.53-.53a.26.26,0,0,0-.19-.08.26.26,0,0,0-.19.08l-.33.33a.65.65,0,0,1-.46.18.69.69,0,0,1-.3-.07l-.33-.14a.69.69,0,0,1-.46-.62v-.46a.27.27,0,0,0-.27-.27h-.75a.27.27,0,0,0-.27.27v.46a.69.69,0,0,1-.46.62l-.33.14a.7.7,0,0,1-.3.07A.65.65,0,0,1-77,45l-.33-.33a.26.26,0,0,0-.19-.08.26.26,0,0,0-.19.08l-.53.53a.26.26,0,0,0-.08.19.26.26,0,0,0,.08.19l.33.33a.69.69,0,0,1,.11.76A3.29,3.29,0,0,0-78,47a.7.7,0,0,1-.62.46h-.46a.27.27,0,0,0-.27.27v.75a.27.27,0,0,0,.27.27h.46a.69.69,0,0,1,.62.46,3.31,3.31,0,0,0,.14.33.69.69,0,0,1-.11.76l-.33.33a.27.27,0,0,0,0,.38l.53.53a.26.26,0,0,0,.19.08.26.26,0,0,0,.19-.08l.33-.33a.65.65,0,0,1,.46-.18.69.69,0,0,1,.3.07l.33.14a.7.7,0,0,1,.46.62v.46a.27.27,0,0,0,.27.27h.75a.27.27,0,0,0,.27-.27v-.46a.69.69,0,0,1,.46-.62l.33-.14a.69.69,0,0,1,.3-.07.65.65,0,0,1,.46.18l.33.33a.26.26,0,0,0,.19.08.26.26,0,0,0,.19-.08l.53-.53a.27.27,0,0,0,0-.38l-.33-.33a.69.69,0,0,1-.11-.76,3.19,3.19,0,0,0,.14-.33.7.7,0,0,1,.62-.46h.46a.27.27,0,0,0,.27-.27v-.75A.27.27,0,0,0-70.63,47.49Zm-.64-1.07a3.84,3.84,0,0,1,.17.4s0,0,0,0h.46a.91.91,0,0,1,.91.91v.75a.91.91,0,0,1-.91.91h-.46s0,0,0,0a3.82,3.82,0,0,1-.17.4s0,0,0,0l.33.33a.91.91,0,0,1,0,1.28l-.53.53a.9.9,0,0,1-.64.27.9.9,0,0,1-.64-.27l-.33-.33h0l-.4.17s0,0,0,0v.46a.91.91,0,0,1-.91.91h-.75a.91.91,0,0,1-.91-.91v-.46s0,0,0,0l-.4-.17s0,0,0,0l-.33.33a.9.9,0,0,1-.64.27.9.9,0,0,1-.64-.27l-.53-.53a.91.91,0,0,1,0-1.28l.33-.33s0,0,0,0a4,4,0,0,1-.17-.4s0,0,0,0h-.46a.91.91,0,0,1-.91-.91v-.75a.91.91,0,0,1,.91-.91h.46s0,0,0,0a3.92,3.92,0,0,1,.17-.4s0,0,0,0l-.33-.33a.9.9,0,0,1-.27-.64.9.9,0,0,1,.27-.64l.53-.53a.9.9,0,0,1,.64-.27.9.9,0,0,1,.64.27l.33.33h0l.4-.17s0,0,0,0v-.46a.91.91,0,0,1,.91-.91h.75a.91.91,0,0,1,.91.91v.46s0,0,0,0l.4.17s0,0,0,0l.33-.33a.9.9,0,0,1,.64-.26.9.9,0,0,1,.64.27l.53.53a.91.91,0,0,1,0,1.28l-.33.33S-71.28,46.41-71.27,46.42Z" style="fill:#fff"/><path d="M-79.64,41.74a1,1,0,0,1-1,1,1,1,0,0,1-1-1,1,1,0,0,1,1-1A1,1,0,0,1-79.64,41.74Zm1.13.73a.11.11,0,0,1,.08-.07h.27a.45.45,0,0,0,.45-.45v-.43a.45.45,0,0,0-.45-.45h-.27a.11.11,0,0,1-.08-.07,2.24,2.24,0,0,0-.09-.22.11.11,0,0,1,0-.1l.19-.19a.45.45,0,0,0,0-.64l-.31-.31a.45.45,0,0,0-.32-.13.45.45,0,0,0-.32.13l-.19.19-.06,0h0l-.22-.09a.11.11,0,0,1-.07-.08v-.27a.45.45,0,0,0-.45-.45h-.43a.45.45,0,0,0-.45.45v.27a.11.11,0,0,1-.07.08l-.22.09h0l-.06,0-.19-.19a.45.45,0,0,0-.32-.13.45.45,0,0,0-.32.13l-.31.31a.45.45,0,0,0,0,.64l.19.19a.11.11,0,0,1,0,.1,2.15,2.15,0,0,0-.09.22.11.11,0,0,1-.08.07H-83a.45.45,0,0,0-.45.45V42a.45.45,0,0,0,.45.45h.26a.11.11,0,0,1,.08.07,2.16,2.16,0,0,0,.09.22.11.11,0,0,1,0,.1l-.19.19a.45.45,0,0,0-.13.32.45.45,0,0,0,.13.32l.31.31a.45.45,0,0,0,.32.13.45.45,0,0,0,.32-.13l.19-.19.06,0h0l.22.09a.11.11,0,0,1,.07.08v.27a.45.45,0,0,0,.45.45h.43a.45.45,0,0,0,.45-.45V43.9a.11.11,0,0,1,.07-.08l.22-.09h0l.06,0,.19.19a.45.45,0,0,0,.32.13.45.45,0,0,0,.32-.13l.31-.31a.45.45,0,0,0,0-.64l-.19-.19a.11.11,0,0,1,0-.1A2.29,2.29,0,0,0-78.51,42.47Z" style="fill:#626b71;fill-rule:evenodd"/><g style="clip-path:url(#clip-path-73)"><rect x="-408.27" y="-181.08" width="734.63" height="1489.72" style="fill:#626b71"/></g></svg>