<svg id="Layer_1" data-name="Layer 1" xmlns="http://www.w3.org/2000/svg" width="54.96" height="62.81" viewBox="0 0 54.96 62.81"><title>icons</title><rect x="1.31" y="45.02" width="52.34" height="6.05" rx="3.02" ry="3.02" style="fill:#fff"/><rect x="1.31" y="55.24" width="52.34" height="6.05" rx="3.02" ry="3.02" style="fill:#fff"/><path d="M41.12,24.59a3,3,0,0,0-4.28,0L30.5,30.93V4.55a3,3,0,0,0-6,0V31.46l-6.77-6.77a3,3,0,0,0-4.28,0h0a3,3,0,0,0,0,4.28l11.5,11.5a3,3,0,0,0,2.36.84c.07,0,.13,0,.21,0a3,3,0,0,0,2.34-1.18l11.3-11.3A3,3,0,0,0,41.12,24.59Z" style="fill:#fff"/></svg>